<svg version="1.1" xmlns="http://www.w3.org/2000/svg" xmlns:xlink="http://www.w3.org/1999/xlink" x="0px" y="0px" viewBox="0 0 640 1657" enable-background="new 0 0 640 1657" xml:space="preserve">
<g>
    <animateTransform attributeName="transform" type="translate" values="0 0;-640 0" fill="freeze" begin="click+.5s" dur=".5s"></animateTransform>
    <g>
      <path fill="#FFFFFF" d="M590.609,842.641c0,12.078-9.789,21.867-21.867,21.867H71.257c-12.076,0-21.867-9.789-21.867-21.867V276.275c0-12.077,9.791-21.867,21.867-21.867h497.485c12.078,0,21.867,9.791,21.867,21.867V842.641z">
      </path><circle data-fjh="glanimate" fill="#FFFFFF" cx="320.729" cy="256.139" r="42.823"></circle>
      <path fill="#FFFFFF" d="M285.332,231.994c-8.838,14.442-12.619,22.414-37.357,22.414l31.252,0.046L285.332,231.994z">
      </path>
      <path fill="#FFFFFF" d="M356.219,232.085c8.838,14.442,12.619,22.414,37.357,22.414l-31.252,0.046L356.219,232.085z">
      </path>
    </g>
    <circle data-fjh="glanimate" fill="none" stroke="#24303B" stroke-width="7" stroke-miterlimit="10" cx="320.911" cy="257.048" r="39.362"></circle>
    <g>
      <rect data-fjh="glanimate" x="94.765" y="383.427" fill="none" width="448.284" height="67.789">
      </rect>
      <path fill="#24303B" stroke="#24303B" stroke-miterlimit="10" d="M120.196,387.948c1.01,0.882,1.515,2.068,1.515,3.56c0,1.476-0.569,2.822-1.708,4.041c-0.562,0.594-1.748,1.508-3.56,2.742c-2.438,1.652-3.793,3.144-4.065,4.475h9.357v1.347h-11.161c0-1.476,0.569-2.839,1.708-4.089c0.705-0.802,1.908-1.788,3.607-2.959c1.443-1.026,2.414-1.788,2.911-2.285c0.946-1.026,1.419-2.125,1.419-3.296c0-1.138-0.353-2.021-1.059-2.646c-0.689-0.625-1.627-0.938-2.814-0.938c-1.25,0-2.236,0.418-2.958,1.251c-0.77,0.834-1.154,2.053-1.154,3.656h-1.492c0-1.924,0.529-3.439,1.588-4.546c1.011-1.106,2.357-1.66,4.041-1.66C117.927,386.6,119.201,387.049,120.196,387.948z">
      </path>
      <path fill="#24303B" stroke="#24303B" stroke-miterlimit="10" d="M129.745,402.043c0.241,0.208,0.361,0.497,0.361,0.865c0,0.321-0.129,0.61-0.385,0.866c-0.257,0.225-0.538,0.337-0.843,0.337c-0.353,0-0.642-0.12-0.865-0.36c-0.241-0.241-0.361-0.521-0.361-0.843c0-0.368,0.12-0.657,0.361-0.865c0.208-0.225,0.497-0.337,0.865-0.337C129.231,401.707,129.521,401.819,129.745,402.043z">
      </path>
      <path fill="#24303B" stroke="#24303B" stroke-miterlimit="10" d="M142.35,400.239c-1.556,2.149-3.496,4.05-5.821,5.701l-0.817-1.082c2.245-1.523,4.145-3.344,5.7-5.461L142.35,400.239z M145.861,384.387c0.369,0.754,0.762,1.708,1.179,2.862h9.982v1.228h-21.216v-1.228h9.91c-0.32-0.897-0.713-1.779-1.179-2.646L145.861,384.387z M138.982,391.195h14.889v6.351h-6.711v6.711c0,1.331-0.665,1.996-1.996,1.996h-2.574l-0.288-1.251c1.122,0.064,1.924,0.097,2.405,0.097c0.77,0,1.154-0.394,1.154-1.179v-6.374h-6.879V391.195z M152.572,396.27v-3.801h-12.291v3.801H152.572z M151.418,399.397c2.213,1.797,4.098,3.641,5.652,5.532l-0.962,0.963c-1.411-1.828-3.264-3.713-5.557-5.653L151.418,399.397z">
      </path>
      <path fill="#24303B" stroke="#24303B" stroke-miterlimit="10" d="M168.856,399.397c-1.619,2.229-3.616,4.17-5.989,5.821l-0.794-1.059c2.325-1.587,4.282-3.447,5.869-5.58L168.856,399.397z M162.819,387.563h5.989c0.577-1.267,1.042-2.374,1.396-3.32l1.322,0.289c-0.4,1.059-0.834,2.068-1.299,3.031h12.484v1.299h-13.109c-1.235,2.453-2.59,4.57-4.065,6.35h7.192v-3.752h1.274v3.752h7.746v1.179h-7.746v7.962c0,1.363-0.682,2.045-2.044,2.045h-2.502l-0.265-1.251c1.059,0.064,1.828,0.097,2.31,0.097c0.817,0,1.227-0.401,1.227-1.203v-7.649h-8.563l-0.313-1.106c1.571-1.684,3.015-3.824,4.33-6.422h-5.364V387.563z M177.997,398.58c2.245,1.973,4.105,3.913,5.581,5.821l-0.938,0.938c-1.315-1.828-3.151-3.801-5.508-5.917L177.997,398.58z">
      </path>
      <path fill="#24303B" stroke="#24303B" stroke-miterlimit="10" d="M199.887,384.772c2.342,2.919,5.765,5.34,10.271,7.265l-0.722,1.082c-4.17-1.779-7.529-4.145-10.079-7.096c-2.822,2.982-6.197,5.364-10.126,7.145l-0.722-1.059c4.169-1.893,7.608-4.338,10.318-7.337H199.887z M193.104,391.363h12.509v1.179h-5.605v3.897h8.732v1.227h-8.732v6.855h3.007c0.882-1.571,1.66-3.336,2.334-5.292l1.179,0.457c-0.658,1.86-1.388,3.472-2.189,4.835h5.244v1.251H189.11v-1.251h5.22c-0.577-1.684-1.283-3.239-2.116-4.667l1.179-0.433c0.833,1.411,1.571,3.111,2.213,5.1h3.103v-6.855h-8.756v-1.227h8.756v-3.897h-5.604V391.363z">
      </path>
      <path fill="#24303B" stroke="#24303B" stroke-miterlimit="10" d="M215.161,385.566h11.281v1.203h-11.281V385.566z M222.617,406.3l-0.313-1.178l1.756,0.071c0.497,0,0.746-0.232,0.746-0.697v-8.082h-8.034v10.03h-1.154v-11.161h10.367v9.453c0,1.043-0.514,1.563-1.54,1.563H222.617z M216.604,388.621h8.419v4.955h-8.419V388.621z M223.845,392.518v-2.814h-6.063v2.814H223.845z M217.782,400.672h3.32c0.496-1.091,0.905-2.213,1.227-3.368l0.962,0.361c-0.385,1.187-0.778,2.188-1.179,3.007h1.708v1.034h-2.502v4.474h-1.106v-4.474h-2.43V400.672z M219.082,397.521c0.448,0.754,0.857,1.636,1.227,2.646l-0.891,0.241c-0.336-0.914-0.745-1.78-1.227-2.598L219.082,397.521z M227.332,388.885h3.512v-4.281h1.228v4.281h3.512v9.237h-3.512v5.869c0.801-0.16,1.707-0.369,2.718-0.626c-0.321-1.122-0.666-2.172-1.034-3.15l1.034-0.337c0.722,1.844,1.339,3.881,1.853,6.109l-1.107,0.289l-0.433-1.78c-2.39,0.593-5.003,1.106-7.842,1.54l-0.288-1.228c1.347-0.177,2.638-0.369,3.872-0.577v-6.109h-3.512V388.885z M230.893,396.967v-6.927h-2.406v6.927H230.893z M234.452,396.967v-6.927h-2.43v6.927H234.452z">
      </path>
      <path fill="#24303B" stroke="#24303B" stroke-miterlimit="10" d="M247.104,386.672v15.587h-3.633v2.237h-1.179v-17.824H247.104z M243.472,401.129h2.478v-13.303h-2.478V401.129z M248.403,391.147h1.804v-4.21h-1.684v-1.202h6.422c0,9.124-0.104,14.817-0.313,17.078c-0.192,2.213-1.01,3.319-2.453,3.319l-1.396-0.048l-0.313-1.155c0.577,0.049,1.074,0.072,1.491,0.072c0.866,0,1.371-0.762,1.516-2.285c0.096-0.833,0.168-2.461,0.217-4.883h-2.67c-0.481,3.576-1.476,6.366-2.983,8.371l-0.938-0.794c1.379-1.764,2.301-4.289,2.766-7.577h-1.516v-1.202h1.66c0.112-1.331,0.177-2.606,0.192-3.825v-0.48h-1.804V391.147z M253.719,396.631l0.024-4.306h-2.405v0.48c-0.017,1.219-0.081,2.494-0.192,3.825H253.719z M253.743,391.147l0.024-4.21h-2.43v4.21H253.743z M256.967,385.663h5.652v0.986c-0.417,2.325-0.906,4.618-1.468,6.879c1.155,2.405,1.756,4.49,1.805,6.254c0,1.123-0.192,1.917-0.577,2.382c-0.546,0.642-1.483,0.962-2.814,0.962l-0.409-1.251c0.481,0.049,0.882,0.072,1.203,0.072c0.465-0.048,0.825-0.225,1.082-0.529c0.208-0.368,0.313-0.914,0.313-1.636c0-1.747-0.585-3.768-1.756-6.062c0.642-2.518,1.122-4.818,1.443-6.903h-3.296v19.58h-1.178V385.663z">
      </path>
      <path fill="#24303B" stroke="#24303B" stroke-miterlimit="10" d="M268.151,385.758h21.119v1.275h-6.639v4.161h5.388v12.893c0,1.428-0.642,2.142-1.924,2.142h-2.454l-0.36-1.251l2.357,0.048c0.722,0,1.082-0.401,1.082-1.203v-11.401h-4.138c-0.063,0.979-0.12,1.716-0.168,2.213c1.203,1.86,2.382,3.873,3.536,6.038l-0.794,1.179c-1.171-2.518-2.157-4.458-2.959-5.821c-0.545,2.967-1.619,5.3-3.223,7l-0.986-0.843c2.021-2.116,3.143-5.371,3.367-9.766h-5.46c-0.048,0.834-0.137,1.7-0.265,2.598c0.93,1.251,1.908,2.711,2.935,4.378l-0.722,1.059c-0.962-1.812-1.78-3.207-2.453-4.186c-0.578,2.598-1.563,4.667-2.959,6.206l-0.986-0.866c1.908-2.036,2.982-5.1,3.224-9.188h-3.97v13.951h-1.299v-15.178h5.316l0.024-0.626v-3.535h-6.591V385.758z M275.944,391.195h5.46v-4.161h-5.436v3.849L275.944,391.195z">
      </path>
      <path fill="#24303B" stroke="#24303B" stroke-miterlimit="10" d="M305.771,384.532c2.021,3.384,5.516,6.366,10.487,8.948l-0.77,1.154c-4.619-2.373-8.059-5.323-10.319-8.852c-2.727,3.864-6.166,6.863-10.319,8.996l-0.77-1.179c4.538-2.325,8.034-5.348,10.487-9.068H305.771z M304.521,391.58h1.299v14.865h-1.299V391.58z">
      </path>
      <path fill="#24303B" stroke="#24303B" stroke-miterlimit="10" d="M325.206,391.315h12.772v1.203c-1.651,1.17-3.455,2.269-5.412,3.295v1.973h9.646v1.251h-9.646v5.532c0,1.203-0.617,1.804-1.852,1.804h-2.935l-0.337-1.227c1.154,0.032,2.093,0.048,2.814,0.048c0.689,0,1.034-0.353,1.034-1.058v-5.1h-10.223v-1.251h10.223v-2.55c2.133-1.106,3.72-2.013,4.763-2.718h-10.849V391.315z M341.731,387.129v5.147h-1.323v-3.896h-17.56v3.896h-1.322v-5.147h9.669c-0.305-0.946-0.665-1.788-1.082-2.525l1.443-0.24c0.337,0.721,0.689,1.644,1.059,2.766H341.731z">
      </path>
      <path fill="#24303B" stroke="#24303B" stroke-miterlimit="10" d="M355.587,388.813v16.165h-1.251v-1.468h-4.858v2.141h-1.251v-16.838h2.165c0.496-1.362,0.857-2.798,1.082-4.306l1.323,0.169c-0.257,1.476-0.642,2.854-1.154,4.137H355.587z M349.478,395.428h4.858v-5.364h-4.858V395.428z M349.478,402.308h4.858v-5.701h-4.858V402.308z M368.047,388.837c0,7.714-0.112,12.517-0.337,14.408c-0.24,1.925-1.354,2.887-3.343,2.887l-2.357-0.048l-0.313-1.203c0.963,0.048,1.805,0.072,2.526,0.072c1.299,0,2.044-0.714,2.236-2.141c0.177-1.314,0.289-5.54,0.337-12.677H359.7c-0.689,1.588-1.5,2.991-2.43,4.21l-0.77-1.011c1.732-2.405,2.91-5.355,3.536-8.852l1.274,0.145c-0.305,1.571-0.673,2.975-1.106,4.209H368.047z M359.676,394.25c1.845,2.037,3.239,3.801,4.186,5.292l-1.034,0.746c-0.962-1.556-2.365-3.344-4.209-5.364L359.676,394.25z">
      </path>
      <path fill="#24303B" stroke="#24303B" stroke-miterlimit="10" d="M377.043,387.971c-0.577,0.995-1.235,1.94-1.973,2.839l-1.131-0.722c1.508-1.7,2.63-3.648,3.368-5.846l1.274,0.265c-0.337,0.914-0.642,1.668-0.914,2.262h6.783v1.202h-3.969c0.705,1.091,1.283,2.117,1.731,3.079l-1.202,0.457c-0.497-1.154-1.131-2.333-1.9-3.536H377.043z M392.63,394.851l0.168,1.202l-8.299,1.011v2.694l9.742-1.348l0.192,1.179l-9.935,1.371v2.357c0,0.914,0.466,1.371,1.396,1.371h6.062c0.609,0,1.059-0.128,1.348-0.385c0.32-0.305,0.545-1.234,0.673-2.79l1.251,0.385c-0.177,1.908-0.505,3.079-0.986,3.512c-0.449,0.353-1.13,0.529-2.044,0.529h-6.688c-1.523,0-2.285-0.786-2.285-2.357v-2.453l-8.611,1.202l-0.168-1.202l8.779-1.203v-2.694l-7.842,0.963l-0.192-1.203l8.034-0.986v-2.43c-2.373,0.177-4.819,0.265-7.337,0.265l-0.408-1.13c6.606-0.032,12.011-0.609,16.212-1.732l0.626,1.083c-2.325,0.657-4.932,1.122-7.818,1.395v2.382L392.63,394.851z M387.049,387.875c-0.513,1.026-1.09,1.996-1.731,2.91l-1.131-0.722c1.331-1.764,2.301-3.736,2.911-5.917l1.251,0.265c-0.273,0.93-0.529,1.684-0.771,2.261h7.361v1.203h-4.306c0.625,0.834,1.09,1.556,1.395,2.165l-1.179,0.433c-0.514-0.978-1.059-1.844-1.636-2.598H387.049z">
      </path>
      <path fill="#24303B" stroke="#24303B" stroke-miterlimit="10" d="M400.398,386.023h21.216v1.251h-21.216V386.023z M419.257,391.724h1.299v14.673h-1.299v-1.419h-16.453v1.467h-1.299v-14.601h1.299v11.883h16.453V391.724z M405.522,390.112h11.089v10.729h-11.089V390.112z M410.478,391.315h-3.704v3.561h3.704V391.315z M406.773,396.03v3.608h3.704v-3.608H406.773z M415.336,394.875v-3.561h-3.68v3.561H415.336z M411.656,399.638h3.68v-3.608h-3.68V399.638z">
      </path>
      <path fill="#24303B" stroke="#24303B" stroke-miterlimit="10" d="M426.689,394.634h21.528v1.299h-21.528V394.634z">
      </path>
      <path fill="#24303B" stroke="#24303B" stroke-miterlimit="10" d="M458.007,406.469h-1.274v-13.254c-0.77,2.565-1.837,4.875-3.199,6.928l-0.674-1.131c1.748-2.453,2.991-5.244,3.729-8.371h-3.007v-1.274h3.151v-4.811h1.274v4.811h2.55v1.274h-2.55v1.732c1.043,1.139,2.093,2.43,3.151,3.873l-0.697,1.034c-0.995-1.523-1.813-2.687-2.454-3.488V406.469z M467.196,390.281h-5.557v-1.227h7.336c0.866-1.459,1.58-2.983,2.142-4.57l1.25,0.433c-0.609,1.508-1.322,2.887-2.141,4.138h3.921v1.227h-5.652v3.944h4.955v1.228h-4.955v4.041h6.302v1.251h-6.302v5.941h-1.299v-5.941h-6.134v-1.251h6.134v-4.041h-4.812v-1.228h4.812V390.281z M464.285,384.628c0.737,1.106,1.451,2.349,2.141,3.728l-1.082,0.529c-0.642-1.347-1.363-2.589-2.165-3.729L464.285,384.628z">
      </path>
      <path fill="#24303B" stroke="#24303B" stroke-miterlimit="10" d="M489.157,399.494c1.025,1.042,1.956,2.125,2.79,3.247c2.87-1.219,5.1-3.022,6.687-5.412h-7.433c-2.148,1.026-4.706,1.78-7.673,2.261l-0.77-1.154c5.211-0.529,9.1-2.148,11.666-4.859l1.106,0.602c-0.689,0.738-1.443,1.388-2.261,1.948h7.023v1.035c-3.384,5.725-9.727,8.683-19.027,8.876l-0.528-1.275c3.88-0.048,7.207-0.562,9.982-1.539c-0.883-1.187-1.789-2.237-2.719-3.151L489.157,399.494z M491.635,385.109c-0.578,0.658-1.14,1.203-1.685,1.636h7.24v1.059c-2.598,4.618-7.417,7.208-14.456,7.77l-0.554-1.203c2.31-0.145,4.354-0.505,6.134-1.082c-0.785-1.011-1.627-1.9-2.525-2.67l1.131-0.554c0.962,0.882,1.836,1.813,2.622,2.79c2.678-1.106,4.722-2.742,6.134-4.906h-7.433c-1.877,1.139-4.098,1.98-6.663,2.525l-0.771-1.154c4.33-0.866,7.554-2.47,9.67-4.812L491.635,385.109z">
      </path>
      <path fill="#24303B" stroke="#24303B" stroke-miterlimit="10" d="M514.653,387.899c0.866,0.818,1.299,1.925,1.299,3.32c0,1.01-0.305,1.916-0.914,2.718c-0.24,0.305-0.874,0.922-1.9,1.853c-0.545,0.48-0.946,0.938-1.202,1.371c-0.337,0.577-0.505,1.194-0.505,1.852v0.697h-1.468v-0.697c0-0.705,0.145-1.347,0.434-1.924c0.353-0.771,1.09-1.644,2.213-2.622c0.608-0.609,0.978-0.994,1.106-1.155c0.513-0.657,0.77-1.338,0.77-2.044c0-1.011-0.297-1.828-0.891-2.454c-0.609-0.608-1.491-0.914-2.646-0.914c-1.283,0-2.253,0.434-2.91,1.299c-0.578,0.722-0.866,1.717-0.866,2.983h-1.443c0-1.604,0.44-2.919,1.323-3.945c0.945-1.09,2.269-1.636,3.969-1.636C512.528,386.6,513.739,387.034,514.653,387.899z M511.574,402.043c0.241,0.208,0.361,0.497,0.361,0.865c0,0.337-0.12,0.626-0.361,0.866c-0.256,0.225-0.545,0.337-0.865,0.337c-0.354,0-0.649-0.12-0.891-0.36c-0.225-0.225-0.336-0.506-0.336-0.843c0-0.368,0.111-0.657,0.336-0.865c0.225-0.225,0.521-0.337,0.891-0.337C511.062,401.707,511.35,401.819,511.574,402.043z">
      </path>
    </g>
    
    <g>
      <path fill="#E5EBF0" d="M566.01,570.119c0,24.607-19.947,44.555-44.555,44.555H120.187c-24.607,0-44.555-19.947-44.555-44.555l0,0c0-24.607,19.947-44.555,44.555-44.555h401.268C546.063,525.564,566.01,545.512,566.01,570.119L566.01,570.119z">
      </path>
      <path fill="#E5EBF0" d="M565.463,674.809c0,24.607-19.947,44.555-44.555,44.555H119.64c-24.607,0-44.555-19.947-44.555-44.555l0,0c0-24.607,19.947-44.555,44.555-44.555h401.268C545.516,630.254,565.463,650.201,565.463,674.809L565.463,674.809z">
      </path>
      <path fill="#E5EBF0" d="M566.555,779.498c0,24.607-19.947,44.555-44.555,44.555H120.732c-24.605,0-44.555-19.947-44.555-44.555l0,0c0-24.607,19.949-44.555,44.555-44.555H522C546.607,734.943,566.555,754.891,566.555,779.498L566.555,779.498z">
      </path>
    </g>
        
    <g>
      <g>
        <path fill="#24303B" stroke="#24303B" stroke-width="3" stroke-miterlimit="10" d="M329.889,238.022c2.529,2.209,3.795,5.181,3.795,8.916c0,3.696-1.426,7.069-4.277,10.121c-1.406,1.486-4.377,3.776-8.916,6.868c-6.105,4.137-9.499,7.872-10.181,11.206h23.435v3.374h-27.954c0-3.695,1.425-7.109,4.277-10.242c1.767-2.008,4.779-4.478,9.037-7.41c3.614-2.57,6.044-4.478,7.29-5.723c2.369-2.57,3.555-5.321,3.555-8.253c0-2.852-0.885-5.061-2.65-6.627c-1.729-1.566-4.078-2.35-7.049-2.35c-3.133,0-5.603,1.045-7.41,3.133c-1.928,2.088-2.892,5.141-2.892,9.157h-3.735c0-4.82,1.325-8.615,3.976-11.387c2.53-2.771,5.904-4.157,10.121-4.157C324.205,234.648,327.398,235.773,329.889,238.022z">
        </path>
      </g>
    </g>
        
    <g opacity="0">
      <animate attributeName="opacity" begin="click" dur=".3s" values="0;1" fill="freeze"></animate><circle data-fjh="glanimate" fill="#F1B932" cx="856.167" cy="1276.648" r="15"></circle>
      <g>
        <path fill="#F1B932" d="M564.555,675.498c0,24.607-19.947,44.555-44.555,44.555H118.732c-24.605,0-44.555-19.947-44.555-44.555l0,0c0-24.607,19.949-44.555,44.555-44.555H520C544.607,630.943,564.555,650.891,564.555,675.498L564.555,675.498z">
        </path>
      </g>
    </g>
        
    <g opacity="0">
      <animate attributeName="opacity" begin="click" dur=".3s" values="0;1" fill="freeze"></animate><circle data-fjh="glanimate" fill="#F1B932" cx="903.979" cy="1276.648" r="15"></circle>
      <g>
        <path fill="#F1B932" d="M565.463,778.809c0,24.607-19.947,44.555-44.555,44.555H119.64c-24.607,0-44.555-19.947-44.555-44.555l0,0c0-24.607,19.947-44.555,44.555-44.555h401.268C545.516,734.254,565.463,754.201,565.463,778.809L565.463,778.809z">
        </path>
      </g>
    </g>
        
    <g opacity="0">
      <animate attributeName="opacity" begin="click" dur=".3s" values="0;1" fill="freeze"></animate><circle data-fjh="glanimate" fill="#F1B932" cx="808.355" cy="1276.648" r="15"></circle>
      <g>
        <path fill="#F1B932" d="M566.01,570.117c0,24.607-19.949,44.557-44.557,44.557H120.187c-24.607,0-44.557-19.949-44.557-44.557l0,0c0-24.607,19.949-44.555,44.557-44.555h401.266C546.061,525.563,566.01,545.51,566.01,570.117L566.01,570.117z">
        </path>
      </g>
    </g>
        
    <g>
      <g>
        <path fill="#91979C" stroke="#91979C" stroke-miterlimit="10" d="M127.561,772.252c1.112,0.844,1.763,1.971,1.95,3.377h-1.186c-0.175-1.111-0.718-1.977-1.629-2.594c-0.858-0.604-1.877-0.904-3.056-0.904c-1.757,0-3.137,0.623-4.143,1.869c-0.938,1.154-1.407,2.662-1.407,4.525s0.463,3.357,1.388,4.482c0.965,1.193,2.312,1.789,4.041,1.789c1.206,0,2.259-0.328,3.156-0.984c0.952-0.725,1.568-1.75,1.851-3.076h1.186c-0.309,1.662-1.059,2.963-2.252,3.9c-1.126,0.857-2.433,1.287-3.92,1.287c-2.146,0-3.82-0.736-5.026-2.211c-1.1-1.342-1.649-3.07-1.649-5.188c0-2.119,0.563-3.867,1.689-5.248c1.22-1.516,2.922-2.271,5.106-2.271C125.188,771.006,126.488,771.42,127.561,772.252z">
        </path>
        <path fill="#91979C" stroke="#91979C" stroke-miterlimit="10" d="M135.904,783.912c0.201,0.176,0.302,0.416,0.302,0.725c0,0.268-0.107,0.51-0.322,0.725c-0.214,0.188-0.449,0.281-0.703,0.281c-0.295,0-0.536-0.102-0.724-0.303c-0.201-0.201-0.302-0.436-0.302-0.703c0-0.309,0.101-0.549,0.302-0.725c0.174-0.188,0.415-0.281,0.724-0.281C135.476,783.631,135.717,783.725,135.904,783.912z">
        </path>
        <path fill="#91979C" stroke="#91979C" stroke-miterlimit="10" d="M146.44,782.404c-1.301,1.797-2.923,3.385-4.866,4.766l-0.684-0.904c1.877-1.273,3.465-2.795,4.766-4.564L146.44,782.404z M149.376,769.156c0.308,0.629,0.636,1.426,0.984,2.393h8.345v1.025h-17.733v-1.025h8.283c-0.269-0.752-0.597-1.488-0.985-2.213L149.376,769.156z M143.625,774.846h12.446v5.307h-5.61v5.611c0,1.111-0.556,1.668-1.668,1.668h-2.151l-0.241-1.045c0.938,0.053,1.608,0.08,2.01,0.08c0.644,0,0.966-0.328,0.966-0.986v-5.328h-5.751V774.846z M154.985,779.088v-3.178h-10.274v3.178H154.985z M154.021,781.701c1.85,1.502,3.424,3.043,4.725,4.625l-0.805,0.805c-1.18-1.529-2.728-3.104-4.645-4.727L154.021,781.701z">
        </path>
        <path fill="#91979C" stroke="#91979C" stroke-miterlimit="10" d="M172.417,769.477c1.957,2.439,4.818,4.465,8.585,6.072l-0.604,0.904c-3.485-1.486-6.293-3.465-8.424-5.93c-2.359,2.492-5.181,4.482-8.465,5.971l-0.604-0.885c3.485-1.582,6.36-3.625,8.626-6.133H172.417z M166.747,774.986h10.455v0.984h-4.685v3.258h7.298v1.025h-7.298v5.73h2.513c0.737-1.314,1.388-2.789,1.95-4.424l0.985,0.383c-0.55,1.555-1.159,2.902-1.829,4.041h4.383v1.045h-17.11v-1.045h4.363c-0.482-1.408-1.072-2.707-1.77-3.9l0.985-0.363c0.696,1.18,1.313,2.602,1.85,4.264h2.594v-5.73h-7.318v-1.025h7.318v-3.258h-4.685V774.986z">
        </path>
      </g>
    </g>
        
    <g>
      <g>
        <path fill="#91979C" stroke="#91979C" stroke-miterlimit="10" d="M117.468,666.598h6.313c1.313,0,2.345,0.314,3.096,0.945c0.765,0.643,1.146,1.527,1.146,2.652c0,0.818-0.234,1.521-0.704,2.111c-0.456,0.551-1.052,0.939-1.789,1.166c0.938,0.162,1.688,0.543,2.252,1.146c0.549,0.631,0.824,1.422,0.824,2.373c0,1.354-0.489,2.379-1.468,3.076c-0.858,0.59-1.997,0.885-3.418,0.885h-6.253V666.598z M118.694,667.662v5.35h4.825c1.019,0,1.816-0.229,2.393-0.684c0.59-0.471,0.885-1.141,0.885-2.012c0-0.885-0.288-1.555-0.864-2.01c-0.563-0.43-1.361-0.645-2.393-0.645H118.694z M118.694,674.057v5.83h4.986c1.059,0,1.916-0.215,2.573-0.643c0.751-0.523,1.126-1.281,1.126-2.273c0-0.977-0.349-1.715-1.046-2.211c-0.643-0.469-1.534-0.703-2.674-0.703H118.694z">
        </path>
        <path fill="#91979C" stroke="#91979C" stroke-miterlimit="10" d="M134.799,679.223c0.201,0.176,0.302,0.416,0.302,0.725c0,0.268-0.107,0.51-0.322,0.725c-0.214,0.188-0.449,0.281-0.703,0.281c-0.295,0-0.536-0.102-0.724-0.303c-0.201-0.201-0.302-0.436-0.302-0.703c0-0.309,0.101-0.549,0.302-0.725c0.174-0.188,0.415-0.281,0.724-0.281C134.37,678.941,134.611,679.035,134.799,679.223z">
        </path>
        <path fill="#91979C" stroke="#91979C" stroke-miterlimit="10" d="M145.375,677.012c-1.354,1.863-3.022,3.486-5.007,4.865l-0.663-0.885c1.943-1.326,3.579-2.881,4.906-4.664L145.375,677.012z M140.328,667.119h5.007c0.482-1.059,0.871-1.982,1.166-2.773l1.105,0.24c-0.335,0.885-0.697,1.73-1.086,2.533h10.436v1.086h-10.958c-1.032,2.051-2.165,3.82-3.397,5.309h6.012v-3.137h1.065v3.137h6.474v0.984h-6.474v6.656c0,1.139-0.57,1.709-1.709,1.709h-2.091l-0.222-1.047c0.885,0.055,1.528,0.082,1.931,0.082c0.684,0,1.025-0.336,1.025-1.006v-6.395h-7.158l-0.261-0.924c1.313-1.408,2.52-3.197,3.618-5.369h-4.483V667.119z M153.016,676.328c1.876,1.648,3.431,3.271,4.664,4.865l-0.784,0.785c-1.1-1.529-2.634-3.178-4.604-4.947L153.016,676.328z">
        </path>
        <path fill="#91979C" stroke="#91979C" stroke-miterlimit="10" d="M171.312,664.787c1.957,2.439,4.818,4.465,8.585,6.072l-0.604,0.904c-3.485-1.486-6.293-3.465-8.424-5.93c-2.359,2.492-5.181,4.482-8.465,5.971l-0.604-0.885c3.485-1.582,6.36-3.625,8.626-6.133H171.312z M165.642,670.297h10.455v0.984h-4.685v3.258h7.298v1.025h-7.298v5.73h2.513c0.737-1.314,1.388-2.789,1.95-4.424l0.985,0.383c-0.55,1.555-1.159,2.902-1.829,4.041h4.383v1.045h-17.11v-1.045h4.363c-0.482-1.408-1.072-2.707-1.77-3.9l0.985-0.363c0.696,1.18,1.313,2.602,1.85,4.264h2.594v-5.73h-7.318v-1.025h7.318v-3.258h-4.685V670.297z">
        </path>
      </g>
    </g>
        
    <g>
      <g>
        <path fill="#91979C" stroke="#91979C" stroke-miterlimit="10" d="M121.75,561.906h1.448l5.75,14.355h-1.347l-1.669-4.283h-6.917l-1.669,4.283H116L121.75,561.906z M119.418,570.934h6.112l-3.016-7.701h-0.061L119.418,570.934z">
        </path>
        <path fill="#91979C" stroke="#91979C" stroke-miterlimit="10" d="M134.276,574.531c0.201,0.176,0.302,0.416,0.302,0.725c0,0.268-0.107,0.51-0.322,0.725c-0.214,0.188-0.449,0.281-0.703,0.281c-0.295,0-0.536-0.102-0.724-0.303c-0.201-0.201-0.302-0.436-0.302-0.703c0-0.309,0.101-0.549,0.302-0.725c0.174-0.188,0.415-0.281,0.724-0.281C133.848,574.25,134.089,574.344,134.276,574.531z">
        </path>
        <path fill="#91979C" stroke="#91979C" stroke-miterlimit="10" d="M144.813,573.023c-1.301,1.797-2.923,3.385-4.866,4.766l-0.684-0.904c1.877-1.273,3.465-2.795,4.766-4.564L144.813,573.023z M147.748,559.775c0.308,0.629,0.636,1.426,0.984,2.393h8.345v1.025h-17.733v-1.025h8.283c-0.269-0.752-0.597-1.488-0.985-2.213L147.748,559.775z M141.997,565.465h12.446v5.307h-5.61v5.611c0,1.111-0.556,1.668-1.668,1.668h-2.151l-0.241-1.045c0.938,0.053,1.608,0.08,2.01,0.08c0.644,0,0.966-0.328,0.966-0.986v-5.328h-5.751V565.465z M153.357,569.707v-3.178h-10.274v3.178H153.357z M152.393,572.32c1.85,1.502,3.424,3.043,4.725,4.625l-0.805,0.805c-1.18-1.529-2.728-3.104-4.645-4.727L152.393,572.32z">
        </path>
        <path fill="#91979C" stroke="#91979C" stroke-miterlimit="10" d="M166.969,572.32c-1.354,1.863-3.022,3.486-5.007,4.865l-0.663-0.885c1.943-1.326,3.579-2.881,4.906-4.664L166.969,572.32z M161.922,562.428h5.007c0.482-1.059,0.871-1.982,1.166-2.773l1.105,0.24c-0.335,0.885-0.697,1.73-1.086,2.533h10.436v1.086h-10.958c-1.032,2.051-2.165,3.82-3.397,5.309h6.012v-3.137h1.065v3.137h6.474v0.984h-6.474v6.656c0,1.139-0.57,1.709-1.709,1.709h-2.091l-0.222-1.047c0.885,0.055,1.528,0.082,1.931,0.082c0.684,0,1.025-0.336,1.025-1.006v-6.395h-7.158l-0.261-0.924c1.313-1.408,2.52-3.197,3.618-5.369h-4.483V562.428z M174.609,571.637c1.876,1.648,3.431,3.271,4.664,4.865l-0.784,0.785c-1.1-1.529-2.634-3.178-4.604-4.947L174.609,571.637z">
        </path>
      </g>
    </g>

  </g>
</svg>