<svg version="1.1" xmlns="http://www.w3.org/2000/svg" xmlns:xlink="http://www.w3.org/1999/xlink" x="0px" y="0px" viewBox="0 0 640 1657" enable-background="new 0 0 640 1657" xml:space="preserve">
<g>
    <animateTransform attributeName="transform" type="translate" values="0 0;-640 0" fill="freeze" begin="click+.5s" dur=".5s"></animateTransform>
    <g>
      <path fill="#FFFFFF" d="M590.609,842.641c0,12.078-9.789,21.867-21.867,21.867H71.257c-12.076,0-21.867-9.789-21.867-21.867V276.275c0-12.077,9.791-21.867,21.867-21.867h497.485c12.078,0,21.867,9.79,21.867,21.867V842.641z">
      </path>
      <circle data-fjh="glanimate" fill="#FFFFFF" cx="320.729" cy="256.139" r="42.823"></circle>
      <path fill="#FFFFFF" d="M285.332,231.994c-8.838,14.442-12.619,22.415-37.357,22.415l31.252,0.045L285.332,231.994z">
      </path>
      <path fill="#FFFFFF" d="M356.219,232.085c8.838,14.442,12.619,22.414,37.357,22.414l-31.252,0.046L356.219,232.085z">
      </path>
    </g>
    <circle data-fjh="glanimate" fill="none" stroke="#24303B" stroke-width="7" stroke-miterlimit="10" cx="320.911" cy="257.048" r="39.362"></circle>
    <g>
      <rect x="94.765" y="383.427" fill="none" width="448.284" height="67.789">
      </rect>
      <path fill="#24303B" stroke="#24303B" stroke-miterlimit="10" d="M114.988,387.851c0.962,0.834,1.442,1.957,1.442,3.368c0,1.972-0.93,3.271-2.79,3.896c0.994,0.305,1.764,0.81,2.31,1.516c0.561,0.705,0.842,1.556,0.842,2.55c0,1.539-0.537,2.806-1.611,3.8c-1.106,0.979-2.502,1.468-4.186,1.468c-1.524,0-2.799-0.4-3.825-1.203c-1.234-0.945-1.924-2.396-2.068-4.354h1.491c0.064,1.459,0.577,2.574,1.54,3.344c0.77,0.625,1.715,0.938,2.838,0.938c1.299,0,2.365-0.376,3.199-1.13c0.77-0.754,1.154-1.692,1.154-2.814c0-1.059-0.369-1.908-1.106-2.55c-0.705-0.609-1.676-0.914-2.91-0.914h-1.516v-1.203h1.371c1.203,0,2.148-0.28,2.839-0.842c0.641-0.593,0.962-1.403,0.962-2.43c0-1.01-0.329-1.828-0.986-2.453c-0.689-0.625-1.644-0.938-2.862-0.938s-2.173,0.346-2.862,1.035c-0.722,0.673-1.155,1.627-1.299,2.862h-1.468c0.145-1.604,0.737-2.879,1.78-3.825c0.994-0.914,2.276-1.371,3.849-1.371C112.719,386.6,114.01,387.017,114.988,387.851z">
      </path>
      <path fill="#24303B" stroke="#24303B" stroke-miterlimit="10" d="M124.537,402.043c0.241,0.208,0.361,0.497,0.361,0.865c0,0.321-0.129,0.61-0.385,0.866c-0.257,0.225-0.538,0.337-0.843,0.337c-0.353,0-0.642-0.12-0.865-0.36c-0.241-0.241-0.361-0.521-0.361-0.843c0-0.368,0.12-0.657,0.361-0.865c0.208-0.225,0.497-0.337,0.865-0.337C124.023,401.707,124.313,401.819,124.537,402.043z">
      </path>
      <path fill="#24303B" stroke="#24303B" stroke-miterlimit="10" d="M146.282,390.978c-1.188,4.763-2.734,8.379-4.643,10.849l-1.131-0.962c1.988-2.582,3.488-6.046,4.498-10.392L146.282,390.978z M146.739,406.18l-0.313-1.322c1.571,0.063,2.687,0.096,3.344,0.096c1.042,0,1.563-0.545,1.563-1.636v-18.426h1.348v18.763c0,1.684-0.811,2.525-2.43,2.525H146.739z M158.021,389.919c2.052,4.395,3.616,8.203,4.69,11.426l-1.179,0.818c-1.171-3.496-2.734-7.337-4.69-11.522L158.021,389.919z">
      </path>
      <path fill="#24303B" stroke="#24303B" stroke-miterlimit="10" d="M186.236,388.477v17.944h-1.275v-2.069h-13.734v2.117h-1.275v-17.992h5.629c0.609-1.283,1.042-2.63,1.299-4.042l1.396,0.193c-0.305,1.442-0.73,2.726-1.275,3.849H186.236z M171.227,395.573h13.734v-5.869h-13.734V395.573z M171.227,403.101h13.734v-6.277h-13.734V403.101z">
      </path>
      <path fill="#24303B" stroke="#24303B" stroke-miterlimit="10" d="M196.435,392.349c-0.882,1.348-1.78,2.534-2.694,3.561l-0.433-1.371c2.469-3.047,4.241-6.455,5.315-10.224l1.228,0.577c-0.546,1.797-1.26,3.545-2.142,5.244v16.381h-1.274V392.349z M199.994,387.899h15.539v1.251h-15.539V387.899z M213.85,398.387v8.058h-1.274v-1.322h-9.454v1.322h-1.299v-8.058H213.85z M202.231,391.459h11.209v1.179h-11.209V391.459z M202.231,394.851h11.209v1.202h-11.209V394.851z M203.121,403.872h9.454v-4.258h-9.454V403.872z M207.548,384.459c0.529,1.011,0.938,1.948,1.227,2.814l-1.154,0.457c-0.386-1.074-0.826-2.053-1.323-2.935L207.548,384.459z">
      </path>
      <path fill="#24303B" stroke="#24303B" stroke-miterlimit="10" d="M223.76,398.483c-0.241,3.111-1.147,5.685-2.719,7.722l-0.962-0.89c1.588-2.181,2.405-4.964,2.453-8.348v-11.401h17.56v17.992c0,1.572-0.785,2.357-2.356,2.357h-2.767l-0.337-1.274c0.962,0.048,1.853,0.072,2.67,0.072c0.994,0,1.491-0.546,1.491-1.636v-4.595h-7.048v7.168h-1.299v-7.168H223.76z M223.855,392.638v4.426l-0.023,0.192h6.614v-4.618H223.855z M230.446,386.841h-6.591v4.594h6.591V386.841z M238.793,391.435v-4.594h-7.048v4.594H238.793z M238.793,397.256v-4.618h-7.048v4.618H238.793z">
      </path>
      <path fill="#24303B" stroke="#24303B" stroke-miterlimit="10" d="M257.507,387.177h-9.285v-1.274h18.907v1.274h-8.348v7.457h7.145v1.275h-7.145v8.13h9.357v1.275h-21.336v-1.275h3.921v-11.811h1.299v11.811h5.484V387.177z">
      </path>
      <path fill="#24303B" stroke="#24303B" stroke-miterlimit="10" d="M273.887,394.611h10.055v1.25h-4.378v6.76c1.588-0.289,3.368-0.682,5.341-1.179v1.299c-3.433,0.834-7.152,1.531-11.161,2.093l-0.313-1.251c1.636-0.192,3.248-0.433,4.835-0.722v-7h-4.378V394.611z M273.479,388.958h11.979c-0.08-1.187-0.12-2.653-0.12-4.401h1.347c0,1.764,0.04,3.231,0.121,4.401h7.553v1.299h-7.481c0.289,4.298,0.954,7.858,1.997,10.681c1.026,2.63,1.98,3.969,2.862,4.017c0.593-0.129,1.154-1.571,1.684-4.33l1.179,0.602c-0.722,3.416-1.651,5.132-2.79,5.147c-1.988-0.096-3.704-2.75-5.147-7.962c-0.562-2.276-0.938-4.995-1.131-8.154h-12.051V388.958z M290.292,384.724c0.898,1.043,1.684,2.109,2.357,3.199l-1.106,0.554c-0.738-1.171-1.516-2.245-2.333-3.224L290.292,384.724z">
      </path>
      <path fill="#24303B" stroke="#24303B" stroke-miterlimit="10" d="M300.153,406.229l-0.288-1.251c0.897,0.063,1.547,0.096,1.948,0.096c0.689,0,1.034-0.393,1.034-1.179v-6.35c-1.01,0.417-2.101,0.802-3.271,1.154l-0.337-1.275c1.251-0.336,2.454-0.721,3.608-1.154v-5.725h-3.127v-1.275h3.127v-4.666h1.299v4.666h2.189v1.275h-2.189v5.172c1.026-0.514,1.796-0.906,2.31-1.179v1.322c-0.851,0.449-1.62,0.826-2.31,1.131v7.24c0,1.331-0.625,1.997-1.876,1.997H300.153z M313.648,394.562c-0.306,0.771-0.618,1.483-0.938,2.142h8.491v1.25h-2.79c-0.337,1.925-1.139,3.545-2.405,4.859c1.731,0.817,3.415,1.708,5.051,2.67l-0.722,1.034c-1.668-1.026-3.424-1.973-5.268-2.838c-1.54,1.202-4.081,2.164-7.625,2.886l-0.506-1.179c3.015-0.577,5.292-1.354,6.832-2.333c-1.411-0.657-3.047-1.362-4.907-2.116c0.657-0.963,1.274-1.957,1.853-2.983h-3.536v-1.25h4.186c0.368-0.754,0.705-1.516,1.01-2.285L313.648,394.562z M310.882,388.597c0.657,1.154,1.259,2.39,1.804,3.704h2.574c0.705-1.299,1.299-2.622,1.78-3.969l1.227,0.433c-0.497,1.347-1.051,2.525-1.66,3.536h4.186v1.227H307.49v-1.227h3.921c-0.562-1.234-1.099-2.293-1.611-3.175L310.882,388.597z M314.033,384.387c0.224,0.546,0.505,1.348,0.842,2.405h5.484v1.203h-12.292v-1.203h5.509c-0.241-0.802-0.529-1.523-0.866-2.164L314.033,384.387z M312.061,397.954c-0.417,0.738-0.954,1.563-1.611,2.478c1.539,0.562,2.99,1.171,4.354,1.828c1.234-1.122,2.036-2.558,2.405-4.306H312.061z">
      </path>
      <path fill="#24303B" stroke="#24303B" stroke-miterlimit="10" d="M331.929,385.229l1.082-0.722c2.229,1.588,4.065,4.298,5.509,8.131c2.261,5.805,5.324,9.935,9.188,12.388l-0.794,1.034c-3.961-2.438-7.16-6.815-9.598-13.134c-0.144-0.416-0.345-0.905-0.601-1.467c-1.556,6.383-4.916,11.273-10.079,14.673l-0.817-1.106c5.259-3.447,8.643-8.475,10.15-15.082C334.863,387.908,333.517,386.335,331.929,385.229z">
      </path>
      <path fill="#24303B" stroke="#24303B" stroke-miterlimit="10" d="M352.447,385.638h9.429v1.251h-1.395v13.614l0.842-0.288c0.353-0.097,0.633-0.185,0.842-0.265v1.274c-0.385,0.129-0.946,0.305-1.684,0.529v4.739h-1.275v-4.378c-1.924,0.528-4.121,1.026-6.591,1.491l-0.313-1.251l1.756-0.289v-15.178h-1.611V385.638z M355.285,390.786h3.921v-3.896h-3.921V390.786z M355.285,395.861h3.921v-3.872h-3.921V395.861z M355.285,401.827c1.428-0.305,2.734-0.625,3.921-0.962v-3.801h-3.921V401.827z M366.615,399.205c-1.091,2.759-2.422,5.18-3.993,7.265l-1.059-0.77c1.523-1.988,2.822-4.338,3.897-7.048L366.615,399.205z M363.176,385.975h9.91v11.017h-9.91V385.975z M371.811,395.741v-8.515h-7.36v8.515H371.811z M370.56,398.58c1.732,2.742,3.063,5.14,3.993,7.192l-1.082,0.77c-1.026-2.342-2.342-4.778-3.945-7.313L370.56,398.58z">
      </path>
      <path fill="#24303B" stroke="#24303B" stroke-miterlimit="10" d="M379.002,391.315h3.079v-6.302h1.299v6.302h3.199v1.275h-3.199v8.924c1.251-0.369,2.35-0.737,3.296-1.106v1.322c-2.374,0.898-4.915,1.636-7.625,2.214l-0.337-1.348c1.106-0.192,2.229-0.433,3.367-0.722v-9.284h-3.079V391.315z M387.83,394.225v-1.202c3.176-1.86,5.998-3.792,8.468-5.797h-8.203v-1.228h10.079v1.179c-2.518,2.149-5.212,4.113-8.082,5.894h9.646c-0.129,5.469-0.369,8.996-0.722,10.584c-0.385,1.619-1.443,2.445-3.175,2.478c-0.562,0-1.323-0.017-2.285-0.048l-0.361-1.275c1.091,0.064,1.908,0.097,2.453,0.097c1.026-0.048,1.716-0.538,2.069-1.468c0.32-0.85,0.553-3.921,0.697-9.213h-2.093c-0.577,2.983-1.436,5.333-2.573,7.048c-1.235,1.797-3.111,3.416-5.629,4.859l-0.818-1.01c2.373-1.331,4.129-2.782,5.269-4.354c1.122-1.604,1.956-3.784,2.501-6.543h-2.236c-0.898,3.048-2.446,5.421-4.643,7.12l-0.842-1.01c2.021-1.571,3.431-3.608,4.233-6.11H387.83z">
      </path>
      <path fill="#24303B" stroke="#24303B" stroke-miterlimit="10" d="M408.107,392.349c-0.882,1.348-1.78,2.534-2.694,3.561l-0.433-1.371c2.469-3.047,4.241-6.455,5.315-10.224l1.228,0.577c-0.546,1.797-1.26,3.545-2.142,5.244v16.381h-1.274V392.349z M411.667,387.899h15.539v1.251h-15.539V387.899z M425.522,398.387v8.058h-1.274v-1.322h-9.454v1.322h-1.299v-8.058H425.522z M413.904,391.459h11.209v1.179h-11.209V391.459z M413.904,394.851h11.209v1.202h-11.209V394.851z M414.794,403.872h9.454v-4.258h-9.454V403.872z M419.221,384.459c0.529,1.011,0.938,1.948,1.227,2.814l-1.154,0.457c-0.386-1.074-0.826-2.053-1.323-2.935L419.221,384.459z">
      </path>
      <path fill="#24303B" stroke="#24303B" stroke-miterlimit="10" d="M435.433,398.483c-0.241,3.111-1.147,5.685-2.719,7.722l-0.962-0.89c1.588-2.181,2.405-4.964,2.453-8.348v-11.401h17.56v17.992c0,1.572-0.785,2.357-2.356,2.357h-2.767l-0.337-1.274c0.962,0.048,1.853,0.072,2.67,0.072c0.994,0,1.491-0.546,1.491-1.636v-4.595h-7.048v7.168h-1.299v-7.168H435.433z M435.528,392.638v4.426l-0.023,0.192h6.614v-4.618H435.528z M442.119,386.841h-6.591v4.594h6.591V386.841z M450.466,391.435v-4.594h-7.048v4.594H450.466z M450.466,397.256v-4.618h-7.048v4.618H450.466z">
      </path>
      <path fill="#24303B" stroke="#24303B" stroke-miterlimit="10" d="M464.008,384.796c1.62,1.908,3.215,3.961,4.787,6.158l-0.842,0.914c-1.636-2.406-3.079-4.346-4.33-5.821c-1.443,2.565-3.071,4.867-4.883,6.903l-0.77-1.034c1.859-2.085,3.527-4.458,5.003-7.12H464.008z M459.317,395.38h8.443v1.082c-1.043,2.262-2.277,4.298-3.705,6.11c0.963,0.914,1.86,1.852,2.694,2.813l-0.914,0.914c-1.476-1.779-3.487-3.704-6.037-5.772l0.89-0.866c0.962,0.77,1.796,1.468,2.502,2.093c1.074-1.411,2.132-3.127,3.175-5.147h-7.048V395.38z M463.143,389.919c1.058,1.396,1.892,2.671,2.501,3.825l-0.962,0.697c-0.609-1.219-1.436-2.525-2.478-3.921L463.143,389.919z M473.605,392.975h1.251v4.089c-0.048,2.518-0.537,4.563-1.467,6.134c-0.914,1.411-2.406,2.525-4.475,3.344l-0.697-1.083c1.973-0.754,3.367-1.787,4.186-3.103c0.753-1.314,1.154-3.079,1.202-5.292V392.975z M468.482,385.663h11.281v1.25h-4.932c-0.112,1.027-0.28,2.029-0.505,3.007h4.546v11.161h-1.299v-9.91h-6.663v10.055h-1.274v-11.306h3.416c0.24-0.978,0.408-1.979,0.505-3.007h-5.075V385.663z M475.891,401.297c1.668,1.428,3.079,2.862,4.233,4.306l-0.914,0.938c-1.074-1.411-2.478-2.879-4.209-4.402L475.891,401.297z">
      </path>
      <path fill="#24303B" stroke="#24303B" stroke-miterlimit="10" d="M484.935,391.075h2.525v-6.543h1.275v6.543h2.43v1.251h-2.43v7.817c0.978-0.449,1.796-0.842,2.453-1.179v1.323c-1.828,0.994-3.864,1.82-6.109,2.478l-0.313-1.299c1.058-0.272,1.956-0.546,2.693-0.818v-8.322h-2.525V391.075z M498.573,401.417c-2.39,0.931-4.955,1.692-7.697,2.285l-0.337-1.227c2.839-0.529,5.517-1.282,8.034-2.261V401.417z M491.333,387.923h8.636c-0.017-0.737-0.024-1.876-0.024-3.416h1.299c0,1.556,0.008,2.694,0.024,3.416h2.862c-0.433-1.106-0.834-1.988-1.203-2.646l1.155-0.193c0.385,0.786,0.77,1.732,1.154,2.839h1.227v1.251h-5.172c0.08,4.201,0.272,7.513,0.578,9.935c1.106-2.165,1.948-4.723,2.525-7.674l1.154,0.505c-0.802,3.656-1.924,6.695-3.367,9.117c0.529,2.565,1.154,3.889,1.876,3.969c0.545-0.097,1.066-1.363,1.563-3.801l0.986,0.794c-0.689,2.887-1.539,4.33-2.55,4.33c-0.754,0-1.436-0.626-2.045-1.877c-0.288-0.608-0.529-1.29-0.722-2.044c-1.234,1.668-2.662,2.982-4.281,3.944l-0.794-1.01c1.828-1.043,3.392-2.565,4.69-4.57c-0.096-0.513-0.208-1.259-0.337-2.237c-0.305-2.453-0.497-5.58-0.577-9.381h-8.659V387.923z M492.343,391.844h5.87v6.615h-5.87V391.844z M497.058,397.353v-4.402h-3.56v4.402H497.058z">
      </path>
      <path fill="#24303B" stroke="#24303B" stroke-miterlimit="10" d="M519.549,388.813v16.165h-1.251v-1.468h-4.858v2.141h-1.251v-16.838h2.165c0.496-1.362,0.857-2.798,1.082-4.306l1.323,0.169c-0.257,1.476-0.642,2.854-1.154,4.137H519.549z M513.439,395.428h4.858v-5.364h-4.858V395.428z M513.439,402.308h4.858v-5.701h-4.858V402.308z M532.009,388.837c0,7.714-0.112,12.517-0.337,14.408c-0.24,1.925-1.354,2.887-3.343,2.887l-2.357-0.048l-0.313-1.203c0.963,0.048,1.805,0.072,2.526,0.072c1.299,0,2.044-0.714,2.236-2.141c0.177-1.314,0.289-5.54,0.337-12.677h-7.096c-0.689,1.588-1.5,2.991-2.43,4.21l-0.77-1.011c1.732-2.405,2.91-5.355,3.536-8.852l1.274,0.145c-0.305,1.571-0.673,2.975-1.106,4.209H532.009z M523.638,394.25c1.845,2.037,3.239,3.801,4.186,5.292l-1.034,0.746c-0.962-1.556-2.365-3.344-4.209-5.364L523.638,394.25z">
      </path>
      <path fill="#24303B" stroke="#24303B" stroke-miterlimit="10" d="M275.946,421.396v17.536h-1.251v-1.685h-4.065v2.237h-1.299v-18.089H275.946z M270.63,428.541h4.065v-5.941h-4.065V428.541z M270.63,436.021h4.065v-6.254h-4.065V436.021z M280.829,441.193l-0.289-1.251c1.86,0.064,3.191,0.097,3.993,0.097c0.834,0,1.251-0.434,1.251-1.299v-13.398h-8.587v-1.275h8.587v-4.354h1.323v4.354h3.127v1.275h-3.127v13.734c0,1.411-0.706,2.117-2.117,2.117H280.829z M279.313,428.516c1.476,2.165,2.646,4.153,3.512,5.966l-1.082,0.745c-0.866-1.812-2.028-3.824-3.488-6.037L279.313,428.516z">
      </path>
      <path fill="#24303B" stroke="#24303B" stroke-miterlimit="10" d="M296.224,423.513h1.299v17.944h-1.299V423.513z M299.302,419.328c1.091,1.315,2.077,2.774,2.959,4.378l-1.179,0.602c-0.882-1.668-1.876-3.151-2.982-4.45L299.302,419.328z M301.179,426.111h8.804v10.921h-8.804V426.111z M302.429,430.994h6.327v-3.68h-6.327V430.994z M308.756,435.829v-3.68h-6.327v3.68H308.756z M310.824,441.289l-0.361-1.25l2.117,0.048c0.802,0,1.203-0.521,1.203-1.563v-16.501h-9.502v-1.228h10.801v18.065c0,1.619-0.746,2.429-2.237,2.429H310.824z">
      </path>
      <path fill="#24303B" stroke="#24303B" stroke-miterlimit="10" d="M331.774,431.74h-10.198v-1.179h21.191v1.179h-9.718v3.127h7.12v1.202h-7.12v3.656c1.282,0.129,2.75,0.192,4.401,0.192c1.571,0,3.287-0.032,5.147-0.096l-0.36,1.274l-4.69-0.023c-3.961-0.032-6.631-0.354-8.01-0.962c-1.283-0.578-2.43-1.724-3.44-3.44c-0.946,1.909-2.157,3.464-3.632,4.667l-0.866-1.034c2.245-1.86,3.769-4.362,4.57-7.505l1.251,0.216c-0.225,0.883-0.505,1.74-0.842,2.574c1.042,1.828,2.229,3.007,3.56,3.536c0.481,0.16,1.026,0.296,1.636,0.408V431.74z M325.039,420.41h14.433v8.106h-14.433V420.41z M326.339,423.946h11.834v-2.405h-11.834V423.946z M338.173,427.362v-2.333h-11.834v2.333H338.173z">
      </path>
      <path fill="#24303B" stroke="#24303B" stroke-miterlimit="10" d="M356.405,422.887c0.866,0.818,1.299,1.925,1.299,3.32c0,1.01-0.305,1.916-0.914,2.718c-0.24,0.305-0.874,0.922-1.9,1.853c-0.545,0.48-0.946,0.938-1.202,1.371c-0.337,0.577-0.505,1.194-0.505,1.852v0.697h-1.468V434c0-0.705,0.145-1.347,0.434-1.924c0.353-0.771,1.09-1.644,2.213-2.622c0.608-0.609,0.978-0.994,1.106-1.155c0.513-0.657,0.77-1.338,0.77-2.044c0-1.011-0.297-1.828-0.891-2.454c-0.609-0.608-1.491-0.914-2.646-0.914c-1.283,0-2.253,0.434-2.91,1.299c-0.578,0.722-0.866,1.717-0.866,2.983h-1.443c0-1.604,0.44-2.919,1.323-3.945c0.945-1.09,2.269-1.636,3.969-1.636C354.28,421.588,355.491,422.022,356.405,422.887z M353.326,437.032c0.241,0.208,0.361,0.497,0.361,0.865c0,0.337-0.12,0.626-0.361,0.866c-0.256,0.225-0.545,0.337-0.865,0.337c-0.354,0-0.649-0.12-0.891-0.36c-0.225-0.225-0.336-0.506-0.336-0.843c0-0.368,0.111-0.657,0.336-0.865c0.225-0.225,0.521-0.337,0.891-0.337C352.813,436.695,353.102,436.807,353.326,437.032z">
      </path>
    </g>
        
    <g>
      <path fill="#E5EBF0" d="M566.01,570.119c0,24.607-19.947,44.555-44.555,44.555H120.187c-24.607,0-44.555-19.947-44.555-44.555l0,0c0-24.607,19.947-44.555,44.555-44.555h401.268C546.063,525.564,566.01,545.512,566.01,570.119L566.01,570.119z">
      </path>
      <path fill="#E5EBF0" d="M565.463,674.809c0,24.607-19.947,44.555-44.555,44.555H119.64c-24.607,0-44.555-19.947-44.555-44.555l0,0c0-24.607,19.947-44.555,44.555-44.555h401.268C545.516,630.254,565.463,650.201,565.463,674.809L565.463,674.809z">
      </path>
      <path fill="#E5EBF0" d="M566.555,779.498c0,24.607-19.947,44.555-44.555,44.555H120.732c-24.605,0-44.555-19.947-44.555-44.555l0,0c0-24.607,19.949-44.555,44.555-44.555H522C546.607,734.943,566.555,754.891,566.555,779.498L566.555,779.498z">
      </path>
    </g>
        
    <g>
      <g>
        <path fill="#24303B" stroke="#24303B" stroke-width="3" stroke-miterlimit="10" d="M329.889,237.781c2.41,2.089,3.615,4.9,3.615,8.434c0,4.94-2.33,8.193-6.988,9.76c2.488,0.764,4.416,2.029,5.783,3.795c1.404,1.768,2.107,3.896,2.107,6.386c0,3.855-1.346,7.029-4.035,9.519c-2.771,2.45-6.266,3.675-10.483,3.675c-3.816,0-7.009-1.003-9.579-3.012c-3.093-2.369-4.82-6.003-5.181-10.904h3.735c0.16,3.655,1.446,6.446,3.856,8.374c1.928,1.566,4.297,2.35,7.109,2.35c3.252,0,5.924-0.943,8.012-2.832c1.928-1.887,2.893-4.237,2.893-7.048c0-2.651-0.926-4.779-2.771-6.386c-1.768-1.526-4.197-2.289-7.29-2.289h-3.795v-3.013h3.434c3.013,0,5.382-0.702,7.108-2.108c1.605-1.485,2.41-3.514,2.41-6.084c0-2.53-0.824-4.579-2.471-6.145c-1.727-1.566-4.117-2.35-7.168-2.35c-3.053,0-5.443,0.864-7.169,2.59c-1.808,1.687-2.892,4.077-3.253,7.169h-3.675c0.361-4.016,1.847-7.209,4.458-9.579c2.49-2.29,5.703-3.434,9.639-3.434C324.205,234.648,327.438,235.693,329.889,237.781z">
        </path>
      </g>
    </g>
       
    <g opacity="0">
      <animate attributeName="opacity" begin="click" dur=".3s" values="0;1" fill="freeze"></animate>
      <circle data-fjh="glanimate" fill="#F1B932" cx="810.021" cy="1312.183" r="15"></circle>
      <g>
        <path fill="#F1B932" d="M565.555,570.498c0,24.607-19.947,44.555-44.555,44.555H119.732c-24.605,0-44.555-19.947-44.555-44.555l0,0c0-24.607,19.949-44.555,44.555-44.555H521C545.607,525.943,565.555,545.891,565.555,570.498L565.555,570.498z">
        </path>
      </g>
    </g>
        
    <g opacity="0">
      <animate attributeName="opacity" begin="click" dur=".3s" values="0;1" fill="freeze"></animate>
      <circle data-fjh="glanimate" fill="#F1B932" cx="903.646" cy="1312.183" r="15"></circle>
      <g>
        <path fill="#F1B932" d="M567.01,778.117c0,24.607-19.949,44.557-44.557,44.557H121.187c-24.607,0-44.557-19.949-44.557-44.557l0,0c0-24.607,19.949-44.555,44.557-44.555h401.266C547.061,733.563,567.01,753.51,567.01,778.117L567.01,778.117z">
        </path>
      </g>
    </g>
        
    <g opacity="0">
      <animate attributeName="opacity" begin="click" dur=".3s" values="0;1" fill="freeze"></animate>
      <circle data-fjh="glanimate" fill="#F1B932" cx="856.334" cy="1312.183" r="15"></circle>
      <g>
        <path fill="#F1B932" d="M565.463,674.809c0,24.607-19.947,44.555-44.555,44.555H119.64c-24.607,0-44.555-19.947-44.555-44.555l0,0c0-24.607,19.947-44.555,44.555-44.555h401.268C545.516,630.254,565.463,650.201,565.463,674.809L565.463,674.809z">
        </path>
      </g>
    </g>
        
    <g>
      <g>
        <path fill="#91979C" stroke="#91979C" stroke-miterlimit="10" d="M127.561,772.252c1.112,0.844,1.763,1.971,1.95,3.377h-1.186c-0.175-1.111-0.718-1.977-1.629-2.594c-0.858-0.604-1.877-0.904-3.056-0.904c-1.757,0-3.137,0.623-4.143,1.869c-0.938,1.154-1.407,2.662-1.407,4.525s0.463,3.357,1.388,4.482c0.965,1.193,2.312,1.789,4.041,1.789c1.206,0,2.259-0.328,3.156-0.984c0.952-0.725,1.568-1.75,1.851-3.076h1.186c-0.309,1.662-1.059,2.963-2.252,3.9c-1.126,0.857-2.433,1.287-3.92,1.287c-2.146,0-3.82-0.736-5.026-2.211c-1.1-1.342-1.649-3.07-1.649-5.188c0-2.119,0.563-3.867,1.689-5.248c1.22-1.516,2.922-2.271,5.106-2.271C125.188,771.006,126.488,771.42,127.561,772.252z">
        </path>
        <path fill="#91979C" stroke="#91979C" stroke-miterlimit="10" d="M135.904,783.912c0.201,0.176,0.302,0.416,0.302,0.725c0,0.268-0.107,0.51-0.322,0.725c-0.214,0.188-0.449,0.281-0.703,0.281c-0.295,0-0.536-0.102-0.724-0.303c-0.201-0.201-0.302-0.436-0.302-0.703c0-0.309,0.101-0.549,0.302-0.725c0.174-0.188,0.415-0.281,0.724-0.281C135.476,783.631,135.717,783.725,135.904,783.912z">
        </path>
        <path fill="#91979C" stroke="#91979C" stroke-miterlimit="10" d="M149.194,772.131c0.845,0.738,1.267,1.729,1.267,2.977c0,1.232-0.476,2.359-1.427,3.377c-0.47,0.496-1.462,1.26-2.976,2.293c-2.038,1.379-3.171,2.627-3.398,3.738h7.821v1.127h-9.329c0-1.234,0.476-2.373,1.428-3.418c0.59-0.67,1.595-1.494,3.016-2.473c1.206-0.859,2.018-1.496,2.433-1.91c0.791-0.859,1.187-1.777,1.187-2.756c0-0.951-0.295-1.688-0.885-2.211c-0.576-0.523-1.36-0.785-2.353-0.785c-1.045,0-1.869,0.35-2.473,1.047c-0.644,0.697-0.965,1.715-0.965,3.055h-1.247c0-1.607,0.442-2.875,1.327-3.799c0.845-0.926,1.971-1.387,3.378-1.387C147.298,771.006,148.363,771.381,149.194,772.131z">
        </path>
        <path fill="#91979C" stroke="#91979C" stroke-miterlimit="10" d="M163.75,773.377c0.697,1.287,1.046,2.982,1.046,5.088c0,2.078-0.349,3.773-1.046,5.086c-0.857,1.582-2.145,2.373-3.859,2.373c-1.717,0-3.003-0.791-3.86-2.373c-0.697-1.273-1.046-2.969-1.046-5.086c0-2.131,0.349-3.828,1.046-5.088c0.844-1.58,2.131-2.371,3.86-2.371C161.619,771.006,162.906,771.797,163.75,773.377z M156.895,774.223c-0.442,1.045-0.664,2.459-0.664,4.242c0,1.756,0.222,3.17,0.664,4.242c0.604,1.42,1.602,2.131,2.996,2.131c1.367,0,2.365-0.711,2.995-2.131c0.456-1.1,0.684-2.514,0.684-4.242c0-1.756-0.228-3.17-0.684-4.242c-0.616-1.422-1.615-2.133-2.995-2.133C158.496,772.09,157.498,772.801,156.895,774.223z">
        </path>
        <path fill="#91979C" stroke="#91979C" stroke-miterlimit="10" d="M174.97,771.287v14.355h-1.227v-12.828c-0.925,1.006-2.071,1.709-3.438,2.111v-1.246c0.684-0.201,1.348-0.504,1.991-0.906c0.63-0.414,1.192-0.91,1.688-1.486H174.97z">
        </path>
        <path fill="#91979C" stroke="#91979C" stroke-miterlimit="10" d="M191.477,772.15c0.751,0.684,1.126,1.543,1.126,2.574c0,0.75-0.194,1.414-0.583,1.99c-0.416,0.576-1.005,0.986-1.77,1.227v0.08c0.777,0.162,1.448,0.584,2.011,1.268c0.563,0.684,0.845,1.494,0.845,2.432c0,1.234-0.43,2.24-1.287,3.018c-0.898,0.791-2.158,1.186-3.779,1.186c-1.622,0-2.883-0.395-3.78-1.186c-0.858-0.766-1.287-1.77-1.287-3.018c0-0.938,0.281-1.748,0.845-2.432c0.536-0.684,1.213-1.105,2.03-1.268v-0.08c-0.777-0.24-1.374-0.65-1.789-1.227c-0.389-0.549-0.583-1.213-0.583-1.99c0-1.045,0.375-1.902,1.126-2.574c0.804-0.764,1.95-1.145,3.438-1.145C189.513,771.006,190.659,771.387,191.477,772.15z M185.144,779.469c-0.644,0.564-0.965,1.314-0.965,2.252c0,0.953,0.314,1.703,0.944,2.252c0.684,0.617,1.655,0.926,2.916,0.926c1.26,0,2.238-0.309,2.935-0.926c0.617-0.576,0.925-1.326,0.925-2.252c0-0.938-0.321-1.688-0.965-2.252c-0.67-0.629-1.635-0.943-2.895-0.943C186.778,778.525,185.813,778.84,185.144,779.469z M185.445,772.895c-0.523,0.482-0.784,1.105-0.784,1.871c0,0.791,0.241,1.426,0.724,1.91c0.59,0.563,1.475,0.844,2.654,0.844c1.166,0,2.051-0.281,2.653-0.844c0.482-0.484,0.724-1.119,0.724-1.91c0-0.766-0.261-1.389-0.784-1.871c-0.616-0.563-1.48-0.844-2.593-0.844C186.913,772.051,186.048,772.332,185.445,772.895z">
        </path>
        <path fill="#91979C" stroke="#91979C" stroke-miterlimit="10" d="M201.027,772.693c-0.818,1.447-1.87,2.662-3.157,3.641l-0.743-0.926c2.063-1.568,3.458-3.672,4.182-6.313l1.105,0.201c-0.228,0.803-0.509,1.58-0.844,2.332h12.707v1.064h-6.454v3.6h5.75v1.025h-5.75v4.684h7.097v1.086h-7.097v4.584h-1.066v-4.584h-9.43v-1.086h3.398v-5.709h6.031v-3.6H201.027z M201.831,782.002h4.926v-4.684h-4.926V782.002z">
        </path>
        <path fill="#91979C" stroke="#91979C" stroke-miterlimit="10" d="M225.234,771.287v14.355h-1.227v-12.828c-0.925,1.006-2.071,1.709-3.438,2.111v-1.246c0.684-0.201,1.348-0.504,1.991-0.906c0.63-0.414,1.192-0.91,1.688-1.486H225.234z">
        </path>
        <path fill="#91979C" stroke="#91979C" stroke-miterlimit="10" d="M238.303,781.098c-0.201,2.627-0.966,4.799-2.293,6.516l-0.844-0.766c1.38-1.795,2.091-4.107,2.131-6.936v-9.752h11.139v15.703c0,1.031-0.503,1.549-1.508,1.549h-2.634l-0.281-1.047c1.232,0.027,2.084,0.041,2.553,0.041c0.523,0,0.784-0.314,0.784-0.945v-4.363H238.303z M247.35,775.086v-3.879h-8.987v3.879H247.35z M238.362,776.111v3.961h8.987v-3.961H238.362z">
        </path>
        <path fill="#91979C" stroke="#91979C" stroke-miterlimit="10" d="M261.425,771.287v14.355h-1.227v-12.828c-0.925,1.006-2.071,1.709-3.438,2.111v-1.246c0.684-0.201,1.348-0.504,1.991-0.906c0.63-0.414,1.192-0.91,1.688-1.486H261.425z">
        </path>
        <path fill="#91979C" stroke="#91979C" stroke-miterlimit="10" d="M277.87,772.051c0.805,0.697,1.207,1.635,1.207,2.814c0,1.648-0.778,2.734-2.333,3.258c0.831,0.254,1.475,0.676,1.931,1.266c0.469,0.59,0.704,1.301,0.704,2.131c0,1.287-0.45,2.346-1.348,3.178c-0.925,0.818-2.091,1.227-3.498,1.227c-1.273,0-2.34-0.336-3.197-1.006c-1.032-0.791-1.608-2.004-1.729-3.639h1.246c0.054,1.219,0.482,2.15,1.287,2.795c0.644,0.521,1.434,0.783,2.372,0.783c1.086,0,1.978-0.314,2.674-0.945c0.644-0.629,0.966-1.414,0.966-2.352c0-0.885-0.309-1.596-0.925-2.131c-0.591-0.51-1.401-0.764-2.434-0.764h-1.267v-1.006h1.146c1.005,0,1.796-0.234,2.372-0.703c0.536-0.496,0.805-1.174,0.805-2.031c0-0.844-0.275-1.527-0.824-2.051c-0.577-0.523-1.374-0.785-2.393-0.785c-1.02,0-1.816,0.289-2.393,0.865c-0.604,0.563-0.966,1.361-1.086,2.393h-1.227c0.12-1.34,0.616-2.406,1.487-3.197c0.831-0.764,1.903-1.145,3.218-1.145C275.974,771.006,277.053,771.354,277.87,772.051z">
        </path>
        <path fill="#91979C" stroke="#91979C" stroke-miterlimit="10" d="M298.801,770.141v17.371h-1.086v-1.629h-9.852v1.648h-1.086v-17.391H298.801z M287.863,777.359h9.852v-6.152h-9.852V777.359z M287.863,784.818h9.852v-6.395h-9.852V784.818z">
        </path>
      </g>
    </g>
        
    <g>
      <g>
        <path fill="#91979C" stroke="#91979C" stroke-miterlimit="10" d="M117.468,666.598h6.313c1.313,0,2.345,0.314,3.096,0.945c0.765,0.643,1.146,1.527,1.146,2.652c0,0.818-0.234,1.521-0.704,2.111c-0.456,0.551-1.052,0.939-1.789,1.166c0.938,0.162,1.688,0.543,2.252,1.146c0.549,0.631,0.824,1.422,0.824,2.373c0,1.354-0.489,2.379-1.468,3.076c-0.858,0.59-1.997,0.885-3.418,0.885h-6.253V666.598z M118.694,667.662v5.35h4.825c1.019,0,1.816-0.229,2.393-0.684c0.59-0.471,0.885-1.141,0.885-2.012c0-0.885-0.288-1.555-0.864-2.01c-0.563-0.43-1.361-0.645-2.393-0.645H118.694z M118.694,674.057v5.83h4.986c1.059,0,1.916-0.215,2.573-0.643c0.751-0.523,1.126-1.281,1.126-2.273c0-0.977-0.349-1.715-1.046-2.211c-0.643-0.469-1.534-0.703-2.674-0.703H118.694z">
        </path>
        <path fill="#91979C" stroke="#91979C" stroke-miterlimit="10" d="M134.799,679.223c0.201,0.176,0.302,0.416,0.302,0.725c0,0.268-0.107,0.51-0.322,0.725c-0.214,0.188-0.449,0.281-0.703,0.281c-0.295,0-0.536-0.102-0.724-0.303c-0.201-0.201-0.302-0.436-0.302-0.703c0-0.309,0.101-0.549,0.302-0.725c0.174-0.188,0.415-0.281,0.724-0.281C134.37,678.941,134.611,679.035,134.799,679.223z">
        </path>
        <path fill="#91979C" stroke="#91979C" stroke-miterlimit="10" d="M148.089,667.441c0.845,0.738,1.267,1.729,1.267,2.977c0,1.232-0.476,2.359-1.427,3.377c-0.47,0.496-1.462,1.26-2.976,2.293c-2.038,1.379-3.171,2.627-3.398,3.738h7.821v1.127h-9.329c0-1.234,0.476-2.373,1.428-3.418c0.59-0.67,1.595-1.494,3.016-2.473c1.206-0.859,2.018-1.496,2.433-1.91c0.791-0.859,1.187-1.777,1.187-2.756c0-0.951-0.295-1.688-0.885-2.211c-0.576-0.523-1.36-0.785-2.353-0.785c-1.045,0-1.869,0.35-2.473,1.047c-0.644,0.697-0.965,1.715-0.965,3.055h-1.247c0-1.607,0.442-2.875,1.327-3.799c0.845-0.926,1.971-1.387,3.378-1.387C146.192,666.316,147.258,666.691,148.089,667.441z">
        </path>
        <path fill="#91979C" stroke="#91979C" stroke-miterlimit="10" d="M162.646,668.688c0.697,1.287,1.046,2.982,1.046,5.088c0,2.078-0.349,3.773-1.046,5.086c-0.857,1.582-2.145,2.373-3.859,2.373c-1.717,0-3.003-0.791-3.86-2.373c-0.697-1.273-1.046-2.969-1.046-5.086c0-2.131,0.349-3.828,1.046-5.088c0.844-1.58,2.131-2.371,3.86-2.371C160.515,666.316,161.802,667.107,162.646,668.688z M155.79,669.533c-0.442,1.045-0.664,2.459-0.664,4.242c0,1.756,0.222,3.17,0.664,4.242c0.604,1.42,1.602,2.131,2.996,2.131c1.367,0,2.365-0.711,2.995-2.131c0.456-1.1,0.684-2.514,0.684-4.242c0-1.756-0.228-3.17-0.684-4.242c-0.616-1.422-1.615-2.133-2.995-2.133C157.392,667.4,156.394,668.111,155.79,669.533z">
        </path>
        <path fill="#91979C" stroke="#91979C" stroke-miterlimit="10" d="M173.864,666.598v14.355h-1.227v-12.828c-0.925,1.006-2.071,1.709-3.438,2.111v-1.246c0.684-0.201,1.348-0.504,1.991-0.906c0.63-0.414,1.192-0.91,1.688-1.486H173.864z">
        </path>
        <path fill="#91979C" stroke="#91979C" stroke-miterlimit="10" d="M190.371,667.461c0.751,0.684,1.126,1.543,1.126,2.574c0,0.75-0.194,1.414-0.583,1.99c-0.416,0.576-1.005,0.986-1.77,1.227v0.08c0.777,0.162,1.448,0.584,2.011,1.268c0.563,0.684,0.845,1.494,0.845,2.432c0,1.234-0.43,2.24-1.287,3.018c-0.898,0.791-2.158,1.186-3.779,1.186c-1.622,0-2.883-0.395-3.78-1.186c-0.858-0.766-1.287-1.77-1.287-3.018c0-0.938,0.281-1.748,0.845-2.432c0.536-0.684,1.213-1.105,2.03-1.268v-0.08c-0.777-0.24-1.374-0.65-1.789-1.227c-0.389-0.549-0.583-1.213-0.583-1.99c0-1.045,0.375-1.902,1.126-2.574c0.804-0.764,1.95-1.145,3.438-1.145C188.407,666.316,189.554,666.697,190.371,667.461z M184.038,674.779c-0.644,0.564-0.965,1.314-0.965,2.252c0,0.953,0.314,1.703,0.944,2.252c0.684,0.617,1.655,0.926,2.916,0.926c1.26,0,2.238-0.309,2.935-0.926c0.617-0.576,0.925-1.326,0.925-2.252c0-0.938-0.321-1.688-0.965-2.252c-0.67-0.629-1.635-0.943-2.895-0.943C185.673,673.836,184.708,674.15,184.038,674.779z M184.34,668.205c-0.523,0.482-0.784,1.105-0.784,1.871c0,0.791,0.241,1.426,0.724,1.91c0.59,0.563,1.475,0.844,2.654,0.844c1.166,0,2.051-0.281,2.653-0.844c0.482-0.484,0.724-1.119,0.724-1.91c0-0.766-0.261-1.389-0.784-1.871c-0.616-0.563-1.48-0.844-2.593-0.844C185.808,667.361,184.942,667.643,184.34,668.205z">
        </path>
        <path fill="#91979C" stroke="#91979C" stroke-miterlimit="10" d="M199.922,668.004c-0.818,1.447-1.87,2.662-3.157,3.641l-0.743-0.926c2.063-1.568,3.458-3.672,4.182-6.313l1.105,0.201c-0.228,0.803-0.509,1.58-0.844,2.332h12.707v1.064h-6.454v3.6h5.75v1.025h-5.75v4.684h7.097v1.086h-7.097v4.584h-1.066v-4.584h-9.43v-1.086h3.398v-5.709h6.031v-3.6H199.922z M200.726,677.313h4.926v-4.684h-4.926V677.313z">
        </path>
        <path fill="#91979C" stroke="#91979C" stroke-miterlimit="10" d="M224.129,666.598v14.355h-1.227v-12.828c-0.925,1.006-2.071,1.709-3.438,2.111v-1.246c0.684-0.201,1.348-0.504,1.991-0.906c0.63-0.414,1.192-0.91,1.688-1.486H224.129z">
        </path>
        <path fill="#91979C" stroke="#91979C" stroke-miterlimit="10" d="M237.198,676.408c-0.201,2.627-0.966,4.799-2.293,6.516l-0.844-0.766c1.38-1.795,2.091-4.107,2.131-6.936v-9.752h11.139v15.703c0,1.031-0.503,1.549-1.508,1.549h-2.634l-0.281-1.047c1.232,0.027,2.084,0.041,2.553,0.041c0.523,0,0.784-0.314,0.784-0.945v-4.363H237.198z M246.245,670.396v-3.879h-8.987v3.879H246.245z M237.258,671.422v3.961h8.987v-3.961H237.258z">
        </path>
        <path fill="#91979C" stroke="#91979C" stroke-miterlimit="10" d="M260.319,666.598v14.355h-1.227v-12.828c-0.925,1.006-2.071,1.709-3.438,2.111v-1.246c0.684-0.201,1.348-0.504,1.991-0.906c0.63-0.414,1.192-0.91,1.688-1.486H260.319z">
        </path>
        <path fill="#91979C" stroke="#91979C" stroke-miterlimit="10" d="M274.393,666.598v14.355h-1.227v-12.828c-0.925,1.006-2.071,1.709-3.438,2.111v-1.246c0.684-0.201,1.348-0.504,1.991-0.906c0.63-0.414,1.192-0.91,1.688-1.486H274.393z">
        </path>
        <path fill="#91979C" stroke="#91979C" stroke-miterlimit="10" d="M297.695,665.451v17.371h-1.086v-1.629h-9.852v1.648h-1.086v-17.391H297.695z M286.758,672.67h9.852v-6.152h-9.852V672.67z M286.758,680.129h9.852v-6.395h-9.852V680.129z">
        </path>
      </g>
    </g>
        
    <g>
      <g>
        <path fill="#91979C" stroke="#91979C" stroke-miterlimit="10" d="M121.75,561.906h1.448l5.75,14.355h-1.347l-1.669-4.283h-6.917l-1.669,4.283H116L121.75,561.906z M119.418,570.934h6.112l-3.016-7.701h-0.061L119.418,570.934z">
        </path>
        <path fill="#91979C" stroke="#91979C" stroke-miterlimit="10" d="M134.276,574.531c0.201,0.176,0.302,0.416,0.302,0.725c0,0.268-0.107,0.51-0.322,0.725c-0.214,0.188-0.449,0.281-0.703,0.281c-0.295,0-0.536-0.102-0.724-0.303c-0.201-0.201-0.302-0.436-0.302-0.703c0-0.309,0.101-0.549,0.302-0.725c0.174-0.188,0.415-0.281,0.724-0.281C133.848,574.25,134.089,574.344,134.276,574.531z">
        </path>
        <path fill="#91979C" stroke="#91979C" stroke-miterlimit="10" d="M147.566,562.75c0.845,0.738,1.267,1.729,1.267,2.977c0,1.232-0.476,2.359-1.427,3.377c-0.47,0.496-1.462,1.26-2.976,2.293c-2.038,1.379-3.171,2.627-3.398,3.738h7.821v1.127h-9.329c0-1.234,0.476-2.373,1.428-3.418c0.59-0.67,1.595-1.494,3.016-2.473c1.206-0.859,2.018-1.496,2.433-1.91c0.791-0.859,1.187-1.777,1.187-2.756c0-0.951-0.295-1.688-0.885-2.211c-0.576-0.523-1.36-0.785-2.353-0.785c-1.045,0-1.869,0.35-2.473,1.047c-0.644,0.697-0.965,1.715-0.965,3.055h-1.247c0-1.607,0.442-2.875,1.327-3.799c0.845-0.926,1.971-1.387,3.378-1.387C145.67,561.625,146.735,562,147.566,562.75z">
        </path>
        <path fill="#91979C" stroke="#91979C" stroke-miterlimit="10" d="M162.123,563.996c0.697,1.287,1.046,2.982,1.046,5.088c0,2.078-0.349,3.773-1.046,5.086c-0.857,1.582-2.145,2.373-3.859,2.373c-1.717,0-3.003-0.791-3.86-2.373c-0.697-1.273-1.046-2.969-1.046-5.086c0-2.131,0.349-3.828,1.046-5.088c0.844-1.58,2.131-2.371,3.86-2.371C159.992,561.625,161.279,562.416,162.123,563.996z M155.268,564.842c-0.442,1.045-0.664,2.459-0.664,4.242c0,1.756,0.222,3.17,0.664,4.242c0.604,1.42,1.602,2.131,2.996,2.131c1.367,0,2.365-0.711,2.995-2.131c0.456-1.1,0.684-2.514,0.684-4.242c0-1.756-0.228-3.17-0.684-4.242c-0.616-1.422-1.615-2.133-2.995-2.133C156.869,562.709,155.871,563.42,155.268,564.842z">
        </path>
        <path fill="#91979C" stroke="#91979C" stroke-miterlimit="10" d="M173.342,561.906v14.355h-1.227v-12.828c-0.925,1.006-2.071,1.709-3.438,2.111v-1.246c0.684-0.201,1.348-0.504,1.991-0.906c0.63-0.414,1.192-0.91,1.688-1.486H173.342z">
        </path>
        <path fill="#91979C" stroke="#91979C" stroke-miterlimit="10" d="M189.849,562.77c0.751,0.684,1.126,1.543,1.126,2.574c0,0.75-0.194,1.414-0.583,1.99c-0.416,0.576-1.005,0.986-1.77,1.227v0.08c0.777,0.162,1.448,0.584,2.011,1.268c0.563,0.684,0.845,1.494,0.845,2.432c0,1.234-0.43,2.24-1.287,3.018c-0.898,0.791-2.158,1.186-3.779,1.186c-1.622,0-2.883-0.395-3.78-1.186c-0.858-0.766-1.287-1.77-1.287-3.018c0-0.938,0.281-1.748,0.845-2.432c0.536-0.684,1.213-1.105,2.03-1.268v-0.08c-0.777-0.24-1.374-0.65-1.789-1.227c-0.389-0.549-0.583-1.213-0.583-1.99c0-1.045,0.375-1.902,1.126-2.574c0.804-0.764,1.95-1.145,3.438-1.145C187.885,561.625,189.031,562.006,189.849,562.77z M183.516,570.088c-0.644,0.564-0.965,1.314-0.965,2.252c0,0.953,0.314,1.703,0.944,2.252c0.684,0.617,1.655,0.926,2.916,0.926c1.26,0,2.238-0.309,2.935-0.926c0.617-0.576,0.925-1.326,0.925-2.252c0-0.938-0.321-1.688-0.965-2.252c-0.67-0.629-1.635-0.943-2.895-0.943C185.15,569.145,184.186,569.459,183.516,570.088z M183.817,563.514c-0.523,0.482-0.784,1.105-0.784,1.871c0,0.791,0.241,1.426,0.724,1.91c0.59,0.563,1.475,0.844,2.654,0.844c1.166,0,2.051-0.281,2.653-0.844c0.482-0.484,0.724-1.119,0.724-1.91c0-0.766-0.261-1.389-0.784-1.871c-0.616-0.563-1.48-0.844-2.593-0.844C185.285,562.67,184.42,562.951,183.817,563.514z">
        </path>
        <path fill="#91979C" stroke="#91979C" stroke-miterlimit="10" d="M199.399,563.313c-0.818,1.447-1.87,2.662-3.157,3.641l-0.743-0.926c2.063-1.568,3.458-3.672,4.182-6.313l1.105,0.201c-0.228,0.803-0.509,1.58-0.844,2.332h12.707v1.064h-6.454v3.6h5.75v1.025h-5.75v4.684h7.097v1.086h-7.097v4.584h-1.066v-4.584h-9.43v-1.086h3.398v-5.709h6.031v-3.6H199.399z M200.203,572.621h4.926v-4.684h-4.926V572.621z">
        </path>
        <path fill="#91979C" stroke="#91979C" stroke-miterlimit="10" d="M223.606,561.906v14.355h-1.227v-12.828c-0.925,1.006-2.071,1.709-3.438,2.111v-1.246c0.684-0.201,1.348-0.504,1.991-0.906c0.63-0.414,1.192-0.91,1.688-1.486H223.606z">
        </path>
        <path fill="#91979C" stroke="#91979C" stroke-miterlimit="10" d="M236.676,571.717c-0.201,2.627-0.966,4.799-2.293,6.516l-0.844-0.766c1.38-1.795,2.091-4.107,2.131-6.936v-9.752h11.139v15.703c0,1.031-0.503,1.549-1.508,1.549h-2.634l-0.281-1.047c1.232,0.027,2.084,0.041,2.553,0.041c0.523,0,0.784-0.314,0.784-0.945v-4.363H236.676z M245.723,565.705v-3.879h-8.987v3.879H245.723z M236.735,566.73v3.961h8.987v-3.961H236.735z">
        </path>
        <path fill="#91979C" stroke="#91979C" stroke-miterlimit="10" d="M259.797,561.906v14.355h-1.227v-12.828c-0.925,1.006-2.071,1.709-3.438,2.111v-1.246c0.684-0.201,1.348-0.504,1.991-0.906c0.63-0.414,1.192-0.91,1.688-1.486H259.797z">
        </path>
        <path fill="#91979C" stroke="#91979C" stroke-miterlimit="10" d="M283.099,560.76v17.371h-1.086v-1.629h-9.852v1.648h-1.086V560.76H283.099z M272.161,567.979h9.852v-6.152h-9.852V567.979z M272.161,575.438h9.852v-6.395h-9.852V575.438z">
        </path>
      </g>
    </g>
  </g>
</svg>