<svg version="1.1" xmlns="http://www.w3.org/2000/svg" xmlns:xlink="http://www.w3.org/1999/xlink" x="0px" y="0px" viewBox="0 0 640 1657" enable-background="new 0 0 640 1657" xml:space="preserve">
<g>
    <animateTransform attributeName="transform" type="translate" values="0 0;-640 0" fill="freeze" begin="click+.5s" dur=".5s"></animateTransform>
    <g>
      <path fill="#FFFFFF" d="M590.609,842.641c0,12.078-9.789,21.867-21.867,21.867H71.257c-12.076,0-21.867-9.789-21.867-21.867V276.275c0-12.077,9.791-21.867,21.867-21.867h497.485c12.078,0,21.867,9.79,21.867,21.867V842.641z">
      </path><circle data-fjh="glanimate" fill="#FFFFFF" cx="320.729" cy="256.139" r="42.823"></circle>
      <path fill="#FFFFFF" d="M285.332,231.994c-8.838,14.442-12.619,22.415-37.357,22.415l31.252,0.045L285.332,231.994z">
      </path>
      <path fill="#FFFFFF" d="M356.219,232.085c8.838,14.442,12.619,22.414,37.357,22.414l-31.252,0.046L356.219,232.085z">
      </path>
    </g>
    <circle data-fjh="glanimate" fill="none" stroke="#24303B" stroke-width="7" stroke-miterlimit="10" cx="320.911" cy="257.048" r="39.362"></circle>
    <g>
      <rect data-fjh="glanimate" x="94.765" y="383.427" fill="none" width="448.284" height="67.789">
      </rect>
      <path fill="#24303B" stroke="#24303B" stroke-miterlimit="10" d="M105.186,386.937h1.419v11.931h2.91v1.228h-2.91v4.017h-1.419v-4.017h-8.853v-1.42L105.186,386.937z M105.113,388.934l-7.457,9.934h7.529v-9.934H105.113z">
      </path>
      <path fill="#24303B" stroke="#24303B" stroke-miterlimit="10" d="M116.515,402.043c0.241,0.208,0.361,0.497,0.361,0.865c0,0.321-0.129,0.61-0.385,0.866c-0.257,0.225-0.538,0.337-0.843,0.337c-0.353,0-0.642-0.12-0.865-0.36c-0.241-0.241-0.361-0.521-0.361-0.843c0-0.368,0.12-0.657,0.361-0.865c0.208-0.225,0.497-0.337,0.865-0.337C116.001,401.707,116.29,401.819,116.515,402.043z">
      </path>
      <path fill="#24303B" stroke="#24303B" stroke-miterlimit="10" d="M127.845,390.978c-1.188,4.763-2.734,8.379-4.643,10.849l-1.131-0.962c1.988-2.582,3.488-6.046,4.498-10.392L127.845,390.978z M128.302,406.18l-0.313-1.322c1.571,0.063,2.687,0.096,3.344,0.096c1.042,0,1.563-0.545,1.563-1.636v-18.426h1.348v18.763c0,1.684-0.811,2.525-2.43,2.525H128.302z M139.583,389.919c2.052,4.395,3.616,8.203,4.69,11.426l-1.179,0.818c-1.171-3.496-2.734-7.337-4.69-11.522L139.583,389.919z">
      </path>
      <path fill="#24303B" stroke="#24303B" stroke-miterlimit="10" d="M167.798,388.477v17.944h-1.275v-2.069h-13.734v2.117h-1.275v-17.992h5.629c0.609-1.283,1.042-2.63,1.299-4.042l1.396,0.193c-0.305,1.442-0.73,2.726-1.275,3.849H167.798z M152.788,395.573h13.734v-5.869h-13.734V395.573z M152.788,403.101h13.734v-6.277h-13.734V403.101z">
      </path>
      <path fill="#24303B" stroke="#24303B" stroke-miterlimit="10" d="M177.997,392.349c-0.882,1.348-1.78,2.534-2.694,3.561l-0.433-1.371c2.469-3.047,4.241-6.455,5.315-10.224l1.228,0.577c-0.546,1.797-1.26,3.545-2.142,5.244v16.381h-1.274V392.349z M181.557,387.899h15.539v1.251h-15.539V387.899z M195.412,398.387v8.058h-1.274v-1.322h-9.454v1.322h-1.299v-8.058H195.412z M183.794,391.459h11.209v1.179h-11.209V391.459z M183.794,394.851h11.209v1.202h-11.209V394.851z M184.684,403.872h9.454v-4.258h-9.454V403.872z M189.11,384.459c0.529,1.011,0.938,1.948,1.227,2.814l-1.154,0.457c-0.386-1.074-0.826-2.053-1.323-2.935L189.11,384.459z">
      </path>
      <path fill="#24303B" stroke="#24303B" stroke-miterlimit="10" d="M205.322,398.483c-0.241,3.111-1.147,5.685-2.719,7.722l-0.962-0.89c1.588-2.181,2.405-4.964,2.453-8.348v-11.401h17.56v17.992c0,1.572-0.785,2.357-2.356,2.357h-2.767l-0.337-1.274c0.962,0.048,1.853,0.072,2.67,0.072c0.994,0,1.491-0.546,1.491-1.636v-4.595h-7.048v7.168h-1.299v-7.168H205.322z M205.418,392.638v4.426l-0.023,0.192h6.614v-4.618H205.418z M212.009,386.841h-6.591v4.594h6.591V386.841z M220.355,391.435v-4.594h-7.048v4.594H220.355z M220.355,397.256v-4.618h-7.048v4.618H220.355z">
      </path>
      <path fill="#24303B" stroke="#24303B" stroke-miterlimit="10" d="M228.774,391.267h4.354v-3.873c-1.347,0.225-2.662,0.385-3.945,0.481l-0.433-1.203c3.479-0.24,6.479-0.857,8.996-1.852l0.626,1.106c-1.363,0.513-2.694,0.914-3.993,1.202v4.138h4.258v1.227h-4.258v1.371c1.491,1.363,2.926,2.839,4.306,4.426l-0.77,1.106c-1.363-1.828-2.542-3.271-3.536-4.329v11.281h-1.251v-11.546c-1.043,2.518-2.518,4.803-4.426,6.855l-0.554-1.371c2.357-2.31,4.018-4.907,4.979-7.794h-4.354V391.267z M248.691,386.288v19.22h-1.3v-1.997h-6.302v2.213h-1.274v-19.436H248.691z M241.09,402.284h6.302v-14.77h-6.302V402.284z">
      </path>
      <path fill="#24303B" stroke="#24303B" stroke-miterlimit="10" d="M254.512,392.012h4.786v11.041c0.802-0.673,1.732-1.523,2.791-2.55l0.337,1.371c-1.332,1.331-2.791,2.542-4.378,3.633l-0.529-1.155c0.32-0.288,0.48-0.593,0.48-0.914v-10.15h-3.487V392.012z M257.277,384.917c1.604,1.219,2.919,2.405,3.945,3.561l-0.89,0.89c-0.946-1.106-2.27-2.293-3.97-3.561L257.277,384.917z M265.36,405.146v1.396h-1.3v-15.179c-0.785,1.315-1.716,2.622-2.79,3.921l-0.409-1.322c2.262-2.919,3.85-6.102,4.764-9.55l1.274,0.24c-0.369,1.38-0.866,2.759-1.491,4.138h10.704v1.251h-4.667v3.656h4.113v1.227h-4.113v3.729h4.113v1.227h-4.113v4.041h4.979v1.227H265.36z M270.171,390.041h-4.811v3.656h4.811V390.041z M265.36,394.923v3.729h4.811v-3.729H265.36z M265.36,399.878v4.041h4.811v-4.041H265.36z M270.267,384.315c0.562,1.396,1.002,2.702,1.323,3.921l-1.131,0.409c-0.448-1.459-0.938-2.79-1.467-3.993L270.267,384.315z">
      </path>
      <path fill="#24303B" stroke="#24303B" stroke-miterlimit="10" d="M281.163,394.634h21.528v1.299h-21.528V394.634z">
      </path>
      <path fill="#24303B" stroke="#24303B" stroke-miterlimit="10" d="M308.536,387.875h4.137v-3.416h1.3v3.416h4.113v1.179h-4.113v3.921h4.449v1.202h-3.992v3.776h3.584v1.203h-3.584v4.763c0.096,0.016,0.184,0.048,0.264,0.096c1.508,0.514,4.907,0.771,10.199,0.771l4.475-0.072l-0.241,1.299h-3.969c-6.029,0-9.806-0.337-11.329-1.011c-1.428-0.642-2.687-1.819-3.776-3.535c-0.385,1.828-0.938,3.512-1.66,5.051l-0.986-0.89c1.283-2.887,1.973-6.126,2.068-9.718l1.203,0.144c-0.048,1.251-0.16,2.519-0.337,3.801c0.802,1.46,1.74,2.582,2.814,3.368v-9.045h-5.1v-1.202h4.618v-3.921h-4.137V387.875z M328.934,397.545c-0.144,1.876-0.417,3.103-0.817,3.68c-0.385,0.562-1.123,0.842-2.213,0.842h-4.21c-1.299,0-1.948-0.625-1.948-1.876v-7.77h6.735v-5.052h-7.168v-1.227h8.467v7.505h-6.735v6.134c0,0.674,0.369,1.011,1.106,1.011h3.536c0.785,0,1.299-0.249,1.539-0.746c0.209-0.433,0.361-1.402,0.457-2.91L328.934,397.545z">
      </path>
      <path fill="#24303B" stroke="#24303B" stroke-miterlimit="10" d="M341.178,395.885c-0.962,0.465-1.772,0.834-2.43,1.106v7.313c0,1.171-0.625,1.756-1.876,1.756h-2.237l-0.288-1.274c0.962,0.063,1.651,0.096,2.068,0.096c0.705,0,1.059-0.305,1.059-0.914v-6.471c-1.059,0.385-2.141,0.746-3.247,1.083l-0.337-1.299c1.154-0.272,2.349-0.626,3.584-1.059v-5.917h-3.271v-1.275h3.271v-4.57h1.274v4.57h2.599v1.275h-2.599v5.412c0.866-0.385,1.676-0.771,2.43-1.155V395.885z M344.882,405.243v1.154h-1.274V391.7c-0.642,1.026-1.363,2.037-2.165,3.031l-0.433-1.371c2.021-2.71,3.439-5.637,4.257-8.78l1.3,0.241c-0.386,1.395-0.866,2.742-1.443,4.041h10.15v1.25h-4.401v3.681h3.921v1.251h-3.921v3.681h3.921v1.25h-3.921v4.018h4.666v1.251H344.882z M349.597,390.112h-4.715v3.681h4.715V390.112z M344.882,395.043v3.681h4.715v-3.681H344.882z M344.882,399.974v4.018h4.715v-4.018H344.882z M349.766,384.532c0.561,1.331,1.002,2.59,1.322,3.776l-1.13,0.409c-0.449-1.411-0.938-2.694-1.468-3.849L349.766,384.532z">
      </path>
      <path fill="#24303B" stroke="#24303B" stroke-miterlimit="10" d="M378.101,393.047v-6.735h1.299v7.985h-7.409v9.237h7.24v-6.711h1.275v9.477h-1.275v-1.491h-15.827v1.491h-1.274v-9.477h1.274v6.711h7.24v-9.237h-7.408v-7.985h1.299v6.735h6.109v-8.563h1.347v8.563H378.101z">
      </path>
      <path fill="#24303B" stroke="#24303B" stroke-miterlimit="10" d="M398.979,385.831c-1.363,0.594-2.87,1.115-4.521,1.563v6.398h6.927v-9.044h1.3v9.044h5.7v1.299h-5.7v11.354h-1.3v-11.354h-6.951c-0.24,5.147-2.205,8.933-5.894,11.354l-0.986-0.865c3.496-2.214,5.356-5.709,5.581-10.488h-5.989v-1.299h6.013v-6.086c-1.699,0.369-3.407,0.626-5.123,0.771l-0.409-1.203c4.153-0.353,7.722-1.194,10.704-2.525L398.979,385.831z">
      </path>
      <path fill="#24303B" stroke="#24303B" stroke-miterlimit="10" d="M420.579,402.885c-2.197,0.898-4.587,1.604-7.168,2.116l-0.192-1.299c2.758-0.497,5.211-1.187,7.36-2.068V402.885z M419.111,385.037c-1.331,3.144-2.678,5.637-4.041,7.481c1.171-0.112,2.485-0.272,3.945-0.481c0.128-0.208,0.376-0.642,0.745-1.299c0.337-0.562,0.602-1.019,0.794-1.371l1.154,0.457c-2.421,4.153-4.369,7.032-5.845,8.636c1.876-0.321,3.752-0.778,5.629-1.371v1.227c-2.55,0.754-4.972,1.274-7.265,1.563l-0.36-1.227c0.224-0.097,0.424-0.217,0.601-0.361c1.074-0.994,2.35-2.67,3.825-5.027c-2.165,0.273-3.665,0.449-4.498,0.529l-0.313-1.202c0.193-0.08,0.377-0.241,0.554-0.481c1.476-2.165,2.75-4.69,3.824-7.577L419.111,385.037z M424.403,386.889h-2.502v-1.251h10.296v0.817c-0.401,2.197-0.803,4.13-1.203,5.798h3.127v0.77c-0.497,3.336-1.644,6.166-3.439,8.491c1.283,1.443,2.798,2.718,4.546,3.824l-0.817,1.083c-1.765-1.14-3.279-2.454-4.546-3.945c-1.476,1.62-3.28,2.95-5.413,3.993l-0.745-1.179c2.165-1.074,3.937-2.357,5.315-3.849c-1.668-2.165-2.886-4.675-3.656-7.529c-0.673,5.404-2.301,9.558-4.883,12.46l-0.986-0.842c3.224-3.56,4.859-9.276,4.907-17.15V386.889z M432.847,393.432h-3.368c0.417-1.523,0.874-3.705,1.371-6.543h-5.147v1.491c0,0.802-0.023,1.588-0.072,2.357c0.609,3.769,2.005,7.023,4.186,9.766C431.355,398.483,432.365,396.125,432.847,393.432z">
      </path>
      <path fill="#24303B" stroke="#24303B" stroke-miterlimit="10" d="M445.859,384.772h1.299v6.543h1.684v1.275h-5.989v1.852c0,0.466-0.017,1.115-0.048,1.948h4.666v10.031h-1.299v-8.756h-3.439c-0.257,3.656-0.923,6.454-1.997,8.395l-0.986-0.842c1.187-2.245,1.796-5.837,1.828-10.776v-9.188h1.275v6.062h3.007V384.772z M451.439,392.806v3.176c-0.096,4.329-0.85,7.777-2.261,10.343l-0.914-0.938c1.203-2.261,1.853-5.396,1.948-9.404v-9.719c3.753-0.063,7.168-0.561,10.247-1.491l0.626,1.155c-2.855,0.834-6.07,1.314-9.646,1.442v4.21h8.996v1.131c-0.577,3.415-1.684,6.302-3.319,8.659c1.235,1.668,2.759,2.967,4.57,3.896l-0.649,1.155c-1.876-0.979-3.447-2.31-4.714-3.993c-1.348,1.604-2.999,2.942-4.956,4.017l-0.625-1.13c1.94-1.075,3.552-2.39,4.835-3.945c-1.491-2.31-2.55-5.163-3.175-8.563H451.439z M453.581,392.806c0.593,2.935,1.522,5.421,2.79,7.457c1.395-2.101,2.333-4.586,2.814-7.457H453.581z">
      </path>
      <path fill="#24303B" stroke="#24303B" stroke-miterlimit="10" d="M466.305,385.638h9.429v1.251h-1.395v13.614l0.842-0.288c0.353-0.097,0.633-0.185,0.842-0.265v1.274c-0.385,0.129-0.946,0.305-1.684,0.529v4.739h-1.275v-4.378c-1.924,0.528-4.121,1.026-6.591,1.491l-0.313-1.251l1.756-0.289v-15.178h-1.611V385.638z M469.143,390.786h3.921v-3.896h-3.921V390.786z M469.143,395.861h3.921v-3.872h-3.921V395.861z M469.143,401.827c1.428-0.305,2.734-0.625,3.921-0.962v-3.801h-3.921V401.827z M480.473,399.205c-1.091,2.759-2.422,5.18-3.993,7.265l-1.059-0.77c1.523-1.988,2.822-4.338,3.897-7.048L480.473,399.205z M477.033,385.975h9.91v11.017h-9.91V385.975z M485.668,395.741v-8.515h-7.36v8.515H485.668z M484.417,398.58c1.732,2.742,3.063,5.14,3.993,7.192l-1.082,0.77c-1.026-2.342-2.342-4.778-3.945-7.313L484.417,398.58z">
      </path>
      <path fill="#24303B" stroke="#24303B" stroke-miterlimit="10" d="M492.859,391.315h3.079v-6.302h1.299v6.302h3.199v1.275h-3.199v8.924c1.251-0.369,2.35-0.737,3.296-1.106v1.322c-2.374,0.898-4.915,1.636-7.625,2.214l-0.337-1.348c1.106-0.192,2.229-0.433,3.367-0.722v-9.284h-3.079V391.315z M501.688,394.225v-1.202c3.176-1.86,5.998-3.792,8.468-5.797h-8.203v-1.228h10.079v1.179c-2.518,2.149-5.212,4.113-8.082,5.894h9.646c-0.129,5.469-0.369,8.996-0.722,10.584c-0.385,1.619-1.443,2.445-3.175,2.478c-0.562,0-1.323-0.017-2.285-0.048l-0.361-1.275c1.091,0.064,1.908,0.097,2.453,0.097c1.026-0.048,1.716-0.538,2.069-1.468c0.32-0.85,0.553-3.921,0.697-9.213h-2.093c-0.577,2.983-1.436,5.333-2.573,7.048c-1.235,1.797-3.111,3.416-5.629,4.859l-0.818-1.01c2.373-1.331,4.129-2.782,5.269-4.354c1.122-1.604,1.956-3.784,2.501-6.543h-2.236c-0.898,3.048-2.446,5.421-4.643,7.12l-0.842-1.01c2.021-1.571,3.431-3.608,4.233-6.11H501.688z">
      </path>
      <path fill="#24303B" stroke="#24303B" stroke-miterlimit="10" d="M521.966,392.349c-0.882,1.348-1.78,2.534-2.694,3.561l-0.433-1.371c2.469-3.047,4.241-6.455,5.315-10.224l1.228,0.577c-0.546,1.797-1.26,3.545-2.142,5.244v16.381h-1.274V392.349z M525.525,387.899h15.539v1.251h-15.539V387.899z M539.381,398.387v8.058h-1.274v-1.322h-9.454v1.322h-1.299v-8.058H539.381z M527.763,391.459h11.209v1.179h-11.209V391.459z M527.763,394.851h11.209v1.202h-11.209V394.851z M528.652,403.872h9.454v-4.258h-9.454V403.872z M533.079,384.459c0.529,1.011,0.938,1.948,1.227,2.814l-1.154,0.457c-0.386-1.074-0.826-2.053-1.323-2.935L533.079,384.459z">
      </path>
      <path fill="#24303B" stroke="#24303B" stroke-miterlimit="10" d="M271.978,433.471c-0.241,3.111-1.147,5.685-2.719,7.722l-0.962-0.89c1.588-2.181,2.405-4.964,2.453-8.348v-11.401h17.56v17.992c0,1.572-0.785,2.357-2.356,2.357h-2.767l-0.337-1.274c0.962,0.048,1.853,0.072,2.67,0.072c0.994,0,1.491-0.546,1.491-1.636v-4.595h-7.048v7.168h-1.299v-7.168H271.978z M272.073,427.626v4.426l-0.023,0.192h6.614v-4.618H272.073z M278.664,421.83h-6.591v4.594h6.591V421.83z M287.011,426.423v-4.594h-7.048v4.594H287.011z M287.011,432.245v-4.618h-7.048v4.618H287.011z">
      </path>
      <path fill="#24303B" stroke="#24303B" stroke-miterlimit="10" d="M297.738,427.891c-0.77,1.171-1.668,2.35-2.693,3.536l-0.409-1.275c2.582-3.159,4.45-6.735,5.604-10.729l1.179,0.554c-0.658,2.101-1.459,4.025-2.405,5.773v15.731h-1.275V427.891z M301.106,423.826h6.614v-4.354h1.275v4.354h6.735v1.251h-5.292c1.154,4.153,3.23,7.85,6.229,11.089l-0.842,1.034c-3.095-3.608-5.22-7.649-6.374-12.123h-0.457v10.03h3.993v1.251h-3.993v5.1h-1.275v-5.1H303.8v-1.251h3.921v-10.03h-0.433c-1.251,5.02-3.408,9.133-6.471,12.34l-0.673-1.106c2.901-2.902,4.963-6.647,6.182-11.233h-5.22V423.826z">
      </path>
      <path fill="#24303B" stroke="#24303B" stroke-miterlimit="10" d="M328.552,435.541c-1.636,1.94-3.681,3.664-6.134,5.171l-0.818-1.082c2.341-1.363,4.346-3.007,6.014-4.932L328.552,435.541z M328.552,441.361l-0.289-1.25c1.154,0.063,1.988,0.096,2.502,0.096c0.673,0,1.01-0.329,1.01-0.986v-6.351l-7.673,0.409l-0.361-1.154c0.465-0.048,0.851-0.128,1.155-0.24c2.244-0.946,4.682-2.43,7.313-4.45c-1.765,0.128-4.178,0.28-7.24,0.457l-0.289-1.179c0.353-0.048,0.657-0.128,0.914-0.241c1.427-0.673,3.055-2.021,4.883-4.041c-2.309,0.129-4.618,0.192-6.928,0.192l-0.385-1.13c6.96-0.032,12.645-0.569,17.055-1.612l0.649,1.106c-2.405,0.61-5.316,1.051-8.731,1.323c-1.7,1.94-3.4,3.432-5.1,4.475c2.213-0.129,4.394-0.272,6.543-0.434c1.106-0.914,2.261-1.9,3.464-2.958l1.202,0.577c-4.266,3.816-8.01,6.511-11.233,8.082c4.33-0.24,8.042-0.529,11.138-0.866c-0.69-0.897-1.363-1.731-2.021-2.501l0.962-0.626c2.004,2.31,3.512,4.306,4.522,5.989l-1.035,0.722c-0.48-0.817-1.034-1.659-1.659-2.525c-1.508,0.16-3.464,0.337-5.869,0.529v6.759c0,1.219-0.61,1.828-1.828,1.828H328.552z M336.441,434.505c2.405,1.78,4.45,3.576,6.134,5.389l-0.938,0.938c-1.459-1.699-3.487-3.527-6.086-5.484L336.441,434.505z">
      </path>
      <path fill="#24303B" stroke="#24303B" stroke-miterlimit="10" d="M356.405,422.887c0.866,0.818,1.299,1.925,1.299,3.32c0,1.01-0.305,1.916-0.914,2.718c-0.24,0.305-0.874,0.922-1.9,1.853c-0.545,0.48-0.946,0.938-1.202,1.371c-0.337,0.577-0.505,1.194-0.505,1.852v0.697h-1.468V434c0-0.705,0.145-1.347,0.434-1.924c0.353-0.771,1.09-1.644,2.213-2.622c0.608-0.609,0.978-0.994,1.106-1.155c0.513-0.657,0.77-1.338,0.77-2.044c0-1.011-0.297-1.828-0.891-2.454c-0.609-0.608-1.491-0.914-2.646-0.914c-1.283,0-2.253,0.434-2.91,1.299c-0.578,0.722-0.866,1.717-0.866,2.983h-1.443c0-1.604,0.44-2.919,1.323-3.945c0.945-1.09,2.269-1.636,3.969-1.636C354.28,421.588,355.491,422.022,356.405,422.887z M353.326,437.032c0.241,0.208,0.361,0.497,0.361,0.865c0,0.337-0.12,0.626-0.361,0.866c-0.256,0.225-0.545,0.337-0.865,0.337c-0.354,0-0.649-0.12-0.891-0.36c-0.225-0.225-0.336-0.506-0.336-0.843c0-0.368,0.111-0.657,0.336-0.865c0.225-0.225,0.521-0.337,0.891-0.337C352.813,436.695,353.102,436.807,353.326,437.032z">
      </path>
    </g>
        
    <g>
      <path fill="#E5EBF0" d="M566.01,570.119c0,24.607-19.947,44.555-44.555,44.555H120.187c-24.607,0-44.555-19.947-44.555-44.555l0,0c0-24.607,19.947-44.555,44.555-44.555h401.268C546.063,525.564,566.01,545.512,566.01,570.119L566.01,570.119z">
      </path>
      <path fill="#E5EBF0" d="M565.463,674.809c0,24.607-19.947,44.555-44.555,44.555H119.64c-24.607,0-44.555-19.947-44.555-44.555l0,0c0-24.607,19.947-44.555,44.555-44.555h401.268C545.516,630.254,565.463,650.201,565.463,674.809L565.463,674.809z">
      </path>
      <path fill="#E5EBF0" d="M566.555,779.498c0,24.607-19.947,44.555-44.555,44.555H120.732c-24.605,0-44.555-19.947-44.555-44.555l0,0c0-24.607,19.949-44.555,44.555-44.555H522C546.607,734.943,566.555,754.891,566.555,779.498L566.555,779.498z">
      </path>
    </g>
        
    <g>
      <g>
        <path fill="#24303B" stroke="#24303B" stroke-width="3" stroke-miterlimit="10" d="M325.43,235.492h3.555v29.882h7.291v3.072h-7.291v10.061h-3.555v-10.061H303.26v-3.554L325.43,235.492z M325.25,240.492l-18.676,24.881h18.856v-24.881H325.25z">
        </path>
      </g>
    </g>
        
    <g opacity="0">
      <animate attributeName="opacity" begin="click" dur=".3s" values="0;1" fill="freeze"></animate>
      <g>
        <path fill="#F1B932" d="M566.01,570.117c0,24.607-19.949,44.557-44.557,44.557H120.187c-24.607,0-44.557-19.949-44.557-44.557l0,0c0-24.607,19.949-44.555,44.557-44.555h401.266C546.061,525.563,566.01,545.51,566.01,570.117L566.01,570.117z">
        </path>
      </g>
      <circle data-fjh="glanimate" fill="#F1B932" cx="810.077" cy="1347.516" r="15"></circle>
    </g>
        
    <g opacity="0">
      <animate attributeName="opacity" begin="click" dur=".3s" values="0;1" fill="freeze"></animate>
      <g>
        <path fill="#F1B932" d="M566.555,779.498c0,24.607-19.947,44.555-44.555,44.555H120.732c-24.605,0-44.555-19.947-44.555-44.555l0,0c0-24.607,19.949-44.555,44.555-44.555H522C546.607,734.943,566.555,754.891,566.555,779.498L566.555,779.498z">
        </path>
      </g>
      <circle data-fjh="glanimate" fill="#F1B932" cx="903.313" cy="1347.516" r="15"></circle>
    </g>
        
    <g opacity="0">
      <animate attributeName="opacity" begin="click" dur=".3s" values="0;1" fill="freeze"></animate>
      <g>
        <path fill="#F1B932" d="M565.463,674.809c0,24.607-19.947,44.555-44.555,44.555H119.64c-24.607,0-44.555-19.947-44.555-44.555l0,0c0-24.607,19.947-44.555,44.555-44.555h401.268C545.516,630.254,565.463,650.201,565.463,674.809L565.463,674.809z">
        </path>
      </g>
      <circle data-fjh="glanimate" fill="#F1B932" cx="856.39" cy="1347.516" r="15"></circle>
    </g>
        
    <g>
      <g>
        <path fill="#91979C" stroke="#91979C" stroke-miterlimit="10" d="M127.561,772.252c1.112,0.844,1.763,1.971,1.95,3.377h-1.186c-0.175-1.111-0.718-1.977-1.629-2.594c-0.858-0.604-1.877-0.904-3.056-0.904c-1.757,0-3.137,0.623-4.143,1.869c-0.938,1.154-1.407,2.662-1.407,4.525s0.463,3.357,1.388,4.482c0.965,1.193,2.312,1.789,4.041,1.789c1.206,0,2.259-0.328,3.156-0.984c0.952-0.725,1.568-1.75,1.851-3.076h1.186c-0.309,1.662-1.059,2.963-2.252,3.9c-1.126,0.857-2.433,1.287-3.92,1.287c-2.146,0-3.82-0.736-5.026-2.211c-1.1-1.342-1.649-3.07-1.649-5.188c0-2.119,0.563-3.867,1.689-5.248c1.22-1.516,2.922-2.271,5.106-2.271C125.188,771.006,126.488,771.42,127.561,772.252z">
        </path>
        <path fill="#91979C" stroke="#91979C" stroke-miterlimit="10" d="M135.904,783.912c0.201,0.176,0.302,0.416,0.302,0.725c0,0.268-0.107,0.51-0.322,0.725c-0.214,0.188-0.449,0.281-0.703,0.281c-0.295,0-0.536-0.102-0.724-0.303c-0.201-0.201-0.302-0.436-0.302-0.703c0-0.309,0.101-0.549,0.302-0.725c0.174-0.188,0.415-0.281,0.724-0.281C135.476,783.631,135.717,783.725,135.904,783.912z">
        </path>
        <path fill="#91979C" stroke="#91979C" stroke-miterlimit="10" d="M147.526,770.141c-0.791,1.326-1.616,2.42-2.474,3.277c0.147,0.295,0.288,0.609,0.423,0.945c0.576,1.621,0.891,3.9,0.944,6.836c0,3.123-0.402,5.006-1.206,5.648c-0.456,0.35-1.126,0.523-2.011,0.523l-1.246-0.02l-0.322-1.025c0.469,0.039,0.911,0.061,1.327,0.061c0.75,0,1.267-0.121,1.548-0.363c0.576-0.535,0.865-2.158,0.865-4.865c-0.027-1.166-0.074-2.125-0.142-2.875c-1.019,1.568-2.278,2.908-3.779,4.021l-0.623-0.945c1.796-1.26,3.196-2.775,4.202-4.543c-0.148-0.766-0.315-1.414-0.503-1.951c-0.135-0.322-0.234-0.549-0.302-0.684c-0.737,0.631-1.648,1.281-2.734,1.951l-0.604-0.945c1.072-0.537,2.018-1.193,2.835-1.971c-0.59-1.02-1.34-1.938-2.252-2.754l0.865-0.664c0.885,0.885,1.602,1.77,2.151,2.654c0.831-0.871,1.541-1.83,2.131-2.875L147.526,770.141z M148.028,771.689h2.393v-2.354h1.065v2.354h3.56v-2.354h1.085v2.354h2.493v1.004h-2.493v2.855h2.936v1.025h-11.54v-1.025h2.895v-2.855h-2.393V771.689z M157.739,778.385v9.088h-1.065v-1.047h-6.735v1.025h-1.065v-9.066H157.739z M149.938,781.943h6.735v-2.574h-6.735V781.943z M149.938,785.422h6.735v-2.514h-6.735V785.422z M151.486,775.549h3.56v-2.855h-3.56V775.549z">
        </path>
        <path fill="#91979C" stroke="#91979C" stroke-miterlimit="10" d="M163.088,770.201h7.459v1.045h-1.105v11.18c0.482-0.188,0.844-0.322,1.085-0.402v1.064l-1.085,0.383v4.242h-1.006v-3.92c-1.568,0.482-3.345,0.938-5.328,1.367l-0.261-1.025l1.286-0.242v-12.646h-1.045V770.201z M165.158,774.443h3.277v-3.197h-3.277V774.443z M165.158,778.605h3.277v-3.156h-3.277V778.605z M165.158,783.672c1.1-0.254,2.191-0.557,3.277-0.904v-3.158h-3.277V783.672z M170.346,779.229h10.717v0.965h-6.635l-0.885,2.051h6.293c-0.121,2.48-0.389,3.98-0.805,4.504c-0.429,0.469-1.246,0.703-2.452,0.703c-0.778,0-1.549-0.033-2.313-0.1l-0.362-0.945c1.032,0.066,1.85,0.1,2.453,0.1c1.005,0,1.629-0.18,1.87-0.543c0.228-0.375,0.395-1.299,0.502-2.773h-6.554l1.186-2.996h-3.016V779.229z M171.392,770.984h3.9v-1.709h1.025v1.709h3.9v6.676h-8.826V770.984z M172.377,773.92h2.915v-2.01h-2.915V773.92z M175.292,776.756v-1.951h-2.915v1.951H175.292z M176.317,771.91v2.01h2.915v-2.01H176.317z M179.232,776.756v-1.951h-2.915v1.951H179.232z">
        </path>
      </g>
    </g>
        
    <g>
      <g>
        <path fill="#91979C" stroke="#91979C" stroke-miterlimit="10" d="M117.468,666.598h6.313c1.313,0,2.345,0.314,3.096,0.945c0.765,0.643,1.146,1.527,1.146,2.652c0,0.818-0.234,1.521-0.704,2.111c-0.456,0.551-1.052,0.939-1.789,1.166c0.938,0.162,1.688,0.543,2.252,1.146c0.549,0.631,0.824,1.422,0.824,2.373c0,1.354-0.489,2.379-1.468,3.076c-0.858,0.59-1.997,0.885-3.418,0.885h-6.253V666.598z M118.694,667.662v5.35h4.825c1.019,0,1.816-0.229,2.393-0.684c0.59-0.471,0.885-1.141,0.885-2.012c0-0.885-0.288-1.555-0.864-2.01c-0.563-0.43-1.361-0.645-2.393-0.645H118.694z M118.694,674.057v5.83h4.986c1.059,0,1.916-0.215,2.573-0.643c0.751-0.523,1.126-1.281,1.126-2.273c0-0.977-0.349-1.715-1.046-2.211c-0.643-0.469-1.534-0.703-2.674-0.703H118.694z">
        </path>
        <path fill="#91979C" stroke="#91979C" stroke-miterlimit="10" d="M134.799,679.223c0.201,0.176,0.302,0.416,0.302,0.725c0,0.268-0.107,0.51-0.322,0.725c-0.214,0.188-0.449,0.281-0.703,0.281c-0.295,0-0.536-0.102-0.724-0.303c-0.201-0.201-0.302-0.436-0.302-0.703c0-0.309,0.101-0.549,0.302-0.725c0.174-0.188,0.415-0.281,0.724-0.281C134.37,678.941,134.611,679.035,134.799,679.223z">
        </path>
        <path fill="#91979C" stroke="#91979C" stroke-miterlimit="10" d="M140.168,682.682l-0.242-1.045c0.805,0.053,1.381,0.08,1.729,0.08c0.563,0,0.845-0.295,0.845-0.885v-5.449c-1.032,0.402-1.957,0.738-2.774,1.006l-0.302-1.086c0.979-0.268,2.004-0.604,3.076-1.006v-4.846h-2.715v-1.064h2.715v-3.779h1.086v3.779h2.513v1.064h-2.513v4.404c0.736-0.336,1.521-0.73,2.352-1.186v1.084c-0.938,0.496-1.722,0.885-2.352,1.166v6.193c0,1.045-0.517,1.568-1.549,1.568H140.168z M147.063,666.557v-1.006h9.912c-0.04,3.713-0.254,5.932-0.643,6.656c-0.402,0.723-1.093,1.086-2.071,1.086c-0.241,0-0.777-0.014-1.608-0.041l-0.281-0.984l1.628,0.061c0.817-0.027,1.327-0.35,1.528-0.967c0.201-0.602,0.321-2.203,0.362-4.805h-4.102c-0.349,1.797-0.818,3.211-1.408,4.242c-0.696,1.152-1.722,2.166-3.076,3.037l-0.684-0.846c1.247-0.805,2.179-1.682,2.795-2.633c0.576-0.951,1.006-2.219,1.287-3.801H147.063z M156.715,674.76v8.123h-1.086v-0.904h-6.977v0.904h-1.086v-8.123H156.715z M148.652,680.932h6.977v-5.127h-6.977V680.932z">
        </path>
        <path fill="#91979C" stroke="#91979C" stroke-miterlimit="10" d="M161.982,665.512h7.459v1.045h-1.105v11.18c0.482-0.188,0.844-0.322,1.085-0.402v1.064l-1.085,0.383v4.242h-1.006v-3.92c-1.568,0.482-3.345,0.938-5.328,1.367l-0.261-1.025l1.286-0.242v-12.646h-1.045V665.512z M164.053,669.754h3.277v-3.197h-3.277V669.754z M164.053,673.916h3.277v-3.156h-3.277V673.916z M164.053,678.982c1.1-0.254,2.191-0.557,3.277-0.904v-3.158h-3.277V678.982z M169.24,674.539h10.717v0.965h-6.635l-0.885,2.051h6.293c-0.121,2.48-0.389,3.98-0.805,4.504c-0.429,0.469-1.246,0.703-2.452,0.703c-0.778,0-1.549-0.033-2.313-0.1l-0.362-0.945c1.032,0.066,1.85,0.1,2.453,0.1c1.005,0,1.629-0.18,1.87-0.543c0.228-0.375,0.395-1.299,0.502-2.773h-6.554l1.186-2.996h-3.016V674.539z M170.286,666.295h3.9v-1.709h1.025v1.709h3.9v6.676h-8.826V666.295z M171.271,669.23h2.915v-2.01h-2.915V669.23z M174.187,672.066v-1.951h-2.915v1.951H174.187z M175.212,667.221v2.01h2.915v-2.01H175.212z M178.127,672.066v-1.951h-2.915v1.951H178.127z">
        </path>
        <path fill="#91979C" stroke="#91979C" stroke-miterlimit="10" d="M197.166,682.783l-0.281-1.066l1.99,0.061c0.59,0,0.885-0.303,0.885-0.904v-14.336h-13.592v16.326h-1.085v-17.393h15.763v15.643c0,1.113-0.543,1.67-1.629,1.67H197.166z M192.542,678.398c-0.711-1.098-1.435-2.17-2.172-3.217c-0.751,2.039-1.682,3.814-2.794,5.328l-0.704-0.844c1.126-1.568,2.051-3.404,2.774-5.51c-1.086-1.447-2.07-2.66-2.955-3.639l0.684-0.684c0.817,0.857,1.695,1.918,2.634,3.178c0.415-1.422,0.771-3.07,1.065-4.947l1.025,0.182c-0.335,2.131-0.777,4.061-1.327,5.791c0.724,0.979,1.555,2.197,2.493,3.658L192.542,678.398z M198.514,679.324c-0.711-1.193-1.468-2.42-2.272-3.68c-0.831,2.064-1.837,3.848-3.016,5.348l-0.684-0.844c1.179-1.541,2.171-3.398,2.976-5.57c-1.005-1.473-1.978-2.768-2.915-3.879l0.703-0.684c0.885,1.018,1.756,2.15,2.614,3.396c0.509-1.568,0.918-3.33,1.227-5.287l1.025,0.182c-0.376,2.266-0.879,4.328-1.509,6.191c0.858,1.301,1.716,2.668,2.574,4.102L198.514,679.324z">
        </path>
      </g>
    </g>
        
    <g>
      <g>
        <path fill="#91979C" stroke="#91979C" stroke-miterlimit="10" d="M121.75,561.906h1.448l5.75,14.355h-1.347l-1.669-4.283h-6.917l-1.669,4.283H116L121.75,561.906z M119.418,570.934h6.112l-3.016-7.701h-0.061L119.418,570.934z">
        </path>
        <path fill="#91979C" stroke="#91979C" stroke-miterlimit="10" d="M134.276,574.531c0.201,0.176,0.302,0.416,0.302,0.725c0,0.268-0.107,0.51-0.322,0.725c-0.214,0.188-0.449,0.281-0.703,0.281c-0.295,0-0.536-0.102-0.724-0.303c-0.201-0.201-0.302-0.436-0.302-0.703c0-0.309,0.101-0.549,0.302-0.725c0.174-0.188,0.415-0.281,0.724-0.281C133.848,574.25,134.089,574.344,134.276,574.531z">
        </path>
        <path fill="#91979C" stroke="#91979C" stroke-miterlimit="10" d="M145.898,560.76c-0.791,1.326-1.616,2.42-2.474,3.277c0.147,0.295,0.288,0.609,0.423,0.945c0.576,1.621,0.891,3.9,0.944,6.836c0,3.123-0.402,5.006-1.206,5.648c-0.456,0.35-1.126,0.523-2.011,0.523l-1.246-0.02l-0.322-1.025c0.469,0.039,0.911,0.061,1.327,0.061c0.75,0,1.267-0.121,1.548-0.363c0.576-0.535,0.865-2.158,0.865-4.865c-0.027-1.166-0.074-2.125-0.142-2.875c-1.019,1.568-2.278,2.908-3.779,4.021l-0.623-0.945c1.796-1.26,3.196-2.775,4.202-4.543c-0.148-0.766-0.315-1.414-0.503-1.951c-0.135-0.322-0.234-0.549-0.302-0.684c-0.737,0.631-1.648,1.281-2.734,1.951l-0.604-0.945c1.072-0.537,2.018-1.193,2.835-1.971c-0.59-1.02-1.34-1.938-2.252-2.754l0.865-0.664c0.885,0.885,1.602,1.77,2.151,2.654c0.831-0.871,1.541-1.83,2.131-2.875L145.898,560.76z M146.4,562.309h2.393v-2.354h1.065v2.354h3.56v-2.354h1.085v2.354h2.493v1.004h-2.493v2.855h2.936v1.025h-11.54v-1.025h2.895v-2.855H146.4V562.309z M156.111,569.004v9.088h-1.065v-1.047h-6.735v1.025h-1.065v-9.066H156.111z M148.311,572.563h6.735v-2.574h-6.735V572.563z M148.311,576.041h6.735v-2.514h-6.735V576.041z M149.858,566.168h3.56v-2.855h-3.56V566.168z">
        </path>
        <path fill="#91979C" stroke="#91979C" stroke-miterlimit="10" d="M170.89,559.916c0,1.5-0.048,2.969-0.141,4.402c1.126,5.576,4.067,9.838,8.826,12.787l-0.724,0.926c-4.33-2.803-7.158-6.576-8.485-11.32c-1.112,4.57-3.994,8.352-8.646,11.34l-0.663-0.965c5.603-3.498,8.505-8.137,8.706-13.914l0.02-3.256H170.89z">
        </path>
        <path fill="#91979C" stroke="#91979C" stroke-miterlimit="10" d="M196.644,578.092l-0.281-1.066l1.99,0.061c0.59,0,0.885-0.303,0.885-0.904v-14.336h-13.592v16.326h-1.085v-17.393h15.763v15.643c0,1.113-0.543,1.67-1.629,1.67H196.644z M192.02,573.707c-0.711-1.098-1.435-2.17-2.172-3.217c-0.751,2.039-1.682,3.814-2.794,5.328l-0.704-0.844c1.126-1.568,2.051-3.404,2.774-5.51c-1.086-1.447-2.07-2.66-2.955-3.639l0.684-0.684c0.817,0.857,1.695,1.918,2.634,3.178c0.415-1.422,0.771-3.07,1.065-4.947l1.025,0.182c-0.335,2.131-0.777,4.061-1.327,5.791c0.724,0.979,1.555,2.197,2.493,3.658L192.02,573.707z M197.991,574.633c-0.711-1.193-1.468-2.42-2.272-3.68c-0.831,2.064-1.837,3.848-3.016,5.348l-0.684-0.844c1.179-1.541,2.171-3.398,2.976-5.57c-1.005-1.473-1.978-2.768-2.915-3.879l0.703-0.684c0.885,1.018,1.756,2.15,2.614,3.396c0.509-1.568,0.918-3.33,1.227-5.287l1.025,0.182c-0.376,2.266-0.879,4.328-1.509,6.191c0.858,1.301,1.716,2.668,2.574,4.102L197.991,574.633z">
        </path>
      </g>
    </g>
  </g>
</svg>