<svg version="1.1" xmlns="http://www.w3.org/2000/svg" xmlns:xlink="http://www.w3.org/1999/xlink" x="0px" y="0px" viewBox="0 0 640 1657" enable-background="new 0 0 640 1657" xml:space="preserve">
<g>
    <animateTransform attributeName="transform" type="translate" values="0 0;-640 0" fill="freeze" begin="click+.5s" dur=".5s"></animateTransform>
    <g>
      <path fill="#FFFFFF" d="M590.609,842.641c0,12.078-9.789,21.867-21.867,21.867H71.257c-12.076,0-21.867-9.789-21.867-21.867V276.275c0-12.077,9.791-21.867,21.867-21.867h497.485c12.078,0,21.867,9.79,21.867,21.867V842.641z">
      </path>
      <circle data-fjh="glanimate" fill="#FFFFFF" cx="320.729" cy="256.139" r="42.823"></circle>
      <path fill="#FFFFFF" d="M285.332,231.994c-8.838,14.441-12.619,22.414-37.357,22.414l31.252,0.045L285.332,231.994z">
      </path>
      <path fill="#FFFFFF" d="M356.219,232.085c8.838,14.442,12.619,22.414,37.357,22.414l-31.252,0.046L356.219,232.085z">
      </path>
    </g>
    <circle data-fjh="glanimate" fill="none" stroke="#24303B" stroke-width="7" stroke-miterlimit="10" cx="320.911" cy="257.048" r="39.362"></circle>
    <g>
      <rect data-fjh="glanimate" x="94.765" y="383.427" fill="none" width="448.284" height="67.789">
      </rect>
      <path fill="#24303B" stroke="#24303B" stroke-miterlimit="10" d="M98.402,386.937h9.718v1.347h-8.491l-0.602,6.327H99.1c0.513-0.609,1.146-1.066,1.9-1.371c0.674-0.305,1.419-0.457,2.237-0.457c1.636,0,2.958,0.505,3.969,1.515c1.042,1.075,1.563,2.526,1.563,4.354c0,1.684-0.586,3.087-1.756,4.209c-1.123,1.059-2.526,1.588-4.21,1.588c-1.476,0-2.734-0.409-3.776-1.227c-1.171-0.882-1.82-2.101-1.948-3.656h1.468c0.128,1.171,0.608,2.076,1.442,2.718c0.771,0.594,1.708,0.89,2.814,0.89c1.299,0,2.373-0.425,3.224-1.274c0.85-0.882,1.274-1.964,1.274-3.247c0-1.459-0.4-2.606-1.202-3.44c-0.77-0.785-1.82-1.179-3.151-1.179c-0.866,0-1.651,0.192-2.357,0.578c-0.722,0.4-1.274,0.97-1.659,1.707h-1.396L98.402,386.937z">
      </path>
      <path fill="#24303B" stroke="#24303B" stroke-miterlimit="10" d="M116.515,402.043c0.241,0.208,0.361,0.497,0.361,0.865c0,0.321-0.129,0.61-0.385,0.866c-0.257,0.225-0.538,0.337-0.843,0.337c-0.353,0-0.642-0.12-0.865-0.36c-0.241-0.241-0.361-0.521-0.361-0.843c0-0.368,0.12-0.657,0.361-0.865c0.208-0.225,0.497-0.337,0.865-0.337C116.001,401.707,116.29,401.819,116.515,402.043z">
      </path>
      <path fill="#24303B" stroke="#24303B" stroke-miterlimit="10" d="M122.553,396.053h21.264v1.155h-10.295l-0.963,1.996h9.478v5.244c0,1.347-0.649,2.021-1.948,2.021h-1.708l-0.337-1.154l1.66,0.048c0.722,0,1.082-0.394,1.082-1.179v-3.849h-4.329v5.941h-1.251v-5.941h-4.041v5.941h-1.251v-5.941h-4.041v6.182h-1.275v-7.313h6.688l0.914-1.996h-9.646V396.053z M124.02,385.398h18.354v1.106h-8.539v1.852h9.285v4.739h-1.251v-3.704h-8.034v5.508h-1.299v-5.508h-8.034v3.704h-1.251v-4.739h9.285v-1.852h-8.516V385.398z M126.064,391.026h5.003v0.914h-5.003V391.026z M126.064,393.432h5.003v0.914h-5.003V393.432z M135.277,391.026h4.979v0.914h-4.979V391.026z M135.301,393.432h5.027v0.914h-5.027V393.432z">
      </path>
      <path fill="#24303B" stroke="#24303B" stroke-miterlimit="10" d="M149.06,385.566h21.168v1.203h-7.265v2.478h5.749v5.797h-10.151c-0.369,0.689-0.826,1.516-1.371,2.478h13.303v1.227h-5.269c-0.497,1.572-1.451,2.895-2.862,3.969c2.533,0.786,5.14,1.716,7.817,2.791l-0.794,1.058c-2.662-1.122-5.404-2.141-8.226-3.055c-0.064,0.032-0.097,0.057-0.097,0.072c-2.31,1.251-6.046,2.213-11.209,2.887l-0.506-1.179c4.587-0.529,7.986-1.291,10.199-2.285c-2.036-0.625-4.121-1.179-6.254-1.66c0.577-0.865,1.131-1.731,1.66-2.598h-6.183v-1.227h6.928l1.419-2.478h-6.542v-5.797h5.749v-2.478h-7.265V385.566z M156.324,393.889v-3.513h-4.498v3.513H156.324z M163.901,398.748h-7.457c-0.514,0.818-0.954,1.5-1.323,2.045c1.828,0.401,3.769,0.898,5.821,1.491C162.417,401.337,163.403,400.159,163.901,398.748z M161.736,389.247v-2.478h-4.186v2.478H161.736z M161.736,393.889v-3.513h-4.186v3.513H161.736z M167.461,393.889v-3.513h-4.498v3.513H167.461z">
      </path>
      <path fill="#24303B" stroke="#24303B" stroke-miterlimit="10" d="M183.072,402.621c-2.261,1.171-4.803,2.101-7.625,2.79l-0.168-1.274c2.95-0.674,5.548-1.58,7.793-2.719V402.621z M180.764,385.061c-1.268,3.191-2.542,5.717-3.825,7.577c1.267-0.145,2.574-0.313,3.921-0.505c0.642-1.235,1.131-2.149,1.468-2.742l1.202,0.433c-2.422,4.378-4.386,7.393-5.894,9.044c1.86-0.337,3.688-0.817,5.484-1.443v1.203c-2.39,0.802-4.746,1.363-7.071,1.684l-0.361-1.202c0.225-0.097,0.434-0.225,0.626-0.385c1.106-1.123,2.389-2.927,3.849-5.413c-0.851,0.129-2.333,0.329-4.45,0.602l-0.313-1.202c0.208-0.112,0.393-0.265,0.553-0.457c1.363-2.165,2.55-4.723,3.561-7.674L180.764,385.061z M184.011,395.693l-0.842-1.059c4.65-1.78,7.865-4.321,9.646-7.625h-8.491v-1.274h10.079v1.034c-0.706,1.507-1.636,2.862-2.791,4.064c2.133,1.363,3.929,2.727,5.389,4.09l-0.914,0.938c-1.299-1.299-3.071-2.701-5.316-4.209C188.974,393.288,186.721,394.634,184.011,395.693z M189.398,398.459h-4.931v-1.251h11.209v1.251h-4.979v5.893h6.086v1.299h-13.422v-1.299h6.037V398.459z">
      </path>
      <path fill="#24303B" stroke="#24303B" stroke-miterlimit="10" d="M218.143,406.012c-0.865,0-2.357-0.017-4.474-0.048c-1.684-0.049-2.999-0.201-3.945-0.457c-1.01-0.289-1.9-0.883-2.67-1.78c-0.321-0.417-0.649-0.626-0.986-0.626c-0.657,0-1.708,1.139-3.15,3.416l-0.986-0.89c1.379-2.133,2.565-3.368,3.56-3.704v-7.698h-3.632v-1.25h4.858v8.996c0.257,0.112,0.529,0.329,0.818,0.649c0.625,0.722,1.322,1.251,2.093,1.588c0.865,0.304,2.021,0.48,3.464,0.528c1.667,0.032,3.287,0.049,4.858,0.049l3.127-0.024l2.43-0.096l-0.313,1.347H218.143z M203.325,384.941c1.684,1.314,3.071,2.598,4.161,3.849l-0.938,0.938c-0.994-1.234-2.365-2.541-4.113-3.921L203.325,384.941z M213.957,402.837l-0.265-1.275c1.476,0.064,2.534,0.097,3.176,0.097c0.737,0,1.106-0.337,1.106-1.011v-10.704h-8.948v-1.299h8.948v-4.017h1.299v4.017h3.608v1.299h-3.608v11.041c0,1.235-0.649,1.853-1.948,1.853H213.957z M211.312,392.374c1.523,1.78,2.702,3.359,3.536,4.738l-1.106,0.77c-0.866-1.491-2.029-3.103-3.488-4.834L211.312,392.374z">
      </path>
      <path fill="#24303B" stroke="#24303B" stroke-miterlimit="10" d="M239.286,397.136c-1.46,0.497-2.999,0.954-4.619,1.371v5.532c0,1.396-0.665,2.093-1.996,2.093h-2.646l-0.289-1.227c0.866,0.048,1.691,0.072,2.478,0.072c0.77,0,1.154-0.426,1.154-1.275v-4.883c-1.491,0.337-3.159,0.658-5.003,0.962l-0.192-1.274c1.828-0.289,3.56-0.626,5.195-1.011v-5.027h-5.147v-1.25h5.147v-3.777c-1.363,0.289-2.766,0.529-4.209,0.722l-0.265-1.251c3.432-0.385,6.486-1.098,9.164-2.141l0.457,1.227c-1.219,0.434-2.501,0.818-3.849,1.155v4.065h6.303c-0.16-1.908-0.24-4.13-0.24-6.663h1.299c0,2.518,0.072,4.738,0.216,6.663h7.577v1.25h-7.48c0.176,1.86,0.417,3.408,0.722,4.643c0.176,0.722,0.368,1.396,0.577,2.021c1.283-1.491,2.39-3.199,3.319-5.123l1.131,0.602c-1.106,2.309-2.43,4.273-3.969,5.893c0.336,0.883,0.737,1.684,1.202,2.405c0.818,1.203,1.491,1.805,2.021,1.805c0.577-0.032,1.074-1.468,1.491-4.306l1.155,0.625c-0.577,3.384-1.396,5.075-2.454,5.075c-0.93,0-1.94-0.729-3.03-2.188c-0.497-0.705-0.954-1.523-1.371-2.453c-1.78,1.651-3.817,2.926-6.11,3.824l-0.722-1.106c2.422-0.914,4.53-2.253,6.326-4.018c-0.305-0.833-0.577-1.764-0.817-2.79c-0.321-1.347-0.569-2.982-0.746-4.907h-6.398v4.715c1.636-0.433,3.176-0.89,4.619-1.371V397.136z M244.674,384.869c1.732,1.171,3.199,2.373,4.402,3.608l-0.914,0.914c-1.075-1.139-2.534-2.365-4.378-3.681L244.674,384.869z">
      </path>
      <path fill="#24303B" stroke="#24303B" stroke-miterlimit="10" d="M262.979,388.813v16.165h-1.251v-1.468h-4.858v2.141h-1.251v-16.838h2.165c0.496-1.362,0.857-2.798,1.082-4.306l1.323,0.169c-0.257,1.476-0.642,2.854-1.154,4.137H262.979z M256.869,395.428h4.858v-5.364h-4.858V395.428z M256.869,402.308h4.858v-5.701h-4.858V402.308z M275.438,388.837c0,7.714-0.112,12.517-0.337,14.408c-0.24,1.925-1.354,2.887-3.343,2.887l-2.357-0.048l-0.313-1.203c0.963,0.048,1.805,0.072,2.526,0.072c1.299,0,2.044-0.714,2.236-2.141c0.177-1.314,0.289-5.54,0.337-12.677h-7.096c-0.689,1.588-1.5,2.991-2.43,4.21l-0.77-1.011c1.732-2.405,2.91-5.355,3.536-8.852l1.274,0.145c-0.305,1.571-0.673,2.975-1.106,4.209H275.438z M267.067,394.25c1.845,2.037,3.239,3.801,4.186,5.292l-1.034,0.746c-0.962-1.556-2.365-3.344-4.209-5.364L267.067,394.25z">
      </path>
      <path fill="#24303B" stroke="#24303B" stroke-miterlimit="10" d="M283.159,394.442l-0.24-1.202c1.924-1.011,4.186-3.945,6.783-8.805l1.227,0.409c-1.908,3.608-3.833,6.383-5.772,8.323c4.441-0.145,8.707-0.401,12.797-0.771c-0.963-1.587-2.005-3.118-3.127-4.594l1.13-0.577c1.925,2.533,3.696,5.252,5.316,8.154l-1.227,0.625c-0.594-1.074-1.059-1.892-1.396-2.453l-3.632,0.288v9.79c0,0.754,0.408,1.131,1.227,1.131h2.622c0.722,0,1.227-0.185,1.515-0.553c0.401-0.481,0.666-1.845,0.794-4.09l1.227,0.385c-0.192,2.55-0.553,4.138-1.082,4.763c-0.449,0.481-1.179,0.722-2.188,0.722h-3.271c-1.412,0-2.117-0.697-2.117-2.093v-9.958l-4.161,0.24c-0.225,3.48-0.834,6.054-1.828,7.722c-1.188,1.844-3.111,3.424-5.773,4.738l-0.842-1.106c2.518-1.171,4.306-2.565,5.364-4.186c0.978-1.555,1.563-3.921,1.756-7.096L283.159,394.442z">
      </path>
      <path fill="#24303B" stroke="#24303B" stroke-miterlimit="10" d="M307.525,392.012h4.812v10.969c1.074-0.882,2.093-1.779,3.055-2.693l0.337,1.371c-1.396,1.347-2.935,2.589-4.619,3.728l-0.505-1.178c0.305-0.273,0.457-0.554,0.457-0.843v-10.078h-3.536V392.012z M309.955,384.772c1.651,1.251,3.055,2.526,4.21,3.825l-0.891,0.914c-1.106-1.251-2.525-2.534-4.258-3.849L309.955,384.772z M318.254,389.102c-0.866,1.765-1.948,3.247-3.247,4.45l-0.842-1.011c2.148-2.004,3.592-4.706,4.329-8.106l1.299,0.241c-0.32,1.267-0.649,2.325-0.986,3.175h9.814v1.251h-5.244v6.23h6.134v1.274h-6.134v9.887h-1.274v-9.887h-7.337v-1.274h7.337v-6.23H318.254z">
      </path>
      <path fill="#24303B" stroke="#24303B" stroke-miterlimit="10" d="M338.58,403.703c0,1.893-0.802,3.279-2.405,4.162l-0.505-0.843c1.154-0.77,1.764-1.748,1.828-2.935l-0.361,0.024c-0.353,0-0.649-0.104-0.89-0.313c-0.225-0.208-0.337-0.497-0.337-0.866c0-0.417,0.112-0.713,0.337-0.89c0.208-0.225,0.505-0.337,0.89-0.337C338.099,401.707,338.58,402.372,338.58,403.703z">
      </path>
      <path fill="#24303B" stroke="#24303B" stroke-miterlimit="10" d="M369.634,406.252l-0.289-1.251c1.668,0.064,2.862,0.097,3.584,0.097c0.77,0,1.154-0.441,1.154-1.323v-13.422h-1.106c-2.309,5.1-6.302,9.261-11.979,12.484l-0.674-1.107c5.34-2.95,9.133-6.742,11.378-11.377h-10.993v-1.275h13.374v-4.521h1.275v4.521h6.229v1.275h-6.229v13.759c0,1.427-0.658,2.141-1.973,2.141H369.634z">
      </path>
      <path fill="#24303B" stroke="#24303B" stroke-miterlimit="10" d="M395.322,386.215c1.523,2.005,2.67,3.737,3.44,5.196l-1.059,0.745c-0.466-0.866-0.77-1.411-0.914-1.636c-2.646,0.417-5.766,0.722-9.357,0.914l-0.36-1.13c0.208-0.064,0.408-0.177,0.602-0.337c1.491-1.459,2.798-3.264,3.92-5.412l1.251,0.36c-1.202,2.294-2.51,4.065-3.921,5.316c2.117-0.097,4.538-0.321,7.265-0.674c-0.689-1.042-1.315-1.94-1.876-2.694L395.322,386.215z M389.766,401.851v4.643h-1.274v-13.303h8.708v11.33c0,1.202-0.61,1.804-1.828,1.804h-2.045l-0.313-1.227l1.948,0.072c0.641,0,0.962-0.305,0.962-0.914v-2.405H389.766z M395.924,396.967v-2.621h-6.158v2.621H395.924z M389.766,398.123v2.598h6.158v-2.598H389.766z M401.697,394.803c-1.348,0-2.021-0.706-2.021-2.117v-8.202h1.274v3.439c2.79-0.433,5.052-0.89,6.783-1.371l0.434,1.179c-1.989,0.514-4.395,0.979-7.217,1.396v3.295c0,0.786,0.377,1.179,1.131,1.179h3.367c0.514,0,0.891-0.12,1.131-0.36c0.272-0.321,0.457-1.275,0.553-2.863l1.228,0.409c-0.145,1.86-0.434,3.023-0.866,3.488c-0.401,0.353-1.003,0.529-1.805,0.529H401.697z M401.023,403.872c0,0.705,0.345,1.058,1.034,1.058h3.319c0.545,0,0.93-0.128,1.155-0.385c0.288-0.336,0.48-1.314,0.577-2.935l1.202,0.385c-0.144,1.909-0.433,3.095-0.865,3.561c-0.401,0.353-1.003,0.529-1.805,0.529h-3.969c-1.283,0-1.924-0.642-1.924-1.925v-8.25h1.274v3.175c2.533-0.272,4.771-0.705,6.711-1.299l0.434,1.202c-2.277,0.642-4.659,1.067-7.145,1.275V403.872z">
      </path>
      <path fill="#24303B" stroke="#24303B" stroke-miterlimit="10" d="M421.806,390.955c-0.946,1.219-1.853,2.205-2.718,2.958c1.187,2.005,1.779,4.459,1.779,7.36c0,2.069-0.288,3.513-0.865,4.33c-0.449,0.497-1.091,0.746-1.925,0.746c-0.786,0-1.563-0.017-2.333-0.049l-0.361-1.202c0.994,0.063,1.788,0.096,2.382,0.096c0.625,0,1.082-0.208,1.371-0.625c0.305-0.609,0.457-1.74,0.457-3.392c0-0.882-0.064-1.732-0.192-2.55c-1.38,1.476-3.016,2.687-4.907,3.632l-0.746-1.058c2.293-1.106,4.09-2.43,5.389-3.97c-0.24-0.945-0.577-1.787-1.011-2.525c-1.122,0.834-2.462,1.628-4.017,2.382l-0.674-1.083c1.523-0.641,2.862-1.419,4.018-2.333c-0.771-1.011-1.717-1.836-2.839-2.478l0.986-0.818c1.059,0.674,1.988,1.508,2.79,2.502c0.85-0.77,1.62-1.636,2.31-2.598L421.806,390.955z M413.699,386.48h5.821v-2.093h1.299v2.093h6.831v-2.093h1.3v2.093h5.82v1.227h-5.82v1.877h-1.3v-1.877h-6.831v1.877h-1.299v-1.877h-5.821V386.48z M422.311,394.611h5.1c0.048-1.78,0.072-3.159,0.072-4.138h1.299c0,0.642-0.032,2.021-0.096,4.138h5.725v1.25h-5.532c0.914,4.122,2.95,7.289,6.109,9.502l-0.866,0.962c-2.95-2.197-4.883-5.06-5.797-8.587c-0.85,3.432-2.734,6.334-5.652,8.707l-0.842-0.962c3.287-2.71,5.123-5.917,5.508-9.622h-5.027V394.611z M431.139,389.944c1.314,1.203,2.301,2.245,2.959,3.127l-0.963,0.697c-0.737-0.994-1.724-2.068-2.958-3.223L431.139,389.944z">
      </path>
      <path fill="#24303B" stroke="#24303B" stroke-miterlimit="10" d="M440.063,385.59h11.401v1.227h-2.045v13.976l2.405-0.626v1.3c-0.305,0.063-0.705,0.16-1.202,0.288c-0.577,0.16-0.979,0.265-1.203,0.313v4.498h-1.299v-4.185c-2.502,0.545-5.14,1.026-7.914,1.442l-0.313-1.274l2.141-0.289v-15.442h-1.972V385.59z M443.334,390.978h4.786v-4.161h-4.786V390.978z M443.334,396.247h4.786v-4.065h-4.786V396.247z M443.334,402.043c1.587-0.289,3.183-0.602,4.786-0.938v-3.681h-4.786V402.043z M452.546,388.116h-0.865v-1.251h8.948v1.203c-0.529,4.538-1.652,8.427-3.368,11.666c1.219,2.101,2.702,4.001,4.45,5.701l-0.866,1.01c-1.668-1.684-3.095-3.52-4.281-5.508c-1.348,2.197-2.975,4.041-4.883,5.532l-0.842-1.011c2.004-1.587,3.672-3.527,5.003-5.82C453.981,396.11,452.883,392.269,452.546,388.116z M453.725,388.116c0.321,3.753,1.251,7.177,2.791,10.271c1.459-2.902,2.429-6.326,2.91-10.271H453.725z">
      </path>
      <path fill="#24303B" stroke="#24303B" stroke-miterlimit="10" d="M477.418,397.136c-1.46,0.497-2.999,0.954-4.619,1.371v5.532c0,1.396-0.665,2.093-1.996,2.093h-2.646l-0.289-1.227c0.866,0.048,1.691,0.072,2.478,0.072c0.77,0,1.154-0.426,1.154-1.275v-4.883c-1.491,0.337-3.159,0.658-5.003,0.962l-0.192-1.274c1.828-0.289,3.56-0.626,5.195-1.011v-5.027h-5.147v-1.25h5.147v-3.777c-1.363,0.289-2.766,0.529-4.209,0.722l-0.265-1.251c3.432-0.385,6.486-1.098,9.164-2.141l0.457,1.227c-1.219,0.434-2.501,0.818-3.849,1.155v4.065h6.303c-0.16-1.908-0.24-4.13-0.24-6.663h1.299c0,2.518,0.072,4.738,0.216,6.663h7.577v1.25h-7.48c0.176,1.86,0.417,3.408,0.722,4.643c0.176,0.722,0.368,1.396,0.577,2.021c1.283-1.491,2.39-3.199,3.319-5.123l1.131,0.602c-1.106,2.309-2.43,4.273-3.969,5.893c0.336,0.883,0.737,1.684,1.202,2.405c0.818,1.203,1.491,1.805,2.021,1.805c0.577-0.032,1.074-1.468,1.491-4.306l1.155,0.625c-0.577,3.384-1.396,5.075-2.454,5.075c-0.93,0-1.94-0.729-3.03-2.188c-0.497-0.705-0.954-1.523-1.371-2.453c-1.78,1.651-3.817,2.926-6.11,3.824l-0.722-1.106c2.422-0.914,4.53-2.253,6.326-4.018c-0.305-0.833-0.577-1.764-0.817-2.79c-0.321-1.347-0.569-2.982-0.746-4.907h-6.398v4.715c1.636-0.433,3.176-0.89,4.619-1.371V397.136z M482.806,384.869c1.732,1.171,3.199,2.373,4.402,3.608l-0.914,0.914c-1.075-1.139-2.534-2.365-4.378-3.681L482.806,384.869z">
      </path>
      <path fill="#24303B" stroke="#24303B" stroke-miterlimit="10" d="M501.11,388.813v16.165h-1.251v-1.468h-4.858v2.141h-1.251v-16.838h2.165c0.496-1.362,0.857-2.798,1.082-4.306l1.323,0.169c-0.257,1.476-0.642,2.854-1.154,4.137H501.11z M495.001,395.428h4.858v-5.364h-4.858V395.428z M495.001,402.308h4.858v-5.701h-4.858V402.308z M513.57,388.837c0,7.714-0.112,12.517-0.337,14.408c-0.24,1.925-1.354,2.887-3.343,2.887l-2.357-0.048l-0.313-1.203c0.963,0.048,1.805,0.072,2.526,0.072c1.299,0,2.044-0.714,2.236-2.141c0.177-1.314,0.289-5.54,0.337-12.677h-7.096c-0.689,1.588-1.5,2.991-2.43,4.21l-0.77-1.011c1.732-2.405,2.91-5.355,3.536-8.852l1.274,0.145c-0.305,1.571-0.673,2.975-1.106,4.209H513.57z M505.199,394.25c1.845,2.037,3.239,3.801,4.186,5.292l-1.034,0.746c-0.962-1.556-2.365-3.344-4.209-5.364L505.199,394.25z">
      </path>
      <path fill="#24303B" stroke="#24303B" stroke-miterlimit="10" d="M524.732,390.978c-1.188,4.763-2.734,8.379-4.643,10.849l-1.131-0.962c1.988-2.582,3.488-6.046,4.498-10.392L524.732,390.978z M525.189,406.18l-0.313-1.322c1.571,0.063,2.687,0.096,3.344,0.096c1.042,0,1.563-0.545,1.563-1.636v-18.426h1.348v18.763c0,1.684-0.811,2.525-2.43,2.525H525.189z M536.471,389.919c2.052,4.395,3.616,8.203,4.69,11.426l-1.179,0.818c-1.171-3.496-2.734-7.337-4.69-11.522L536.471,389.919z">
      </path>
      <path fill="#24303B" stroke="#24303B" stroke-miterlimit="10" d="M260.912,423.465v17.944h-1.275v-2.069h-13.734v2.117h-1.275v-17.992h5.629c0.609-1.283,1.042-2.63,1.299-4.042l1.396,0.193c-0.305,1.442-0.73,2.726-1.275,3.849H260.912z M245.902,430.561h13.734v-5.869h-13.734V430.561z M245.902,438.089h13.734v-6.277h-13.734V438.089z">
      </path>
      <path fill="#24303B" stroke="#24303B" stroke-miterlimit="10" d="M271.11,427.337c-0.882,1.348-1.78,2.534-2.694,3.561l-0.433-1.371c2.469-3.047,4.241-6.455,5.315-10.224l1.228,0.577c-0.546,1.797-1.26,3.545-2.142,5.244v16.381h-1.274V427.337z M274.67,422.887h15.539v1.251H274.67V422.887z M288.525,433.375v8.058h-1.274v-1.322h-9.454v1.322h-1.299v-8.058H288.525z M276.907,426.448h11.209v1.179h-11.209V426.448z M276.907,429.839h11.209v1.202h-11.209V429.839z M277.797,438.86h9.454v-4.258h-9.454V438.86z M282.224,419.448c0.529,1.011,0.938,1.948,1.227,2.814l-1.154,0.457c-0.386-1.074-0.826-2.053-1.323-2.935L282.224,419.448z">
      </path>
      <path fill="#24303B" stroke="#24303B" stroke-miterlimit="10" d="M298.436,433.471c-0.241,3.111-1.147,5.685-2.719,7.722l-0.962-0.89c1.588-2.181,2.405-4.964,2.453-8.348v-11.401h17.56v17.992c0,1.572-0.785,2.357-2.356,2.357h-2.767l-0.337-1.274c0.962,0.048,1.853,0.072,2.67,0.072c0.994,0,1.491-0.546,1.491-1.636v-4.595h-7.048v7.168h-1.299v-7.168H298.436z M298.531,427.626v4.426l-0.023,0.192h6.614v-4.618H298.531z M305.122,421.83h-6.591v4.594h6.591V421.83z M313.469,426.423v-4.594h-7.048v4.594H313.469z M313.469,432.245v-4.618h-7.048v4.618H313.469z">
      </path>
      <path fill="#24303B" stroke="#24303B" stroke-miterlimit="10" d="M330.234,420.651c-1.139,2.085-2.277,3.769-3.416,5.051c-1.331,1.476-2.95,2.862-4.858,4.162l-0.746-1.155c1.732-0.994,3.271-2.276,4.618-3.849c1.267-1.443,2.365-3.07,3.296-4.883L330.234,420.651z M324.653,430.441v-1.228h14.36c-0.063,2.936-0.208,5.316-0.433,7.145c-0.24,1.796-0.625,3.055-1.154,3.776c-0.529,0.706-1.388,1.083-2.574,1.131h-4.498l-0.337-1.251c1.988,0.032,3.392,0.048,4.21,0.048c1.33,0,2.213-0.585,2.646-1.756c0.417-1.202,0.697-3.824,0.842-7.865h-6.855c-0.577,2.758-1.379,4.923-2.405,6.494c-1.171,1.652-2.935,3.151-5.292,4.498l-0.817-1.034c2.148-1.187,3.784-2.518,4.907-3.993c1.058-1.491,1.828-3.479,2.309-5.965H324.653z M335.502,419.712c1.411,3.721,3.921,6.663,7.529,8.828l-0.891,1.01c-3.704-2.357-6.286-5.428-7.745-9.213L335.502,419.712z">
      </path>
      <path fill="#24303B" stroke="#24303B" stroke-miterlimit="10" d="M354.722,421.637v17.006h-1.227v-1.396h-3.488v1.9h-1.251v-17.511H354.722z M350.007,435.998h3.488v-13.11h-3.488V435.998z M355.997,434.842h9.212v1.251h-9.212V434.842z M359.027,423.778l1.275,0.072l-1.251,6.374h5.388l1.443-8.274h-9.068v-1.251h10.512l-1.588,9.525h2.935c0,5.597-0.353,8.836-1.058,9.718c-0.722,0.85-2.229,1.275-4.522,1.275c-0.417,0-1.106-0.017-2.068-0.049l-0.409-1.322c1.122,0.08,1.844,0.12,2.165,0.12c2.181,0,3.487-0.409,3.921-1.227c0.465-0.834,0.697-3.256,0.697-7.265h-9.79L359.027,423.778z">
      </path>
      <path fill="#24303B" stroke="#24303B" stroke-miterlimit="10" d="M382.864,422.887c0.866,0.818,1.299,1.925,1.299,3.32c0,1.01-0.305,1.916-0.914,2.718c-0.24,0.305-0.874,0.922-1.9,1.853c-0.545,0.48-0.946,0.938-1.202,1.371c-0.337,0.577-0.505,1.194-0.505,1.852v0.697h-1.468V434c0-0.705,0.145-1.347,0.434-1.924c0.353-0.771,1.09-1.644,2.213-2.622c0.608-0.609,0.978-0.994,1.106-1.155c0.513-0.657,0.77-1.338,0.77-2.044c0-1.011-0.297-1.828-0.891-2.454c-0.609-0.608-1.491-0.914-2.646-0.914c-1.283,0-2.253,0.434-2.91,1.299c-0.578,0.722-0.866,1.717-0.866,2.983h-1.443c0-1.604,0.44-2.919,1.323-3.945c0.945-1.09,2.269-1.636,3.969-1.636C380.739,421.588,381.95,422.022,382.864,422.887z M379.785,437.032c0.241,0.208,0.361,0.497,0.361,0.865c0,0.337-0.12,0.626-0.361,0.866c-0.256,0.225-0.545,0.337-0.865,0.337c-0.354,0-0.649-0.12-0.891-0.36c-0.225-0.225-0.336-0.506-0.336-0.843c0-0.368,0.111-0.657,0.336-0.865c0.225-0.225,0.521-0.337,0.891-0.337C379.272,436.695,379.561,436.807,379.785,437.032z">
      </path>
    </g>
        
    <g>
      <path fill="#E5EBF0" d="M566.01,570.119c0,24.607-19.947,44.555-44.555,44.555H120.187c-24.607,0-44.555-19.947-44.555-44.555l0,0c0-24.607,19.947-44.555,44.555-44.555h401.268C546.063,525.564,566.01,545.512,566.01,570.119L566.01,570.119z">
      </path>
      <path fill="#E5EBF0" d="M565.463,674.809c0,24.607-19.947,44.555-44.555,44.555H119.64c-24.607,0-44.555-19.947-44.555-44.555l0,0c0-24.607,19.947-44.555,44.555-44.555h401.268C545.516,630.254,565.463,650.201,565.463,674.809L565.463,674.809z">
      </path>
      <path fill="#E5EBF0" d="M566.555,779.498c0,24.607-19.947,44.555-44.555,44.555H120.732c-24.605,0-44.555-19.947-44.555-44.555l0,0c0-24.607,19.949-44.555,44.555-44.555H522C546.607,734.943,566.555,754.891,566.555,779.498L566.555,779.498z">
      </path>
      <g>
        <path fill-rule="evenodd" clip-rule="evenodd" fill="#CFCED3" d="M525.346,291.329c-0.172,0.489-0.506,0.881-0.805,1.285c-0.684,0.922-1.416,1.806-2.244,2.601c-1.152,1.106-2.422,2.047-3.861,2.763c-1.219,0.606-2.49,1.048-3.795,1.41c-1.508,0.361-3.033,0.304-4.561,0.164c-0.537-0.108-1.084-0.175-1.605-0.336c-0.553-0.172-1.121-0.269-1.672-0.458c-0.623-0.215-1.27-0.38-1.887-0.622c-2.512-0.987-4.887-2.219-6.961-3.975c-1.131-0.959-2.215-1.966-2.936-3.292c-0.248-0.456-0.49-0.924-0.535-1.455c-0.025-0.288-0.246-0.405-0.447-0.497c-0.213-0.096-0.209,0.105-0.168,0.225c0.367,1.024,0.35,2.083,0.275,3.141c-0.09,1.267-0.74,2.227-1.73,2.979c-0.988,0.752-2.119,1.21-3.295,1.571c-1.08,0.331-2.371-0.647-2.27-1.799c0.078-0.871,0.422-1.631,0.773-2.401c0.416-0.913,1.008-1.736,1.354-2.688c0.352-0.971,0.631-1.961,0.914-2.951c0.102-0.348,0.205-0.697,0.334-1.036c0.277-0.729,1.059-1.072,1.801-0.808c0.893,0.315,1.678,0.824,2.465,1.335c0.482,0.314,0.484,0.309,0.795-0.079c1.242-1.563,2.857-2.642,4.627-3.521c1.439-0.714,2.908-1.355,4.412-1.916c1.311-0.487,2.633-0.937,3.984-1.307c3.008-0.825,6.08-1.079,9.18-1.121c1.338-0.018,2.682,0.017,4.004,0.228c1.629,0.26,3.244,0.59,4.643,1.551c0.867,0.594,1.436,1.354,1.611,2.428c0.207,1.252-0.014,2.444-0.328,3.64c-0.275,1.05-0.699,2.046-1.09,3.055c-0.074,0.189-0.211,0.327-0.281,0.508c-0.094-0.029-0.166,0.002-0.254,0.053c-0.389,0.228-0.77,0.479-1.184,0.649c-1.178,0.485-2.418,0.727-3.68,0.864c-2.217,0.239-4.371-0.08-6.49-0.698c-0.742-0.217-1.479-0.505-2.113-0.921c-1.037-0.679-1.998-1.479-2.842-2.401c-0.314-0.346-0.67-0.435-0.871-0.219c-0.299,0.321-0.01,0.583,0.117,0.856c0.012,0.022,0.035,0.039,0.053,0.059c1.018,1.145,2.172,2.098,3.561,2.79c1.352,0.673,2.746,1.131,4.236,1.361C519.602,292.806,522.537,292.65,525.346,291.329z M522.416,282.228c0.365-0.026,0.863-0.043,1.357-0.101c0.611-0.07,1.195-0.224,1.695-0.621c0.496-0.394,0.506-0.915,0.018-1.299c-0.211-0.167-0.445-0.275-0.697-0.349c-1.475-0.437-2.947-0.447-4.41,0.055c-0.461,0.158-0.904,0.363-1.203,0.773c-0.311,0.426-0.27,0.667,0.148,0.985c0.084,0.063,0.18,0.107,0.273,0.156C520.445,282.277,521.369,282.214,522.416,282.228z M510.68,283.602c-0.008-0.62-0.5-1.066-1.172-1.051c-0.729,0.017-1.178,0.407-1.154,1.101c0.018,0.572,0.506,1.107,1.051,1.07C510.105,284.673,510.668,284.335,510.68,283.602z">
        </path>
        <path fill-rule="evenodd" clip-rule="evenodd" fill="#CFCED3" d="M514.594,300.122c0.123,0.104,0.141,0.249,0.135,0.394c-0.109,3.099-0.016,6.198-0.045,9.296c-0.002,0.066-0.002,0.132-0.006,0.197c-0.012,0.137-0.082,0.224-0.223,0.227c-0.223,0.005-0.447,0.005-0.67-0.002c-0.186-0.006-0.209-0.14-0.246-0.294c-0.234-0.985-0.385-1.992-0.758-2.943c-0.094-0.24-0.234-0.447-0.393-0.625c-0.277-0.318-0.645-0.289-0.967,0.003c-0.475,0.427-0.736,0.961-0.934,1.566c-0.225,0.693-0.49,1.372-0.629,2.092c-0.025,0.13-0.102,0.21-0.244,0.208c-0.092-0.001-0.184-0.004-0.275-0.004c-0.557,0.006-0.553,0.006-0.539-0.568c0.02-0.866,0.039-1.733,0.051-2.6c0-0.148,0.055-0.336-0.127-0.42c-0.156-0.071-0.262,0.074-0.385,0.142c-0.811,0.445-1.332,1.189-1.938,1.85c-0.455,0.497-0.918,0.987-1.393,1.464c-0.221,0.221-0.525,0.165-0.785,0.104c-0.209-0.048-0.119-0.228-0.037-0.35c0.643-0.966,1.197-1.988,1.793-2.983c0.053-0.089,0.111-0.177,0.152-0.271c0.215-0.481,0.217-0.488-0.279-0.705c-1.037-0.452-1.244-1.037-1.244-2.082c0-0.097-0.037-0.247,0.094-0.269c0.141-0.023,0.125,0.132,0.154,0.225c0.34,1.02,1.236,1.424,2.207,1.01c0.174-0.075,0.264-0.197,0.352-0.344c0.777-1.311,1.557-2.62,2.338-3.928c0.039-0.064,0.105-0.112,0.158-0.167c0.57,0.07,1.139,0.174,1.713,0.202C512.637,300.597,513.664,300.688,514.594,300.122z">
        </path>
        <path fill-rule="evenodd" clip-rule="evenodd" fill="#232321" d="M525.346,291.329c-2.809,1.321-5.744,1.478-8.766,1.012c-1.49-0.23-2.885-0.688-4.236-1.361c-1.389-0.692-2.543-1.646-3.561-2.79c-0.018-0.02-0.041-0.036-0.053-0.059c-0.127-0.274-0.416-0.535-0.117-0.856c0.201-0.216,0.557-0.127,0.871,0.219c0.844,0.922,1.805,1.723,2.842,2.401c0.635,0.416,1.371,0.705,2.113,0.921c2.119,0.619,4.273,0.938,6.49,0.698c1.262-0.137,2.502-0.379,3.68-0.864c0.414-0.171,0.795-0.422,1.184-0.649c0.088-0.051,0.16-0.082,0.254-0.053C525.797,290.4,525.662,290.911,525.346,291.329z">
        </path>
        <path fill-rule="evenodd" clip-rule="evenodd" fill="#232321" d="M514.594,300.122c-0.93,0.565-1.957,0.475-2.969,0.423c-0.574-0.028-1.143-0.132-1.713-0.202c-0.047-0.285,0.113-0.527,0.168-0.792c1.527,0.14,3.053,0.197,4.561-0.164C514.703,299.637,514.75,299.886,514.594,300.122z">
        </path>
        <path fill-rule="evenodd" clip-rule="evenodd" fill="#232321" d="M522.416,282.228c-1.047-0.014-1.971,0.049-2.818-0.4c-0.094-0.049-0.189-0.094-0.273-0.156c-0.418-0.318-0.459-0.559-0.148-0.985c0.299-0.41,0.742-0.615,1.203-0.773c1.463-0.502,2.936-0.492,4.41-0.055c0.252,0.074,0.486,0.182,0.697,0.349c0.488,0.384,0.479,0.905-0.018,1.299c-0.5,0.397-1.084,0.551-1.695,0.621C523.279,282.185,522.781,282.202,522.416,282.228z">
        </path>
        <path fill-rule="evenodd" clip-rule="evenodd" fill="#232321" d="M510.68,283.602c-0.012,0.733-0.574,1.071-1.275,1.12c-0.545,0.038-1.033-0.498-1.051-1.07c-0.023-0.694,0.426-1.083,1.154-1.101C510.18,282.536,510.672,282.982,510.68,283.602z">
        </path>
      </g>
    </g>
        
    <g>
      <path fill="#24303B" stroke="#24303B" stroke-width="3" stroke-miterlimit="10" d="M308.441,235.492h24.338v3.374h-21.266l-1.506,15.844h0.181c1.285-1.526,2.871-2.67,4.759-3.434c1.687-0.762,3.554-1.145,5.603-1.145c4.096,0,7.411,1.265,9.94,3.795c2.611,2.691,3.916,6.326,3.916,10.904c0,4.217-1.467,7.732-4.396,10.543c-2.813,2.651-6.326,3.976-10.543,3.976c-3.696,0-6.848-1.024-9.458-3.072c-2.933-2.208-4.559-5.261-4.88-9.157h3.675c0.321,2.932,1.526,5.202,3.615,6.808c1.928,1.486,4.277,2.229,7.049,2.229c3.252,0,5.944-1.063,8.073-3.193c2.129-2.208,3.193-4.919,3.193-8.133c0-3.654-1.006-6.526-3.014-8.615c-1.928-1.967-4.559-2.952-7.891-2.952c-2.169,0-4.137,0.482-5.904,1.446c-1.807,1.004-3.193,2.431-4.157,4.277h-3.494L308.441,235.492z">
      </path>
    </g>
        
    <g opacity="0">
      <animate attributeName="opacity" begin="click" dur=".3s" values="0;1" fill="freeze"></animate>
      <g>
        <path fill="#F1B932" d="M566.01,570.117c0,24.607-19.949,44.557-44.557,44.557H120.187c-24.607,0-44.557-19.949-44.557-44.557l0,0c0-24.607,19.949-44.555,44.557-44.555h401.266C546.061,525.563,566.01,545.51,566.01,570.117L566.01,570.117z">
        </path>
      </g>
      <circle data-fjh="glanimate" fill="#F1B932" cx="810.077" cy="1382.516" r="15">
        
      </circle>
    </g>
        
    <g opacity="0">
      <animate attributeName="opacity" begin="click" dur=".3s" values="0;1" fill="freeze"></animate>
      <g>
        <path fill="#F1B932" d="M566.555,779.498c0,24.607-19.947,44.555-44.555,44.555H120.732c-24.605,0-44.555-19.947-44.555-44.555l0,0c0-24.607,19.949-44.555,44.555-44.555H522C546.607,734.943,566.555,754.891,566.555,779.498L566.555,779.498z">
        </path>
      </g>
      <circle data-fjh="glanimate" fill="#F1B932" cx="904.312" cy="1382.516" r="15"></circle>
    </g>

    <g opacity="0">
      <animate attributeName="opacity" begin="click" dur=".3s" values="0;1" fill="freeze"></animate>
      <g>
        <path fill="#F1B932" d="M565.463,674.809c0,24.607-19.947,44.555-44.555,44.555H119.64c-24.607,0-44.555-19.947-44.555-44.555l0,0c0-24.607,19.947-44.555,44.555-44.555h401.268C545.516,630.254,565.463,650.201,565.463,674.809L565.463,674.809z">
        </path>
      </g>
      <circle data-fjh="glanimate" fill="#F1B932" cx="856.39" cy="1382.516" r="15"></circle>
    </g>
        
    <g>
      <g>
        <path fill="#91979C" stroke="#91979C" stroke-miterlimit="10" d="M111.561,772.252c1.112,0.844,1.763,1.971,1.95,3.377h-1.186c-0.175-1.111-0.718-1.977-1.629-2.594c-0.858-0.604-1.877-0.904-3.056-0.904c-1.757,0-3.137,0.623-4.143,1.869c-0.938,1.154-1.407,2.662-1.407,4.525s0.463,3.357,1.388,4.482c0.965,1.193,2.312,1.789,4.041,1.789c1.206,0,2.259-0.328,3.156-0.984c0.952-0.725,1.568-1.75,1.851-3.076h1.186c-0.309,1.662-1.059,2.963-2.252,3.9c-1.126,0.857-2.433,1.287-3.92,1.287c-2.146,0-3.82-0.736-5.026-2.211c-1.1-1.342-1.649-3.07-1.649-5.188c0-2.119,0.563-3.867,1.689-5.248c1.22-1.516,2.922-2.271,5.106-2.271C109.188,771.006,110.488,771.42,111.561,772.252z">
        </path>
        <path fill="#91979C" stroke="#91979C" stroke-miterlimit="10" d="M119.904,783.912c0.201,0.176,0.302,0.416,0.302,0.725c0,0.268-0.107,0.51-0.322,0.725c-0.214,0.188-0.449,0.281-0.703,0.281c-0.295,0-0.536-0.102-0.724-0.303c-0.201-0.201-0.302-0.436-0.302-0.703c0-0.309,0.101-0.549,0.302-0.725c0.174-0.188,0.415-0.281,0.724-0.281C119.476,783.631,119.717,783.725,119.904,783.912z">
        </path>
        <path fill="#91979C" stroke="#91979C" stroke-miterlimit="10" d="M124.951,778.906h17.773v0.965h-8.605l-0.804,1.67h7.922v4.383c0,1.125-0.543,1.689-1.629,1.689h-1.428l-0.281-0.967l1.388,0.041c0.603,0,0.904-0.328,0.904-0.984v-3.217h-3.619v4.965h-1.045v-4.965h-3.378v4.965h-1.046v-4.965h-3.378v5.166h-1.065v-6.111h5.59l0.764-1.67h-8.063V778.906z M126.178,770h15.341v0.924h-7.138v1.549h7.761v3.961h-1.045v-3.096h-6.716v4.604h-1.086v-4.604h-6.715v3.096h-1.046v-3.961h7.761v-1.549h-7.117V770z M127.887,774.705h4.182v0.764h-4.182V774.705z M127.887,776.715h4.182v0.764h-4.182V776.715z M135.587,774.705h4.162v0.764h-4.162V774.705z M135.607,776.715h4.202v0.764h-4.202V776.715z">
        </path>
        <path fill="#91979C" stroke="#91979C" stroke-miterlimit="10" d="M147.107,770.141h17.693v1.006h-6.072v2.07h4.806v4.846h-8.484c-0.309,0.576-0.69,1.266-1.146,2.07h11.119v1.025h-4.403c-0.416,1.314-1.214,2.42-2.393,3.318c2.117,0.656,4.296,1.434,6.534,2.332l-0.663,0.885c-2.226-0.939-4.518-1.789-6.877-2.555c-0.054,0.027-0.08,0.049-0.08,0.061c-1.931,1.047-5.054,1.85-9.369,2.414l-0.423-0.986c3.834-0.441,6.676-1.078,8.525-1.91c-1.702-0.521-3.445-0.984-5.228-1.387c0.482-0.725,0.945-1.447,1.387-2.172h-5.167v-1.025h5.791l1.186-2.07h-5.469v-4.846h4.806v-2.07h-6.072V770.141z M153.18,777.098v-2.936h-3.76v2.936H153.18z M159.513,781.158h-6.232c-0.429,0.684-0.798,1.254-1.105,1.709c1.527,0.336,3.149,0.752,4.865,1.246C158.273,783.324,159.098,782.338,159.513,781.158z M157.703,773.217v-2.07h-3.498v2.07H157.703z M157.703,777.098v-2.936h-3.498v2.936H157.703z M162.488,777.098v-2.936h-3.76v2.936H162.488z">
        </path>
        <path fill="#91979C" stroke="#91979C" stroke-miterlimit="10" d="M178.291,779.811c-1.22,0.416-2.507,0.799-3.86,1.146v4.625c0,1.166-0.557,1.748-1.669,1.748h-2.212l-0.241-1.025c0.724,0.041,1.414,0.061,2.071,0.061c0.644,0,0.965-0.355,0.965-1.064v-4.082c-1.247,0.281-2.641,0.551-4.182,0.805l-0.161-1.066c1.528-0.24,2.976-0.521,4.343-0.844v-4.203h-4.303v-1.045h4.303v-3.156c-1.14,0.24-2.313,0.441-3.519,0.604l-0.222-1.047c2.869-0.32,5.422-0.918,7.661-1.789l0.382,1.025c-1.019,0.363-2.091,0.684-3.217,0.965v3.398h5.268c-0.135-1.596-0.201-3.451-0.201-5.568h1.086c0,2.104,0.061,3.961,0.181,5.568h6.333v1.045h-6.253c0.147,1.557,0.349,2.85,0.604,3.881c0.147,0.604,0.309,1.166,0.482,1.689c1.072-1.246,1.997-2.674,2.774-4.283l0.945,0.504c-0.925,1.93-2.03,3.572-3.317,4.926c0.281,0.736,0.616,1.406,1.005,2.01c0.684,1.006,1.247,1.508,1.689,1.508c0.482-0.027,0.897-1.227,1.246-3.6l0.966,0.523c-0.483,2.828-1.167,4.242-2.052,4.242c-0.777,0-1.621-0.609-2.533-1.83c-0.415-0.59-0.797-1.273-1.146-2.051c-1.488,1.381-3.19,2.447-5.107,3.197l-0.603-0.924c2.023-0.766,3.786-1.883,5.287-3.357c-0.254-0.697-0.482-1.475-0.684-2.334c-0.268-1.125-0.476-2.492-0.623-4.102h-5.348v3.941c1.367-0.361,2.653-0.744,3.86-1.146V779.811z M182.794,769.557c1.448,0.979,2.675,1.984,3.68,3.018l-0.764,0.764c-0.898-0.953-2.118-1.979-3.659-3.076L182.794,769.557z">
        </path>
        <path fill="#91979C" stroke="#91979C" stroke-miterlimit="10" d="M192.847,777.559l-0.2-1.004c1.608-0.846,3.498-3.297,5.669-7.359l1.025,0.342c-1.595,3.016-3.203,5.336-4.825,6.957c3.713-0.121,7.278-0.336,10.696-0.645c-0.804-1.326-1.676-2.605-2.613-3.84l0.944-0.482c1.609,2.119,3.09,4.391,4.443,6.816l-1.025,0.523c-0.495-0.898-0.884-1.582-1.166-2.051l-3.035,0.24v8.184c0,0.629,0.342,0.945,1.025,0.945h2.191c0.603,0,1.025-0.154,1.267-0.463c0.335-0.402,0.556-1.541,0.663-3.418l1.025,0.322c-0.161,2.131-0.462,3.457-0.904,3.98c-0.376,0.402-0.985,0.604-1.83,0.604h-2.734c-1.18,0-1.77-0.584-1.77-1.75v-8.324l-3.478,0.201c-0.188,2.91-0.697,5.061-1.528,6.455c-0.992,1.541-2.601,2.861-4.825,3.961l-0.704-0.926c2.104-0.979,3.599-2.145,4.483-3.498c0.817-1.301,1.307-3.277,1.468-5.932L192.847,777.559z">
        </path>
        <path fill="#91979C" stroke="#91979C" stroke-miterlimit="10" d="M213.214,775.529h4.021v9.168c0.897-0.736,1.749-1.488,2.554-2.252l0.281,1.146c-1.166,1.125-2.453,2.164-3.86,3.115l-0.422-0.984c0.254-0.229,0.382-0.463,0.382-0.703v-8.426h-2.956V775.529z M215.245,769.477c1.38,1.047,2.553,2.111,3.519,3.197l-0.744,0.764c-0.925-1.045-2.111-2.117-3.559-3.217L215.245,769.477z M222.182,773.096c-0.725,1.475-1.629,2.715-2.715,3.721l-0.703-0.846c1.796-1.676,3.002-3.934,3.619-6.775l1.085,0.201c-0.268,1.059-0.543,1.943-0.824,2.654h8.203v1.045h-4.383v5.207h5.127v1.066h-5.127v8.264h-1.065v-8.264h-6.133v-1.066h6.133v-5.207H222.182z">
        </path>
        <path fill="#91979C" stroke="#91979C" stroke-miterlimit="10" d="M239.171,785.301c0,1.58-0.671,2.74-2.011,3.479l-0.423-0.705c0.966-0.643,1.475-1.461,1.528-2.453l-0.302,0.021c-0.295,0-0.543-0.088-0.743-0.262c-0.188-0.174-0.282-0.416-0.282-0.725c0-0.348,0.094-0.596,0.282-0.744c0.174-0.188,0.422-0.281,0.743-0.281C238.769,783.631,239.171,784.188,239.171,785.301z">
        </path>
        <path fill="#91979C" stroke="#91979C" stroke-miterlimit="10" d="M257.97,787.371l-0.242-1.025c0.563,0.041,1.106,0.061,1.629,0.061c0.375,0,0.563-0.174,0.563-0.523v-5.549c-0.697,0.268-1.435,0.529-2.212,0.785l-0.281-1.047c0.951-0.268,1.782-0.543,2.493-0.824v-5.107h-2.373v-1.064h2.373v-3.779h1.065v3.779h2.011v1.064h-2.011v4.666c0.696-0.309,1.347-0.637,1.95-0.986v1.086c-0.59,0.336-1.24,0.658-1.95,0.965v6.273c0,0.818-0.416,1.227-1.247,1.227H257.97z M275.16,775.488v3.639h-1.066v-2.572h-9.389v2.393h9.288v0.945c-0.764,1.701-1.95,3.17-3.559,4.402c1.408,0.898,3.177,1.656,5.309,2.271l-0.644,0.965c-2.252-0.67-4.136-1.521-5.649-2.553c-1.703,1.045-3.747,1.891-6.133,2.533l-0.563-1.025c2.292-0.563,4.222-1.293,5.79-2.191c-1.528-1.246-2.594-2.693-3.197-4.344h-0.783v-0.824h-0.905v-3.639h7.842c0.764-1.193,1.407-2.492,1.93-3.9l1.025,0.361c-0.63,1.475-1.246,2.654-1.85,3.539H275.16z M275.06,770.342c-2.829,0.563-6.595,0.844-11.3,0.844l-0.321-0.984c4.463-0.014,8.162-0.268,11.098-0.764L275.06,770.342z M265.429,771.891c0.59,1.018,1.025,1.896,1.307,2.633l-0.904,0.342c-0.362-0.885-0.818-1.789-1.367-2.715L265.429,771.891z M266.414,779.951c0.656,1.449,1.688,2.689,3.096,3.721c1.515-1.059,2.634-2.299,3.358-3.721H266.414z M268.927,771.789c0.59,0.951,1.039,1.857,1.348,2.715l-0.905,0.342c-0.375-0.951-0.838-1.877-1.387-2.775L268.927,771.789z">
        </path>
        <path fill="#91979C" stroke="#91979C" stroke-miterlimit="10" d="M284.188,787.531h-1.086v-11.098c-0.751,2.293-1.823,4.369-3.217,6.232l-0.482-1.205c1.729-2.078,2.955-4.438,3.679-7.078h-3.257v-1.066h3.277v-4.041h1.086v4.041h2.794v1.066h-2.794v1.268c1.045,1.018,2.098,2.17,3.156,3.457l-0.644,0.945c-0.952-1.314-1.789-2.398-2.513-3.258V787.531z M288.409,771.668h-0.864v-1.064h8.927v1.045c-0.604,3.873-1.783,7.178-3.538,9.912c1.272,1.863,2.935,3.553,4.985,5.066l-0.724,0.865c-1.943-1.516-3.572-3.189-4.886-5.027c-1.421,1.984-3.203,3.666-5.348,5.047l-0.704-0.865c2.185-1.447,3.981-3.162,5.389-5.146C289.77,778.592,288.69,775.314,288.409,771.668z M289.455,771.668c0.241,3.299,1.179,6.268,2.814,8.908c1.582-2.533,2.627-5.502,3.137-8.908H289.455z">
        </path>
        <path fill="#91979C" stroke="#91979C" stroke-miterlimit="10" d="M305.116,776.092v0.744c-0.121,4.518-1.039,8.09-2.755,10.717l-0.824-0.846c1.555-2.385,2.393-5.676,2.514-9.871v-5.891c5.039-0.041,9.664-0.51,13.873-1.408l0.522,0.986c-3.94,0.816-8.384,1.279-13.33,1.387v3.115h14.637v1.066H305.116z M318.104,779.248v8.365h-1.086v-1.047h-8.706v1.047h-1.105v-8.365H318.104z M308.313,785.48h8.706v-5.188h-8.706V785.48z">
        </path>
        <path fill="#91979C" stroke="#91979C" stroke-miterlimit="10" d="M333.104,779.811c-1.22,0.416-2.507,0.799-3.86,1.146v4.625c0,1.166-0.557,1.748-1.669,1.748h-2.212l-0.241-1.025c0.724,0.041,1.414,0.061,2.071,0.061c0.644,0,0.965-0.355,0.965-1.064v-4.082c-1.247,0.281-2.641,0.551-4.182,0.805l-0.161-1.066c1.528-0.24,2.976-0.521,4.343-0.844v-4.203h-4.303v-1.045h4.303v-3.156c-1.14,0.24-2.313,0.441-3.519,0.604l-0.222-1.047c2.869-0.32,5.422-0.918,7.661-1.789l0.382,1.025c-1.019,0.363-2.091,0.684-3.217,0.965v3.398h5.268c-0.135-1.596-0.201-3.451-0.201-5.568h1.086c0,2.104,0.061,3.961,0.181,5.568h6.333v1.045h-6.253c0.147,1.557,0.349,2.85,0.604,3.881c0.147,0.604,0.309,1.166,0.482,1.689c1.072-1.246,1.997-2.674,2.774-4.283l0.945,0.504c-0.925,1.93-2.03,3.572-3.317,4.926c0.281,0.736,0.616,1.406,1.005,2.01c0.684,1.006,1.247,1.508,1.689,1.508c0.482-0.027,0.897-1.227,1.246-3.6l0.966,0.523c-0.483,2.828-1.167,4.242-2.052,4.242c-0.777,0-1.621-0.609-2.533-1.83c-0.415-0.59-0.797-1.273-1.146-2.051c-1.488,1.381-3.19,2.447-5.107,3.197l-0.603-0.924c2.023-0.766,3.786-1.883,5.287-3.357c-0.254-0.697-0.482-1.475-0.684-2.334c-0.268-1.125-0.476-2.492-0.623-4.102h-5.348v3.941c1.367-0.361,2.653-0.744,3.86-1.146V779.811z M337.606,769.557c1.448,0.979,2.675,1.984,3.68,3.018l-0.764,0.764c-0.898-0.953-2.118-1.979-3.659-3.076L337.606,769.557z">
        </path>
        <path fill="#91979C" stroke="#91979C" stroke-miterlimit="10" d="M359.16,787.23c-0.684,0-1.856-0.014-3.519-0.041c-1.313-0.039-2.339-0.166-3.076-0.381c-0.805-0.242-1.508-0.738-2.111-1.488c-0.255-0.348-0.51-0.523-0.764-0.523c-0.55,0-1.407,0.932-2.573,2.795l-0.825-0.723c1.14-1.756,2.111-2.775,2.916-3.057v-6.434h-2.976v-1.045h4.001v7.539c0.228,0.107,0.436,0.289,0.623,0.543c0.482,0.604,1.019,1.045,1.608,1.326c0.644,0.242,1.548,0.383,2.714,0.422c1.341,0.027,2.614,0.041,3.82,0.041h2.855l2.191-0.08l-0.262,1.105H359.16z M347.338,769.678c1.381,1.033,2.561,2.064,3.539,3.096l-0.784,0.785c-0.858-1.006-2.031-2.057-3.519-3.156L347.338,769.678z M351.922,770.463h11.521v1.086h-4.664c-0.281,0.736-0.55,1.373-0.805,1.908v11.441h-1.085v-9.51c-1.274,1.943-2.942,3.68-5.007,5.207l-0.684-0.885c3.097-2.238,5.254-4.959,6.474-8.162h-5.75V770.463z M359.643,774.141c1.903,2.133,3.385,4.049,4.443,5.752l-0.904,0.643c-1.153-1.822-2.614-3.752-4.384-5.791L359.643,774.141z">
        </path>
        <path fill="#91979C" stroke="#91979C" stroke-miterlimit="10" d="M368.228,770.563h17.834v1.066h-2.734v13.953c0,1.246-0.616,1.869-1.85,1.869h-3.317l-0.241-1.045c1.474,0.053,2.533,0.08,3.177,0.08c0.75,0,1.126-0.395,1.126-1.186v-13.672h-13.994V770.563z M378.18,775.047v7.117h-6.474v1.83h-1.046v-8.947H378.18z M371.706,781.158h5.429v-5.127h-5.429V781.158z">
        </path>
        <path fill="#91979C" stroke="#91979C" stroke-miterlimit="10" d="M391.53,784.275c0.321-0.201,0.482-0.496,0.482-0.885v-13.25h1.126v13.551c1.676-0.656,3.304-1.467,4.886-2.432l0.321,1.086c-1.983,1.139-4.142,2.123-6.474,2.955L391.53,784.275z M396.557,771.508c1.81,2.023,3.243,3.859,4.303,5.51l-0.905,0.643c-1.059-1.715-2.5-3.572-4.322-5.57L396.557,771.508z M397.261,787.473l-0.744-0.906c3.378-1.93,5.63-4.41,6.755-7.439c0.845-2.572,1.268-5.797,1.268-9.67h1.125c0,3.766-0.401,6.957-1.206,9.57c-0.134,0.402-0.241,0.697-0.321,0.885c1.648,2.117,3.069,4.289,4.263,6.514l-0.825,0.824c-1.032-2.051-2.332-4.141-3.9-6.273C402.388,783.551,400.249,785.715,397.261,787.473z">
        </path>
        <path fill="#91979C" stroke="#91979C" stroke-miterlimit="10" d="M414.35,782.688c-0.16,1.982-0.63,3.672-1.407,5.066l-0.724-0.684c0.791-1.502,1.206-3.451,1.247-5.852v-6.574l-0.463,0.521l-0.663-0.803c1.246-1.367,2.244-3.104,2.995-5.207l1.006,0.24c-0.215,0.59-0.402,1.072-0.563,1.447h3.72v0.785c-0.496,0.992-0.992,1.828-1.487,2.512h2.573v11.965c0,0.91-0.442,1.367-1.327,1.367h-1.267l-0.241-0.926c0.59,0.027,0.991,0.041,1.206,0.041c0.456,0,0.684-0.27,0.684-0.805v-3.096h-2.171v4.684h-0.925v-4.684H414.35z M416.863,774.141c0.496-0.67,0.985-1.453,1.468-2.352h-3.016c-0.402,0.777-0.892,1.563-1.468,2.352H416.863z M414.431,778.846v2.594l-0.021,0.303h2.132v-2.896H414.431z M416.542,775.107h-2.111v2.773h2.111V775.107z M419.638,777.881v-2.773h-2.171v2.773H419.638z M419.638,781.742v-2.896h-2.171v2.896H419.638z M423.156,779.852c-0.361,0.764-0.791,1.414-1.287,1.951l-0.643-0.785c0.885-0.979,1.487-2.299,1.81-3.961l0.925,0.182c-0.121,0.604-0.262,1.139-0.423,1.607h2.172v-1.949h1.065v1.949h3.177v1.006h-3.177v2.754h3.599v1.025h-3.599v4.021h-1.065v-4.021h-4.443v-1.025h4.443v-2.754H423.156z M421.428,771.549v-0.967h8.203c-0.014,2.602-0.188,4.17-0.523,4.705c-0.321,0.523-0.897,0.785-1.729,0.785c-0.241,0-0.805-0.014-1.689-0.041l-0.261-0.945c0.134,0.014,0.703,0.041,1.709,0.08c0.616-0.025,1.005-0.227,1.166-0.602c0.147-0.402,0.241-1.408,0.281-3.016h-3.297c-0.201,0.979-0.503,1.836-0.905,2.572c-0.51,0.818-1.273,1.568-2.292,2.252l-0.644-0.824c0.938-0.563,1.642-1.24,2.111-2.031c0.335-0.602,0.569-1.26,0.704-1.969H421.428z">
        </path>
        <path fill="#91979C" stroke="#91979C" stroke-miterlimit="10" d="M438.417,769.678c-0.938,2.828-1.851,5.006-2.735,6.535c0.845-0.121,1.689-0.281,2.534-0.482c0.361-0.805,0.724-1.648,1.085-2.533l0.966,0.381c-1.636,3.674-2.956,6.227-3.961,7.66c1.086-0.268,2.218-0.656,3.397-1.166v0.986c-1.636,0.697-3.196,1.172-4.685,1.428l-0.302-0.986c0.188-0.08,0.355-0.182,0.503-0.301c0.71-0.898,1.562-2.393,2.554-4.484c-1.086,0.242-2.118,0.443-3.097,0.604l-0.262-0.965c0.188-0.094,0.335-0.229,0.442-0.402c0.966-1.877,1.81-4.102,2.534-6.676L438.417,769.678z M440.045,784.838c-1.541,0.736-3.364,1.354-5.469,1.85l-0.161-1.066c2.132-0.455,4.008-1.072,5.63-1.85V784.838z M440.81,775.932h1.95v-3.158h-2.353v-1.025h2.353v-2.311h1.065v2.311h2.231v1.025h-2.231v3.158h1.99v0.984h-1.99v1.387c-0.027,0.752-0.054,1.32-0.081,1.709h2.474v1.025h-2.594c-0.442,2.816-1.508,4.967-3.197,6.455l-0.804-0.684c1.541-1.314,2.513-3.238,2.915-5.771h-2.151v-1.025h2.292c0.054-0.75,0.081-1.32,0.081-1.709v-1.387h-1.95V775.932z M447.021,770.201h4.906v0.824c-0.55,2.158-1.14,4.141-1.77,5.951c1.354,2.158,2.044,3.928,2.071,5.309c0,0.924-0.201,1.58-0.604,1.969c-0.416,0.391-1.26,0.584-2.533,0.584l-0.302-1.025c0.362,0.041,0.677,0.061,0.945,0.061c0.67-0.041,1.092-0.16,1.267-0.361c0.188-0.256,0.281-0.664,0.281-1.227c-0.014-1.354-0.717-3.123-2.111-5.309c0.616-1.756,1.193-3.68,1.729-5.77h-2.855v16.285h-1.025V770.201z">
        </path>
        <path fill="#91979C" stroke="#91979C" stroke-miterlimit="10" d="M460.331,785.301c0,1.58-0.671,2.74-2.011,3.479l-0.423-0.705c0.966-0.643,1.475-1.461,1.528-2.453l-0.302,0.021c-0.295,0-0.543-0.088-0.743-0.262c-0.188-0.174-0.282-0.416-0.282-0.725c0-0.348,0.094-0.596,0.282-0.744c0.174-0.188,0.422-0.281,0.743-0.281C459.929,783.631,460.331,784.188,460.331,785.301z">
        </path>
        <path fill="#91979C" stroke="#91979C" stroke-miterlimit="10" d="M485.182,787.412l-0.282-1.025l2.092,0.061c0.63,0,0.944-0.355,0.944-1.066v-14.174h-7.56v16.305h-1.046V770.16h9.651v15.441c0,1.207-0.55,1.811-1.648,1.811H485.182z M481.884,773.859c0.965,1.408,1.776,2.648,2.433,3.721c0.523-1.529,0.945-3.197,1.267-5.006l0.985,0.16c-0.389,2.172-0.918,4.148-1.588,5.932c0.817,1.326,1.568,2.68,2.252,4.061l-0.845,0.623c-0.59-1.193-1.213-2.373-1.87-3.539c-0.777,1.744-1.695,3.244-2.754,4.504l-0.684-0.824c1.085-1.326,2.017-2.908,2.794-4.744c-0.817-1.354-1.763-2.809-2.835-4.363L481.884,773.859z M491.313,787.412l-0.241-1.025c1.26,0.053,2.158,0.08,2.694,0.08c0.71,0,1.065-0.355,1.065-1.066v-16.064h1.086v16.326c0,1.166-0.59,1.75-1.77,1.75H491.313z M491.213,771.045h1.046v12.607h-1.046V771.045z">
        </path>
        <path fill="#91979C" stroke="#91979C" stroke-miterlimit="10" d="M507.298,787.412l-0.282-1.025l2.092,0.061c0.63,0,0.944-0.355,0.944-1.066v-14.174h-7.56v16.305h-1.046V770.16h9.651v15.441c0,1.207-0.55,1.811-1.648,1.811H507.298z M504,773.859c0.965,1.408,1.776,2.648,2.433,3.721c0.523-1.529,0.945-3.197,1.267-5.006l0.985,0.16c-0.389,2.172-0.918,4.148-1.588,5.932c0.817,1.326,1.568,2.68,2.252,4.061l-0.845,0.623c-0.59-1.193-1.213-2.373-1.87-3.539c-0.777,1.744-1.695,3.244-2.754,4.504l-0.684-0.824c1.085-1.326,2.017-2.908,2.794-4.744c-0.817-1.354-1.763-2.809-2.835-4.363L504,773.859z M513.43,787.412l-0.241-1.025c1.26,0.053,2.158,0.08,2.694,0.08c0.71,0,1.065-0.355,1.065-1.066v-16.064h1.086v16.326c0,1.166-0.59,1.75-1.77,1.75H513.43z M513.329,771.045h1.046v12.607h-1.046V771.045z">
        </path>
        <path fill="#91979C" stroke="#91979C" stroke-miterlimit="10" d="M527.383,769.115c-0.174,1.059-0.422,2.426-0.744,4.102h3.579v0.664c-0.228,3.256-0.918,6.051-2.07,8.383c1.326,1.047,2.325,1.904,2.995,2.574l-0.744,0.844c-0.764-0.764-1.688-1.588-2.774-2.473c-1.045,1.742-2.372,3.23-3.98,4.463l-0.724-0.924c1.595-1.166,2.881-2.574,3.86-4.223c-0.872-0.697-1.917-1.488-3.137-2.373c0.644-1.822,1.206-3.779,1.688-5.869h-2.292v-1.066h2.514c0.308-1.488,0.563-2.895,0.764-4.223L527.383,769.115z M529.152,774.283h-2.755c-0.509,2.225-1.032,4.066-1.568,5.527c0.885,0.617,1.702,1.215,2.453,1.791C528.301,779.51,528.924,777.07,529.152,774.283z M531.042,777.82h4.726v-2.693c1.126-0.992,2.191-2.199,3.196-3.619h-7.298v-1.086h8.564v1.086c-0.979,1.408-2.104,2.734-3.378,3.98v2.332h4.263v1.086h-4.263v6.775c0,1.141-0.496,1.709-1.487,1.709h-2.815l-0.281-1.045c1.072,0.027,1.957,0.041,2.654,0.041c0.563,0,0.845-0.35,0.845-1.047v-6.434h-4.726V777.82z">
        </path>
      </g>
    </g>
        
    <g>
      <g>
        <path fill="#91979C" stroke="#91979C" stroke-miterlimit="10" d="M101.468,666.598h6.313c1.313,0,2.345,0.314,3.096,0.945c0.765,0.643,1.146,1.527,1.146,2.652c0,0.818-0.234,1.521-0.704,2.111c-0.456,0.551-1.052,0.939-1.789,1.166c0.938,0.162,1.688,0.543,2.252,1.146c0.549,0.631,0.824,1.422,0.824,2.373c0,1.354-0.489,2.379-1.468,3.076c-0.858,0.59-1.997,0.885-3.418,0.885h-6.253V666.598z M102.694,667.662v5.35h4.825c1.019,0,1.816-0.229,2.393-0.684c0.59-0.471,0.885-1.141,0.885-2.012c0-0.885-0.288-1.555-0.864-2.01c-0.563-0.43-1.361-0.645-2.393-0.645H102.694z M102.694,674.057v5.83h4.986c1.059,0,1.916-0.215,2.573-0.643c0.751-0.523,1.126-1.281,1.126-2.273c0-0.977-0.349-1.715-1.046-2.211c-0.643-0.469-1.534-0.703-2.674-0.703H102.694z">
        </path>
        <path fill="#91979C" stroke="#91979C" stroke-miterlimit="10" d="M118.799,679.223c0.201,0.176,0.302,0.416,0.302,0.725c0,0.268-0.107,0.51-0.322,0.725c-0.214,0.188-0.449,0.281-0.703,0.281c-0.295,0-0.536-0.102-0.724-0.303c-0.201-0.201-0.302-0.436-0.302-0.703c0-0.309,0.101-0.549,0.302-0.725c0.174-0.188,0.415-0.281,0.724-0.281C118.37,678.941,118.611,679.035,118.799,679.223z">
        </path>
        <path fill="#91979C" stroke="#91979C" stroke-miterlimit="10" d="M123.846,674.217h17.773v0.965h-8.605l-0.804,1.67h7.922v4.383c0,1.125-0.543,1.689-1.629,1.689h-1.428l-0.281-0.967l1.388,0.041c0.603,0,0.904-0.328,0.904-0.984v-3.217h-3.619v4.965h-1.045v-4.965h-3.378v4.965h-1.046v-4.965h-3.378v5.166h-1.065v-6.111h5.59l0.764-1.67h-8.063V674.217z M125.072,665.311h15.341v0.924h-7.138v1.549h7.761v3.961h-1.045v-3.096h-6.716v4.604h-1.086v-4.604h-6.715v3.096h-1.046v-3.961h7.761v-1.549h-7.117V665.311z M126.781,670.016h4.182v0.764h-4.182V670.016z M126.781,672.025h4.182v0.764h-4.182V672.025z M134.481,670.016h4.162v0.764h-4.162V670.016z M134.502,672.025h4.202v0.764h-4.202V672.025z">
        </path>
        <path fill="#91979C" stroke="#91979C" stroke-miterlimit="10" d="M146.002,665.451h17.693v1.006h-6.072v2.07h4.806v4.846h-8.484c-0.309,0.576-0.69,1.266-1.146,2.07h11.119v1.025h-4.403c-0.416,1.314-1.214,2.42-2.393,3.318c2.117,0.656,4.296,1.434,6.534,2.332l-0.663,0.885c-2.226-0.939-4.518-1.789-6.877-2.555c-0.054,0.027-0.08,0.049-0.08,0.061c-1.931,1.047-5.054,1.85-9.369,2.414l-0.423-0.986c3.834-0.441,6.676-1.078,8.525-1.91c-1.702-0.521-3.445-0.984-5.228-1.387c0.482-0.725,0.945-1.447,1.387-2.172h-5.167v-1.025h5.791l1.186-2.07h-5.469v-4.846h4.806v-2.07h-6.072V665.451z M152.074,672.408v-2.936h-3.76v2.936H152.074z M158.407,676.469h-6.232c-0.429,0.684-0.798,1.254-1.105,1.709c1.527,0.336,3.149,0.752,4.865,1.246C157.168,678.635,157.992,677.648,158.407,676.469z M156.598,668.527v-2.07H153.1v2.07H156.598z M156.598,672.408v-2.936H153.1v2.936H156.598z M161.383,672.408v-2.936h-3.76v2.936H161.383z">
        </path>
        <path fill="#91979C" stroke="#91979C" stroke-miterlimit="10" d="M177.186,675.121c-1.22,0.416-2.507,0.799-3.86,1.146v4.625c0,1.166-0.557,1.748-1.669,1.748h-2.212l-0.241-1.025c0.724,0.041,1.414,0.061,2.071,0.061c0.644,0,0.965-0.355,0.965-1.064v-4.082c-1.247,0.281-2.641,0.551-4.182,0.805l-0.161-1.066c1.528-0.24,2.976-0.521,4.343-0.844v-4.203h-4.303v-1.045h4.303v-3.156c-1.14,0.24-2.313,0.441-3.519,0.604l-0.222-1.047c2.869-0.32,5.422-0.918,7.661-1.789l0.382,1.025c-1.019,0.363-2.091,0.684-3.217,0.965v3.398h5.268c-0.135-1.596-0.201-3.451-0.201-5.568h1.086c0,2.104,0.061,3.961,0.181,5.568h6.333v1.045h-6.253c0.147,1.557,0.349,2.85,0.604,3.881c0.147,0.604,0.309,1.166,0.482,1.689c1.072-1.246,1.997-2.674,2.774-4.283l0.945,0.504c-0.925,1.93-2.03,3.572-3.317,4.926c0.281,0.736,0.616,1.406,1.005,2.01c0.684,1.006,1.247,1.508,1.689,1.508c0.482-0.027,0.897-1.227,1.246-3.6l0.966,0.523c-0.483,2.828-1.167,4.242-2.052,4.242c-0.777,0-1.621-0.609-2.533-1.83c-0.415-0.59-0.797-1.273-1.146-2.051c-1.488,1.381-3.19,2.447-5.107,3.197l-0.603-0.924c2.023-0.766,3.786-1.883,5.287-3.357c-0.254-0.697-0.482-1.475-0.684-2.334c-0.268-1.125-0.476-2.492-0.623-4.102h-5.348v3.941c1.367-0.361,2.653-0.744,3.86-1.146V675.121z M181.688,664.867c1.448,0.979,2.675,1.984,3.68,3.018l-0.764,0.764c-0.898-0.953-2.118-1.979-3.659-3.076L181.688,664.867z">
        </path>
        <path fill="#91979C" stroke="#91979C" stroke-miterlimit="10" d="M191.741,672.869l-0.2-1.004c1.608-0.846,3.498-3.297,5.669-7.359l1.025,0.342c-1.595,3.016-3.203,5.336-4.825,6.957c3.713-0.121,7.278-0.336,10.696-0.645c-0.804-1.326-1.676-2.605-2.613-3.84l0.944-0.482c1.609,2.119,3.09,4.391,4.443,6.816l-1.025,0.523c-0.495-0.898-0.884-1.582-1.166-2.051l-3.035,0.24v8.184c0,0.629,0.342,0.945,1.025,0.945h2.191c0.603,0,1.025-0.154,1.267-0.463c0.335-0.402,0.556-1.541,0.663-3.418l1.025,0.322c-0.161,2.131-0.462,3.457-0.904,3.98c-0.376,0.402-0.985,0.604-1.83,0.604h-2.734c-1.18,0-1.77-0.584-1.77-1.75v-8.324l-3.478,0.201c-0.188,2.91-0.697,5.061-1.528,6.455c-0.992,1.541-2.601,2.861-4.825,3.961l-0.704-0.926c2.104-0.979,3.599-2.145,4.483-3.498c0.817-1.301,1.307-3.277,1.468-5.932L191.741,672.869z">
        </path>
        <path fill="#91979C" stroke="#91979C" stroke-miterlimit="10" d="M212.108,670.84h4.021v9.168c0.897-0.736,1.749-1.488,2.554-2.252l0.281,1.146c-1.166,1.125-2.453,2.164-3.86,3.115l-0.422-0.984c0.254-0.229,0.382-0.463,0.382-0.703v-8.426h-2.956V670.84z M214.14,664.787c1.38,1.047,2.553,2.111,3.519,3.197l-0.744,0.764c-0.925-1.045-2.111-2.117-3.559-3.217L214.14,664.787z M221.076,668.406c-0.725,1.475-1.629,2.715-2.715,3.721l-0.703-0.846c1.796-1.676,3.002-3.934,3.619-6.775l1.085,0.201c-0.268,1.059-0.543,1.943-0.824,2.654h8.203v1.045h-4.383v5.207h5.127v1.066h-5.127v8.264h-1.065v-8.264h-6.133v-1.066h6.133v-5.207H221.076z">
        </path>
        <path fill="#91979C" stroke="#91979C" stroke-miterlimit="10" d="M238.065,680.611c0,1.58-0.671,2.74-2.011,3.479l-0.423-0.705c0.966-0.643,1.475-1.461,1.528-2.453l-0.302,0.021c-0.295,0-0.543-0.088-0.743-0.262c-0.188-0.174-0.282-0.416-0.282-0.725c0-0.348,0.094-0.596,0.282-0.744c0.174-0.188,0.422-0.281,0.743-0.281C237.663,678.941,238.065,679.498,238.065,680.611z">
        </path>
        <path fill="#91979C" stroke="#91979C" stroke-miterlimit="10" d="M256.422,673.031h17.994v1.086h-17.994V673.031z">
        </path>
        <path fill="#91979C" stroke="#91979C" stroke-miterlimit="10" d="M278.698,681.174h17.714v1.066h-17.714V681.174z M281.634,665.713h11.943v12.063h-11.943V665.713z M282.72,671.102h9.771v-4.344h-9.771V671.102z M292.491,676.73v-4.645h-9.771v4.645H292.491z">
        </path>
        <path fill="#91979C" stroke="#91979C" stroke-miterlimit="10" d="M301.096,682.682l-0.242-1.025c0.563,0.041,1.106,0.061,1.629,0.061c0.375,0,0.563-0.174,0.563-0.523v-5.549c-0.697,0.268-1.435,0.529-2.212,0.785l-0.281-1.047c0.951-0.268,1.782-0.543,2.493-0.824v-5.107h-2.373v-1.064h2.373v-3.779h1.065v3.779h2.011v1.064h-2.011v4.666c0.696-0.309,1.347-0.637,1.95-0.986v1.086c-0.59,0.336-1.24,0.658-1.95,0.965v6.273c0,0.818-0.416,1.227-1.247,1.227H301.096z M318.286,670.799v3.639h-1.066v-2.572h-9.389v2.393h9.288v0.945c-0.764,1.701-1.95,3.17-3.559,4.402c1.408,0.898,3.177,1.656,5.309,2.271l-0.644,0.965c-2.252-0.67-4.136-1.521-5.649-2.553c-1.703,1.045-3.747,1.891-6.133,2.533l-0.563-1.025c2.292-0.563,4.222-1.293,5.79-2.191c-1.528-1.246-2.594-2.693-3.197-4.344h-0.783v-0.824h-0.905v-3.639h7.842c0.764-1.193,1.407-2.492,1.93-3.9l1.025,0.361c-0.63,1.475-1.246,2.654-1.85,3.539H318.286z M318.186,665.652c-2.829,0.563-6.595,0.844-11.3,0.844l-0.321-0.984c4.463-0.014,8.162-0.268,11.098-0.764L318.186,665.652z M308.555,667.201c0.59,1.018,1.025,1.896,1.307,2.633l-0.904,0.342c-0.362-0.885-0.818-1.789-1.367-2.715L308.555,667.201z M309.54,675.262c0.656,1.449,1.688,2.689,3.096,3.721c1.515-1.059,2.634-2.299,3.358-3.721H309.54z M312.053,667.1c0.59,0.951,1.039,1.857,1.348,2.715l-0.905,0.342c-0.375-0.951-0.838-1.877-1.387-2.775L312.053,667.1z">
        </path>
        <path fill="#91979C" stroke="#91979C" stroke-miterlimit="10" d="M327.313,682.842h-1.086v-11.098c-0.751,2.293-1.823,4.369-3.217,6.232l-0.482-1.205c1.729-2.078,2.955-4.438,3.679-7.078h-3.257v-1.066h3.277v-4.041h1.086v4.041h2.794v1.066h-2.794v1.268c1.045,1.018,2.098,2.17,3.156,3.457l-0.644,0.945c-0.952-1.314-1.789-2.398-2.513-3.258V682.842z M331.535,666.979h-0.864v-1.064h8.927v1.045c-0.604,3.873-1.783,7.178-3.538,9.912c1.272,1.863,2.935,3.553,4.985,5.066l-0.724,0.865c-1.943-1.516-3.572-3.189-4.886-5.027c-1.421,1.984-3.203,3.666-5.348,5.047l-0.704-0.865c2.185-1.447,3.981-3.162,5.389-5.146C332.896,673.902,331.816,670.625,331.535,666.979z M332.581,666.979c0.241,3.299,1.179,6.268,2.814,8.908c1.582-2.533,2.627-5.502,3.137-8.908H332.581z">
        </path>
        <path fill="#91979C" stroke="#91979C" stroke-miterlimit="10" d="M347.379,675.986c-0.43,1.742-0.999,3.318-1.709,4.725l-0.945-0.342c0.656-1.219,1.233-2.76,1.729-4.623L347.379,675.986z M344.986,666.717h4.262c-0.295-0.736-0.63-1.42-1.005-2.051l1.146-0.18c0.349,0.684,0.664,1.428,0.945,2.23h3.76v1.047h-9.107V666.717z M346.071,669.693h6.836v4.725h-2.814v6.836c0,0.992-0.482,1.488-1.447,1.488h-1.488l-0.221-1.006c0.616,0.055,1.065,0.08,1.347,0.08c0.482,0,0.724-0.273,0.724-0.824v-6.574h-2.936V669.693z M351.882,673.473v-2.834h-4.785v2.834H351.882z M352.184,675.686c0.616,1.381,1.099,2.66,1.448,3.84l-0.905,0.342c-0.402-1.328-0.885-2.641-1.447-3.941L352.184,675.686z M356.205,664.607h1.065v4.785h5.167v1.064h-2.754v10.416c0,0.482,0.221,0.723,0.663,0.723h0.644c0.295,0,0.503-0.154,0.623-0.463c0.174-0.414,0.288-1.602,0.342-3.559l0.945,0.303c-0.081,2.184-0.269,3.551-0.563,4.102c-0.255,0.414-0.644,0.623-1.166,0.623h-1.126c-0.911,0-1.367-0.502-1.367-1.508v-10.637h-1.428c-0.12,5.67-1.253,9.84-3.397,12.506l-0.824-0.723c2.023-2.508,3.083-6.436,3.177-11.783h-2.071v-1.064h2.071V664.607z M359.623,664.908c1.019,1.139,1.789,2.117,2.313,2.936l-0.825,0.563c-0.563-0.885-1.333-1.877-2.312-2.975L359.623,664.908z">
        </path>
        <path fill="#91979C" stroke="#91979C" stroke-miterlimit="10" d="M367.564,665.732h16.889v1.066h-6.574c-0.362,0.844-0.798,1.688-1.307,2.533v13.631h-1.126V670.98c-1.891,2.506-4.464,4.732-7.721,6.676l-0.724-0.926c4.678-2.721,7.901-6.031,9.671-9.932h-9.108V665.732z M379.085,671.061c2.346,1.863,4.323,3.74,5.932,5.629l-0.845,0.846c-1.421-1.77-3.371-3.674-5.851-5.711L379.085,671.061z">
        </path>
        <path fill="#91979C" stroke="#91979C" stroke-miterlimit="10" d="M396.074,665.994c1.273,1.676,2.231,3.123,2.875,4.342l-0.885,0.625c-0.389-0.725-0.643-1.18-0.764-1.367c-2.212,0.348-4.818,0.602-7.821,0.764l-0.302-0.945c0.175-0.053,0.342-0.148,0.503-0.281c1.247-1.221,2.339-2.729,3.277-4.523l1.046,0.301c-1.006,1.916-2.099,3.398-3.277,4.443c1.769-0.08,3.793-0.268,6.071-0.563c-0.576-0.871-1.099-1.623-1.568-2.252L396.074,665.994z M391.43,679.063v3.881h-1.065v-11.119h7.278v9.471c0,1.004-0.51,1.508-1.528,1.508h-1.709l-0.261-1.025l1.628,0.061c0.536,0,0.805-0.256,0.805-0.764v-2.012H391.43z M396.577,674.98v-2.191h-5.147v2.191H396.577z M391.43,675.945v2.172h5.147v-2.172H391.43z M401.402,673.172c-1.126,0-1.688-0.59-1.688-1.77v-6.855h1.065v2.875c2.332-0.363,4.222-0.744,5.67-1.146l0.361,0.984c-1.662,0.43-3.673,0.818-6.031,1.166v2.756c0,0.656,0.314,0.984,0.945,0.984h2.814c0.429,0,0.744-0.1,0.945-0.301c0.228-0.268,0.382-1.066,0.462-2.393l1.025,0.342c-0.12,1.555-0.361,2.525-0.724,2.914c-0.335,0.295-0.838,0.443-1.508,0.443H401.402z M400.84,680.752c0,0.59,0.288,0.885,0.864,0.885h2.774c0.456,0,0.777-0.107,0.965-0.322c0.241-0.281,0.402-1.1,0.482-2.453l1.006,0.322c-0.121,1.596-0.362,2.586-0.724,2.975c-0.336,0.295-0.838,0.443-1.508,0.443h-3.317c-1.073,0-1.609-0.537-1.609-1.609v-6.896h1.066v2.654c2.117-0.227,3.987-0.59,5.609-1.086l0.361,1.006c-1.903,0.537-3.894,0.893-5.971,1.066V680.752z">
        </path>
        <path fill="#91979C" stroke="#91979C" stroke-miterlimit="10" d="M413.244,677.998c-0.16,1.982-0.63,3.672-1.407,5.066l-0.724-0.684c0.791-1.502,1.206-3.451,1.247-5.852v-6.574l-0.463,0.521l-0.663-0.803c1.246-1.367,2.244-3.104,2.995-5.207l1.006,0.24c-0.215,0.59-0.402,1.072-0.563,1.447h3.72v0.785c-0.496,0.992-0.992,1.828-1.487,2.512h2.573v11.965c0,0.91-0.442,1.367-1.327,1.367h-1.267l-0.241-0.926c0.59,0.027,0.991,0.041,1.206,0.041c0.456,0,0.684-0.27,0.684-0.805v-3.096h-2.171v4.684h-0.925v-4.684H413.244z M415.758,669.451c0.496-0.67,0.985-1.453,1.468-2.352h-3.016c-0.402,0.777-0.892,1.563-1.468,2.352H415.758z M413.325,674.156v2.594l-0.021,0.303h2.132v-2.896H413.325z M415.437,670.418h-2.111v2.773h2.111V670.418z M418.532,673.191v-2.773h-2.171v2.773H418.532z M418.532,677.053v-2.896h-2.171v2.896H418.532z M422.051,675.162c-0.361,0.764-0.791,1.414-1.287,1.951l-0.643-0.785c0.885-0.979,1.487-2.299,1.81-3.961l0.925,0.182c-0.121,0.604-0.262,1.139-0.423,1.607h2.172v-1.949h1.065v1.949h3.177v1.006h-3.177v2.754h3.599v1.025h-3.599v4.021h-1.065v-4.021h-4.443v-1.025h4.443v-2.754H422.051z M420.322,666.859v-0.967h8.203c-0.014,2.602-0.188,4.17-0.523,4.705c-0.321,0.523-0.897,0.785-1.729,0.785c-0.241,0-0.805-0.014-1.689-0.041l-0.261-0.945c0.134,0.014,0.703,0.041,1.709,0.08c0.616-0.025,1.005-0.227,1.166-0.602c0.147-0.402,0.241-1.408,0.281-3.016h-3.297c-0.201,0.979-0.503,1.836-0.905,2.572c-0.51,0.818-1.273,1.568-2.292,2.252l-0.644-0.824c0.938-0.563,1.642-1.24,2.111-2.031c0.335-0.602,0.569-1.26,0.704-1.969H420.322z">
        </path>
        <path fill="#91979C" stroke="#91979C" stroke-miterlimit="10" d="M437.312,664.988c-0.938,2.828-1.851,5.006-2.735,6.535c0.845-0.121,1.689-0.281,2.534-0.482c0.361-0.805,0.724-1.648,1.085-2.533l0.966,0.381c-1.636,3.674-2.956,6.227-3.961,7.66c1.086-0.268,2.218-0.656,3.397-1.166v0.986c-1.636,0.697-3.196,1.172-4.685,1.428l-0.302-0.986c0.188-0.08,0.355-0.182,0.503-0.301c0.71-0.898,1.562-2.393,2.554-4.484c-1.086,0.242-2.118,0.443-3.097,0.604l-0.262-0.965c0.188-0.094,0.335-0.229,0.442-0.402c0.966-1.877,1.81-4.102,2.534-6.676L437.312,664.988z M438.939,680.148c-1.541,0.736-3.364,1.354-5.469,1.85l-0.161-1.066c2.132-0.455,4.008-1.072,5.63-1.85V680.148z M439.704,671.242h1.95v-3.158h-2.353v-1.025h2.353v-2.311h1.065v2.311h2.231v1.025h-2.231v3.158h1.99v0.984h-1.99v1.387c-0.027,0.752-0.054,1.32-0.081,1.709h2.474v1.025h-2.594c-0.442,2.816-1.508,4.967-3.197,6.455l-0.804-0.684c1.541-1.314,2.513-3.238,2.915-5.771h-2.151v-1.025h2.292c0.054-0.75,0.081-1.32,0.081-1.709v-1.387h-1.95V671.242z M445.916,665.512h4.906v0.824c-0.55,2.158-1.14,4.141-1.77,5.951c1.354,2.158,2.044,3.928,2.071,5.309c0,0.924-0.201,1.58-0.604,1.969c-0.416,0.391-1.26,0.584-2.533,0.584l-0.302-1.025c0.362,0.041,0.677,0.061,0.945,0.061c0.67-0.041,1.092-0.16,1.267-0.361c0.188-0.256,0.281-0.664,0.281-1.227c-0.014-1.354-0.717-3.123-2.111-5.309c0.616-1.756,1.193-3.68,1.729-5.77h-2.855v16.285h-1.025V665.512z">
        </path>
        <path fill="#91979C" stroke="#91979C" stroke-miterlimit="10" d="M459.226,680.611c0,1.58-0.671,2.74-2.011,3.479l-0.423-0.705c0.966-0.643,1.475-1.461,1.528-2.453l-0.302,0.021c-0.295,0-0.543-0.088-0.743-0.262c-0.188-0.174-0.282-0.416-0.282-0.725c0-0.348,0.094-0.596,0.282-0.744c0.174-0.188,0.422-0.281,0.743-0.281C458.823,678.941,459.226,679.498,459.226,680.611z">
        </path>
        <path fill="#91979C" stroke="#91979C" stroke-miterlimit="10" d="M482.608,665.008c-1.046,2.186-2.688,4.096-4.926,5.73l-0.322-1.045c1.983-1.514,3.418-3.223,4.303-5.127L482.608,665.008z M483.191,670.115c-0.55,1.086-1.166,2.051-1.85,2.896v9.891h-1.066v-8.705c-0.737,0.723-1.562,1.414-2.473,2.07l-0.321-1.025c2.185-1.635,3.772-3.49,4.765-5.568L483.191,670.115z M485.343,673.715v7.559c1.434-0.375,2.875-0.891,4.322-1.547l0.241,1.006c-1.595,0.684-3.552,1.318-5.871,1.908l-0.221-0.883c0.321-0.121,0.482-0.289,0.482-0.504v-15.783h9.45v8.244h-4.162c0.281,1.406,0.797,2.688,1.548,3.84c1.193-0.576,2.346-1.48,3.458-2.715l0.704,0.705c-1.032,1.205-2.231,2.137-3.599,2.795c1.031,1.354,2.405,2.512,4.121,3.477l-0.583,0.926c-3.659-2.172-5.878-5.18-6.655-9.027H485.343z M492.681,669.09v-2.613h-7.338v2.613H492.681z M485.343,670.096v2.613h7.338v-2.613H485.343z">
        </path>
        <path fill="#91979C" stroke="#91979C" stroke-miterlimit="10" d="M500.04,673.031h1.909v-0.904h0.885v0.904h3.7v-0.824h0.885v0.824h1.789v0.824h-1.789v1.83h-2.252v1.125h3.236v2.654h-3.236v1.146h3.739v0.885h-3.739v1.547h-0.966v-1.547h-4.222v-0.885h4.222v-1.146h-3.236v-2.654h3.236v-1.125h-2.252v-1.83h-1.909V673.031z M500.904,665.09h15.582v0.885h-7.259v1.285h7.762v3.379h-1.006v-2.533h-6.756v3.559h-1.045v-3.559h-6.756v2.594h-1.005v-3.439h7.761v-1.285h-7.278V665.09z M504.201,678.721v-1.186h-2.352v1.186H504.201z M502.794,670.799h4.102v0.684h-4.102V670.799z M502.814,669.131h4.102v0.684h-4.102V669.131z M502.834,673.855v1.105h3.7v-1.105H502.834z M507.519,678.721v-1.186h-2.352v1.186H507.519z M510.957,679.564c-0.281,1.328-0.744,2.475-1.387,3.439l-0.704-0.664c0.938-1.434,1.414-3.258,1.428-5.469v-4.182h6.052v8.465c0,1.191-0.496,1.789-1.488,1.789h-1.688l-0.241-0.926c0.777,0.027,1.32,0.041,1.628,0.041c0.576,0,0.865-0.408,0.865-1.227v-1.268H510.957z M510.495,669.131h4.081v0.684h-4.081V669.131z M510.495,670.799h4.121v0.684h-4.121V670.799z M511.238,676.629v0.162c-0.026,0.723-0.073,1.354-0.141,1.891h4.323v-2.053H511.238z M515.421,675.746v-2.152h-4.183v2.152H515.421z">
        </path>
        <path fill="#91979C" stroke="#91979C" stroke-miterlimit="10" d="M535.044,682.541c-0.657,0-1.844-0.014-3.559-0.041c-1.314-0.039-2.359-0.166-3.137-0.381c-0.777-0.242-1.481-0.738-2.111-1.488c-0.269-0.348-0.529-0.523-0.784-0.523c-0.536,0-1.407,0.932-2.613,2.795l-0.825-0.744c1.14-1.742,2.125-2.754,2.956-3.035v-6.434h-3.076v-1.045h4.102v7.539c0.228,0.107,0.436,0.289,0.623,0.543c0.51,0.604,1.059,1.045,1.648,1.326c0.644,0.242,1.556,0.383,2.734,0.422c1.341,0.027,2.635,0.041,3.881,0.041h2.814l2.172-0.08l-0.262,1.105H535.044z M523.141,664.988c1.448,1.072,2.635,2.111,3.56,3.117l-0.765,0.764c-0.817-0.951-1.997-2.01-3.538-3.178L523.141,664.988z M527.504,666.918h3.579c-0.322-0.684-0.704-1.326-1.146-1.93l1.006-0.381c0.482,0.643,0.897,1.414,1.246,2.311h2.533c0.536-0.816,0.972-1.615,1.308-2.393l1.045,0.383c-0.361,0.75-0.751,1.42-1.166,2.01h3.72v1.025h-5.75c-0.148,0.711-0.336,1.348-0.563,1.91h4.866v9.49h-9.31v-9.49h3.277c0.268-0.629,0.463-1.266,0.583-1.91h-5.228V666.918z M529.896,672.75h7.259v-1.891h-7.259V672.75z M529.896,675.463h7.259v-1.809h-7.259V675.463z M537.155,678.34v-1.971h-7.259v1.971H537.155z">
        </path>
      </g>
    </g>
        
    <g>
      <g>
        <path fill="#91979C" stroke="#91979C" stroke-miterlimit="10" d="M105.75,561.906h1.448l5.75,14.355h-1.347l-1.669-4.283h-6.917l-1.669,4.283H100L105.75,561.906z M103.418,570.934h6.112l-3.016-7.701h-0.061L103.418,570.934z">
        </path>
        <path fill="#91979C" stroke="#91979C" stroke-miterlimit="10" d="M118.276,574.531c0.201,0.176,0.302,0.416,0.302,0.725c0,0.268-0.107,0.51-0.322,0.725c-0.214,0.188-0.449,0.281-0.703,0.281c-0.295,0-0.536-0.102-0.724-0.303c-0.201-0.201-0.302-0.436-0.302-0.703c0-0.309,0.101-0.549,0.302-0.725c0.174-0.188,0.415-0.281,0.724-0.281C117.848,574.25,118.089,574.344,118.276,574.531z">
        </path>
        <path fill="#91979C" stroke="#91979C" stroke-miterlimit="10" d="M123.766,561.041h16.889v1.066h-6.574c-0.362,0.844-0.798,1.688-1.307,2.533v13.631h-1.126v-11.982c-1.891,2.506-4.464,4.732-7.721,6.676l-0.724-0.926c4.678-2.721,7.901-6.031,9.671-9.932h-9.108V561.041z M135.286,566.369c2.346,1.863,4.323,3.74,5.932,5.629l-0.845,0.846c-1.421-1.77-3.371-3.674-5.851-5.711L135.286,566.369z">
        </path>
        <path fill="#91979C" stroke="#91979C" stroke-miterlimit="10" d="M145.439,569.525h17.773v0.965h-8.605l-0.804,1.67h7.922v4.383c0,1.125-0.543,1.689-1.629,1.689h-1.428l-0.281-0.967l1.388,0.041c0.603,0,0.904-0.328,0.904-0.984v-3.217h-3.619v4.965h-1.045v-4.965h-3.378v4.965h-1.046v-4.965h-3.378v5.166h-1.065v-6.111h5.59l0.764-1.67h-8.063V569.525z M146.666,560.619h15.341v0.924h-7.138v1.549h7.761v3.961h-1.045v-3.096h-6.716v4.604h-1.086v-4.604h-6.715v3.096h-1.046v-3.961h7.761v-1.549h-7.117V560.619z M148.375,565.324h4.182v0.764h-4.182V565.324z M148.375,567.334h4.182v0.764h-4.182V567.334z M156.075,565.324h4.162v0.764h-4.162V565.324z M156.096,567.334h4.202v0.764h-4.202V567.334z">
        </path>
        <path fill="#91979C" stroke="#91979C" stroke-miterlimit="10" d="M167.595,560.76h17.693v1.006h-6.072v2.07h4.806v4.846h-8.484c-0.309,0.576-0.69,1.266-1.146,2.07h11.119v1.025h-4.403c-0.416,1.314-1.214,2.42-2.393,3.318c2.117,0.656,4.296,1.434,6.534,2.332l-0.663,0.885c-2.226-0.939-4.518-1.789-6.877-2.555c-0.054,0.027-0.08,0.049-0.08,0.061c-1.931,1.047-5.054,1.85-9.369,2.414l-0.423-0.986c3.834-0.441,6.676-1.078,8.525-1.91c-1.702-0.521-3.445-0.984-5.228-1.387c0.482-0.725,0.945-1.447,1.387-2.172h-5.167v-1.025h5.791l1.186-2.07h-5.469v-4.846h4.806v-2.07h-6.072V560.76z M173.667,567.717v-2.936h-3.76v2.936H173.667z M180,571.777h-6.232c-0.429,0.684-0.798,1.254-1.105,1.709c1.527,0.336,3.149,0.752,4.865,1.246C178.761,573.943,179.585,572.957,180,571.777z M178.19,563.836v-2.07h-3.498v2.07H178.19z M178.19,567.717v-2.936h-3.498v2.936H178.19z M182.976,567.717v-2.936h-3.76v2.936H182.976z">
        </path>
        <path fill="#91979C" stroke="#91979C" stroke-miterlimit="10" d="M193.311,575.92c0,1.58-0.671,2.74-2.011,3.479l-0.423-0.705c0.966-0.643,1.475-1.461,1.528-2.453l-0.302,0.021c-0.295,0-0.543-0.088-0.743-0.262c-0.188-0.174-0.282-0.416-0.282-0.725c0-0.348,0.094-0.596,0.282-0.744c0.174-0.188,0.422-0.281,0.743-0.281C192.908,574.25,193.311,574.807,193.311,575.92z">
        </path>
        <path fill="#91979C" stroke="#91979C" stroke-miterlimit="10" d="M219.528,566.771c0.616,0.684,0.925,1.615,0.925,2.795v6.695h-1.146v-1.99c-0.429,0.615-0.992,1.133-1.688,1.547c-0.818,0.482-1.723,0.725-2.715,0.725c-1.019,0-1.843-0.262-2.473-0.785c-0.63-0.535-0.945-1.252-0.945-2.15c0-1.328,0.543-2.293,1.629-2.895c0.871-0.496,2.03-0.744,3.479-0.744l2.653-0.021v-0.381c0-1.971-1.005-2.955-3.016-2.955c-0.925,0-1.648,0.193-2.171,0.582c-0.591,0.389-0.945,0.992-1.066,1.811h-1.186c0.16-1.168,0.649-2.039,1.468-2.615c0.75-0.535,1.756-0.803,3.016-0.803C217.752,565.586,218.831,565.98,219.528,566.771z M219.246,570.934l-2.593,0.02c-2.628,0.014-3.941,0.893-3.941,2.635c0,0.576,0.222,1.045,0.664,1.406c0.429,0.363,1.019,0.543,1.769,0.543c1.086,0,2.051-0.361,2.896-1.086c0.805-0.709,1.206-1.48,1.206-2.313V570.934z">
        </path>
        <path fill="#91979C" stroke="#91979C" stroke-miterlimit="10" d="M233.301,567.254c0.764,1.006,1.146,2.285,1.146,3.84c0,1.516-0.376,2.781-1.126,3.801c-0.858,1.1-2.018,1.648-3.479,1.648c-1.662,0-2.875-0.818-3.64-2.453v6.152h-1.206v-14.375h1.146v2.051c0.764-1.555,1.983-2.332,3.659-2.332C231.276,565.586,232.443,566.141,233.301,567.254z M227.027,567.938c-0.576,0.777-0.864,1.803-0.864,3.076v0.221c0,1.26,0.309,2.285,0.925,3.076c0.63,0.805,1.475,1.207,2.533,1.207c1.167,0,2.078-0.43,2.734-1.287c0.563-0.791,0.845-1.836,0.845-3.137c0-1.299-0.274-2.346-0.824-3.137c-0.644-0.896-1.548-1.346-2.714-1.346C228.536,566.611,227.657,567.053,227.027,567.938z">
        </path>
        <path fill="#91979C" stroke="#91979C" stroke-miterlimit="10" d="M246.893,567.254c0.764,1.006,1.146,2.285,1.146,3.84c0,1.516-0.376,2.781-1.126,3.801c-0.858,1.1-2.018,1.648-3.479,1.648c-1.662,0-2.875-0.818-3.64-2.453v6.152h-1.206v-14.375h1.146v2.051c0.764-1.555,1.983-2.332,3.659-2.332C244.868,565.586,246.035,566.141,246.893,567.254z M240.619,567.938c-0.576,0.777-0.864,1.803-0.864,3.076v0.221c0,1.26,0.309,2.285,0.925,3.076c0.63,0.805,1.475,1.207,2.533,1.207c1.167,0,2.078-0.43,2.734-1.287c0.563-0.791,0.845-1.836,0.845-3.137c0-1.299-0.274-2.346-0.824-3.137c-0.644-0.896-1.548-1.346-2.714-1.346C242.128,566.611,241.249,567.053,240.619,567.938z">
        </path>
        <path fill="#91979C" stroke="#91979C" stroke-miterlimit="10" d="M261.167,560.76h17.03v1.045h-7.962v1.99h6.272v7.762h-6.494c-0.241,1.42-0.67,2.566-1.286,3.438c2.841,1.26,6.245,1.971,10.213,2.131l-0.301,1.047c-4.115-0.188-7.654-0.979-10.616-2.373c-1.381,1.207-3.699,2.004-6.957,2.393l-0.482-0.984c2.989-0.283,5.127-0.926,6.414-1.932c-1.26-0.684-2.42-1.48-3.479-2.393l0.864-0.604c1.006,0.873,2.125,1.623,3.358,2.252c0.576-0.803,0.972-1.795,1.186-2.975h-6.031v-7.762h6.253v-1.99h-7.982V560.76z M263.982,567.174h5.167v-2.393h-5.167V567.174z M269.049,570.57c0.054-0.695,0.087-1.219,0.101-1.566v-0.885h-5.167v2.451H269.049z M275.442,570.57v-2.451h-5.207v0.885c-0.027,0.695-0.054,1.219-0.081,1.566H275.442z M270.235,564.781v2.393h5.207v-2.393H270.235z">
        </path>
        <path fill="#91979C" stroke="#91979C" stroke-miterlimit="10" d="M285.696,572.34c-0.536,2.025-1.313,3.801-2.332,5.328l-0.905-0.582c1.006-1.447,1.749-3.096,2.231-4.947L285.696,572.34z M282.821,566.289h2.433c-0.349-0.938-0.744-1.756-1.187-2.453l0.965-0.383c0.442,0.805,0.845,1.75,1.207,2.836h2.433c0.469-0.912,0.871-1.877,1.206-2.896l0.985,0.342c-0.349,0.953-0.751,1.805-1.206,2.555h2.453v1.025h-4.001v2.572h3.639v1.006h-3.639v5.811c0,1.072-0.523,1.609-1.568,1.609h-1.106l-0.241-1.025c0.456,0.053,0.784,0.08,0.985,0.08c0.563,0,0.845-0.309,0.845-0.926v-5.549h-3.921v-1.006h3.921v-2.572h-4.202V566.289z M283.002,561.725h4.102c-0.402-0.777-0.798-1.414-1.187-1.91l1.106-0.201c0.361,0.537,0.736,1.24,1.126,2.111h3.819v1.045h-8.967V561.725z M290.06,571.979c0.67,1.354,1.186,2.574,1.548,3.66L290.683,576c-0.416-1.26-0.932-2.52-1.548-3.779L290.06,571.979z M300.273,561.102c-1.823,0.777-3.827,1.227-6.012,1.348v3.939h6.855v1.025h-2.353v10.898h-1.065v-10.898h-3.438v2.654c-0.095,3.404-0.852,6.119-2.272,8.143l-0.784-0.824c1.247-1.756,1.91-4.195,1.99-7.318v-8.525c2.386-0.053,4.571-0.529,6.555-1.426L300.273,561.102z">
        </path>
        <path fill="#91979C" stroke="#91979C" stroke-miterlimit="10" d="M308.255,566.711v0.744c-0.121,4.518-1.039,8.09-2.755,10.717l-0.824-0.846c1.555-2.385,2.393-5.676,2.514-9.871v-5.891c5.039-0.041,9.664-0.51,13.873-1.408l0.522,0.986c-3.94,0.816-8.384,1.279-13.33,1.387v3.115h14.637v1.066H308.255z M321.243,569.867v8.365h-1.086v-1.047h-8.706v1.047h-1.105v-8.365H321.243z M311.451,576.1h8.706v-5.188h-8.706V576.1z">
        </path>
        <path fill="#91979C" stroke="#91979C" stroke-miterlimit="10" d="M342.655,562.367v15.844h-1.085v-1.367h-11.099v1.367h-1.086v-15.844h4.242c0.496-0.844,0.852-1.695,1.065-2.553l1.106,0.16c-0.241,0.859-0.583,1.656-1.025,2.393H342.655z M330.472,566.752h11.099v-3.338h-11.099V566.752z M330.472,571.154h11.099v-3.357h-11.099V571.154z M330.472,575.799h11.099v-3.6h-11.099V575.799z">
        </path>
        <path fill="#91979C" stroke="#91979C" stroke-miterlimit="10" d="M349.149,566.832h8.746v1.086h-4.725c-0.898,3.311-1.683,5.623-2.353,6.936c1.742-0.309,3.519-0.805,5.328-1.488c-0.63-1.299-1.187-2.365-1.669-3.195l0.925-0.443c0.979,1.729,1.91,3.613,2.795,5.65l-0.965,0.482l-0.684-1.588c-2.118,0.75-4.45,1.359-6.997,1.828l-0.262-1.025c0.134-0.053,0.208-0.086,0.222-0.1c0.644-0.844,1.508-3.197,2.594-7.057h-2.956V566.832z M349.954,561.424h7.157v1.025h-7.157V561.424z M361.133,559.936h1.086v3.74h4.423c0,6.447-0.094,10.461-0.281,12.043c-0.161,1.527-0.999,2.291-2.514,2.291c-0.361,0-0.998-0.02-1.91-0.061l-0.261-0.943c1.072,0.025,1.762,0.039,2.07,0.039c0.885,0,1.408-0.549,1.568-1.648c0.134-1.166,0.222-4.725,0.262-10.676h-3.357v0.281c-0.054,6.031-1.481,10.455-4.283,13.27l-0.864-0.764c2.667-2.6,4.021-6.77,4.062-12.506v-0.281h-2.654v-1.045h2.654V559.936z">
        </path>
        <path fill="#91979C" stroke="#91979C" stroke-miterlimit="10" d="M372.432,563.936h3.7v-1.748h-4.082v-0.965h4.082v-1.307h1.085v1.307h3.7v0.965h-3.7v1.748h3.137v0.945h-3.156c-0.04,0.645-0.121,1.227-0.241,1.75h3.92v0.984h-4.222c-0.188,0.443-0.396,0.824-0.623,1.146c-0.737,1.006-1.95,1.797-3.64,2.373l-0.583-0.906c1.581-0.521,2.715-1.238,3.398-2.15l0.261-0.463h-4.001v-0.984h4.363c0.147-0.496,0.241-1.08,0.281-1.75h-3.68V563.936z M379.892,569.688h1.085v1.99h6.374v3.92c0,1.006-0.529,1.508-1.589,1.508h-1.688l-0.281-1.006l1.628,0.041c0.576,0,0.865-0.254,0.865-0.764v-2.695h-5.309v5.691h-1.085v-5.691h-5.228v4.443h-1.066v-5.447h6.294V569.688z M382.184,560.82h6.253v0.744c-0.496,1.098-1.079,2.145-1.75,3.137c1.207,0.965,1.81,1.828,1.81,2.594c-0.026,1.031-0.556,1.668-1.588,1.908c-0.522,0.148-1.2,0.223-2.03,0.223l-0.383-1.006c0.322,0.041,0.597,0.061,0.824,0.061c1.381-0.027,2.071-0.422,2.071-1.186c0-0.564-0.637-1.428-1.91-2.594c0.724-0.953,1.313-1.918,1.77-2.896h-4.001v8.385h-1.065V560.82z">
        </path>
        <path fill="#91979C" stroke="#91979C" stroke-miterlimit="10" d="M402.591,570.43c-1.22,0.416-2.507,0.799-3.86,1.146v4.625c0,1.166-0.557,1.748-1.669,1.748h-2.212l-0.241-1.025c0.724,0.041,1.414,0.061,2.071,0.061c0.644,0,0.965-0.355,0.965-1.064v-4.082c-1.247,0.281-2.641,0.551-4.182,0.805l-0.161-1.066c1.528-0.24,2.976-0.521,4.343-0.844v-4.203h-4.303v-1.045h4.303v-3.156c-1.14,0.24-2.313,0.441-3.519,0.604l-0.222-1.047c2.869-0.32,5.422-0.918,7.661-1.789l0.382,1.025c-1.019,0.363-2.091,0.684-3.217,0.965v3.398h5.268c-0.135-1.596-0.201-3.451-0.201-5.568h1.086c0,2.104,0.061,3.961,0.181,5.568h6.333v1.045h-6.253c0.147,1.557,0.349,2.85,0.604,3.881c0.147,0.604,0.309,1.166,0.482,1.689c1.072-1.246,1.997-2.674,2.774-4.283l0.945,0.504c-0.925,1.93-2.03,3.572-3.317,4.926c0.281,0.736,0.616,1.406,1.005,2.01c0.684,1.006,1.247,1.508,1.689,1.508c0.482-0.027,0.897-1.227,1.246-3.6l0.966,0.523c-0.483,2.828-1.167,4.242-2.052,4.242c-0.777,0-1.621-0.609-2.533-1.83c-0.415-0.59-0.797-1.273-1.146-2.051c-1.488,1.381-3.19,2.447-5.107,3.197l-0.603-0.924c2.023-0.766,3.786-1.883,5.287-3.357c-0.254-0.697-0.482-1.475-0.684-2.334c-0.268-1.125-0.476-2.492-0.623-4.102h-5.348v3.941c1.367-0.361,2.653-0.744,3.86-1.146V570.43z M407.094,560.176c1.448,0.979,2.675,1.984,3.68,3.018l-0.764,0.764c-0.898-0.953-2.118-1.979-3.659-3.076L407.094,560.176z">
        </path>
        <path fill="#91979C" stroke="#91979C" stroke-miterlimit="10" d="M428.707,577.85c-0.671,0-1.85-0.014-3.539-0.041c-1.327-0.039-2.359-0.166-3.096-0.381c-0.791-0.242-1.502-0.738-2.132-1.488c-0.255-0.348-0.51-0.523-0.764-0.523c-0.55,0-1.407,0.932-2.573,2.795l-0.825-0.723c1.14-1.756,2.111-2.775,2.916-3.057v-6.434h-2.976v-1.045h4.001v7.539c0.228,0.107,0.436,0.289,0.623,0.543c0.482,0.604,1.025,1.045,1.629,1.326c0.643,0.242,1.548,0.383,2.714,0.422c1.34,0.027,2.627,0.041,3.86,0.041h2.814l2.172-0.08l-0.262,1.105H428.707z M416.885,560.297c1.34,1.033,2.479,2.064,3.418,3.096l-0.765,0.785c-0.817-0.965-1.957-2.018-3.418-3.156L416.885,560.297z M421.328,562.066h3.317c0.308-0.777,0.59-1.549,0.845-2.313l1.045,0.242c-0.188,0.563-0.442,1.254-0.764,2.07h7.238v1.025h-7.66c-0.657,1.434-1.395,2.742-2.212,3.92h3.699v-2.594h1.065v2.594h4.504v1.006h-4.504v2.754h5.409v1.025h-5.409v3.941h-1.065v-3.941h-5.649v-1.025h5.649v-2.754h-4.785l-0.241-1.025c0.897-1.072,1.695-2.373,2.393-3.9h-2.875V562.066z">
        </path>
        <path fill="#91979C" stroke="#91979C" stroke-miterlimit="10" d="M438.056,578.031l-0.241-1.047c0.751,0.055,1.293,0.082,1.629,0.082c0.576,0,0.864-0.33,0.864-0.986v-5.309c-0.845,0.35-1.756,0.672-2.734,0.967l-0.281-1.066c1.045-0.281,2.051-0.604,3.016-0.965v-4.785h-2.613v-1.066h2.613v-3.9h1.086v3.9h1.829v1.066h-1.829v4.322c0.857-0.428,1.501-0.758,1.93-0.984v1.105c-0.71,0.375-1.354,0.689-1.93,0.945v6.051c0,1.113-0.522,1.67-1.568,1.67H438.056z M449.335,568.279c-0.255,0.643-0.516,1.24-0.784,1.789h7.098v1.045h-2.332c-0.282,1.609-0.952,2.963-2.011,4.063c1.447,0.684,2.854,1.428,4.222,2.232l-0.603,0.863c-1.395-0.857-2.862-1.648-4.403-2.373c-1.287,1.006-3.411,1.811-6.374,2.414l-0.422-0.986c2.52-0.482,4.424-1.133,5.71-1.949c-1.18-0.551-2.547-1.139-4.102-1.77c0.55-0.805,1.065-1.635,1.548-2.494h-2.955v-1.045h3.498c0.309-0.629,0.59-1.266,0.845-1.91L449.335,568.279z M447.023,563.293c0.549,0.965,1.052,1.998,1.508,3.096h2.151c0.589-1.086,1.085-2.191,1.487-3.316l1.025,0.361c-0.415,1.127-0.878,2.111-1.387,2.955h3.498v1.025h-11.118v-1.025h3.277c-0.47-1.031-0.919-1.916-1.348-2.654L447.023,563.293z M449.657,559.775c0.188,0.455,0.422,1.125,0.703,2.01h4.584v1.006h-10.273v-1.006h4.604c-0.2-0.67-0.441-1.273-0.724-1.811L449.657,559.775z M448.008,571.113c-0.349,0.617-0.797,1.309-1.347,2.072c1.287,0.469,2.5,0.979,3.639,1.527c1.032-0.938,1.702-2.137,2.011-3.6H448.008z">
        </path>
        <path fill="#91979C" stroke="#91979C" stroke-miterlimit="10" d="M463.47,575.92c0,1.58-0.671,2.74-2.011,3.479l-0.423-0.705c0.966-0.643,1.475-1.461,1.528-2.453l-0.302,0.021c-0.295,0-0.543-0.088-0.743-0.262c-0.188-0.174-0.282-0.416-0.282-0.725c0-0.348,0.094-0.596,0.282-0.744c0.174-0.188,0.422-0.281,0.743-0.281C463.067,574.25,463.47,574.807,463.47,575.92z">
        </path>
        <path fill="#91979C" stroke="#91979C" stroke-miterlimit="10" d="M482.55,562.689h3.156v-2.834h1.025v2.834h3.116v1.006h-3.116v3.277h3.137v1.006h-2.734v3.156h2.714v1.004h-2.714v3.82c0.134,0.068,0.262,0.121,0.382,0.162c1.247,0.428,3.987,0.643,8.224,0.643c1.876,0,3.277-0.02,4.202-0.061l-0.201,1.105h-3.76c-4.906,0-7.962-0.281-9.168-0.844c-1.18-0.549-2.192-1.527-3.036-2.936c-0.295,1.475-0.711,2.855-1.247,4.143l-0.804-0.725c0.951-2.373,1.474-5.047,1.568-8.021l0.944,0.119c-0.04,1.061-0.12,2.072-0.241,3.037c0.656,1.219,1.354,2.125,2.091,2.715v-7.318h-3.819v-1.006h3.438v-3.277h-3.156V562.689z M490.672,562.006v-1.045h8.364c-0.014,3.324-0.208,5.32-0.583,5.992c-0.375,0.643-1.025,0.965-1.95,0.965c-0.188,0-0.63-0.014-1.327-0.041l-0.281-0.984c0.724,0.053,1.187,0.08,1.388,0.08c0.724-0.027,1.179-0.303,1.367-0.824c0.188-0.537,0.301-1.918,0.342-4.143h-3.378c-0.255,1.475-0.617,2.648-1.086,3.52c-0.522,0.938-1.341,1.795-2.453,2.572l-0.684-0.885c0.965-0.656,1.695-1.387,2.191-2.191c0.456-0.777,0.791-1.781,1.006-3.016H490.672z M491.155,569.203h7.579v6.053h-7.579V569.203z M497.729,574.291v-4.102h-5.569v4.102H497.729z">
        </path>
        <path fill="#91979C" stroke="#91979C" stroke-miterlimit="10" d="M507.742,563.313h0.965v6.656c-0.04,2.211-0.382,3.98-1.025,5.307c-0.67,1.234-1.742,2.191-3.217,2.875l-0.604-0.924c1.421-0.645,2.433-1.541,3.036-2.695c0.522-1.166,0.805-2.686,0.845-4.563V563.313z M511.683,560.76v12.445h-0.985v-11.42h-4.926v11.42h-1.005V560.76H511.683z M509.37,573.889c1.126,1.139,2.098,2.305,2.916,3.498l-0.784,0.764c-0.737-1.18-1.689-2.371-2.855-3.578L509.37,573.889z M516.207,559.875h1.065v3.779h4.785v1.047h-4.785v4.242h3.9v9.207h-1.046v-0.984h-5.911v0.984h-1.005v-9.207h2.996V559.875z M514.216,576.121h5.911v-6.152h-5.911V576.121z">
        </path>
        <path fill="#91979C" stroke="#91979C" stroke-miterlimit="10" d="M529.315,566.551c-0.576,3.336-1.401,6.232-2.473,8.686l-0.945-0.604c1.059-2.453,1.843-5.221,2.353-8.305L529.315,566.551z M533.075,577.568c-1.273,0-1.91-0.604-1.91-1.811v-11.66h1.105v11.42c0,0.643,0.376,0.965,1.126,0.965h3.981c0.55,0,0.938-0.195,1.166-0.584c0.295-0.521,0.489-1.996,0.583-4.422l1.025,0.342c-0.12,2.666-0.396,4.33-0.824,4.986c-0.362,0.508-0.938,0.764-1.729,0.764H533.075z M533.457,560.035c1.903,1.891,3.378,3.559,4.424,5.008l-0.925,0.623c-1.06-1.529-2.527-3.217-4.403-5.066L533.457,560.035z M540.775,565.645c1.395,2.615,2.587,5.342,3.579,8.184l-1.005,0.443c-1.06-3.057-2.272-5.811-3.64-8.264L540.775,565.645z">
        </path>
      </g>
    </g>
  </g>
</svg>