<svg version="1.1" xmlns="http://www.w3.org/2000/svg" xmlns:xlink="http://www.w3.org/1999/xlink" x="0px" y="0px" viewBox="0 0 640 1657" enable-background="new 0 0 640 1657" xml:space="preserve">
<g>
    <animateTransform attributeName="transform" type="translate" values="0 0;-640 0" fill="freeze" begin="click+.5s" dur=".5s"></animateTransform>
    <g>
      <path fill="#FFFFFF" d="M590.609,842.641c0,12.078-9.789,21.867-21.867,21.867H71.257c-12.076,0-21.867-9.789-21.867-21.867V276.275c0-12.077,9.791-21.867,21.867-21.867h497.485c12.078,0,21.867,9.79,21.867,21.867V842.641z">
      
      </path>
      <circle data-fjh="glanimate" fill="#FFFFFF" cx="320.729" cy="256.139" r="42.823"></circle>
      <path fill="#FFFFFF" d="M285.332,231.994c-8.838,14.441-12.619,22.414-37.357,22.414l31.252,0.045L285.332,231.994z">
      </path>
      <path fill="#FFFFFF" d="M356.219,232.085c8.838,14.442,12.619,22.414,37.357,22.414l-31.252,0.046L356.219,232.085z">
      </path>
    </g>
    <circle data-fjh="glanimate" fill="none" stroke="#24303B" stroke-width="7" stroke-miterlimit="10" cx="320.911" cy="257.048" r="39.362">
    </circle>
        
    <g>
      <rect data-fjh="glanimate" x="94.765" y="383.427" fill="none" width="448.284" height="67.789">
      </rect>
      <path fill="#24303B" stroke="#24303B" stroke-miterlimit="10" d="M108.506,391.125h-1.468c-0.4-2.165-1.691-3.247-3.872-3.247c-1.476,0-2.622,0.729-3.44,2.188c-0.802,1.363-1.202,3.136-1.202,5.316v0.842h0.096c0.386-1.011,1.011-1.804,1.877-2.382c0.817-0.577,1.779-0.865,2.886-0.865c1.636,0,2.943,0.521,3.921,1.563c0.994,1.042,1.492,2.397,1.492,4.064c0,1.685-0.529,3.079-1.588,4.186s-2.405,1.66-4.041,1.66c-2.085,0-3.648-0.794-4.69-2.382c-0.931-1.427-1.396-3.464-1.396-6.109c0-2.71,0.513-4.915,1.539-6.615c1.106-1.828,2.63-2.742,4.57-2.742C106.253,386.602,108.024,388.11,108.506,391.125z M100.111,395.502c-0.834,0.817-1.251,1.86-1.251,3.127s0.368,2.325,1.106,3.175c0.802,0.914,1.852,1.371,3.15,1.371c1.267,0,2.285-0.433,3.056-1.299c0.77-0.865,1.154-1.956,1.154-3.271c0-1.314-0.377-2.373-1.131-3.175s-1.771-1.203-3.055-1.203C101.923,394.227,100.912,394.653,100.111,395.502z">
      </path>
      <path fill="#24303B" stroke="#24303B" stroke-miterlimit="10" d="M116.516,402.045c0.241,0.208,0.361,0.497,0.361,0.865c0,0.321-0.129,0.61-0.385,0.866c-0.257,0.225-0.538,0.337-0.843,0.337c-0.353,0-0.642-0.12-0.865-0.36c-0.241-0.241-0.361-0.521-0.361-0.843c0-0.368,0.12-0.657,0.361-0.865c0.208-0.225,0.497-0.337,0.865-0.337C116.002,401.708,116.291,401.821,116.516,402.045z">
      </path>
      <path fill="#24303B" stroke="#24303B" stroke-miterlimit="10" d="M133.45,397.138c-1.46,0.497-2.999,0.954-4.619,1.371v5.532c0,1.396-0.665,2.093-1.996,2.093h-2.646l-0.289-1.227c0.866,0.048,1.691,0.072,2.478,0.072c0.77,0,1.154-0.426,1.154-1.275v-4.883c-1.491,0.337-3.159,0.658-5.003,0.962l-0.192-1.274c1.828-0.289,3.56-0.626,5.195-1.011v-5.027h-5.147v-1.25h5.147v-3.777c-1.363,0.289-2.766,0.529-4.209,0.722l-0.265-1.251c3.432-0.385,6.486-1.098,9.164-2.141L132.68,386c-1.219,0.434-2.501,0.818-3.849,1.155v4.065h6.303c-0.16-1.908-0.24-4.13-0.24-6.663h1.299c0,2.518,0.072,4.738,0.216,6.663h7.577v1.25h-7.48c0.176,1.86,0.417,3.408,0.722,4.643c0.176,0.722,0.368,1.396,0.577,2.021c1.283-1.491,2.39-3.199,3.319-5.123l1.131,0.602c-1.106,2.309-2.43,4.273-3.969,5.893c0.336,0.883,0.737,1.684,1.202,2.405c0.818,1.203,1.491,1.805,2.021,1.805c0.577-0.032,1.074-1.468,1.491-4.306l1.155,0.625c-0.577,3.384-1.396,5.075-2.454,5.075c-0.93,0-1.94-0.729-3.03-2.188c-0.497-0.705-0.954-1.523-1.371-2.453c-1.78,1.651-3.817,2.926-6.11,3.824l-0.722-1.106c2.422-0.914,4.53-2.253,6.326-4.018c-0.305-0.833-0.577-1.764-0.817-2.79c-0.321-1.347-0.569-2.982-0.746-4.907h-6.398v4.715c1.636-0.433,3.176-0.89,4.619-1.371V397.138z M138.838,384.871c1.732,1.171,3.199,2.373,4.402,3.608l-0.914,0.914c-1.075-1.139-2.534-2.365-4.378-3.681L138.838,384.871z">
      </path>
      <path fill="#24303B" stroke="#24303B" stroke-miterlimit="10" d="M149.445,406.182l-0.289-1.251c0.866,0.064,1.483,0.097,1.853,0.097c0.737,0,1.106-0.401,1.106-1.203v-6.326c-1.123,0.466-2.197,0.866-3.224,1.203l-0.336-1.299c1.25-0.353,2.437-0.762,3.56-1.227v-5.821h-3.079v-1.275h3.079v-4.521h1.299v4.521h2.911v1.275h-2.911v5.268c0.962-0.481,1.9-0.986,2.814-1.516v1.299c-0.994,0.578-1.933,1.075-2.814,1.492v7.264c0,1.348-0.649,2.021-1.948,2.021H149.445z M157.215,394.949h11.306v1.228c-0.803,2.373-2.102,4.386-3.897,6.037c1.652,1.203,3.713,2.261,6.183,3.175l-0.698,1.107c-2.518-0.995-4.65-2.157-6.398-3.488c-1.876,1.476-4.218,2.646-7.023,3.512l-0.697-1.082c2.661-0.834,4.891-1.933,6.687-3.296c-1.924-1.731-3.223-3.696-3.896-5.893h-1.563V394.949z M159.235,385.592h7.649v5.315c0,0.61,0.337,0.914,1.01,0.914h2.165v1.228h-2.43c-1.347,0-2.021-0.642-2.021-1.925v-4.281h-5.075v1.611c0,2.213-1.099,3.937-3.295,5.172l-0.891-1.011c1.925-0.946,2.887-2.285,2.887-4.017V385.592z M159.981,396.249c0.657,1.94,1.859,3.655,3.607,5.147c1.668-1.523,2.879-3.239,3.633-5.147H159.981z">
      </path>
      <path fill="#24303B" stroke="#24303B" stroke-miterlimit="10" d="M178.695,387.541c-0.673,1.202-1.387,2.221-2.141,3.055l-1.106-0.722c1.476-1.571,2.565-3.383,3.271-5.437l1.251,0.265c-0.257,0.674-0.481,1.228-0.674,1.66h6.663v1.179h-3.945c0.689,0.979,1.219,1.853,1.588,2.622l-1.179,0.433c-0.481-0.994-1.074-2.012-1.78-3.055H178.695z M177.132,393.674h1.299v12.821h-1.299V393.674z M179.201,390.258c1.25,1.043,2.244,1.997,2.982,2.862l-0.986,0.698c-0.722-0.914-1.708-1.9-2.959-2.959L179.201,390.258z M181.967,394.925h8.371v8.852h-8.371V394.925z M183.193,398.75h5.918v-2.718h-5.918V398.75z M189.111,402.646v-2.79h-5.918v2.79H189.111z M190.843,406.423l-0.313-1.203l2.381,0.048c0.658,0,0.986-0.353,0.986-1.058v-11.812h-9.621v-1.202h10.896v13.35c0,1.251-0.674,1.877-2.021,1.877H190.843z M188.919,387.541c-0.514,0.994-1.075,1.86-1.685,2.598l-1.082-0.697c1.203-1.476,2.093-3.135,2.67-4.979l1.227,0.265c-0.257,0.738-0.457,1.283-0.601,1.636h7.288v1.179h-4.33c0.657,0.882,1.179,1.692,1.563,2.43l-1.179,0.433c-0.48-0.978-1.074-1.933-1.779-2.862H188.919z">
      </path>
      <path fill="#24303B" stroke="#24303B" stroke-miterlimit="10" d="M222.858,385.785v1.299h-17.752v7.36c-0.097,5.036-0.954,9.028-2.574,11.979l-1.01-0.891c1.459-2.678,2.213-6.374,2.261-11.089v-8.659H222.858z M221.68,392.928c-0.048,6.335-0.345,10.119-0.89,11.354c-0.577,1.251-1.588,1.877-3.031,1.877c-0.786,0-1.731-0.024-2.838-0.072l-0.361-1.203c1.154,0.016,2.117,0.04,2.887,0.072c1.267-0.048,2.053-0.649,2.357-1.804c0.337-1.155,0.529-4.17,0.577-9.045h-5.989c-0.289,2.711-0.891,4.979-1.805,6.808c-1.219,2.325-3.239,4.161-6.062,5.509l-0.722-1.155c2.71-1.282,4.65-3.07,5.821-5.364c0.737-1.684,1.227-3.615,1.468-5.797h-5.846v-1.179h5.941c0.032-0.448,0.064-1.154,0.097-2.116v-2.333h1.274v2.333c0,0.737-0.023,1.443-0.072,2.116H221.68z">
      </path>
      <path fill="#24303B" stroke="#24303B" stroke-miterlimit="10" d="M236.16,395.55c-0.947,0.514-2.005,1.026-3.176,1.54v7.144c0,1.379-0.625,2.068-1.876,2.068h-2.068l-0.289-1.25c0.898,0.063,1.531,0.096,1.9,0.096c0.705,0,1.059-0.417,1.059-1.251v-6.254c-1.251,0.481-2.382,0.882-3.392,1.203l-0.361-1.371c1.348-0.353,2.598-0.746,3.753-1.179v-5.941h-3.464v-1.275h3.464v-4.474h1.274v4.474h3.104v1.275h-3.104v5.412c1.219-0.545,2.277-1.066,3.176-1.563V395.55z M248.644,389.464l0.192,1.228l-7.601,1.419c0.16,1.636,0.368,3.022,0.625,4.161c0.257,1.106,0.506,2.053,0.746,2.839c1.747-1.62,3.207-3.568,4.378-5.846l1.13,0.602c-1.362,2.63-3.039,4.819-5.027,6.566c0.305,0.866,0.65,1.604,1.035,2.213c0.914,1.46,1.756,2.197,2.525,2.214c0.609-0.097,1.227-1.644,1.853-4.643l1.154,0.745c-0.354,1.396-0.738,2.574-1.154,3.536c-0.529,1.154-1.123,1.732-1.78,1.732c-1.075,0-2.141-0.763-3.199-2.285c-0.529-0.754-1.011-1.652-1.443-2.694c-1.636,1.251-3.439,2.237-5.412,2.959l-0.722-1.155c2.133-0.753,4.017-1.78,5.652-3.079c-0.353-1.074-0.625-2.004-0.817-2.79c-0.354-1.314-0.626-2.926-0.818-4.835l-3.392,0.626l-0.168-1.251l3.439-0.626c-0.177-2.068-0.265-4.257-0.265-6.566h1.299c0,2.405,0.08,4.515,0.241,6.326L248.644,389.464z M244.458,384.486c0.898,1.091,1.685,2.188,2.357,3.295l-1.179,0.577c-0.737-1.234-1.515-2.333-2.333-3.295L244.458,384.486z">
      </path>
      <path fill="#24303B" stroke="#24303B" stroke-miterlimit="10" d="M264.928,387.565h-8.563v-1.251h18.45v1.251h-8.588v16.381h9.622v1.299h-20.734v-1.299h9.813V387.565z">
      </path>
      <path fill="#24303B" stroke="#24303B" stroke-miterlimit="10" d="M284.099,392.375c-0.898,1.187-1.845,2.293-2.839,3.319l-0.408-1.371c2.661-2.887,4.602-6.158,5.82-9.814l1.203,0.554c-0.657,1.94-1.483,3.729-2.478,5.364v16.044h-1.299V392.375z M291.339,389.344c-1.091,2.325-2.39,4.387-3.896,6.183l-0.914-1.083c2.244-2.63,4.024-5.981,5.34-10.055l1.299,0.313c-0.305,0.946-0.722,2.069-1.251,3.368h10.776v1.274h-8.395v4.378h7.288v1.299h-7.288v4.45h7.48v1.275h-7.48v5.725h-1.299v-17.127H291.339z">
      </path>
      <path fill="#24303B" stroke="#24303B" stroke-miterlimit="10" d="M315.128,386.41v17.536h-1.251v-1.685h-4.065v2.237h-1.299V386.41H315.128z M309.812,393.554h4.065v-5.941h-4.065V393.554z M309.812,401.035h4.065v-6.254h-4.065V401.035z M320.011,406.207l-0.289-1.251c1.86,0.064,3.191,0.097,3.993,0.097c0.834,0,1.251-0.434,1.251-1.299v-13.398h-8.587v-1.275h8.587v-4.354h1.323v4.354h3.127v1.275h-3.127v13.734c0,1.411-0.706,2.117-2.117,2.117H320.011z M318.495,393.53c1.476,2.165,2.646,4.153,3.512,5.966l-1.082,0.745c-0.866-1.812-2.028-3.824-3.488-6.037L318.495,393.53z">
      </path>
      <path fill="#24303B" stroke="#24303B" stroke-miterlimit="10" d="M338.581,403.705c0,1.893-0.802,3.279-2.405,4.162l-0.505-0.843c1.154-0.77,1.764-1.748,1.828-2.935l-0.361,0.024c-0.353,0-0.649-0.104-0.89-0.313c-0.225-0.208-0.337-0.497-0.337-0.866c0-0.417,0.112-0.713,0.337-0.89c0.208-0.225,0.505-0.337,0.89-0.337C338.1,401.708,338.581,402.374,338.581,403.705z">
      </path>
      <path fill="#24303B" stroke="#24303B" stroke-miterlimit="10" d="M362.105,402.478c0.385-0.24,0.577-0.593,0.577-1.059v-15.852h1.347v16.213c2.005-0.786,3.953-1.756,5.846-2.911l0.385,1.299c-2.373,1.363-4.955,2.542-7.745,3.536L362.105,402.478z M368.119,387.204c2.165,2.422,3.881,4.618,5.147,6.591l-1.083,0.77c-1.267-2.052-2.99-4.273-5.171-6.663L368.119,387.204z M368.961,406.302l-0.891-1.082c4.042-2.31,6.735-5.275,8.083-8.9c1.01-3.078,1.515-6.936,1.515-11.569h1.348c0,4.506-0.481,8.322-1.443,11.449c-0.16,0.481-0.289,0.834-0.385,1.059c1.973,2.534,3.672,5.132,5.1,7.794l-0.986,0.986c-1.235-2.454-2.79-4.956-4.667-7.506C375.095,401.612,372.536,404.202,368.961,406.302z">
      </path>
      <path fill="#24303B" stroke="#24303B" stroke-miterlimit="10" d="M387.146,385.929h21.239v1.274h-10.607v4.018c3.03,1.555,6.109,3.359,9.236,5.412l-0.77,1.154c-3.319-2.245-6.142-3.984-8.467-5.22v13.951h-1.275v-19.315h-9.356V385.929z">
      </path>
      <path fill="#24303B" stroke="#24303B" stroke-miterlimit="10" d="M419.089,386.674v15.587h-3.633v2.237h-1.179v-17.824H419.089z M415.456,401.131h2.478v-13.303h-2.478V401.131z M420.388,391.149h1.804v-4.21h-1.684v-1.202h6.422c0,9.124-0.104,14.817-0.313,17.078c-0.192,2.213-1.01,3.319-2.453,3.319l-1.396-0.048l-0.313-1.155c0.577,0.049,1.074,0.072,1.491,0.072c0.866,0,1.371-0.762,1.516-2.285c0.096-0.833,0.168-2.461,0.217-4.883h-2.67c-0.481,3.576-1.476,6.366-2.983,8.371l-0.938-0.794c1.379-1.764,2.301-4.289,2.766-7.577h-1.516v-1.202h1.66c0.112-1.331,0.177-2.606,0.192-3.825v-0.48h-1.804V391.149z M425.703,396.633l0.024-4.306h-2.405v0.48c-0.017,1.219-0.081,2.494-0.192,3.825H425.703z M425.728,391.149l0.024-4.21h-2.43v4.21H425.728z M428.951,385.665h5.652v0.986c-0.417,2.325-0.906,4.618-1.468,6.879c1.155,2.405,1.756,4.49,1.805,6.254c0,1.123-0.192,1.917-0.577,2.382c-0.546,0.642-1.483,0.962-2.814,0.962l-0.409-1.251c0.481,0.049,0.882,0.072,1.203,0.072c0.465-0.048,0.825-0.225,1.082-0.529c0.208-0.368,0.313-0.914,0.313-1.636c0-1.747-0.585-3.768-1.756-6.062c0.642-2.518,1.122-4.818,1.443-6.903h-3.296v19.58h-1.178V385.665z">
      </path>
      <path fill="#24303B" stroke="#24303B" stroke-miterlimit="10" d="M451.297,384.534c2.021,3.384,5.516,6.366,10.487,8.948l-0.77,1.154c-4.619-2.373-8.059-5.323-10.319-8.852c-2.727,3.864-6.166,6.863-10.319,8.996l-0.77-1.179c4.538-2.325,8.034-5.348,10.487-9.068H451.297z M450.046,391.582h1.299v14.865h-1.299V391.582z">
      </path>
      <path fill="#24303B" stroke="#24303B" stroke-miterlimit="10" d="M482.277,406.014c-0.817,0-2.27-0.017-4.354-0.048c-1.588-0.049-2.847-0.201-3.776-0.457c-0.979-0.289-1.845-0.883-2.598-1.78c-0.321-0.417-0.626-0.626-0.914-0.626c-0.658,0-1.692,1.115-3.104,3.344l-0.986-0.89c1.363-2.101,2.526-3.312,3.488-3.632v-7.698h-3.561v-1.25h4.787v8.996c0.289,0.16,0.545,0.385,0.77,0.673c0.626,0.722,1.299,1.251,2.021,1.588c0.802,0.289,1.908,0.457,3.319,0.505c1.636,0.032,3.207,0.049,4.715,0.049h3.319l2.574-0.097l-0.313,1.323H482.277z M467.966,385.015c1.731,1.314,3.11,2.558,4.137,3.728l-0.914,0.914c-0.979-1.154-2.35-2.421-4.113-3.8L467.966,385.015z M480.233,384.461h1.274v3.224h4.883v1.251h-4.883v3.752h5.797v1.251h-4.113v6.928c0,0.4,0.249,0.602,0.746,0.602h1.154c0.4,0,0.729-0.064,0.986-0.193c0.369-0.24,0.602-1.218,0.697-2.935l1.131,0.386c-0.145,1.892-0.409,3.03-0.794,3.415c-0.321,0.321-0.906,0.497-1.756,0.529h-1.804c-0.514,0-0.914-0.145-1.203-0.433c-0.272-0.272-0.409-0.642-0.409-1.106v-7.192h-2.67c-0.048,1.731-0.288,3.224-0.722,4.474c-0.642,1.797-2.101,3.288-4.378,4.475l-0.817-1.034c1.94-0.946,3.255-2.189,3.945-3.729c0.448-1.203,0.697-2.598,0.745-4.186H474.1v-1.251h6.134v-3.752h-4.234c-0.417,0.897-0.914,1.771-1.491,2.621l-1.106-0.722c1.235-1.764,2.157-3.784,2.767-6.062l1.227,0.265c-0.272,0.962-0.562,1.845-0.866,2.646h3.705V384.461z">
      </path>
      <path fill="#24303B" stroke="#24303B" stroke-miterlimit="10" d="M496.012,388.31h-3.03v-1.299h7.313v1.299h-2.983v11.426c1.363-0.481,2.43-0.874,3.199-1.179v1.299c-2.116,0.866-4.594,1.684-7.433,2.454l-0.337-1.275c1.267-0.32,2.357-0.617,3.271-0.89V388.31z M507.101,392.953h1.299v4.065c-0.048,2.565-0.722,4.618-2.021,6.157c-1.25,1.428-3.319,2.55-6.206,3.368l-0.745-1.106c2.806-0.77,4.811-1.805,6.014-3.104c1.059-1.362,1.611-3.135,1.659-5.315V392.953z M501.304,385.688h13.229v1.299h-5.893c-0.161,1.106-0.361,2.085-0.602,2.935h5.195v11.09h-1.299v-9.839h-8.106v9.839h-1.274v-11.09h4.209c0.241-0.865,0.441-1.844,0.602-2.935h-6.062V385.688z M509.603,401.204c2.068,1.523,3.792,3.03,5.172,4.521l-0.914,0.914c-1.299-1.459-3.007-2.99-5.124-4.594L509.603,401.204z">
      </path>
      <path fill="#24303B" stroke="#24303B" stroke-miterlimit="10" d="M519.971,385.905h20.205v1.274h-7.866c-0.433,1.011-0.954,2.021-1.563,3.031v16.309h-1.347v-14.336c-2.261,2.999-5.34,5.661-9.236,7.985l-0.866-1.106c5.597-3.255,9.453-7.216,11.57-11.883h-10.896V385.905z M533.753,392.279c2.807,2.229,5.172,4.475,7.097,6.735l-1.011,1.011c-1.7-2.117-4.033-4.394-7-6.832L533.753,392.279z">
      </path>
      <path fill="#24303B" stroke="#24303B" stroke-miterlimit="10" d="M281.816,421.061h21.336v1.275h-3.271v16.693c0,1.491-0.738,2.237-2.213,2.237h-3.969l-0.289-1.251c1.764,0.063,3.031,0.097,3.801,0.097c0.897,0,1.347-0.474,1.347-1.42v-16.356h-16.741V421.061z M293.723,426.425v8.516h-7.745v2.188h-1.251v-10.704H293.723z M285.978,433.738h6.494v-6.134h-6.494V433.738z">
      </path>
      <path fill="#24303B" stroke="#24303B" stroke-miterlimit="10" d="M314.794,420.292c-1.38,2.71-3.528,5.06-6.446,7.048l-0.409-1.299c2.646-1.86,4.538-3.961,5.677-6.302L314.794,420.292z M315.924,425.776c-0.754,1.46-1.676,2.807-2.766,4.041v11.643h-1.275V431.14c-1.122,1.011-2.261,1.916-3.415,2.718l-0.409-1.299c3.11-2.181,5.348-4.626,6.711-7.336L315.924,425.776z M316.478,427.387h13.157v1.275h-3.992v10.464c0,1.475-0.746,2.213-2.237,2.213h-3.488l-0.288-1.251c1.539,0.063,2.646,0.096,3.319,0.096c0.914,0,1.371-0.457,1.371-1.371v-10.15h-7.842V427.387z M317.175,421.206h11.354v1.275h-11.354V421.206z">
      </path>
      <path fill="#24303B" stroke="#24303B" stroke-miterlimit="10" d="M343.177,422.889c0.866,0.818,1.299,1.925,1.299,3.32c0,1.01-0.305,1.916-0.914,2.718c-0.24,0.305-0.874,0.922-1.9,1.853c-0.545,0.48-0.946,0.938-1.202,1.371c-0.337,0.577-0.505,1.194-0.505,1.852v0.697h-1.468v-0.697c0-0.705,0.145-1.347,0.434-1.924c0.353-0.771,1.09-1.644,2.213-2.622c0.608-0.609,0.978-0.994,1.106-1.155c0.513-0.657,0.77-1.338,0.77-2.044c0-1.011-0.297-1.828-0.891-2.454c-0.609-0.608-1.491-0.914-2.646-0.914c-1.283,0-2.253,0.434-2.91,1.299c-0.578,0.722-0.866,1.717-0.866,2.983h-1.443c0-1.604,0.44-2.919,1.323-3.945c0.945-1.09,2.269-1.636,3.969-1.636C341.052,421.59,342.263,422.024,343.177,422.889z M340.098,437.034c0.241,0.208,0.361,0.497,0.361,0.865c0,0.337-0.12,0.626-0.361,0.866c-0.256,0.225-0.545,0.337-0.865,0.337c-0.354,0-0.649-0.12-0.891-0.36c-0.225-0.225-0.336-0.506-0.336-0.843c0-0.368,0.111-0.657,0.336-0.865c0.225-0.225,0.521-0.337,0.891-0.337C339.585,436.697,339.873,436.809,340.098,437.034z">
      </path>
    </g>
        
    <g>
      <path fill="#E5EBF0" d="M566.01,570.119c0,24.607-19.947,44.555-44.555,44.555H120.187c-24.607,0-44.555-19.947-44.555-44.555l0,0c0-24.607,19.947-44.555,44.555-44.555h401.268C546.063,525.564,566.01,545.512,566.01,570.119L566.01,570.119z">
      </path>
      <path fill="#E5EBF0" d="M565.463,674.809c0,24.607-19.947,44.555-44.555,44.555H119.64c-24.607,0-44.555-19.947-44.555-44.555l0,0c0-24.607,19.947-44.555,44.555-44.555h401.268C545.516,630.254,565.463,650.201,565.463,674.809L565.463,674.809z">
      </path>
      <path fill="#E5EBF0" d="M566.555,779.498c0,24.607-19.947,44.555-44.555,44.555H120.732c-24.605,0-44.555-19.947-44.555-44.555l0,0c0-24.607,19.949-44.555,44.555-44.555H522C546.607,734.943,566.555,754.891,566.555,779.498L566.555,779.498z">
      </path>
    </g>
        
    <g>
      <g>
        <path fill="#24303B" stroke="#24303B" stroke-width="3" stroke-miterlimit="10" d="M333.744,245.975h-3.676c-1.004-5.422-4.236-8.133-9.699-8.133c-3.695,0-6.566,1.828-8.615,5.482c-2.009,3.414-3.012,7.853-3.012,13.314v2.109h0.241c0.964-2.53,2.53-4.519,4.699-5.964c2.048-1.446,4.458-2.169,7.229-2.169c4.096,0,7.369,1.306,9.82,3.916c2.49,2.611,3.734,6.005,3.734,10.182c0,4.217-1.324,7.711-3.977,10.482c-2.65,2.771-6.023,4.157-10.121,4.157c-5.221,0-9.137-1.988-11.748-5.964c-2.33-3.574-3.494-8.675-3.494-15.302c0-6.787,1.285-12.31,3.855-16.567c2.771-4.579,6.586-6.868,11.447-6.868C328.102,234.648,332.539,238.424,333.744,245.975z M312.719,256.939c-2.089,2.048-3.133,4.66-3.133,7.832c0,3.173,0.923,5.824,2.771,7.952c2.008,2.29,4.639,3.434,7.892,3.434c3.172,0,5.723-1.084,7.651-3.253c1.928-2.169,2.893-4.9,2.893-8.193c0-3.293-0.945-5.944-2.832-7.953c-1.889-2.008-4.439-3.012-7.651-3.012C317.257,253.746,314.727,254.811,312.719,256.939z">
        </path>
      </g>
    </g>
        
    <g opacity="0">
      <animate attributeName="opacity" begin="click" dur=".3s" values="0;1" fill="freeze"></animate>
      <g>
        <path fill="#F1B932" d="M566.221,569.831c0,24.607-19.947,44.555-44.555,44.555H120.398c-24.605,0-44.555-19.947-44.555-44.555l0,0c0-24.607,19.949-44.555,44.555-44.555h401.268C546.273,525.276,566.221,545.224,566.221,569.831L566.221,569.831z">
        </path>
      </g>
      <circle data-fjh="glanimate" fill="#F1B932" cx="810.077" cy="1416.849" r="15"></circle>
    </g>
        
    <g opacity="0">
      <animate attributeName="opacity" begin="click" dur=".3s" values="0;1" fill="freeze"></animate>
      <g>
        <path fill="#F1B932" d="M566.555,779.498c0,24.607-19.947,44.555-44.555,44.555H120.732c-24.605,0-44.555-19.947-44.555-44.555l0,0c0-24.607,19.949-44.555,44.555-44.555H522C546.607,734.943,566.555,754.891,566.555,779.498L566.555,779.498z">
        </path>
      </g>
      <circle data-fjh="glanimate" fill="#F1B932" cx="903.646" cy="1416.849" r="15"></circle>
    </g>
        
    <g opacity="0">
      <animate attributeName="opacity" begin="click" dur=".3s" values="0;1" fill="freeze"></animate>
        <g>
        <path fill="#F1B932" d="M565.555,675.165c0,24.607-19.947,44.555-44.555,44.555H119.732c-24.605,0-44.555-19.947-44.555-44.555l0,0c0-24.607,19.949-44.555,44.555-44.555H521C545.607,630.61,565.555,650.558,565.555,675.165L565.555,675.165z">
        </path>
      </g>
      <circle data-fjh="glanimate" fill="#F1B932" cx="856.39" cy="1416.849" r="15"></circle>
    </g>
        
    <g>
      <g>
        <path fill="#91979C" stroke="#91979C" stroke-miterlimit="10" d="M127.561,772.252c1.112,0.844,1.763,1.971,1.95,3.377h-1.186c-0.175-1.111-0.718-1.977-1.629-2.594c-0.858-0.604-1.877-0.904-3.056-0.904c-1.757,0-3.137,0.623-4.143,1.869c-0.938,1.154-1.407,2.662-1.407,4.525s0.463,3.357,1.388,4.482c0.965,1.193,2.312,1.789,4.041,1.789c1.206,0,2.259-0.328,3.156-0.984c0.952-0.725,1.568-1.75,1.851-3.076h1.186c-0.309,1.662-1.059,2.963-2.252,3.9c-1.126,0.857-2.433,1.287-3.92,1.287c-2.146,0-3.82-0.736-5.026-2.211c-1.1-1.342-1.649-3.07-1.649-5.188c0-2.119,0.563-3.867,1.689-5.248c1.22-1.516,2.922-2.271,5.106-2.271C125.188,771.006,126.488,771.42,127.561,772.252z">
        </path>
        <path fill="#91979C" stroke="#91979C" stroke-miterlimit="10" d="M135.904,783.912c0.201,0.176,0.302,0.416,0.302,0.725c0,0.268-0.107,0.51-0.322,0.725c-0.214,0.188-0.449,0.281-0.703,0.281c-0.295,0-0.536-0.102-0.724-0.303c-0.201-0.201-0.302-0.436-0.302-0.703c0-0.309,0.101-0.549,0.302-0.725c0.174-0.188,0.415-0.281,0.724-0.281C135.476,783.631,135.717,783.725,135.904,783.912z">
        </path>
        <path fill="#91979C" stroke="#91979C" stroke-miterlimit="10" d="M141.253,771.287h1.227v6.373h8.907v-6.373h1.226v14.355h-1.226v-6.877h-8.907v6.877h-1.227V771.287z">
        </path>
        <path fill="#91979C" stroke="#91979C" stroke-miterlimit="10" d="M157.559,771.287h6.072c1.434,0,2.546,0.334,3.337,1.004c0.817,0.697,1.227,1.676,1.227,2.936c0,0.818-0.228,1.549-0.684,2.191c-0.482,0.645-1.159,1.066-2.03,1.268v0.041c1.447,0.32,2.252,1.205,2.412,2.652l0.201,2.152c0.081,0.898,0.315,1.602,0.704,2.111h-1.348c-0.295-0.469-0.482-1.119-0.563-1.951l-0.181-1.971c-0.081-0.885-0.409-1.52-0.985-1.91c-0.522-0.361-1.254-0.543-2.191-0.543h-4.745v6.375h-1.227V771.287z M158.785,772.373v5.811h4.725c1.112,0,1.983-0.275,2.614-0.824c0.563-0.523,0.844-1.221,0.844-2.092c0-0.951-0.274-1.668-0.824-2.152c-0.55-0.494-1.435-0.742-2.653-0.742H158.785z">
        </path>
        <path fill="#91979C" stroke="#91979C" stroke-miterlimit="10" d="M174.929,782.969c0.67,0.455,1.414,1.105,2.232,1.949c0.696,0.725,1.26,1.395,1.688,2.012l-0.784,0.662c-0.442-0.615-0.999-1.279-1.669-1.99c-0.791-0.83-1.515-1.488-2.171-1.971L174.929,782.969z">
        </path>
        <path fill="#91979C" stroke="#91979C" stroke-miterlimit="10" d="M201.328,770.141c-0.791,1.326-1.616,2.42-2.474,3.277c0.147,0.295,0.288,0.609,0.423,0.945c0.576,1.621,0.891,3.9,0.944,6.836c0,3.123-0.402,5.006-1.206,5.648c-0.456,0.35-1.126,0.523-2.011,0.523l-1.246-0.02l-0.322-1.025c0.469,0.039,0.911,0.061,1.327,0.061c0.75,0,1.267-0.121,1.548-0.363c0.576-0.535,0.865-2.158,0.865-4.865c-0.027-1.166-0.074-2.125-0.142-2.875c-1.019,1.568-2.278,2.908-3.779,4.021l-0.623-0.945c1.796-1.26,3.196-2.775,4.202-4.543c-0.148-0.766-0.315-1.414-0.503-1.951c-0.135-0.322-0.234-0.549-0.302-0.684c-0.737,0.631-1.648,1.281-2.734,1.951l-0.604-0.945c1.072-0.537,2.018-1.193,2.835-1.971c-0.59-1.02-1.34-1.938-2.252-2.754l0.865-0.664c0.885,0.885,1.602,1.77,2.151,2.654c0.831-0.871,1.541-1.83,2.131-2.875L201.328,770.141z M201.83,771.689h2.393v-2.354h1.065v2.354h3.56v-2.354h1.085v2.354h2.493v1.004h-2.493v2.855h2.936v1.025h-11.54v-1.025h2.895v-2.855h-2.393V771.689z M211.541,778.385v9.088h-1.065v-1.047h-6.735v1.025h-1.065v-9.066H211.541z M203.74,781.943h6.735v-2.574h-6.735V781.943z M203.74,785.422h6.735v-2.514h-6.735V785.422z M205.288,775.549h3.56v-2.855h-3.56V775.549z">
        </path>
        <path fill="#91979C" stroke="#91979C" stroke-miterlimit="10" d="M217.171,778.826h9.107c0.309-1.125,0.483-2.42,0.523-3.881v-5.549h1.105v5.549c-0.04,1.447-0.208,2.742-0.503,3.881h7.037v1.086h-7.358c-0.389,1.18-0.958,2.244-1.709,3.197c-1.582,1.902-4.162,3.383-7.741,4.443l-0.623-0.926c3.565-1.045,6.119-2.486,7.66-4.322c0.523-0.711,0.945-1.508,1.267-2.393h-8.766V778.826z M218.458,773.619c1.742,0.791,3.337,1.729,4.785,2.814l-0.624,0.945c-1.567-1.221-3.156-2.178-4.765-2.875L218.458,773.619z M220.729,770.361c1.501,0.777,2.849,1.689,4.041,2.734l-0.583,0.885c-1.34-1.166-2.688-2.084-4.041-2.754L220.729,770.361z M228.771,781.762c2.252,1.609,4.189,3.264,5.812,4.967l-0.805,0.803c-1.354-1.541-3.271-3.223-5.75-5.045L228.771,781.762z">
        </path>
        <path fill="#91979C" stroke="#91979C" stroke-miterlimit="10" d="M238.985,770.563h17.834v1.066h-2.734v13.953c0,1.246-0.616,1.869-1.85,1.869h-3.317l-0.241-1.045c1.474,0.053,2.533,0.08,3.177,0.08c0.75,0,1.126-0.395,1.126-1.186v-13.672h-13.994V770.563z M248.938,775.047v7.117h-6.474v1.83h-1.046v-8.947H248.938z M242.464,781.158h5.429v-5.127h-5.429V781.158z">
        </path>
        <path fill="#91979C" stroke="#91979C" stroke-miterlimit="10" d="M262.288,784.275c0.321-0.201,0.482-0.496,0.482-0.885v-13.25h1.126v13.551c1.676-0.656,3.304-1.467,4.886-2.432l0.321,1.086c-1.983,1.139-4.142,2.123-6.474,2.955L262.288,784.275z M267.314,771.508c1.81,2.023,3.243,3.859,4.303,5.51l-0.905,0.643c-1.059-1.715-2.5-3.572-4.322-5.57L267.314,771.508z M268.019,787.473l-0.744-0.906c3.378-1.93,5.63-4.41,6.755-7.439c0.845-2.572,1.268-5.797,1.268-9.67h1.125c0,3.766-0.401,6.957-1.206,9.57c-0.134,0.402-0.241,0.697-0.321,0.885c1.648,2.117,3.069,4.289,4.263,6.514l-0.825,0.824c-1.032-2.051-2.332-4.141-3.9-6.273C273.146,783.551,271.007,785.715,268.019,787.473z">
        </path>
        <path fill="#91979C" stroke="#91979C" stroke-miterlimit="10" d="M283.941,771.166h7.66v-1.93h1.086v1.93h7.66v1.045h-6.453c1.541,1.662,3.967,2.963,7.278,3.9l-0.442,0.965c-3.713-1.232-6.313-2.854-7.802-4.865h-0.241v4.686h-1.086v-4.686h-0.241c-1.567,1.971-4.168,3.6-7.801,4.887l-0.604-0.945c3.419-1.045,5.911-2.359,7.479-3.941h-6.494V771.166z M283.54,785.963h17.149v1.006H283.54V785.963z M286.254,777.037h11.762v7.037h-11.762V777.037z M287.319,780.113h9.631v-2.07h-9.631V780.113z M296.95,783.088v-2.029h-9.631v2.029H296.95z">
        </path>
        <path fill="#91979C" stroke="#91979C" stroke-miterlimit="10" d="M306.66,773.076h6.434c0.269-0.59,0.516-1.186,0.744-1.789c-2.252,0.133-4.457,0.201-6.615,0.201l-0.301-0.926c5.696-0.014,10.388-0.408,14.073-1.186l0.523,0.904c-1.863,0.416-4.082,0.725-6.655,0.926c-0.188,0.59-0.422,1.213-0.704,1.869h7.701v0.965h-8.144c-0.228,0.441-0.536,0.984-0.925,1.629h10.214v0.984h-10.877c-0.47,0.631-0.918,1.193-1.347,1.689h10.113v9.289h-1.025v-0.926h-9.41v0.926h-1.045v-7.881c-1.167,1.084-2.42,2.084-3.76,2.994l-0.584-0.943c2.373-1.623,4.29-3.338,5.751-5.148h-5.228v-0.984h5.972c0.361-0.549,0.703-1.092,1.025-1.629h-5.932V773.076z M319.87,780.877v-1.609h-9.41v1.609H319.87z M310.46,781.742v1.527h9.41v-1.527H310.46z M310.46,784.135v1.648h9.41v-1.648H310.46z">
        </path>
        <path fill="#91979C" stroke="#91979C" stroke-miterlimit="10" d="M336.558,779.811c-1.22,0.416-2.507,0.799-3.86,1.146v4.625c0,1.166-0.557,1.748-1.669,1.748h-2.212l-0.241-1.025c0.724,0.041,1.414,0.061,2.071,0.061c0.644,0,0.965-0.355,0.965-1.064v-4.082c-1.247,0.281-2.641,0.551-4.182,0.805l-0.161-1.066c1.528-0.24,2.976-0.521,4.343-0.844v-4.203h-4.303v-1.045h4.303v-3.156c-1.14,0.24-2.313,0.441-3.519,0.604l-0.222-1.047c2.869-0.32,5.422-0.918,7.661-1.789l0.382,1.025c-1.019,0.363-2.091,0.684-3.217,0.965v3.398h5.268c-0.135-1.596-0.201-3.451-0.201-5.568h1.086c0,2.104,0.061,3.961,0.181,5.568h6.333v1.045h-6.253c0.147,1.557,0.349,2.85,0.604,3.881c0.147,0.604,0.309,1.166,0.482,1.689c1.072-1.246,1.997-2.674,2.774-4.283l0.945,0.504c-0.925,1.93-2.03,3.572-3.317,4.926c0.281,0.736,0.616,1.406,1.005,2.01c0.684,1.006,1.247,1.508,1.689,1.508c0.482-0.027,0.897-1.227,1.246-3.6l0.966,0.523c-0.483,2.828-1.167,4.242-2.052,4.242c-0.777,0-1.621-0.609-2.533-1.83c-0.415-0.59-0.797-1.273-1.146-2.051c-1.488,1.381-3.19,2.447-5.107,3.197l-0.603-0.924c2.023-0.766,3.786-1.883,5.287-3.357c-0.254-0.697-0.482-1.475-0.684-2.334c-0.268-1.125-0.476-2.492-0.623-4.102h-5.348v3.941c1.367-0.361,2.653-0.744,3.86-1.146V779.811z M341.061,769.557c1.448,0.979,2.675,1.984,3.68,3.018l-0.764,0.764c-0.898-0.953-2.118-1.979-3.659-3.076L341.061,769.557z">
        </path>
        <path fill="#91979C" stroke="#91979C" stroke-miterlimit="10" d="M356.361,772.855v13.51h-1.046v-1.227h-4.061v1.791h-1.046v-14.074h1.81c0.415-1.141,0.717-2.34,0.904-3.6l1.106,0.141c-0.215,1.234-0.536,2.387-0.965,3.459H356.361z M351.255,778.385h4.061V773.9h-4.061V778.385z M351.255,784.135h4.061v-4.766h-4.061V784.135z M366.776,772.875c0,6.447-0.094,10.461-0.281,12.043c-0.201,1.609-1.133,2.412-2.795,2.412l-1.971-0.039l-0.262-1.006c0.805,0.041,1.509,0.061,2.111,0.061c1.086,0,1.709-0.596,1.87-1.789c0.147-1.1,0.241-4.631,0.281-10.596H359.8c-0.577,1.326-1.254,2.5-2.031,3.518l-0.644-0.844c1.448-2.01,2.434-4.477,2.956-7.398l1.065,0.119c-0.255,1.314-0.563,2.488-0.925,3.52H366.776z M359.779,777.398c1.541,1.703,2.707,3.178,3.498,4.424l-0.864,0.623c-0.804-1.301-1.978-2.795-3.519-4.484L359.779,777.398z">
        </path>
        <path fill="#91979C" stroke="#91979C" stroke-miterlimit="10" d="M374.376,771.789c-0.563,1.006-1.159,1.857-1.789,2.553l-0.925-0.602c1.232-1.314,2.144-2.828,2.734-4.545l1.045,0.221c-0.215,0.564-0.402,1.025-0.563,1.389h5.569v0.984h-3.298c0.576,0.818,1.019,1.549,1.327,2.191l-0.985,0.361c-0.402-0.83-0.898-1.682-1.487-2.553H374.376z M373.069,776.916h1.086v10.717h-1.086V776.916z M374.798,774.061c1.046,0.871,1.877,1.67,2.493,2.393l-0.824,0.584c-0.603-0.764-1.428-1.588-2.473-2.473L374.798,774.061z M377.11,777.961h6.997v7.4h-6.997V777.961z M378.136,781.158h4.946v-2.271h-4.946V781.158z M383.082,784.416v-2.332h-4.946v2.332H383.082z M384.529,787.572l-0.262-1.006l1.991,0.041c0.549,0,0.824-0.295,0.824-0.885v-9.873h-8.043v-1.004h9.108v11.158c0,1.045-0.563,1.568-1.688,1.568H384.529z M382.921,771.789c-0.429,0.832-0.898,1.555-1.407,2.172l-0.905-0.584c1.006-1.232,1.75-2.619,2.232-4.162l1.025,0.223c-0.215,0.615-0.382,1.072-0.503,1.367h6.092v0.984h-3.619c0.55,0.738,0.985,1.414,1.308,2.031l-0.985,0.361c-0.402-0.816-0.898-1.615-1.488-2.393H382.921z">
        </path>
        <path fill="#91979C" stroke="#91979C" stroke-miterlimit="10" d="M411.29,770.322v1.084h-14.838v6.152c-0.081,4.211-0.798,7.547-2.151,10.014l-0.845-0.744c1.22-2.238,1.85-5.328,1.89-9.27v-7.236H411.29z M410.305,776.293c-0.04,5.295-0.288,8.457-0.744,9.49c-0.482,1.045-1.326,1.568-2.533,1.568c-0.656,0-1.447-0.021-2.372-0.061l-0.302-1.006c0.965,0.014,1.77,0.033,2.413,0.061c1.059-0.041,1.715-0.543,1.97-1.508c0.282-0.965,0.442-3.484,0.482-7.561h-5.006c-0.241,2.266-0.744,4.162-1.508,5.691c-1.019,1.943-2.708,3.479-5.066,4.604l-0.604-0.965c2.265-1.072,3.887-2.566,4.865-4.484c0.616-1.406,1.025-3.021,1.227-4.846h-4.886v-0.984h4.966c0.027-0.375,0.054-0.965,0.081-1.77v-1.949h1.065v1.949c0,0.617-0.021,1.207-0.061,1.77H410.305z">
        </path>
        <path fill="#91979C" stroke="#91979C" stroke-miterlimit="10" d="M416.236,774.906h3.639v-3.238c-1.126,0.188-2.226,0.322-3.297,0.402l-0.362-1.006c2.908-0.199,5.415-0.717,7.52-1.547l0.522,0.924c-1.139,0.43-2.252,0.766-3.337,1.006v3.459h3.559v1.025h-3.559v1.145c1.246,1.141,2.445,2.373,3.599,3.701l-0.644,0.924c-1.14-1.527-2.124-2.734-2.955-3.619v9.43h-1.046v-9.65c-0.871,2.104-2.104,4.014-3.699,5.73l-0.463-1.146c1.971-1.93,3.358-4.102,4.162-6.514h-3.639V774.906z M432.884,770.744v16.064h-1.086v-1.67h-5.268v1.85h-1.065v-16.244H432.884z M426.53,784.113h5.268V771.77h-5.268V784.113z">
        </path>
        <path fill="#91979C" stroke="#91979C" stroke-miterlimit="10" d="M440.141,775.811c-0.737,1.125-1.488,2.117-2.252,2.975l-0.362-1.145c2.064-2.547,3.546-5.396,4.443-8.545l1.025,0.482c-0.455,1.5-1.052,2.961-1.789,4.383v13.691h-1.065V775.811z M443.116,772.09h12.988v1.047h-12.988V772.09z M454.697,780.857v6.734h-1.065v-1.105h-7.902v1.105h-1.085v-6.734H454.697z M444.986,775.066h9.369v0.984h-9.369V775.066z M444.986,777.9h9.369v1.006h-9.369V777.9z M445.729,785.441h7.902v-3.559h-7.902V785.441z M449.43,769.215c0.442,0.846,0.784,1.629,1.025,2.354l-0.965,0.381c-0.322-0.896-0.691-1.715-1.106-2.451L449.43,769.215z">
        </path>
        <path fill="#91979C" stroke="#91979C" stroke-miterlimit="10" d="M462.98,780.938c-0.201,2.6-0.958,4.752-2.271,6.453l-0.805-0.744c1.327-1.822,2.011-4.148,2.051-6.977v-9.529h14.678v15.039c0,1.313-0.657,1.971-1.971,1.971h-2.313l-0.281-1.066c0.805,0.041,1.548,0.061,2.231,0.061c0.831,0,1.247-0.455,1.247-1.367v-3.84h-5.892v5.992h-1.085v-5.992H462.98z M463.061,776.051v3.701l-0.02,0.16h5.529v-3.861H463.061z M468.57,771.207h-5.51v3.84h5.51V771.207z M475.547,775.047v-3.84h-5.892v3.84H475.547z M475.547,779.912v-3.861h-5.892v3.861H475.547z">
        </path>
        <path fill="#91979C" stroke="#91979C" stroke-miterlimit="10" d="M489.561,770.221c-0.952,1.742-1.903,3.15-2.855,4.223c-1.112,1.232-2.466,2.393-4.062,3.479l-0.623-0.965c1.447-0.832,2.734-1.904,3.86-3.217c1.059-1.207,1.977-2.568,2.755-4.082L489.561,770.221z M484.896,778.404v-1.025h12.003c-0.054,2.453-0.174,4.443-0.361,5.971c-0.201,1.502-0.522,2.555-0.965,3.156c-0.442,0.59-1.16,0.906-2.151,0.945h-3.76l-0.282-1.045c1.662,0.027,2.835,0.041,3.519,0.041c1.113,0,1.851-0.49,2.212-1.469c0.349-1.006,0.583-3.197,0.704-6.574h-5.73c-0.482,2.305-1.153,4.115-2.011,5.428c-0.979,1.381-2.453,2.635-4.423,3.76l-0.684-0.863c1.796-0.992,3.163-2.105,4.102-3.338c0.885-1.246,1.527-2.908,1.93-4.986H484.896z M493.964,769.438c1.179,3.109,3.276,5.568,6.293,7.379l-0.744,0.844c-3.097-1.971-5.255-4.537-6.474-7.701L493.964,769.438z">
        </path>
      </g>
    </g>
        
    <g>
      <g>
        <path fill="#91979C" stroke="#91979C" stroke-miterlimit="10" d="M117.468,666.598h6.313c1.313,0,2.345,0.314,3.096,0.945c0.765,0.643,1.146,1.527,1.146,2.652c0,0.818-0.234,1.521-0.704,2.111c-0.456,0.551-1.052,0.939-1.789,1.166c0.938,0.162,1.688,0.543,2.252,1.146c0.549,0.631,0.824,1.422,0.824,2.373c0,1.354-0.489,2.379-1.468,3.076c-0.858,0.59-1.997,0.885-3.418,0.885h-6.253V666.598z M118.694,667.662v5.35h4.825c1.019,0,1.816-0.229,2.393-0.684c0.59-0.471,0.885-1.141,0.885-2.012c0-0.885-0.288-1.555-0.864-2.01c-0.563-0.43-1.361-0.645-2.393-0.645H118.694z M118.694,674.057v5.83h4.986c1.059,0,1.916-0.215,2.573-0.643c0.751-0.523,1.126-1.281,1.126-2.273c0-0.977-0.349-1.715-1.046-2.211c-0.643-0.469-1.534-0.703-2.674-0.703H118.694z">
        </path>
        <path fill="#91979C" stroke="#91979C" stroke-miterlimit="10" d="M134.799,679.223c0.201,0.176,0.302,0.416,0.302,0.725c0,0.268-0.107,0.51-0.322,0.725c-0.214,0.188-0.449,0.281-0.703,0.281c-0.295,0-0.536-0.102-0.724-0.303c-0.201-0.201-0.302-0.436-0.302-0.703c0-0.309,0.101-0.549,0.302-0.725c0.174-0.188,0.415-0.281,0.724-0.281C134.37,678.941,134.611,679.035,134.799,679.223z">
        </path>
        <path fill="#91979C" stroke="#91979C" stroke-miterlimit="10" d="M148.954,675.121c-1.22,0.416-2.507,0.799-3.86,1.146v4.625c0,1.166-0.557,1.748-1.669,1.748h-2.212l-0.241-1.025c0.724,0.041,1.414,0.061,2.071,0.061c0.644,0,0.965-0.355,0.965-1.064v-4.082c-1.247,0.281-2.641,0.551-4.182,0.805l-0.161-1.066c1.528-0.24,2.976-0.521,4.343-0.844v-4.203h-4.303v-1.045h4.303v-3.156c-1.14,0.24-2.313,0.441-3.519,0.604l-0.222-1.047c2.869-0.32,5.422-0.918,7.661-1.789l0.382,1.025c-1.019,0.363-2.091,0.684-3.217,0.965v3.398h5.268c-0.135-1.596-0.201-3.451-0.201-5.568h1.086c0,2.104,0.061,3.961,0.181,5.568h6.333v1.045h-6.253c0.147,1.557,0.349,2.85,0.604,3.881c0.147,0.604,0.309,1.166,0.482,1.689c1.072-1.246,1.997-2.674,2.774-4.283l0.945,0.504c-0.925,1.93-2.03,3.572-3.317,4.926c0.281,0.736,0.616,1.406,1.005,2.01c0.684,1.006,1.247,1.508,1.689,1.508c0.482-0.027,0.897-1.227,1.246-3.6l0.966,0.523c-0.483,2.828-1.167,4.242-2.052,4.242c-0.777,0-1.621-0.609-2.533-1.83c-0.415-0.59-0.797-1.273-1.146-2.051c-1.488,1.381-3.19,2.447-5.107,3.197l-0.603-0.924c2.023-0.766,3.786-1.883,5.287-3.357c-0.254-0.697-0.482-1.475-0.684-2.334c-0.268-1.125-0.476-2.492-0.623-4.102h-5.348v3.941c1.367-0.361,2.653-0.744,3.86-1.146V675.121z M153.457,664.867c1.448,0.979,2.675,1.984,3.68,3.018l-0.764,0.764c-0.898-0.953-2.118-1.979-3.659-3.076L153.457,664.867z">
        </path>
        <path fill="#91979C" stroke="#91979C" stroke-miterlimit="10" d="M175.011,682.541c-0.684,0-1.856-0.014-3.519-0.041c-1.313-0.039-2.339-0.166-3.076-0.381c-0.805-0.242-1.508-0.738-2.111-1.488c-0.255-0.348-0.51-0.523-0.764-0.523c-0.55,0-1.407,0.932-2.573,2.795l-0.825-0.723c1.14-1.756,2.111-2.775,2.916-3.057v-6.434h-2.976v-1.045h4.001v7.539c0.228,0.107,0.436,0.289,0.623,0.543c0.482,0.604,1.019,1.045,1.608,1.326c0.644,0.242,1.548,0.383,2.714,0.422c1.341,0.027,2.614,0.041,3.82,0.041h2.855l2.191-0.08l-0.262,1.105H175.011z M163.188,664.988c1.381,1.033,2.561,2.064,3.539,3.096l-0.784,0.785c-0.858-1.006-2.031-2.057-3.519-3.156L163.188,664.988z M167.772,665.773h11.521v1.086h-4.664c-0.281,0.736-0.55,1.373-0.805,1.908v11.441h-1.085v-9.51c-1.274,1.943-2.942,3.68-5.007,5.207l-0.684-0.885c3.097-2.238,5.254-4.959,6.474-8.162h-5.75V665.773z M175.493,669.451c1.903,2.133,3.385,4.049,4.443,5.752l-0.904,0.643c-1.153-1.822-2.614-3.752-4.384-5.791L175.493,669.451z">
        </path>
        <path fill="#91979C" stroke="#91979C" stroke-miterlimit="10" d="M184.077,665.873h17.834v1.066h-2.734v13.953c0,1.246-0.616,1.869-1.85,1.869h-3.317l-0.241-1.045c1.474,0.053,2.533,0.08,3.177,0.08c0.75,0,1.126-0.395,1.126-1.186v-13.672h-13.994V665.873z M194.029,670.357v7.117h-6.474v1.83h-1.046v-8.947H194.029z M187.556,676.469h5.429v-5.127h-5.429V676.469z">
        </path>
        <path fill="#91979C" stroke="#91979C" stroke-miterlimit="10" d="M207.38,679.586c0.321-0.201,0.482-0.496,0.482-0.885v-13.25h1.126v13.551c1.676-0.656,3.304-1.467,4.886-2.432l0.321,1.086c-1.983,1.139-4.142,2.123-6.474,2.955L207.38,679.586z M212.406,666.818c1.81,2.023,3.243,3.859,4.303,5.51l-0.905,0.643c-1.059-1.715-2.5-3.572-4.322-5.57L212.406,666.818z M213.11,682.783l-0.744-0.906c3.378-1.93,5.63-4.41,6.755-7.439c0.845-2.572,1.268-5.797,1.268-9.67h1.125c0,3.766-0.401,6.957-1.206,9.57c-0.134,0.402-0.241,0.697-0.321,0.885c1.648,2.117,3.069,4.289,4.263,6.514l-0.825,0.824c-1.032-2.051-2.332-4.141-3.9-6.273C218.237,678.861,216.099,681.025,213.11,682.783z">
        </path>
        <path fill="#91979C" stroke="#91979C" stroke-miterlimit="10" d="M229.033,666.477h7.66v-1.93h1.086v1.93h7.66v1.045h-6.453c1.541,1.662,3.967,2.963,7.278,3.9l-0.442,0.965c-3.713-1.232-6.313-2.854-7.802-4.865h-0.241v4.686h-1.086v-4.686h-0.241c-1.567,1.971-4.168,3.6-7.801,4.887l-0.604-0.945c3.419-1.045,5.911-2.359,7.479-3.941h-6.494V666.477z M228.632,681.273h17.149v1.006h-17.149V681.273z M231.346,672.348h11.762v7.037h-11.762V672.348z M232.411,675.424h9.631v-2.07h-9.631V675.424z M242.042,678.398v-2.029h-9.631v2.029H242.042z">
        </path>
        <path fill="#91979C" stroke="#91979C" stroke-miterlimit="10" d="M251.753,668.387h6.434c0.269-0.59,0.516-1.186,0.744-1.789c-2.252,0.133-4.457,0.201-6.615,0.201l-0.301-0.926c5.696-0.014,10.388-0.408,14.073-1.186l0.523,0.904c-1.863,0.416-4.082,0.725-6.655,0.926c-0.188,0.59-0.422,1.213-0.704,1.869h7.701v0.965h-8.144c-0.228,0.441-0.536,0.984-0.925,1.629h10.214v0.984h-10.877c-0.47,0.631-0.918,1.193-1.347,1.689h10.113v9.289h-1.025v-0.926h-9.41v0.926h-1.045v-7.881c-1.167,1.084-2.42,2.084-3.76,2.994l-0.584-0.943c2.373-1.623,4.29-3.338,5.751-5.148h-5.228v-0.984h5.972c0.361-0.549,0.703-1.092,1.025-1.629h-5.932V668.387z M264.963,676.188v-1.609h-9.41v1.609H264.963z M255.553,677.053v1.527h9.41v-1.527H255.553z M255.553,679.445v1.648h9.41v-1.648H255.553z">
        </path>
        <path fill="#91979C" stroke="#91979C" stroke-miterlimit="10" d="M272.542,665.451h9.43v1.006h-9.43V665.451z M278.775,682.783l-0.262-0.986l1.468,0.061c0.415,0,0.623-0.195,0.623-0.584v-6.754h-6.715v8.383h-0.966v-9.328h8.666v7.9c0,0.871-0.43,1.309-1.287,1.309H278.775z M273.748,668.004h7.037v4.143h-7.037V668.004z M279.801,671.262v-2.352h-5.067v2.352H279.801z M274.733,678.078h2.774c0.416-0.912,0.758-1.85,1.025-2.816l0.805,0.303c-0.321,0.992-0.65,1.83-0.985,2.514h1.428v0.863h-2.091v3.74h-0.925v-3.74h-2.031V678.078z M275.819,675.443c0.375,0.631,0.717,1.367,1.025,2.213l-0.744,0.199c-0.281-0.764-0.623-1.486-1.025-2.17L275.819,675.443z M282.716,668.227h2.936v-3.58h1.025v3.58h2.936v7.719h-2.936v4.906c0.67-0.133,1.428-0.309,2.271-0.521c-0.268-0.939-0.556-1.816-0.864-2.635l0.864-0.281c0.604,1.541,1.119,3.244,1.549,5.107l-0.925,0.24l-0.362-1.488c-1.997,0.496-4.182,0.926-6.555,1.287l-0.241-1.025c1.126-0.146,2.205-0.309,3.237-0.482v-5.107h-2.936V668.227z M285.691,674.98v-5.789h-2.011v5.789H285.691z M288.667,674.98v-5.789h-2.03v5.789H288.667z">
        </path>
        <path fill="#91979C" stroke="#91979C" stroke-miterlimit="10" d="M298.438,664.566c-0.201,1.408-0.423,2.729-0.664,3.961h3.418v0.664c-0.201,3.283-0.857,6.098-1.97,8.443c0.817,0.711,1.461,1.32,1.93,1.83l-0.724,0.824c-0.442-0.51-1.005-1.078-1.688-1.709c-0.952,1.703-2.179,3.164-3.68,4.383l-0.704-0.844c1.448-1.141,2.647-2.555,3.6-4.242c-0.805-0.738-1.776-1.555-2.916-2.453c0.536-1.717,1.025-3.66,1.468-5.83h-2.051v-1.066h2.252c0.241-1.326,0.463-2.682,0.664-4.061L298.438,664.566z M300.167,669.594h-2.594c-0.441,2.197-0.918,4.041-1.427,5.527c0.67,0.51,1.427,1.113,2.271,1.811C299.383,674.801,299.966,672.354,300.167,669.594z M307.466,673.293v9.67h-1.086v-9.67h-0.04c-0.925,3.297-2.507,6.004-4.745,8.123l-0.563-0.945c2.077-1.836,3.571-4.229,4.483-7.178h-3.619v-1.047h4.483v-3.658h-3.72v-1.045h3.72v-2.996h1.086v2.996h3.78v1.045h-3.78v3.658h4.584v1.047h-3.739c0.844,2.613,2.318,4.932,4.423,6.955l-0.684,0.865c-2.212-2.346-3.713-4.953-4.504-7.82H307.466z">
        </path>
        <path fill="#91979C" stroke="#91979C" stroke-miterlimit="10" d="M323.569,668.166v13.51h-1.046v-1.227h-4.061v1.791h-1.046v-14.074h1.81c0.415-1.141,0.717-2.34,0.904-3.6l1.106,0.141c-0.215,1.234-0.536,2.387-0.965,3.459H323.569z M318.463,673.695h4.061v-4.484h-4.061V673.695z M318.463,679.445h4.061v-4.766h-4.061V679.445z M333.984,668.186c0,6.447-0.094,10.461-0.281,12.043c-0.201,1.609-1.133,2.412-2.795,2.412l-1.971-0.039l-0.262-1.006c0.805,0.041,1.509,0.061,2.111,0.061c1.086,0,1.709-0.596,1.87-1.789c0.147-1.1,0.241-4.631,0.281-10.596h-5.931c-0.577,1.326-1.254,2.5-2.031,3.518l-0.644-0.844c1.448-2.01,2.434-4.477,2.956-7.398l1.065,0.119c-0.255,1.314-0.563,2.488-0.925,3.52H333.984z M326.987,672.709c1.541,1.703,2.707,3.178,3.498,4.424l-0.864,0.623c-0.804-1.301-1.978-2.795-3.519-4.484L326.987,672.709z">
        </path>
        <path fill="#91979C" stroke="#91979C" stroke-miterlimit="10" d="M338.709,665.512h7.881v1.045h-1.166v11.381l0.704-0.242c0.295-0.08,0.529-0.154,0.704-0.221v1.064c-0.322,0.107-0.791,0.256-1.408,0.443v3.961h-1.065v-3.66c-1.608,0.443-3.445,0.859-5.509,1.248l-0.262-1.047l1.468-0.24v-12.688h-1.347V665.512z M341.081,669.814h3.277v-3.258h-3.277V669.814z M341.081,674.057h3.277v-3.238h-3.277V674.057z M341.081,679.043c1.193-0.254,2.285-0.523,3.277-0.805v-3.176h-3.277V679.043z M350.551,676.852c-0.911,2.305-2.023,4.328-3.337,6.072l-0.885-0.645c1.273-1.662,2.358-3.625,3.257-5.891L350.551,676.852z M347.676,665.793h8.284v9.209h-8.284V665.793z M354.894,673.955v-7.117h-6.152v7.117H354.894z M353.849,676.328c1.447,2.293,2.56,4.297,3.338,6.012l-0.905,0.643c-0.857-1.957-1.957-3.994-3.297-6.111L353.849,676.328z">
        </path>
        <path fill="#91979C" stroke="#91979C" stroke-miterlimit="10" d="M360.905,670.256h2.574v-5.268h1.085v5.268h2.675v1.066h-2.675v7.459c1.046-0.309,1.964-0.617,2.755-0.926v1.107c-1.984,0.75-4.108,1.367-6.374,1.85l-0.281-1.127c0.925-0.16,1.863-0.361,2.815-0.604v-7.76h-2.574V670.256z M368.284,672.689v-1.006c2.654-1.555,5.013-3.17,7.077-4.846h-6.855v-1.025h8.424v0.986c-2.104,1.795-4.356,3.438-6.756,4.926h8.063c-0.107,4.57-0.309,7.52-0.603,8.846c-0.322,1.354-1.207,2.045-2.654,2.07c-0.47,0-1.105-0.012-1.91-0.039l-0.302-1.066c0.912,0.055,1.596,0.08,2.051,0.08c0.858-0.039,1.435-0.449,1.729-1.225c0.268-0.711,0.462-3.277,0.583-7.701h-1.749c-0.482,2.492-1.2,4.457-2.151,5.891c-1.032,1.502-2.601,2.855-4.705,4.061l-0.684-0.844c1.983-1.111,3.451-2.324,4.403-3.639c0.938-1.34,1.635-3.164,2.091-5.469h-1.869c-0.751,2.547-2.045,4.531-3.881,5.951l-0.704-0.844c1.689-1.314,2.868-3.018,3.539-5.107H368.284z">
        </path>
        <path fill="#91979C" stroke="#91979C" stroke-miterlimit="10" d="M385.233,671.121c-0.737,1.125-1.488,2.117-2.252,2.975l-0.362-1.145c2.064-2.547,3.546-5.396,4.443-8.545l1.025,0.482c-0.455,1.5-1.052,2.961-1.789,4.383v13.691h-1.065V671.121z M388.209,667.4h12.988v1.047h-12.988V667.4z M399.79,676.168v6.734h-1.065v-1.105h-7.902v1.105h-1.085v-6.734H399.79z M390.079,670.377h9.369v0.984h-9.369V670.377z M390.079,673.211h9.369v1.006h-9.369V673.211z M390.822,680.752h7.902v-3.559h-7.902V680.752z M394.522,664.525c0.442,0.846,0.784,1.629,1.025,2.354l-0.965,0.381c-0.322-0.896-0.691-1.715-1.106-2.451L394.522,664.525z">
        </path>
        <path fill="#91979C" stroke="#91979C" stroke-miterlimit="10" d="M408.073,676.248c-0.201,2.6-0.958,4.752-2.271,6.453l-0.805-0.744c1.327-1.822,2.011-4.148,2.051-6.977v-9.529h14.678v15.039c0,1.313-0.657,1.971-1.971,1.971h-2.313l-0.281-1.066c0.805,0.041,1.548,0.061,2.231,0.061c0.831,0,1.247-0.455,1.247-1.367v-3.84h-5.892v5.992h-1.085v-5.992H408.073z M408.153,671.361v3.701l-0.02,0.16h5.529v-3.861H408.153z M413.663,666.518h-5.51v3.84h5.51V666.518z M420.64,670.357v-3.84h-5.892v3.84H420.64z M420.64,675.223v-3.861h-5.892v3.861H420.64z">
        </path>
        <path fill="#91979C" stroke="#91979C" stroke-miterlimit="10" d="M434.653,665.531c-0.952,1.742-1.903,3.15-2.855,4.223c-1.112,1.232-2.466,2.393-4.062,3.479l-0.623-0.965c1.447-0.832,2.734-1.904,3.86-3.217c1.059-1.207,1.977-2.568,2.755-4.082L434.653,665.531z M429.988,673.715v-1.025h12.003c-0.054,2.453-0.174,4.443-0.361,5.971c-0.201,1.502-0.522,2.555-0.965,3.156c-0.442,0.59-1.16,0.906-2.151,0.945h-3.76l-0.282-1.045c1.662,0.027,2.835,0.041,3.519,0.041c1.113,0,1.851-0.49,2.212-1.469c0.349-1.006,0.583-3.197,0.704-6.574h-5.73c-0.482,2.305-1.153,4.115-2.011,5.428c-0.979,1.381-2.453,2.635-4.423,3.76l-0.684-0.863c1.796-0.992,3.163-2.105,4.102-3.338c0.885-1.246,1.527-2.908,1.93-4.986H429.988z M439.057,664.748c1.179,3.109,3.276,5.568,6.293,7.379l-0.744,0.844c-3.097-1.971-5.255-4.537-6.474-7.701L439.057,664.748z">
        </path>
      </g>
    </g>
        
    <g>
      <g>
        <path fill="#91979C" stroke="#91979C" stroke-miterlimit="10" d="M121.75,561.906h1.448l5.75,14.355h-1.347l-1.669-4.283h-6.917l-1.669,4.283H116L121.75,561.906z M119.418,570.934h6.112l-3.016-7.701h-0.061L119.418,570.934z">
        </path>
        <path fill="#91979C" stroke="#91979C" stroke-miterlimit="10" d="M134.276,574.531c0.201,0.176,0.302,0.416,0.302,0.725c0,0.268-0.107,0.51-0.322,0.725c-0.214,0.188-0.449,0.281-0.703,0.281c-0.295,0-0.536-0.102-0.724-0.303c-0.201-0.201-0.302-0.436-0.302-0.703c0-0.309,0.101-0.549,0.302-0.725c0.174-0.188,0.415-0.281,0.724-0.281C133.848,574.25,134.089,574.344,134.276,574.531z">
        </path>
        <path fill="#91979C" stroke="#91979C" stroke-miterlimit="10" d="M148.432,570.43c-1.22,0.416-2.507,0.799-3.86,1.146v4.625c0,1.166-0.557,1.748-1.669,1.748h-2.212l-0.241-1.025c0.724,0.041,1.414,0.061,2.071,0.061c0.644,0,0.965-0.355,0.965-1.064v-4.082c-1.247,0.281-2.641,0.551-4.182,0.805l-0.161-1.066c1.528-0.24,2.976-0.521,4.343-0.844v-4.203h-4.303v-1.045h4.303v-3.156c-1.14,0.24-2.313,0.441-3.519,0.604l-0.222-1.047c2.869-0.32,5.422-0.918,7.661-1.789l0.382,1.025c-1.019,0.363-2.091,0.684-3.217,0.965v3.398h5.268c-0.135-1.596-0.201-3.451-0.201-5.568h1.086c0,2.104,0.061,3.961,0.181,5.568h6.333v1.045h-6.253c0.147,1.557,0.349,2.85,0.604,3.881c0.147,0.604,0.309,1.166,0.482,1.689c1.072-1.246,1.997-2.674,2.774-4.283l0.945,0.504c-0.925,1.93-2.03,3.572-3.317,4.926c0.281,0.736,0.616,1.406,1.005,2.01c0.684,1.006,1.247,1.508,1.689,1.508c0.482-0.027,0.897-1.227,1.246-3.6l0.966,0.523c-0.483,2.828-1.167,4.242-2.052,4.242c-0.777,0-1.621-0.609-2.533-1.83c-0.415-0.59-0.797-1.273-1.146-2.051c-1.488,1.381-3.19,2.447-5.107,3.197l-0.603-0.924c2.023-0.766,3.786-1.883,5.287-3.357c-0.254-0.697-0.482-1.475-0.684-2.334c-0.268-1.125-0.476-2.492-0.623-4.102h-5.348v3.941c1.367-0.361,2.653-0.744,3.86-1.146V570.43z M152.935,560.176c1.448,0.979,2.675,1.984,3.68,3.018l-0.764,0.764c-0.898-0.953-2.118-1.979-3.659-3.076L152.935,560.176z">
        </path>
        <path fill="#91979C" stroke="#91979C" stroke-miterlimit="10" d="M161.439,561.182h17.834v1.066h-2.734v13.953c0,1.246-0.616,1.869-1.85,1.869h-3.317l-0.241-1.045c1.474,0.053,2.533,0.08,3.177,0.08c0.75,0,1.126-0.395,1.126-1.186v-13.672h-13.994V561.182z M171.392,565.666v7.117h-6.474v1.83h-1.046v-8.947H171.392z M164.918,571.777h5.429v-5.127h-5.429V571.777z">
        </path>
        <path fill="#91979C" stroke="#91979C" stroke-miterlimit="10" d="M184.741,574.895c0.321-0.201,0.482-0.496,0.482-0.885v-13.25h1.126v13.551c1.676-0.656,3.304-1.467,4.886-2.432l0.321,1.086c-1.983,1.139-4.142,2.123-6.474,2.955L184.741,574.895z M189.768,562.127c1.81,2.023,3.243,3.859,4.303,5.51l-0.905,0.643c-1.059-1.715-2.5-3.572-4.322-5.57L189.768,562.127z M190.472,578.092l-0.744-0.906c3.378-1.93,5.63-4.41,6.755-7.439c0.845-2.572,1.268-5.797,1.268-9.67h1.125c0,3.766-0.401,6.957-1.206,9.57c-0.134,0.402-0.241,0.697-0.321,0.885c1.648,2.117,3.069,4.289,4.263,6.514l-0.825,0.824c-1.032-2.051-2.332-4.141-3.9-6.273C195.599,574.17,193.46,576.334,190.472,578.092z">
        </path>
        <path fill="#91979C" stroke="#91979C" stroke-miterlimit="10" d="M206.395,561.785h7.66v-1.93h1.086v1.93h7.66v1.045h-6.453c1.541,1.662,3.967,2.963,7.278,3.9l-0.442,0.965c-3.713-1.232-6.313-2.854-7.802-4.865h-0.241v4.686h-1.086v-4.686h-0.241c-1.567,1.971-4.168,3.6-7.801,4.887l-0.604-0.945c3.419-1.045,5.911-2.359,7.479-3.941h-6.494V561.785z M205.993,576.582h17.149v1.006h-17.149V576.582z M208.707,567.656h11.762v7.037h-11.762V567.656z M209.772,570.732h9.631v-2.07h-9.631V570.732z M219.403,573.707v-2.029h-9.631v2.029H219.403z">
        </path>
        <path fill="#91979C" stroke="#91979C" stroke-miterlimit="10" d="M229.114,563.695h6.434c0.269-0.59,0.516-1.186,0.744-1.789c-2.252,0.133-4.457,0.201-6.615,0.201l-0.301-0.926c5.696-0.014,10.388-0.408,14.073-1.186l0.523,0.904c-1.863,0.416-4.082,0.725-6.655,0.926c-0.188,0.59-0.422,1.213-0.704,1.869h7.701v0.965h-8.144c-0.228,0.441-0.536,0.984-0.925,1.629h10.214v0.984h-10.877c-0.47,0.631-0.918,1.193-1.347,1.689h10.113v9.289h-1.025v-0.926h-9.41v0.926h-1.045v-7.881c-1.167,1.084-2.42,2.084-3.76,2.994l-0.584-0.943c2.373-1.623,4.29-3.338,5.751-5.148h-5.228v-0.984h5.972c0.361-0.549,0.703-1.092,1.025-1.629h-5.932V563.695z M242.324,571.496v-1.609h-9.41v1.609H242.324z M232.914,572.361v1.527h9.41v-1.527H232.914z M232.914,574.754v1.648h9.41v-1.648H232.914z">
        </path>
        <path fill="#91979C" stroke="#91979C" stroke-miterlimit="10" d="M265.425,562.367v15.844h-1.085v-1.367h-11.099v1.367h-1.086v-15.844h4.242c0.496-0.844,0.852-1.695,1.065-2.553l1.106,0.16c-0.241,0.859-0.583,1.656-1.025,2.393H265.425z M253.241,566.752h11.099v-3.338h-11.099V566.752z M253.241,571.154h11.099v-3.357h-11.099V571.154z M253.241,575.799h11.099v-3.6h-11.099V575.799z">
        </path>
        <path fill="#91979C" stroke="#91979C" stroke-miterlimit="10" d="M289.753,572.441c-0.161,2.186-0.416,3.578-0.764,4.182c-0.362,0.631-1.046,0.945-2.051,0.945H275.9c-1.381,0-2.071-0.637-2.071-1.91v-7.922h12.526v-5.629h-13.713v-1.047h14.818v7.742h-12.526v6.514c0,0.791,0.456,1.193,1.367,1.207h10.436c0.764,0,1.267-0.303,1.508-0.906c0.214-0.602,0.362-1.775,0.442-3.518L289.753,572.441z">
        </path>
        <path fill="#91979C" stroke="#91979C" stroke-miterlimit="10" d="M300.932,563.475v13.51h-1.046v-1.227h-4.061v1.791h-1.046v-14.074h1.81c0.415-1.141,0.717-2.34,0.904-3.6l1.106,0.141c-0.215,1.234-0.536,2.387-0.965,3.459H300.932z M295.825,569.004h4.061v-4.484h-4.061V569.004z M295.825,574.754h4.061v-4.766h-4.061V574.754z M311.347,563.494c0,6.447-0.094,10.461-0.281,12.043c-0.201,1.609-1.133,2.412-2.795,2.412l-1.971-0.039l-0.262-1.006c0.805,0.041,1.509,0.061,2.111,0.061c1.086,0,1.709-0.596,1.87-1.789c0.147-1.1,0.241-4.631,0.281-10.596h-5.931c-0.577,1.326-1.254,2.5-2.031,3.518l-0.644-0.844c1.448-2.01,2.434-4.477,2.956-7.398l1.065,0.119c-0.255,1.314-0.563,2.488-0.925,3.52H311.347z M304.35,568.018c1.541,1.703,2.707,3.178,3.498,4.424l-0.864,0.623c-0.804-1.301-1.978-2.795-3.519-4.484L304.35,568.018z">
        </path>
        <path fill="#91979C" stroke="#91979C" stroke-miterlimit="10" d="M316.07,560.82h7.881v1.045h-1.166v11.381l0.704-0.242c0.295-0.08,0.529-0.154,0.704-0.221v1.064c-0.322,0.107-0.791,0.256-1.408,0.443v3.961h-1.065v-3.66c-1.608,0.443-3.445,0.859-5.509,1.248l-0.262-1.047l1.468-0.24v-12.688h-1.347V560.82z M318.442,565.123h3.277v-3.258h-3.277V565.123z M318.442,569.365h3.277v-3.238h-3.277V569.365z M318.442,574.352c1.193-0.254,2.285-0.523,3.277-0.805v-3.176h-3.277V574.352z M327.912,572.16c-0.911,2.305-2.023,4.328-3.337,6.072l-0.885-0.645c1.273-1.662,2.358-3.625,3.257-5.891L327.912,572.16z M325.037,561.102h8.284v9.209h-8.284V561.102z M332.255,569.264v-7.117h-6.152v7.117H332.255z M331.21,571.637c1.447,2.293,2.56,4.297,3.338,6.012l-0.905,0.643c-0.857-1.957-1.957-3.994-3.297-6.111L331.21,571.637z">
        </path>
        <path fill="#91979C" stroke="#91979C" stroke-miterlimit="10" d="M338.267,565.564h2.574v-5.268h1.085v5.268h2.675v1.066h-2.675v7.459c1.046-0.309,1.964-0.617,2.755-0.926v1.107c-1.984,0.75-4.108,1.367-6.374,1.85l-0.281-1.127c0.925-0.16,1.863-0.361,2.815-0.604v-7.76h-2.574V565.564z M345.646,567.998v-1.006c2.654-1.555,5.013-3.17,7.077-4.846h-6.855v-1.025h8.424v0.986c-2.104,1.795-4.356,3.438-6.756,4.926h8.063c-0.107,4.57-0.309,7.52-0.603,8.846c-0.322,1.354-1.207,2.045-2.654,2.07c-0.47,0-1.105-0.012-1.91-0.039l-0.302-1.066c0.912,0.055,1.596,0.08,2.051,0.08c0.858-0.039,1.435-0.449,1.729-1.225c0.268-0.711,0.462-3.277,0.583-7.701h-1.749c-0.482,2.492-1.2,4.457-2.151,5.891c-1.032,1.502-2.601,2.855-4.705,4.061l-0.684-0.844c1.983-1.111,3.451-2.324,4.403-3.639c0.938-1.34,1.635-3.164,2.091-5.469h-1.869c-0.751,2.547-2.045,4.531-3.881,5.951l-0.704-0.844c1.689-1.314,2.868-3.018,3.539-5.107H345.646z">
        </path>
        <path fill="#91979C" stroke="#91979C" stroke-miterlimit="10" d="M362.595,566.43c-0.737,1.125-1.488,2.117-2.252,2.975l-0.362-1.145c2.064-2.547,3.546-5.396,4.443-8.545l1.025,0.482c-0.455,1.5-1.052,2.961-1.789,4.383v13.691h-1.065V566.43z M365.57,562.709h12.988v1.047H365.57V562.709z M377.151,571.477v6.734h-1.065v-1.105h-7.902v1.105h-1.085v-6.734H377.151z M367.44,565.686h9.369v0.984h-9.369V565.686z M367.44,568.52h9.369v1.006h-9.369V568.52z M368.184,576.061h7.902v-3.559h-7.902V576.061z M371.884,559.834c0.442,0.846,0.784,1.629,1.025,2.354l-0.965,0.381c-0.322-0.896-0.691-1.715-1.106-2.451L371.884,559.834z">
        </path>
        <path fill="#91979C" stroke="#91979C" stroke-miterlimit="10" d="M385.435,571.557c-0.201,2.6-0.958,4.752-2.271,6.453l-0.805-0.744c1.327-1.822,2.011-4.148,2.051-6.977v-9.529h14.678v15.039c0,1.313-0.657,1.971-1.971,1.971h-2.313l-0.281-1.066c0.805,0.041,1.548,0.061,2.231,0.061c0.831,0,1.247-0.455,1.247-1.367v-3.84h-5.892v5.992h-1.085v-5.992H385.435z M385.515,566.67v3.701l-0.02,0.16h5.529v-3.861H385.515z M391.024,561.826h-5.51v3.84h5.51V561.826z M398.001,565.666v-3.84h-5.892v3.84H398.001z M398.001,570.531v-3.861h-5.892v3.861H398.001z">
        </path>
        <path fill="#91979C" stroke="#91979C" stroke-miterlimit="10" d="M412.015,560.84c-0.952,1.742-1.903,3.15-2.855,4.223c-1.112,1.232-2.466,2.393-4.062,3.479l-0.623-0.965c1.447-0.832,2.734-1.904,3.86-3.217c1.059-1.207,1.977-2.568,2.755-4.082L412.015,560.84z M407.35,569.023v-1.025h12.003c-0.054,2.453-0.174,4.443-0.361,5.971c-0.201,1.502-0.522,2.555-0.965,3.156c-0.442,0.59-1.16,0.906-2.151,0.945h-3.76l-0.282-1.045c1.662,0.027,2.835,0.041,3.519,0.041c1.113,0,1.851-0.49,2.212-1.469c0.349-1.006,0.583-3.197,0.704-6.574h-5.73c-0.482,2.305-1.153,4.115-2.011,5.428c-0.979,1.381-2.453,2.635-4.423,3.76l-0.684-0.863c1.796-0.992,3.163-2.105,4.102-3.338c0.885-1.246,1.527-2.908,1.93-4.986H407.35z M416.418,560.057c1.179,3.109,3.276,5.568,6.293,7.379l-0.744,0.844c-3.097-1.971-5.255-4.537-6.474-7.701L416.418,560.057z">
        </path>
      </g>
    </g>
  </g>
</svg>