<svg version="1.1" xmlns="http://www.w3.org/2000/svg" xmlns:xlink="http://www.w3.org/1999/xlink" x="0px" y="0px" viewBox="0 0 640 1657" enable-background="new 0 0 640 1657" xml:space="preserve">
<g>
    <animateTransform attributeName="transform" type="translate" values="0 0;-640 0" fill="freeze" begin="click+.5s" dur=".5s"></animateTransform>
    <g>
      <path fill="#FFFFFF" d="M590.608,844.634c0,12.078-9.789,21.867-21.867,21.867H71.256c-12.076,0-21.867-9.789-21.867-21.867V278.269c0-12.077,9.791-21.867,21.867-21.867h497.485c12.078,0,21.867,9.79,21.867,21.867V844.634z">
      </path>
      <circle data-fjh="glanimate" fill="#FFFFFF" cx="320.729" cy="258.132" r="42.823"></circle>
      <path fill="#FFFFFF" d="M285.331,233.987c-8.838,14.441-12.619,22.414-37.357,22.414l31.252,0.045L285.331,233.987z">
      </path>
      <path fill="#FFFFFF" d="M356.218,234.078c8.838,14.442,12.619,22.414,37.357,22.414l-31.252,0.046L356.218,234.078z">
      </path>
    </g>
    <circle data-fjh="glanimate" fill="none" stroke="#24303B" stroke-width="7" stroke-miterlimit="10" cx="320.91" cy="259.041" r="39.362"></circle>
    <g>
      <rect data-fjh="glanimate" x="94.764" y="385.42" fill="none" width="448.284" height="67.789">
      </rect>
      <path fill="#24303B" stroke="#24303B" stroke-miterlimit="10" d="M97.392,388.932h11.089v1.227l-6.494,15.948h-1.611l6.566-15.804h-9.55V388.932z">
      </path>
      <path fill="#24303B" stroke="#24303B" stroke-miterlimit="10" d="M116.515,404.039c0.241,0.208,0.361,0.497,0.361,0.865c0,0.321-0.129,0.61-0.385,0.866c-0.257,0.225-0.538,0.337-0.843,0.337c-0.353,0-0.642-0.12-0.865-0.36c-0.241-0.241-0.361-0.521-0.361-0.843c0-0.368,0.12-0.657,0.361-0.865c0.208-0.225,0.497-0.337,0.865-0.337C116.001,403.702,116.29,403.814,116.515,404.039z">
      </path>
      <path fill="#24303B" stroke="#24303B" stroke-miterlimit="10" d="M123.972,404.471c0.385-0.24,0.577-0.593,0.577-1.059v-15.852h1.347v16.213c2.005-0.786,3.953-1.756,5.846-2.911l0.385,1.299c-2.373,1.363-4.955,2.542-7.745,3.536L123.972,404.471z M129.985,389.197c2.165,2.422,3.881,4.618,5.147,6.591l-1.083,0.77c-1.267-2.052-2.99-4.273-5.171-6.663L129.985,389.197z M130.827,408.295l-0.891-1.082c4.042-2.31,6.735-5.275,8.083-8.9c1.01-3.078,1.515-6.936,1.515-11.569h1.348c0,4.506-0.481,8.322-1.443,11.449c-0.16,0.481-0.289,0.834-0.385,1.059c1.973,2.534,3.672,5.132,5.1,7.794l-0.986,0.986c-1.235-2.454-2.79-4.956-4.667-7.506C136.961,403.605,134.402,406.195,130.827,408.295z">
      </path>
      <path fill="#24303B" stroke="#24303B" stroke-miterlimit="10" d="M149.012,387.922h21.239v1.274h-10.607v4.018c3.03,1.555,6.109,3.359,9.236,5.412l-0.77,1.154c-3.319-2.245-6.142-3.984-8.467-5.22v13.951h-1.275v-19.315h-9.356V387.922z">
      </path>
      <path fill="#24303B" stroke="#24303B" stroke-miterlimit="10" d="M180.956,388.667v15.587h-3.633v2.237h-1.179v-17.824H180.956z M177.323,403.125h2.478v-13.303h-2.478V403.125z M182.255,393.142h1.804v-4.21h-1.684v-1.202h6.422c0,9.124-0.104,14.817-0.313,17.078c-0.192,2.213-1.01,3.319-2.453,3.319l-1.396-0.048l-0.313-1.155c0.577,0.049,1.074,0.072,1.491,0.072c0.866,0,1.371-0.762,1.516-2.285c0.096-0.833,0.168-2.461,0.217-4.883h-2.67c-0.481,3.576-1.476,6.366-2.983,8.371l-0.938-0.794c1.379-1.764,2.301-4.289,2.766-7.577h-1.516v-1.202h1.66c0.112-1.331,0.177-2.606,0.192-3.825v-0.48h-1.804V393.142z M187.57,398.626l0.024-4.306h-2.405v0.48c-0.017,1.219-0.081,2.494-0.192,3.825H187.57z M187.595,393.142l0.024-4.21h-2.43v4.21H187.595z M190.818,387.658h5.652v0.986c-0.417,2.325-0.906,4.618-1.468,6.879c1.155,2.405,1.756,4.49,1.805,6.254c0,1.123-0.192,1.917-0.577,2.382c-0.546,0.642-1.483,0.962-2.814,0.962l-0.409-1.251c0.481,0.049,0.882,0.072,1.203,0.072c0.465-0.048,0.825-0.225,1.082-0.529c0.208-0.368,0.313-0.914,0.313-1.636c0-1.747-0.585-3.768-1.756-6.062c0.642-2.518,1.122-4.818,1.443-6.903h-3.296v19.58h-1.178V387.658z">
      </path>
      <path fill="#24303B" stroke="#24303B" stroke-miterlimit="10" d="M213.164,386.527c2.021,3.384,5.516,6.366,10.487,8.948l-0.77,1.154c-4.619-2.373-8.059-5.323-10.319-8.852c-2.727,3.864-6.166,6.863-10.319,8.996l-0.77-1.179c4.538-2.325,8.034-5.348,10.487-9.068H213.164z M211.913,393.575h1.299v14.865h-1.299V393.575z">
      </path>
      <path fill="#24303B" stroke="#24303B" stroke-miterlimit="10" d="M244.145,408.007c-0.817,0-2.27-0.017-4.354-0.048c-1.588-0.049-2.847-0.201-3.776-0.457c-0.979-0.289-1.845-0.883-2.598-1.78c-0.321-0.417-0.626-0.626-0.914-0.626c-0.658,0-1.692,1.115-3.104,3.344l-0.986-0.89c1.363-2.101,2.526-3.312,3.488-3.632v-7.698h-3.561v-1.25h4.787v8.996c0.289,0.16,0.545,0.385,0.77,0.673c0.626,0.722,1.299,1.251,2.021,1.588c0.802,0.289,1.908,0.457,3.319,0.505c1.636,0.032,3.207,0.049,4.715,0.049h3.319l2.574-0.097l-0.313,1.323H244.145z M229.833,387.008c1.731,1.314,3.11,2.558,4.137,3.728l-0.914,0.914c-0.979-1.154-2.35-2.421-4.113-3.8L229.833,387.008z M242.101,386.455h1.274v3.224h4.883v1.251h-4.883v3.752h5.797v1.251h-4.113v6.928c0,0.4,0.249,0.602,0.746,0.602h1.154c0.4,0,0.729-0.064,0.986-0.193c0.369-0.24,0.602-1.218,0.697-2.935l1.131,0.386c-0.145,1.892-0.409,3.03-0.794,3.415c-0.321,0.321-0.906,0.497-1.756,0.529h-1.804c-0.514,0-0.914-0.145-1.203-0.433c-0.272-0.272-0.409-0.642-0.409-1.106v-7.192h-2.67c-0.048,1.731-0.288,3.224-0.722,4.474c-0.642,1.797-2.101,3.288-4.378,4.475l-0.817-1.034c1.94-0.946,3.255-2.189,3.945-3.729c0.448-1.203,0.697-2.598,0.745-4.186h-3.944v-1.251h6.134v-3.752h-4.234c-0.417,0.897-0.914,1.771-1.491,2.621l-1.106-0.722c1.235-1.764,2.157-3.784,2.767-6.062l1.227,0.265c-0.272,0.962-0.562,1.845-0.866,2.646h3.705V386.455z">
      </path>
      <path fill="#24303B" stroke="#24303B" stroke-miterlimit="10" d="M257.879,390.303h-3.03v-1.299h7.313v1.299h-2.983v11.426c1.363-0.481,2.43-0.874,3.199-1.179v1.299c-2.116,0.866-4.594,1.684-7.433,2.454l-0.337-1.275c1.267-0.32,2.357-0.617,3.271-0.89V390.303z M268.968,394.946h1.299v4.065c-0.048,2.565-0.722,4.618-2.021,6.157c-1.25,1.428-3.319,2.55-6.206,3.368l-0.745-1.106c2.806-0.77,4.811-1.805,6.014-3.104c1.059-1.362,1.611-3.135,1.659-5.315V394.946z M263.171,387.681H276.4v1.299h-5.893c-0.161,1.106-0.361,2.085-0.602,2.935h5.195v11.09h-1.299v-9.839h-8.106v9.839h-1.274v-11.09h4.209c0.241-0.865,0.441-1.844,0.602-2.935h-6.062V387.681z M271.47,403.197c2.068,1.523,3.792,3.03,5.172,4.521l-0.914,0.914c-1.299-1.459-3.007-2.99-5.124-4.594L271.47,403.197z">
      </path>
      <path fill="#24303B" stroke="#24303B" stroke-miterlimit="10" d="M281.837,387.898h20.205v1.274h-7.866c-0.433,1.011-0.954,2.021-1.563,3.031v16.309h-1.347v-14.336c-2.261,2.999-5.34,5.661-9.236,7.985l-0.866-1.106c5.597-3.255,9.453-7.216,11.57-11.883h-10.896V387.898z M295.619,394.272c2.807,2.229,5.172,4.475,7.097,6.735l-1.011,1.011c-1.7-2.117-4.033-4.394-7-6.832L295.619,394.272z">
      </path>
      <path fill="#24303B" stroke="#24303B" stroke-miterlimit="10" d="M307.839,393.142h5.003v-3.753c-1.411,0.273-2.935,0.474-4.57,0.602l-0.433-1.203c3.88-0.288,7.199-0.986,9.958-2.093l0.649,1.083c-1.428,0.562-2.854,1.002-4.281,1.323v4.041h4.546v1.274h-4.546v1.347c1.459,1.3,3.007,2.855,4.642,4.667l-0.745,1.154c-1.508-1.908-2.807-3.399-3.896-4.474v11.354h-1.323v-11.69c-1.171,2.614-2.807,4.972-4.907,7.072l-0.602-1.468c2.582-2.341,4.402-4.995,5.461-7.962h-4.955V393.142z M320.972,388.764h1.299v14.961h-1.299V388.764z M322.415,408.224l-0.288-1.251c1.539,0.063,2.653,0.096,3.343,0.096c0.818,0,1.228-0.433,1.228-1.299v-19.171h1.322v19.508c0,1.411-0.697,2.117-2.093,2.117H322.415z">
      </path>
      <path fill="#24303B" stroke="#24303B" stroke-miterlimit="10" d="M335.79,387.561h17.968v1.275h-8.034v7.048h9.694v1.299h-9.694v8.827c0,1.476-0.754,2.214-2.261,2.214h-3.681l-0.288-1.275c1.636,0.064,2.814,0.097,3.536,0.097c0.93,0,1.395-0.457,1.395-1.371v-8.491h-10.126v-1.299h10.126v-7.048h-8.635V387.561z">
      </path>
      <path fill="#24303B" stroke="#24303B" stroke-miterlimit="10" d="M360.469,387.633h9.429v1.251h-1.395v13.614l0.842-0.288c0.353-0.097,0.633-0.185,0.842-0.265v1.274c-0.385,0.129-0.946,0.305-1.684,0.529v4.739h-1.275v-4.378c-1.924,0.528-4.121,1.026-6.591,1.491l-0.313-1.251l1.756-0.289v-15.178h-1.611V387.633z M363.307,392.781h3.921v-3.896h-3.921V392.781z M363.307,397.856h3.921v-3.872h-3.921V397.856z M363.307,403.822c1.428-0.305,2.734-0.625,3.921-0.962v-3.801h-3.921V403.822z M374.637,401.2c-1.091,2.759-2.422,5.18-3.993,7.265l-1.059-0.77c1.523-1.988,2.822-4.338,3.897-7.048L374.637,401.2z M371.197,387.97h9.91v11.017h-9.91V387.97z M379.832,397.736v-8.515h-7.36v8.515H379.832z M378.581,400.575c1.732,2.742,3.063,5.14,3.993,7.192l-1.082,0.77c-1.026-2.342-2.342-4.778-3.945-7.313L378.581,400.575z">
      </path>
      <path fill="#24303B" stroke="#24303B" stroke-miterlimit="10" d="M387.023,393.31h3.079v-6.302h1.299v6.302h3.199v1.275h-3.199v8.924c1.251-0.369,2.35-0.737,3.296-1.106v1.322c-2.374,0.898-4.915,1.636-7.625,2.214l-0.337-1.348c1.106-0.192,2.229-0.433,3.367-0.722v-9.284h-3.079V393.31z M395.852,396.22v-1.202c3.176-1.86,5.998-3.792,8.468-5.797h-8.203v-1.228h10.079v1.179c-2.518,2.149-5.212,4.113-8.082,5.894h9.646c-0.129,5.469-0.369,8.996-0.722,10.584c-0.385,1.619-1.443,2.445-3.175,2.478c-0.562,0-1.323-0.017-2.285-0.048l-0.361-1.275c1.091,0.064,1.908,0.097,2.453,0.097c1.026-0.048,1.716-0.538,2.069-1.468c0.32-0.85,0.553-3.921,0.697-9.213h-2.093c-0.577,2.983-1.436,5.333-2.573,7.048c-1.235,1.797-3.111,3.416-5.629,4.859l-0.818-1.01c2.373-1.331,4.129-2.782,5.269-4.354c1.122-1.604,1.956-3.784,2.501-6.543h-2.236c-0.898,3.048-2.446,5.421-4.643,7.12l-0.842-1.01c2.021-1.571,3.431-3.608,4.233-6.11H395.852z">
      </path>
      <path fill="#24303B" stroke="#24303B" stroke-miterlimit="10" d="M416.129,394.344c-0.882,1.348-1.78,2.534-2.694,3.561l-0.433-1.371c2.469-3.047,4.241-6.455,5.315-10.224l1.228,0.577c-0.546,1.797-1.26,3.545-2.142,5.244v16.381h-1.274V394.344z M419.688,389.894h15.539v1.251h-15.539V389.894z M433.544,400.382v8.058h-1.274v-1.322h-9.454v1.322h-1.299v-8.058H433.544z M421.926,393.455h11.209v1.179h-11.209V393.455z M421.926,396.846h11.209v1.202h-11.209V396.846z M422.815,405.867h9.454v-4.258h-9.454V405.867z M427.242,386.455c0.529,1.011,0.938,1.948,1.227,2.814l-1.154,0.457c-0.386-1.074-0.826-2.053-1.323-2.935L427.242,386.455z">
      </path>
      <path fill="#24303B" stroke="#24303B" stroke-miterlimit="10" d="M443.454,400.478c-0.241,3.111-1.147,5.685-2.719,7.722l-0.962-0.89c1.588-2.181,2.405-4.964,2.453-8.348v-11.401h17.56v17.992c0,1.572-0.785,2.357-2.356,2.357h-2.767l-0.337-1.274c0.962,0.048,1.853,0.072,2.67,0.072c0.994,0,1.491-0.546,1.491-1.636v-4.595h-7.048v7.168h-1.299v-7.168H443.454z M443.55,394.633v4.426l-0.023,0.192h6.614v-4.618H443.55z M450.141,388.836h-6.591v4.594h6.591V388.836z M458.487,393.43v-4.594h-7.048v4.594H458.487z M458.487,399.251v-4.618h-7.048v4.618H458.487z">
      </path>
      <path fill="#24303B" stroke="#24303B" stroke-miterlimit="10" d="M475.253,387.658c-1.139,2.085-2.277,3.769-3.416,5.051c-1.331,1.476-2.95,2.862-4.858,4.162l-0.746-1.155c1.732-0.994,3.271-2.276,4.618-3.849c1.267-1.443,2.365-3.07,3.296-4.883L475.253,387.658z M469.672,397.448v-1.228h14.36c-0.063,2.936-0.208,5.316-0.433,7.145c-0.24,1.796-0.625,3.055-1.154,3.776c-0.529,0.706-1.388,1.083-2.574,1.131h-4.498l-0.337-1.251c1.988,0.032,3.392,0.048,4.21,0.048c1.33,0,2.213-0.585,2.646-1.756c0.417-1.202,0.697-3.824,0.842-7.865h-6.855c-0.577,2.758-1.379,4.923-2.405,6.494c-1.171,1.652-2.935,3.151-5.292,4.498l-0.817-1.034c2.148-1.187,3.784-2.518,4.907-3.993c1.058-1.491,1.828-3.479,2.309-5.965H469.672z M480.521,386.719c1.411,3.721,3.921,6.663,7.529,8.828l-0.891,1.01c-3.704-2.357-6.286-5.428-7.745-9.213L480.521,386.719z">
      </path>
      <path fill="#24303B" stroke="#24303B" stroke-miterlimit="10" d="M501.11,390.808v16.165h-1.251v-1.468h-4.858v2.141h-1.251v-16.838h2.165c0.496-1.362,0.857-2.798,1.082-4.306l1.323,0.169c-0.257,1.476-0.642,2.854-1.154,4.137H501.11z M495.001,397.423h4.858v-5.364h-4.858V397.423z M495.001,404.303h4.858v-5.701h-4.858V404.303z M513.57,390.833c0,7.714-0.112,12.517-0.337,14.408c-0.24,1.925-1.354,2.887-3.343,2.887l-2.357-0.048l-0.313-1.203c0.963,0.048,1.805,0.072,2.526,0.072c1.299,0,2.044-0.714,2.236-2.141c0.177-1.314,0.289-5.54,0.337-12.677h-7.096c-0.689,1.588-1.5,2.991-2.43,4.21l-0.77-1.011c1.732-2.405,2.91-5.355,3.536-8.852l1.274,0.145c-0.305,1.571-0.673,2.975-1.106,4.209H513.57z M505.199,396.245c1.845,2.037,3.239,3.801,4.186,5.292l-1.034,0.746c-0.962-1.556-2.365-3.344-4.209-5.364L505.199,396.245z">
      </path>
      <path fill="#24303B" stroke="#24303B" stroke-miterlimit="10" d="M519.296,393.07h2.766v-6.446h1.275v6.446h2.573v1.251h-2.573v8.539c1.074-0.434,2.068-0.891,2.982-1.371v1.299c-2.165,1.091-4.434,1.965-6.807,2.622l-0.337-1.251c0.897-0.225,1.859-0.505,2.886-0.842v-8.996h-2.766V393.07z M530.649,386.551c0.417,0.994,0.785,2.036,1.106,3.127h3.729c0.465-1.091,0.794-2.197,0.986-3.319l1.274,0.168c-0.24,1.139-0.577,2.188-1.01,3.151h3.343v7.793h-12.94v-7.793h3.392c-0.385-1.106-0.778-2.069-1.179-2.887L530.649,386.551z M539.213,399.324v9.141h-1.251v-1.106h-8.611v1.106H528.1v-9.141H539.213z M533.03,396.389v-5.557h-4.738v5.557H533.03z M529.351,402.811h8.611v-2.405h-8.611V402.811z M529.351,406.251h8.611v-2.382h-8.611V406.251z M530.553,391.963c0.449,0.946,0.851,1.996,1.203,3.15l-0.89,0.241c-0.369-1.155-0.771-2.189-1.203-3.104L530.553,391.963z M538.924,396.389v-5.557h-4.835v5.557H538.924z M537.457,392.083c-0.354,1.283-0.763,2.397-1.228,3.344l-0.89-0.313c0.465-0.945,0.857-2.036,1.179-3.271L537.457,392.083z">
      </path>
      <path fill="#24303B" stroke="#24303B" stroke-miterlimit="10" d="M295.188,430.968h5.004v-9.356h1.322v9.356h14.722v1.299h-8.059c1.011,4.122,3.793,7.305,8.348,9.55l-0.746,1.227c-4.859-2.598-7.817-6.189-8.876-10.776h-5.389v9.285c1.78-0.449,3.681-1.034,5.701-1.756l0.313,1.227c-2.277,0.802-4.747,1.531-7.408,2.189l-0.409-1.228c0.32-0.144,0.481-0.369,0.481-0.673v-9.045h-5.004V430.968z M313.711,422.766c-1.909,2.165-4.812,4.121-8.708,5.869l-0.794-1.059c3.881-1.699,6.76-3.608,8.636-5.725L313.711,422.766z">
      </path>
      <path fill="#24303B" stroke="#24303B" stroke-miterlimit="10" d="M329.946,424.882c0.866,0.818,1.299,1.925,1.299,3.32c0,1.01-0.305,1.916-0.914,2.718c-0.24,0.305-0.874,0.922-1.9,1.853c-0.545,0.48-0.946,0.938-1.202,1.371c-0.337,0.577-0.505,1.194-0.505,1.852v0.697h-1.468v-0.697c0-0.705,0.145-1.347,0.434-1.924c0.353-0.771,1.09-1.644,2.213-2.622c0.608-0.609,0.978-0.994,1.106-1.155c0.513-0.657,0.77-1.338,0.77-2.044c0-1.011-0.297-1.828-0.891-2.454c-0.609-0.608-1.491-0.914-2.646-0.914c-1.283,0-2.253,0.434-2.91,1.299c-0.578,0.722-0.866,1.717-0.866,2.983h-1.443c0-1.604,0.44-2.919,1.323-3.945c0.945-1.09,2.269-1.636,3.969-1.636C327.821,423.583,329.032,424.017,329.946,424.882z M326.867,439.027c0.241,0.208,0.361,0.497,0.361,0.865c0,0.337-0.12,0.626-0.361,0.866c-0.256,0.225-0.545,0.337-0.865,0.337c-0.354,0-0.649-0.12-0.891-0.36c-0.225-0.225-0.336-0.506-0.336-0.843c0-0.368,0.111-0.657,0.336-0.865c0.225-0.225,0.521-0.337,0.891-0.337C326.354,438.69,326.643,438.802,326.867,439.027z">
      </path>
    </g>
    <g>
      <path fill="#E5EBF0" d="M566.009,572.112c0,24.607-19.947,44.555-44.555,44.555H120.186c-24.607,0-44.555-19.947-44.555-44.555l0,0c0-24.607,19.947-44.555,44.555-44.555h401.268C546.062,527.558,566.009,547.505,566.009,572.112L566.009,572.112z">
      </path>
      <path fill="#E5EBF0" d="M565.462,676.802c0,24.607-19.947,44.555-44.555,44.555H119.639c-24.607,0-44.555-19.947-44.555-44.555l0,0c0-24.607,19.947-44.555,44.555-44.555h401.268C545.515,632.247,565.462,652.194,565.462,676.802L565.462,676.802z">
      </path>
      <path fill="#E5EBF0" d="M566.554,781.491c0,24.607-19.947,44.555-44.555,44.555H120.731c-24.605,0-44.555-19.947-44.555-44.555l0,0c0-24.607,19.949-44.555,44.555-44.555h401.268C546.606,736.937,566.554,756.884,566.554,781.491L566.554,781.491z">
      </path>
    </g>
        
    <g>
      <g>
        <path fill="#24303B" stroke="#24303B" stroke-width="3" stroke-miterlimit="10" d="M305.91,237.485h27.773v3.073L317.417,280.5h-4.037l16.448-39.581H305.91V237.485z">
        </path>
      </g>
    </g>
        
    <g opacity="0">
      <animate attributeName="opacity" begin="click" dur=".3s" values="0;1" fill="freeze"></animate>
      <g>
        <path fill="#F1B932" d="M566.22,571.824c0,24.607-19.947,44.555-44.555,44.555H120.397c-24.605,0-44.555-19.947-44.555-44.555l0,0c0-24.607,19.949-44.555,44.555-44.555h401.268C546.272,527.27,566.22,547.217,566.22,571.824L566.22,571.824z">
        </path>
      </g>
      <circle data-fjh="glanimate" fill="#F1B932" cx="810.077" cy="1451.517" r="15"></circle>
    </g>
        
    <g opacity="0">
      <animate attributeName="opacity" begin="click" dur=".3s" values="0;1" fill="freeze"></animate>
      <g>
        <path fill="#F1B932" d="M566.554,781.491c0,24.607-19.947,44.555-44.555,44.555H120.731c-24.605,0-44.555-19.947-44.555-44.555l0,0c0-24.607,19.949-44.555,44.555-44.555h401.268C546.606,736.937,566.554,756.884,566.554,781.491L566.554,781.491z">
        </path>
      </g>
      <circle data-fjh="glanimate" fill="#F1B932" cx="903.646" cy="1451.517" r="15"></circle>
    </g>
        
    <g opacity="0">
      <animate attributeName="opacity" begin="click" dur=".3s" values="0;1" fill="freeze"></animate>
      <g>
        <path fill="#F1B932" d="M565.554,677.158c0,24.607-19.947,44.555-44.555,44.555H119.731c-24.605,0-44.555-19.947-44.555-44.555l0,0c0-24.607,19.949-44.555,44.555-44.555h401.268C545.606,632.604,565.554,652.551,565.554,677.158L565.554,677.158z">
        </path>
      </g>
      <circle data-fjh="glanimate" fill="#F1B932" cx="856.39" cy="1451.517" r="15"></circle>
    </g>
        
    <g>
      <g>
        <path fill="#91979C" stroke="#91979C" stroke-miterlimit="10" d="M127.56,774.244c1.112,0.846,1.763,1.971,1.95,3.379h-1.186c-0.175-1.113-0.718-1.977-1.629-2.594c-0.858-0.604-1.877-0.904-3.056-0.904c-1.757,0-3.137,0.623-4.143,1.869c-0.938,1.152-1.407,2.66-1.407,4.523s0.463,3.357,1.388,4.484c0.965,1.193,2.312,1.789,4.041,1.789c1.206,0,2.259-0.328,3.156-0.986c0.952-0.723,1.568-1.748,1.851-3.076h1.186c-0.309,1.664-1.059,2.963-2.252,3.902c-1.126,0.857-2.433,1.285-3.92,1.285c-2.146,0-3.82-0.736-5.026-2.211c-1.1-1.34-1.649-3.068-1.649-5.188c0-2.117,0.563-3.867,1.689-5.248c1.22-1.514,2.922-2.271,5.106-2.271C125.188,772.998,126.487,773.414,127.56,774.244z">
        </path>
        <path fill="#91979C" stroke="#91979C" stroke-miterlimit="10" d="M135.903,785.906c0.201,0.174,0.302,0.416,0.302,0.725c0,0.268-0.107,0.508-0.322,0.723c-0.214,0.188-0.449,0.281-0.703,0.281c-0.295,0-0.536-0.1-0.724-0.301c-0.201-0.201-0.302-0.436-0.302-0.703c0-0.309,0.101-0.551,0.302-0.725c0.174-0.188,0.415-0.281,0.724-0.281C135.475,785.625,135.716,785.719,135.903,785.906z">
        </path>
        <path fill="#91979C" stroke="#91979C" stroke-miterlimit="10" d="M148.067,786.811c-2.063,0.764-4.39,1.387-6.977,1.871l-0.141-1.066c2.681-0.443,5.054-1.059,7.117-1.85V786.811z M145.595,771.631c-1.072,2.734-2.165,4.906-3.277,6.514c1.086-0.119,2.172-0.281,3.257-0.482l1.247-2.332l0.965,0.361c-1.943,3.619-3.552,6.133-4.825,7.541c1.662-0.309,3.284-0.738,4.865-1.287v1.006c-2.158,0.711-4.215,1.205-6.172,1.486l-0.302-1.025c0.201-0.08,0.361-0.18,0.482-0.301c0.897-0.898,1.95-2.373,3.156-4.424c-1.22,0.201-2.459,0.383-3.719,0.543l-0.262-1.004c0.174-0.082,0.328-0.223,0.462-0.424c1.167-1.85,2.198-4.041,3.097-6.574L145.595,771.631z M147.887,773.883h4.946v-2.574h1.086v2.574h4.926v1.045h-4.926v3.338h4.343v1.045h-9.711v-1.045h4.282v-3.338h-4.946V773.883z M157.558,781.664v7.861h-1.045v-1.066h-6.153v1.066h-1.065v-7.861H157.558z M150.359,787.414h6.153v-4.705h-6.153V787.414z">
        </path>
        <path fill="#91979C" stroke="#91979C" stroke-miterlimit="10" d="M176.518,779.854c-1.006,1.918-2.232,3.553-3.68,4.906c2.198,1.662,4.912,2.916,8.143,3.76l-0.643,1.006c-3.325-0.926-6.1-2.266-8.324-4.021c-2.252,1.891-5.026,3.258-8.324,4.102l-0.663-0.965c3.284-0.844,5.998-2.125,8.143-3.84c-1.555-1.367-2.808-2.93-3.76-4.686l0.945-0.543c0.897,1.689,2.111,3.191,3.639,4.504c1.461-1.34,2.634-2.895,3.519-4.664L176.518,779.854z M163.127,773.783h8.524c-0.361-0.898-0.777-1.717-1.246-2.453l1.187-0.201c0.429,0.723,0.837,1.607,1.227,2.654h7.981v1.025h-17.673V773.783z M169.561,776.416c-1.515,1.971-3.404,3.707-5.67,5.207l-0.703-0.904c2.211-1.42,4.067-3.096,5.569-5.027L169.561,776.416z M175.029,775.691c2.252,1.811,4.122,3.607,5.609,5.389l-0.804,0.785c-1.327-1.662-3.184-3.479-5.569-5.449L175.029,775.691z">
        </path>
        <path fill="#91979C" stroke="#91979C" stroke-miterlimit="10" d="M187.293,777.803c-0.737,1.127-1.488,2.119-2.252,2.977l-0.362-1.146c2.064-2.547,3.546-5.395,4.443-8.545l1.025,0.482c-0.455,1.502-1.052,2.963-1.789,4.383v13.693h-1.065V777.803z M190.269,774.084h12.988v1.045h-12.988V774.084z M201.85,782.85v6.736h-1.065v-1.105h-7.902v1.105h-1.085v-6.736H201.85z M192.139,777.061h9.369v0.984h-9.369V777.061z M192.139,779.895h9.369v1.006h-9.369V779.895z M192.882,787.434h7.902v-3.559h-7.902V787.434z M196.582,771.209c0.442,0.844,0.784,1.629,1.025,2.352l-0.965,0.383c-0.322-0.898-0.691-1.715-1.106-2.453L196.582,771.209z">
        </path>
        <path fill="#91979C" stroke="#91979C" stroke-miterlimit="10" d="M210.133,782.93c-0.201,2.602-0.958,4.752-2.271,6.455l-0.805-0.744c1.327-1.822,2.011-4.148,2.051-6.977v-9.531h14.678v15.039c0,1.314-0.657,1.971-1.971,1.971h-2.313l-0.281-1.064c0.805,0.039,1.548,0.061,2.231,0.061c0.831,0,1.247-0.457,1.247-1.367v-3.842h-5.892v5.992h-1.085v-5.992H210.133z M210.213,778.045v3.699l-0.02,0.16h5.529v-3.859H210.213z M215.723,773.199h-5.51v3.84h5.51V773.199z M222.699,777.039v-3.84h-5.892v3.84H222.699z M222.699,781.904v-3.859h-5.892v3.859H222.699z">
        </path>
        <path fill="#91979C" stroke="#91979C" stroke-miterlimit="10" d="M236.713,772.215c-0.952,1.742-1.903,3.148-2.855,4.221c-1.112,1.234-2.466,2.393-4.062,3.479l-0.623-0.965c1.447-0.83,2.734-1.902,3.86-3.217c1.059-1.207,1.977-2.566,2.755-4.082L236.713,772.215z M232.048,780.396v-1.025h12.003c-0.054,2.453-0.174,4.443-0.361,5.973c-0.201,1.5-0.522,2.553-0.965,3.156c-0.442,0.59-1.16,0.904-2.151,0.945h-3.76l-0.282-1.047c1.662,0.027,2.835,0.041,3.519,0.041c1.113,0,1.851-0.49,2.212-1.467c0.349-1.006,0.583-3.197,0.704-6.576h-5.73c-0.482,2.307-1.153,4.115-2.011,5.43c-0.979,1.381-2.453,2.633-4.423,3.76l-0.684-0.865c1.796-0.992,3.163-2.104,4.102-3.338c0.885-1.246,1.527-2.908,1.93-4.986H232.048z M241.116,771.43c1.179,3.109,3.276,5.57,6.293,7.379l-0.744,0.844c-3.097-1.969-5.255-4.535-6.474-7.699L241.116,771.43z">
        </path>
        <path fill="#91979C" stroke="#91979C" stroke-miterlimit="10" d="M260.457,771.148c0.229,0.523,0.456,1.152,0.684,1.891h8.104v1.045H251.57v-1.045h8.425c-0.215-0.631-0.456-1.193-0.724-1.689L260.457,771.148z M264.358,789.545l-0.262-0.984l1.629,0.039c0.911,0,1.367-0.361,1.367-1.086v-5.77h-13.351v7.842h-1.025v-8.826h15.401v6.977c0,1.205-0.684,1.809-2.051,1.809H264.358z M254.969,775.633h10.917v3.699h-10.917V775.633z M264.841,778.447v-1.93h-8.827v1.93H264.841z M256.597,783.252h7.681v3.881h-7.681V783.252z M263.272,786.268v-2.131h-5.69v2.131H263.272z">
        </path>
        <path fill="#91979C" stroke="#91979C" stroke-miterlimit="10" d="M280.442,774.848v13.512h-1.046v-1.227h-4.061v1.789h-1.046v-14.074h1.81c0.415-1.139,0.717-2.338,0.904-3.6l1.106,0.143c-0.215,1.232-0.536,2.385-0.965,3.457H280.442z M275.336,780.377h4.061v-4.484h-4.061V780.377z M275.336,786.127h4.061v-4.766h-4.061V786.127z M290.857,774.867c0,6.447-0.094,10.463-0.281,12.045c-0.201,1.607-1.133,2.412-2.795,2.412l-1.971-0.041l-0.262-1.004c0.805,0.039,1.509,0.061,2.111,0.061c1.086,0,1.709-0.598,1.87-1.791c0.147-1.098,0.241-4.631,0.281-10.596h-5.931c-0.577,1.328-1.254,2.5-2.031,3.52l-0.644-0.846c1.448-2.01,2.434-4.477,2.956-7.398l1.065,0.121c-0.255,1.314-0.563,2.486-0.925,3.518H290.857z M283.86,779.393c1.541,1.701,2.707,3.176,3.498,4.422l-0.864,0.623c-0.804-1.299-1.978-2.793-3.519-4.482L283.86,779.393z">
        </path>
        <path fill="#91979C" stroke="#91979C" stroke-miterlimit="10" d="M298.558,783.012c-0.201,2.652-0.858,4.844-1.971,6.574l-0.844-0.764c1.166-1.932,1.769-4.371,1.809-7.318v-9.371h6.354v15.764c0,0.979-0.522,1.469-1.567,1.469h-2.151l-0.282-1.047c0.765,0.041,1.461,0.061,2.092,0.061c0.549,0,0.824-0.289,0.824-0.865v-4.502H298.558z M298.638,778.086v3.598l-0.02,0.281h4.202v-3.879H298.638z M302.82,777.061v-3.881h-4.183v3.881H302.82z M307.203,783.012c-0.161,2.652-0.744,4.844-1.749,6.574l-0.824-0.764c0.991-1.824,1.508-4.17,1.548-7.037v-9.652h6.534v15.723c0,1.006-0.543,1.51-1.629,1.51h-2.271l-0.281-1.047c0.804,0.041,1.541,0.061,2.211,0.061c0.576,0,0.865-0.301,0.865-0.904v-4.463H307.203z M311.606,777.061v-3.881h-4.363v3.881H311.606z M307.243,778.086v3.879h4.363v-3.879H307.243z">
        </path>
        <path fill="#91979C" stroke="#91979C" stroke-miterlimit="10" d="M318.24,774.145h5.689c0.147-1.139,0.262-2.098,0.342-2.875h1.086c-0.255,2.078-0.369,3.035-0.342,2.875h10.535v1.086h-10.696c-0.228,1.326-0.436,2.432-0.623,3.316h9.269v0.965c-0.831,2.279-2.164,4.25-4.001,5.912c1.716,1.381,3.847,2.42,6.394,3.115l-0.563,0.967c-2.654-0.791-4.873-1.924-6.655-3.398c-1.837,1.42-4.041,2.574-6.614,3.457l-0.543-1.025c2.533-0.83,4.65-1.883,6.354-3.156c-1.663-1.607-2.855-3.545-3.579-5.811h-0.302c-0.255,1.047-0.536,1.971-0.845,2.775c-1.032,2.574-2.594,4.92-4.685,7.037l-0.703-0.885c1.93-1.971,3.377-4.143,4.343-6.514c0.696-1.838,1.253-4.09,1.669-6.756h-5.529V774.145z M325.277,779.572c0.75,2.025,1.89,3.74,3.418,5.148c1.675-1.449,2.895-3.164,3.659-5.148H325.277z">
        </path>
      </g>
    </g>
        
    <g>
      <g>
        <path fill="#91979C" stroke="#91979C" stroke-miterlimit="10" d="M117.467,668.59h6.313c1.313,0,2.345,0.316,3.096,0.945c0.765,0.643,1.146,1.527,1.146,2.654c0,0.818-0.234,1.521-0.704,2.111c-0.456,0.549-1.052,0.938-1.789,1.166c0.938,0.16,1.688,0.543,2.252,1.146c0.549,0.629,0.824,1.42,0.824,2.371c0,1.355-0.489,2.381-1.468,3.076c-0.858,0.59-1.997,0.885-3.418,0.885h-6.253V668.59z M118.693,669.656v5.348h4.825c1.019,0,1.816-0.229,2.393-0.684c0.59-0.469,0.885-1.139,0.885-2.01c0-0.885-0.288-1.555-0.864-2.012c-0.563-0.428-1.361-0.643-2.393-0.643H118.693z M118.693,676.049v5.832h4.986c1.059,0,1.916-0.215,2.573-0.645c0.751-0.521,1.126-1.279,1.126-2.271c0-0.979-0.349-1.715-1.046-2.211c-0.643-0.471-1.534-0.705-2.674-0.705H118.693z">
        </path>
        <path fill="#91979C" stroke="#91979C" stroke-miterlimit="10" d="M134.798,681.217c0.201,0.174,0.302,0.416,0.302,0.725c0,0.268-0.107,0.508-0.322,0.723c-0.214,0.188-0.449,0.281-0.703,0.281c-0.295,0-0.536-0.1-0.724-0.301c-0.201-0.201-0.302-0.436-0.302-0.703c0-0.309,0.101-0.551,0.302-0.725c0.174-0.188,0.415-0.281,0.724-0.281C134.369,680.936,134.61,681.029,134.798,681.217z">
        </path>
        <path fill="#91979C" stroke="#91979C" stroke-miterlimit="10" d="M143.524,673.777v0.543c-0.121,4.383-1.14,7.889-3.057,10.516l-0.784-0.824c1.702-2.346,2.621-5.576,2.755-9.691v-6.273c4.999-0.066,9.49-0.475,13.471-1.227l0.523,0.945c-3.901,0.738-8.204,1.146-12.908,1.227v3.74h12.225v0.984c-0.858,2.695-2.359,4.973-4.504,6.836c1.77,1.314,3.974,2.467,6.614,3.459l-0.603,0.945c-2.748-1.113-5.014-2.359-6.796-3.74c-1.903,1.502-4.236,2.74-6.997,3.719l-0.604-0.924c2.654-0.939,4.906-2.098,6.756-3.479c-2.292-1.971-3.82-4.223-4.584-6.756H143.524z M154.623,673.777h-8.545c0.736,2.307,2.178,4.35,4.322,6.133C152.411,678.168,153.818,676.123,154.623,673.777z">
        </path>
        <path fill="#91979C" stroke="#91979C" stroke-miterlimit="10" d="M166.284,669.113c-0.898,1.502-2.104,2.828-3.619,3.98l-0.664-0.865c2.104-1.568,3.546-3.512,4.323-5.83l1.086,0.182c-0.188,0.576-0.396,1.105-0.624,1.588h12.004v0.945H166.284z M165.299,670.762h11.822v6.133h-7.982c-0.375,0.604-0.777,1.139-1.206,1.607h9.188v0.805c-1.086,1.408-2.521,2.541-4.303,3.398c2.091,0.656,4.396,1.031,6.916,1.125l-0.241,1.006c-2.989-0.121-5.643-0.645-7.962-1.568c-2.346,0.898-5.228,1.447-8.646,1.648l-0.462-0.965c3.002-0.135,5.603-0.551,7.801-1.246c-1.528-0.738-2.875-1.629-4.041-2.674c-0.885,0.615-1.863,1.172-2.936,1.668l-0.563-0.926c2.426-1.004,4.195-2.297,5.309-3.879h-2.694V670.762z M166.364,673.375h9.691v-1.729h-9.691V673.375z M176.056,676.01v-1.77h-9.691v1.77H176.056z M175.773,679.406h-8.806l-0.061,0.061c1.327,1.154,2.861,2.078,4.604,2.775C173.254,681.531,174.675,680.586,175.773,679.406z">
        </path>
        <path fill="#91979C" stroke="#91979C" stroke-miterlimit="10" d="M189.123,667.043c-0.47,1.5-1.065,2.928-1.79,4.281v13.611h-1.065v-11.801c-0.616,0.924-1.367,1.896-2.252,2.914l-0.342-1.086c2.064-2.479,3.546-5.273,4.443-8.383L189.123,667.043z M189.425,670.078h1.025v11.34h-1.025V670.078z M195.778,666.619c-0.175,0.537-0.423,1.1-0.744,1.689h5.951v0.965c-0.737,1.381-1.843,2.58-3.317,3.6c1.192,0.604,2.654,1.113,4.383,1.527l-0.442,1.025c-1.983-0.496-3.639-1.133-4.966-1.91c-1.395,0.777-3.09,1.436-5.087,1.971l-0.422-0.965c1.729-0.441,3.243-0.984,4.544-1.629c-0.979-0.697-1.736-1.514-2.272-2.453c-0.442,0.43-0.945,0.859-1.508,1.287l-0.644-0.824c1.702-1.207,2.855-2.674,3.458-4.402L195.778,666.619z M191.817,684.031c2.265-0.631,4.128-1.373,5.589-2.232c1.448-0.857,2.681-1.977,3.7-3.357l0.783,0.584c-0.911,1.406-2.251,2.641-4.021,3.699c-1.837,0.992-3.707,1.75-5.609,2.271L191.817,684.031z M198.271,675.547c-0.737,0.643-1.509,1.186-2.313,1.629c-0.845,0.455-1.938,0.904-3.277,1.348l-0.543-0.865c1.193-0.336,2.225-0.717,3.097-1.146c0.817-0.428,1.555-0.912,2.211-1.447L198.271,675.547z M200.101,677.096c-1.595,2.064-3.934,3.545-7.017,4.443l-0.423-0.945c2.963-0.846,5.188-2.199,6.676-4.063L200.101,677.096z M196.683,672.311c1.34-0.857,2.372-1.857,3.097-2.996h-5.389c-0.121,0.121-0.221,0.24-0.302,0.361C194.652,670.709,195.517,671.586,196.683,672.311z">
        </path>
        <path fill="#91979C" stroke="#91979C" stroke-miterlimit="10" d="M208.364,682.182c1.862-0.629,3.679-1.381,5.448-2.252l0.161,1.025c-1.984,0.965-4.296,1.883-6.937,2.754l-0.302-0.965c0.375-0.119,0.563-0.402,0.563-0.844v-7.66h4.564v-5.088h-5.649v-1.025h6.735v7.158h-4.584V682.182z M222.116,670.682c-0.054,3.619-0.857,6.635-2.412,9.047c1.354,1.877,2.928,3.311,4.725,4.303l-0.644,0.926c-1.837-1.02-3.411-2.461-4.725-4.324c-1.367,1.77-3.171,3.184-5.409,4.242l-0.663-0.883c2.306-1.047,4.122-2.475,5.448-4.283c-1.059-1.689-1.957-3.707-2.693-6.053c-0.442,0.859-0.912,1.609-1.408,2.252l-0.663-0.824c1.515-2.104,2.547-4.959,3.097-8.564l1.065,0.201c-0.161,1.059-0.362,2.037-0.604,2.936h6.575v1.025H222.116z M216.929,670.682c-0.281,0.83-0.476,1.373-0.583,1.629c0.684,2.492,1.589,4.645,2.715,6.453c1.273-2.184,1.93-4.879,1.97-8.082H216.929z">
        </path>
        <path fill="#91979C" stroke="#91979C" stroke-miterlimit="10" d="M243.75,675.486h-12.526v6.395c0,0.885,0.449,1.326,1.348,1.326h10.435c0.51,0,0.905-0.121,1.187-0.361c0.415-0.443,0.684-1.803,0.805-4.082l1.065,0.342c-0.188,2.439-0.51,3.941-0.966,4.504c-0.429,0.43-1.025,0.643-1.789,0.643h-11.059c-1.421,0-2.131-0.723-2.131-2.17v-10.678h1.105v3.018h11.421v-5.631h-13.692v-1.045h14.798V675.486z">
        </path>
        <path fill="#91979C" stroke="#91979C" stroke-miterlimit="10" d="M250.204,672.832h4.142v9.088c0.791-0.629,1.642-1.381,2.554-2.252l0.301,1.127c-1.18,1.139-2.473,2.184-3.88,3.137l-0.422-0.986c0.254-0.254,0.382-0.502,0.382-0.744v-8.303h-3.076V672.832z M252.355,666.781c1.367,1.045,2.54,2.111,3.519,3.195l-0.744,0.766c-0.925-1.047-2.111-2.119-3.559-3.217L252.355,666.781z M263.152,666.641c0,1.555-0.054,3.096-0.161,4.623c1.099,5.309,2.982,9.518,5.649,12.627l-0.764,0.885c-2.332-2.908-4.055-6.521-5.167-10.838c-0.121,0.818-0.262,1.604-0.423,2.354c-0.764,3.484-2.486,6.326-5.167,8.525l-0.724-0.906c2.386-1.982,3.968-4.49,4.745-7.52c0.59-2.545,0.897-5.797,0.925-9.75H263.152z">
        </path>
        <path fill="#91979C" stroke="#91979C" stroke-miterlimit="10" d="M272.3,672.832h4.082v9.049c0.804-0.67,1.588-1.389,2.352-2.152l0.282,1.146c-1.153,1.152-2.353,2.158-3.6,3.016l-0.422-1.006c0.241-0.227,0.362-0.455,0.362-0.684v-8.303H272.3V672.832z M274.531,666.801c1.313,1.02,2.446,2.078,3.398,3.176l-0.744,0.766c-0.898-1.072-2.037-2.145-3.418-3.217L274.531,666.801z M284.886,668.711h-5.77v-1.066h11.179v1.066h-4.303v6.012h4.041v1.025h-4.041v7.398h4.725v1.066h-12.204v-1.066h2.131V672.27h1.065v10.877h3.177V668.711z">
        </path>
        <path fill="#91979C" stroke="#91979C" stroke-miterlimit="10" d="M301.453,670.158v13.512h-1.046v-1.227h-4.061v1.789h-1.046v-14.074h1.81c0.415-1.139,0.717-2.338,0.904-3.6l1.106,0.143c-0.215,1.232-0.536,2.385-0.965,3.457H301.453z M296.347,675.688h4.061v-4.484h-4.061V675.688z M296.347,681.438h4.061v-4.766h-4.061V681.438z M311.868,670.178c0,6.447-0.094,10.463-0.281,12.045c-0.201,1.607-1.133,2.412-2.795,2.412l-1.971-0.041l-0.262-1.004c0.805,0.039,1.509,0.061,2.111,0.061c1.086,0,1.709-0.598,1.87-1.791c0.147-1.098,0.241-4.631,0.281-10.596h-5.931c-0.577,1.328-1.254,2.5-2.031,3.52l-0.644-0.846c1.448-2.01,2.434-4.477,2.956-7.398l1.065,0.121c-0.255,1.314-0.563,2.486-0.925,3.518H311.868z M304.871,674.703c1.541,1.701,2.707,3.176,3.498,4.422l-0.864,0.623c-0.804-1.299-1.978-2.793-3.519-4.482L304.871,674.703z">
        </path>
        <path fill="#91979C" stroke="#91979C" stroke-miterlimit="10" d="M326.162,666.58c1.688,2.828,4.61,5.32,8.766,7.479l-0.643,0.965c-3.86-1.982-6.735-4.449-8.626-7.398c-2.278,3.23-5.154,5.736-8.625,7.52l-0.644-0.984c3.793-1.943,6.715-4.471,8.766-7.58H326.162z M325.116,672.471h1.086v12.426h-1.086V672.471z">
        </path>
        <path fill="#91979C" stroke="#91979C" stroke-miterlimit="10" d="M348.339,666.6c0,1.502-0.048,2.969-0.141,4.402c1.126,5.578,4.067,9.84,8.826,12.789l-0.724,0.924c-4.33-2.801-7.158-6.574-8.485-11.318c-1.112,4.57-3.994,8.35-8.646,11.338l-0.663-0.965c5.603-3.498,8.505-8.135,8.706-13.912l0.02-3.258H348.339z">
        </path>
        <path fill="#91979C" stroke="#91979C" stroke-miterlimit="10" d="M363.116,673.113c-0.737,1.127-1.488,2.119-2.252,2.977l-0.362-1.146c2.064-2.547,3.546-5.395,4.443-8.545l1.025,0.482c-0.455,1.502-1.052,2.963-1.789,4.383v13.693h-1.065V673.113z M366.092,669.395h12.988v1.045h-12.988V669.395z M377.673,678.16v6.736h-1.065v-1.105h-7.902v1.105h-1.085v-6.736H377.673z M367.962,672.371h9.369v0.984h-9.369V672.371z M367.962,675.205h9.369v1.006h-9.369V675.205z M368.705,682.744h7.902v-3.559h-7.902V682.744z M372.405,666.52c0.442,0.844,0.784,1.629,1.025,2.352l-0.965,0.383c-0.322-0.898-0.691-1.715-1.106-2.453L372.405,666.52z">
        </path>
        <path fill="#91979C" stroke="#91979C" stroke-miterlimit="10" d="M385.996,679.447c-0.51,1.85-1.199,3.445-2.07,4.785l-0.905-0.604c0.885-1.287,1.528-2.748,1.931-4.383L385.996,679.447z M385.896,668.168h4.403c0.295-0.523,0.522-1.086,0.684-1.689l1.126,0.162c-0.174,0.576-0.389,1.086-0.644,1.527h6.816v9.57h-12.386V668.168z M386.962,671.063h10.254v-1.949h-10.254V671.063z M386.962,673.879h10.254v-1.891h-10.254V673.879z M397.216,676.773v-1.99h-10.254v1.99H397.216z M389.193,684.594c-1.019,0-1.528-0.482-1.528-1.447v-4.021h1.105v3.781c0,0.482,0.242,0.723,0.725,0.723h4.704c0.51,0,0.865-0.113,1.066-0.342c0.281-0.295,0.462-1.152,0.542-2.572l1.046,0.342c-0.121,1.635-0.389,2.66-0.805,3.076c-0.349,0.307-0.897,0.461-1.648,0.461H389.193z M391.546,678.441c1.152,1.086,2.037,2.031,2.653,2.836l-0.824,0.582c-0.616-0.844-1.494-1.814-2.634-2.914L391.546,678.441z M398.06,678.904c1.381,1.689,2.426,3.145,3.137,4.363l-0.864,0.604c-0.818-1.422-1.856-2.896-3.116-4.424L398.06,678.904z">
        </path>
      </g>
    </g>
        
    <g>
      <g>
        <path fill="#91979C" stroke="#91979C" stroke-miterlimit="10" d="M121.749,563.898h1.448l5.75,14.355h-1.347l-1.669-4.281h-6.917l-1.669,4.281h-1.347L121.749,563.898z M119.417,572.926h6.112l-3.016-7.699h-0.061L119.417,572.926z">
        </path>
        <path fill="#91979C" stroke="#91979C" stroke-miterlimit="10" d="M134.275,576.525c0.201,0.174,0.302,0.416,0.302,0.725c0,0.268-0.107,0.508-0.322,0.723c-0.214,0.188-0.449,0.281-0.703,0.281c-0.295,0-0.536-0.1-0.724-0.301c-0.201-0.201-0.302-0.436-0.302-0.703c0-0.309,0.101-0.551,0.302-0.725c0.174-0.188,0.415-0.281,0.724-0.281C133.847,576.244,134.088,576.338,134.275,576.525z">
        </path>
        <path fill="#91979C" stroke="#91979C" stroke-miterlimit="10" d="M140.469,563.176h15.521v1.064h-3.458v5.711h4.523v1.064h-4.523v9.049h-1.086v-9.049h-6.173c-0.16,2.105-0.543,3.854-1.146,5.248c-0.765,1.662-2.018,2.963-3.76,3.9l-0.624-0.924c1.662-0.926,2.842-2.191,3.539-3.801c0.455-1.207,0.757-2.68,0.905-4.424h-4.806v-1.064h4.865l0.021-0.885v-4.826h-3.8V563.176z M145.354,564.24v5.268l-0.021,0.443h6.112v-5.711H145.354z">
        </path>
        <path fill="#91979C" stroke="#91979C" stroke-miterlimit="10" d="M174.608,579.842c-0.684,0-1.897-0.012-3.64-0.039c-1.327-0.041-2.379-0.168-3.156-0.383c-0.818-0.24-1.542-0.736-2.172-1.486c-0.269-0.35-0.522-0.523-0.764-0.523c-0.55,0-1.415,0.932-2.594,2.795l-0.824-0.725c1.139-1.756,2.11-2.773,2.915-3.057v-6.434h-2.976v-1.045h4.001v7.52c0.241,0.135,0.455,0.322,0.644,0.563c0.522,0.604,1.086,1.047,1.688,1.328c0.67,0.24,1.596,0.381,2.774,0.422c1.368,0.027,2.682,0.039,3.941,0.039h2.774l2.151-0.08l-0.262,1.105H174.608z M162.645,562.291c1.448,1.072,2.635,2.111,3.56,3.115l-0.765,0.764c-0.817-0.951-1.997-2.01-3.538-3.176L162.645,562.291z M170.889,564.221c0.938,0.535,1.729,1.039,2.372,1.508c1.247-0.631,2.353-1.34,3.317-2.131h-9.289v-0.926h10.777v0.785c-1.18,1.045-2.54,1.982-4.082,2.814l0.482,0.381h3.941v9.029c0,0.938-0.489,1.406-1.468,1.406h-1.77l-0.262-0.965l1.709,0.041c0.496,0,0.744-0.229,0.744-0.684v-1.891h-3.739v3.559h-1.006v-3.559h-3.779v3.639h-1.025v-10.576h5.247c-0.898-0.629-1.85-1.225-2.854-1.789L170.889,564.221z M172.617,569.709v-2.111h-3.779v2.111H172.617z M168.838,570.635v2.029h3.779v-2.029H168.838z M177.362,569.709v-2.111h-3.739v2.111H177.362z M173.623,570.635v2.029h3.739v-2.029H173.623z">
        </path>
        <path fill="#91979C" stroke="#91979C" stroke-miterlimit="10" d="M192.943,561.889c1.688,2.828,4.61,5.32,8.766,7.479l-0.643,0.965c-3.86-1.982-6.735-4.449-8.626-7.398c-2.278,3.23-5.154,5.736-8.625,7.52l-0.644-0.984c3.793-1.943,6.715-4.471,8.766-7.58H192.943z M191.897,567.779h1.086v12.426h-1.086V567.779z">
        </path>
        <path fill="#91979C" stroke="#91979C" stroke-miterlimit="10" d="M215.12,561.908c0,1.502-0.048,2.969-0.141,4.402c1.126,5.578,4.067,9.84,8.826,12.789l-0.724,0.924c-4.33-2.801-7.158-6.574-8.485-11.318c-1.112,4.57-3.994,8.35-8.646,11.338l-0.663-0.965c5.603-3.498,8.505-8.135,8.706-13.912l0.02-3.258H215.12z">
        </path>
        <path fill="#91979C" stroke="#91979C" stroke-miterlimit="10" d="M229.897,568.422c-0.737,1.127-1.488,2.119-2.252,2.977l-0.362-1.146c2.064-2.547,3.546-5.395,4.443-8.545l1.025,0.482c-0.455,1.502-1.052,2.963-1.789,4.383v13.693h-1.065V568.422z M232.873,564.703h12.988v1.045h-12.988V564.703z M244.454,573.469v6.736h-1.065V579.1h-7.902v1.105h-1.085v-6.736H244.454z M234.743,567.68h9.369v0.984h-9.369V567.68z M234.743,570.514h9.369v1.006h-9.369V570.514z M235.486,578.053h7.902v-3.559h-7.902V578.053z M239.187,561.828c0.442,0.844,0.784,1.629,1.025,2.352l-0.965,0.383c-0.322-0.898-0.691-1.715-1.106-2.453L239.187,561.828z">
        </path>
        <path fill="#91979C" stroke="#91979C" stroke-miterlimit="10" d="M252.777,574.756c-0.51,1.85-1.199,3.445-2.07,4.785l-0.905-0.604c0.885-1.287,1.528-2.748,1.931-4.383L252.777,574.756z M252.677,563.477h4.403c0.295-0.523,0.522-1.086,0.684-1.689l1.126,0.162c-0.174,0.576-0.389,1.086-0.644,1.527h6.816v9.57h-12.386V563.477z M253.743,566.371h10.254v-1.949h-10.254V566.371z M253.743,569.188h10.254v-1.891h-10.254V569.188z M263.997,572.082v-1.99h-10.254v1.99H263.997z M255.975,579.902c-1.019,0-1.528-0.482-1.528-1.447v-4.021h1.105v3.781c0,0.482,0.242,0.723,0.725,0.723h4.704c0.51,0,0.865-0.113,1.066-0.342c0.281-0.295,0.462-1.152,0.542-2.572l1.046,0.342c-0.121,1.635-0.389,2.66-0.805,3.076c-0.349,0.307-0.897,0.461-1.648,0.461H255.975z M258.327,573.75c1.152,1.086,2.037,2.031,2.653,2.836l-0.824,0.582c-0.616-0.844-1.494-1.814-2.634-2.914L258.327,573.75z M264.841,574.213c1.381,1.689,2.426,3.145,3.137,4.363l-0.864,0.604c-0.818-1.422-1.856-2.896-3.116-4.424L264.841,574.213z">
        </path>
        <path fill="#91979C" stroke="#91979C" stroke-miterlimit="10" d="M274.311,575.58c0.67,0.457,1.414,1.105,2.232,1.951c0.696,0.723,1.26,1.393,1.688,2.01l-0.784,0.664c-0.442-0.617-0.999-1.281-1.669-1.99c-0.791-0.832-1.515-1.488-2.171-1.971L274.311,575.58z">
        </path>
        <path fill="#91979C" stroke="#91979C" stroke-miterlimit="10" d="M298.217,575.258c-1.274,0.496-2.769,0.912-4.484,1.248l-0.141-1.047c1.716-0.268,3.258-0.662,4.625-1.186V575.258z M299.121,563.918h-4.966v-1.004h6.052l-0.945,8.264h1.327c0,4.449-0.188,7.029-0.563,7.74c-0.402,0.684-1.207,1.025-2.413,1.025c-0.281,0-0.758-0.014-1.428-0.041l-0.302-0.965c0.805,0.068,1.308,0.102,1.508,0.102c1.006,0,1.622-0.336,1.851-1.006c0.214-0.711,0.321-2.66,0.321-5.852h-5.147l0.945-6.754l1.005,0.059l-0.824,5.691h2.675L299.121,563.918z M306.982,562.01c1.059,2.627,2.849,4.926,5.368,6.895l-0.603,0.906c-2.333-1.797-4.089-4.041-5.269-6.736c-1.38,2.922-3.123,5.182-5.228,6.775l-0.563-0.863c2.278-1.797,4.041-4.123,5.288-6.977H306.982z M301.252,578.436h6.595c0.817-2.225,1.535-4.953,2.151-8.184l1.046,0.281c-0.576,2.936-1.294,5.57-2.151,7.902h3.257v1.045h-10.897V578.436z M302.86,570.855c0.671,1.717,1.268,3.652,1.79,5.811l-0.945,0.242c-0.51-2.078-1.105-3.988-1.789-5.73L302.86,570.855z M303.745,567.82h5.569v1.004h-5.569V567.82z M305.957,570.271c0.563,1.557,1.072,3.398,1.528,5.529l-0.945,0.242c-0.389-1.822-0.898-3.639-1.528-5.449L305.957,570.271z">
        </path>
        <path fill="#91979C" stroke="#91979C" stroke-miterlimit="10" d="M316.009,568.141h4.082v9.049c0.804-0.67,1.588-1.389,2.352-2.152l0.282,1.146c-1.153,1.152-2.353,2.158-3.6,3.016l-0.422-1.006c0.241-0.227,0.362-0.455,0.362-0.684v-8.303h-3.057V568.141z M318.24,562.109c1.313,1.02,2.446,2.078,3.398,3.176l-0.744,0.766c-0.898-1.072-2.037-2.145-3.418-3.217L318.24,562.109z M328.595,564.02h-5.77v-1.066h11.179v1.066h-4.303v6.012h4.041v1.025h-4.041v7.398h4.725v1.066h-12.204v-1.066h2.131v-10.877h1.065v10.877h3.177V564.02z">
        </path>
        <path fill="#91979C" stroke="#91979C" stroke-miterlimit="10" d="M338.186,562.793h7.901v1.025h-1.428v11.439l1.468-0.461v1.064c-0.335,0.107-0.824,0.256-1.468,0.443v4.061h-1.065v-3.779c-1.515,0.402-3.23,0.777-5.147,1.125l-0.261-1.025l1.347-0.221v-12.646h-1.347V562.793z M340.558,567.096h3.036v-3.277h-3.036V567.096z M340.558,571.297h3.036v-3.176h-3.036V571.297z M340.558,576.264c0.925-0.174,1.938-0.408,3.036-0.703v-3.258h-3.036V576.264z M346.509,566.352h5.047c0.791-1.381,1.454-2.855,1.99-4.424l1.025,0.363c-0.643,1.662-1.293,3.016-1.95,4.061h3.217v1.045h-4.222v0.805c0,1.059-0.061,2.064-0.181,3.016h4.765v1.066h-4.383c0.509,2.332,2.058,4.705,4.645,7.117l-0.724,0.783c-2.534-2.426-4.068-4.824-4.604-7.197c-0.751,3.297-2.332,5.723-4.745,7.279l-0.664-0.885c2.373-1.447,3.867-3.814,4.484-7.098h-4.021v-1.066h4.182c0.107-0.885,0.168-1.809,0.182-2.773v-1.047h-4.042V566.352z M348.299,562.068c0.831,1.207,1.468,2.26,1.91,3.158l-0.824,0.582c-0.47-0.992-1.12-2.057-1.951-3.197L348.299,562.068z">
        </path>
        <path fill="#91979C" stroke="#91979C" stroke-miterlimit="10" d="M366.374,575.279c-1.367,1.621-3.076,3.063-5.128,4.322l-0.684-0.904c1.957-1.141,3.633-2.514,5.027-4.123L366.374,575.279z M366.374,580.145l-0.242-1.045c0.966,0.053,1.662,0.08,2.092,0.08c0.563,0,0.844-0.275,0.844-0.824v-5.309l-6.413,0.342l-0.302-0.965c0.389-0.041,0.71-0.107,0.965-0.201c1.877-0.791,3.914-2.031,6.112-3.719c-1.475,0.107-3.492,0.234-6.052,0.381l-0.241-0.984c0.295-0.041,0.549-0.107,0.764-0.201c1.193-0.563,2.554-1.689,4.082-3.379c-1.931,0.107-3.86,0.162-5.791,0.162l-0.321-0.945c5.817-0.027,10.568-0.477,14.255-1.348l0.543,0.926c-2.011,0.51-4.443,0.877-7.299,1.105c-1.421,1.621-2.842,2.869-4.263,3.74c1.851-0.107,3.673-0.229,5.47-0.363c0.925-0.764,1.89-1.588,2.895-2.473l1.006,0.482c-3.566,3.191-6.695,5.443-9.39,6.756c3.619-0.201,6.722-0.441,9.309-0.725c-0.576-0.75-1.139-1.447-1.688-2.09l0.804-0.523c1.676,1.93,2.936,3.6,3.78,5.006l-0.864,0.604c-0.402-0.684-0.865-1.387-1.388-2.111c-1.26,0.135-2.896,0.283-4.905,0.443v5.65c0,1.018-0.51,1.527-1.528,1.527H366.374z M372.969,574.414c2.01,1.488,3.719,2.99,5.127,4.504l-0.784,0.783c-1.221-1.42-2.916-2.947-5.087-4.584L372.969,574.414z">
        </path>
        <path fill="#91979C" stroke="#91979C" stroke-miterlimit="10" d="M382.86,564.943h8.766c-0.375-0.924-0.885-1.836-1.527-2.734l1.045-0.381c0.59,0.885,1.119,1.924,1.589,3.115h7.58v1.066h-10.677l-0.221,3.941h8.384c-0.04,3.752-0.168,6.191-0.382,7.318c-0.335,1.795-1.301,2.727-2.896,2.795c-0.644,0-1.421-0.021-2.332-0.061l-0.322-1.006c1.341,0.053,2.185,0.08,2.534,0.08c1.166-0.053,1.869-0.871,2.11-2.453c0.121-0.965,0.182-2.84,0.182-5.629h-7.399c-0.241,1.662-0.724,3.189-1.447,4.584c-0.979,1.648-2.353,3.203-4.122,4.664l-0.804-0.764c2.144-1.822,3.585-3.512,4.322-5.066c0.67-1.527,1.065-3.277,1.187-5.248c0.066-1.447,0.106-2.5,0.12-3.156h-5.689V564.943z">
        </path>
        <path fill="#91979C" stroke="#91979C" stroke-miterlimit="10" d="M405.218,570.313h8.404v1.045h-3.659v5.65c1.327-0.242,2.814-0.57,4.463-0.984v1.084c-2.868,0.697-5.979,1.281-9.329,1.75l-0.261-1.045c1.367-0.162,2.714-0.363,4.041-0.604v-5.852h-3.659V570.313z M404.876,565.588h10.013c-0.067-0.992-0.101-2.219-0.101-3.68h1.126c0,1.475,0.033,2.701,0.101,3.68h6.313v1.086h-6.253c0.241,3.592,0.797,6.568,1.668,8.926c0.858,2.199,1.655,3.318,2.393,3.359c0.496-0.107,0.966-1.314,1.408-3.619l0.984,0.502c-0.603,2.855-1.38,4.289-2.332,4.303c-1.662-0.08-3.096-2.299-4.303-6.654c-0.469-1.904-0.784-4.176-0.944-6.816h-10.073V565.588z M418.93,562.049c0.751,0.871,1.407,1.764,1.971,2.674l-0.925,0.463c-0.617-0.979-1.267-1.877-1.95-2.693L418.93,562.049z">
        </path>
      </g>
    </g>
  </g>
</svg>