<svg version="1.1" xmlns="http://www.w3.org/2000/svg" xmlns:xlink="http://www.w3.org/1999/xlink" x="0px" y="0px" viewBox="0 0 640 1657" enable-background="new 0 0 640 1657" xml:space="preserve">
<g>
    <animateTransform attributeName="transform" type="translate" values="0 0;-640 0" fill="freeze" begin="click+.5s" dur=".5s">
    </animateTransform>
    <g>
        
      <path fill="#FFFFFF" d="M590.608,844.634c0,12.078-9.789,21.867-21.867,21.867H71.256c-12.076,0-21.867-9.789-21.867-21.867V278.269c0-12.077,9.791-21.867,21.867-21.867h497.485c12.078,0,21.867,9.79,21.867,21.867V844.634z">
      
      </path>
      <circle data-fjh="glanimate" fill="#FFFFFF" cx="320.729" cy="258.132" r="42.823">
      </circle>
      
      <path fill="#FFFFFF" d="M285.331,233.987c-8.838,14.441-12.619,22.414-37.357,22.414l31.252,0.045L285.331,233.987z">
      
      </path>
      
      <path fill="#FFFFFF" d="M356.218,234.078c8.838,14.442,12.619,22.414,37.357,22.414l-31.252,0.046L356.218,234.078z">
      
      </path>
    </g>
    <circle data-fjh="glanimate" fill="none" stroke="#24303B" stroke-width="7" stroke-miterlimit="10" cx="320.91" cy="259.041" r="39.362">
    </circle>
    <g>
      <rect data-fjh="glanimate" x="94.764" y="385.42" fill="none" width="448.284" height="67.789">
      </rect>
        
      <path fill="#24303B" stroke="#24303B" stroke-miterlimit="10" d="M107.037,389.966c0.898,0.818,1.348,1.845,1.348,3.079c0,0.898-0.232,1.692-0.698,2.382c-0.497,0.689-1.202,1.179-2.116,1.467v0.097c0.93,0.192,1.731,0.697,2.405,1.515c0.674,0.818,1.011,1.789,1.011,2.911c0,1.476-0.514,2.678-1.54,3.608c-1.074,0.946-2.582,1.419-4.522,1.419s-3.447-0.473-4.521-1.419c-1.026-0.914-1.54-2.117-1.54-3.608c0-1.122,0.337-2.093,1.011-2.911c0.641-0.817,1.451-1.322,2.43-1.515v-0.097c-0.931-0.288-1.645-0.777-2.142-1.467c-0.465-0.658-0.697-1.451-0.697-2.382c0-1.251,0.449-2.276,1.347-3.079c0.963-0.914,2.334-1.371,4.113-1.371C104.688,388.595,106.06,389.052,107.037,389.966z M99.461,398.722c-0.771,0.674-1.155,1.572-1.155,2.694c0,1.139,0.377,2.036,1.131,2.694c0.817,0.737,1.98,1.106,3.487,1.106c1.508,0,2.679-0.369,3.513-1.106c0.737-0.689,1.106-1.588,1.106-2.694c0-1.122-0.385-2.021-1.155-2.694c-0.802-0.754-1.956-1.131-3.464-1.131C101.417,397.591,100.262,397.968,99.461,398.722z M99.821,390.857c-0.625,0.577-0.938,1.322-0.938,2.236c0,0.946,0.289,1.708,0.866,2.285c0.705,0.674,1.764,1.011,3.175,1.011c1.396,0,2.454-0.337,3.176-1.011c0.577-0.577,0.866-1.339,0.866-2.285c0-0.914-0.313-1.659-0.938-2.236c-0.738-0.674-1.772-1.011-3.104-1.011C101.577,389.846,100.543,390.183,99.821,390.857z">
      
      </path>
      
      <path fill="#24303B" stroke="#24303B" stroke-miterlimit="10" d="M116.515,404.039c0.241,0.208,0.361,0.497,0.361,0.865c0,0.321-0.129,0.61-0.385,0.866c-0.257,0.225-0.538,0.337-0.843,0.337c-0.353,0-0.642-0.12-0.865-0.36c-0.241-0.241-0.361-0.521-0.361-0.843c0-0.368,0.12-0.657,0.361-0.865c0.208-0.225,0.497-0.337,0.865-0.337C116.001,403.702,116.29,403.814,116.515,404.039z">
      
      </path>
      
      <path fill="#24303B" stroke="#24303B" stroke-miterlimit="10" d="M139.342,403.197h-10.006v5.22h-1.228v-13.062c-1.459,1.876-3.143,3.576-5.051,5.1l-0.818-1.083c3.191-2.533,5.629-5.46,7.313-8.779h-6.687v-1.251h7.288c0.4-0.898,0.77-1.884,1.106-2.959l1.323,0.145c-0.272,0.914-0.602,1.853-0.986,2.814h12.172v1.251h-12.725c-0.546,1.106-1.147,2.165-1.805,3.175h11.354v12.989c0,1.042-0.609,1.579-1.828,1.611h-2.693l-0.313-1.179c1.251,0.032,2.117,0.049,2.599,0.049c0.657,0,0.985-0.289,0.985-0.866V403.197z M129.336,394.921v2.983h10.006v-2.983H129.336z M139.342,399.083h-10.006v2.935h10.006V399.083z">
      
      </path>
      
      <path fill="#24303B" stroke="#24303B" stroke-miterlimit="10" d="M159.379,394.561c2.501-1.491,4.891-3.231,7.168-5.22h-16.116v-1.251h17.896v1.251c-2.197,2.005-4.755,3.961-7.674,5.869v11.137c0,1.283-0.673,1.925-2.021,1.925c-1.122,0-2.39-0.032-3.801-0.097l-0.36-1.274c1.154,0.096,2.421,0.145,3.801,0.145c0.737,0,1.106-0.321,1.106-0.963V394.561z">
      
      </path>
      
      <path fill="#24303B" stroke="#24303B" stroke-miterlimit="10" d="M175.255,387.633h9.429v1.251h-1.395v13.614l0.842-0.288c0.353-0.097,0.633-0.185,0.842-0.265v1.274c-0.385,0.129-0.946,0.305-1.684,0.529v4.739h-1.275v-4.378c-1.924,0.528-4.121,1.026-6.591,1.491l-0.313-1.251l1.756-0.289v-15.178h-1.611V387.633z M178.093,392.781h3.921v-3.896h-3.921V392.781z M178.093,397.856h3.921v-3.872h-3.921V397.856z M178.093,403.822c1.428-0.305,2.734-0.625,3.921-0.962v-3.801h-3.921V403.822z M189.423,401.2c-1.091,2.759-2.422,5.18-3.993,7.265l-1.059-0.77c1.523-1.988,2.822-4.338,3.897-7.048L189.423,401.2z M185.983,387.97h9.91v11.017h-9.91V387.97z M194.618,397.736v-8.515h-7.36v8.515H194.618z M193.367,400.575c1.732,2.742,3.063,5.14,3.993,7.192l-1.082,0.77c-1.026-2.342-2.342-4.778-3.945-7.313L193.367,400.575z">
      
      </path>
      
      <path fill="#24303B" stroke="#24303B" stroke-miterlimit="10" d="M201.81,393.31h3.079v-6.302h1.299v6.302h3.199v1.275h-3.199v8.924c1.251-0.369,2.35-0.737,3.296-1.106v1.322c-2.374,0.898-4.915,1.636-7.625,2.214l-0.337-1.348c1.106-0.192,2.229-0.433,3.367-0.722v-9.284h-3.079V393.31z M210.638,396.22v-1.202c3.176-1.86,5.998-3.792,8.468-5.797h-8.203v-1.228h10.079v1.179c-2.518,2.149-5.212,4.113-8.082,5.894h9.646c-0.129,5.469-0.369,8.996-0.722,10.584c-0.385,1.619-1.443,2.445-3.175,2.478c-0.562,0-1.323-0.017-2.285-0.048l-0.361-1.275c1.091,0.064,1.908,0.097,2.453,0.097c1.026-0.048,1.716-0.538,2.069-1.468c0.32-0.85,0.553-3.921,0.697-9.213h-2.093c-0.577,2.983-1.436,5.333-2.573,7.048c-1.235,1.797-3.111,3.416-5.629,4.859l-0.818-1.01c2.373-1.331,4.129-2.782,5.269-4.354c1.122-1.604,1.956-3.784,2.501-6.543h-2.236c-0.898,3.048-2.446,5.421-4.643,7.12l-0.842-1.01c2.021-1.571,3.431-3.608,4.233-6.11H210.638z">
      
      </path>
      
      <path fill="#24303B" stroke="#24303B" stroke-miterlimit="10" d="M230.915,394.344c-0.882,1.348-1.78,2.534-2.694,3.561l-0.433-1.371c2.469-3.047,4.241-6.455,5.315-10.224l1.228,0.577c-0.546,1.797-1.26,3.545-2.142,5.244v16.381h-1.274V394.344z M234.475,389.894h15.539v1.251h-15.539V389.894z M248.33,400.382v8.058h-1.274v-1.322h-9.454v1.322h-1.299v-8.058H248.33z M236.712,393.455h11.209v1.179h-11.209V393.455z M236.712,396.846h11.209v1.202h-11.209V396.846z M237.602,405.867h9.454v-4.258h-9.454V405.867z M242.028,386.455c0.529,1.011,0.938,1.948,1.227,2.814l-1.154,0.457c-0.386-1.074-0.826-2.053-1.323-2.935L242.028,386.455z">
      
      </path>
      
      <path fill="#24303B" stroke="#24303B" stroke-miterlimit="10" d="M258.24,400.478c-0.241,3.111-1.147,5.685-2.719,7.722l-0.962-0.89c1.588-2.181,2.405-4.964,2.453-8.348v-11.401h17.56v17.992c0,1.572-0.785,2.357-2.356,2.357h-2.767l-0.337-1.274c0.962,0.048,1.853,0.072,2.67,0.072c0.994,0,1.491-0.546,1.491-1.636v-4.595h-7.048v7.168h-1.299v-7.168H258.24z M258.336,394.633v4.426l-0.023,0.192h6.614v-4.618H258.336z M264.927,388.836h-6.591v4.594h6.591V388.836z M273.273,393.43v-4.594h-7.048v4.594H273.273z M273.273,399.251v-4.618h-7.048v4.618H273.273z">
      
      </path>
      
      <path fill="#24303B" stroke="#24303B" stroke-miterlimit="10" d="M290.039,387.658c-1.139,2.085-2.277,3.769-3.416,5.051c-1.331,1.476-2.95,2.862-4.858,4.162l-0.746-1.155c1.732-0.994,3.271-2.276,4.618-3.849c1.267-1.443,2.365-3.07,3.296-4.883L290.039,387.658z M284.458,397.448v-1.228h14.36c-0.063,2.936-0.208,5.316-0.433,7.145c-0.24,1.796-0.625,3.055-1.154,3.776c-0.529,0.706-1.388,1.083-2.574,1.131h-4.498l-0.337-1.251c1.988,0.032,3.392,0.048,4.21,0.048c1.33,0,2.213-0.585,2.646-1.756c0.417-1.202,0.697-3.824,0.842-7.865h-6.855c-0.577,2.758-1.379,4.923-2.405,6.494c-1.171,1.652-2.935,3.151-5.292,4.498l-0.817-1.034c2.148-1.187,3.784-2.518,4.907-3.993c1.058-1.491,1.828-3.479,2.309-5.965H284.458z M295.307,386.719c1.411,3.721,3.921,6.663,7.529,8.828l-0.891,1.01c-3.704-2.357-6.286-5.428-7.745-9.213L295.307,386.719z">
      
      </path>
      
      <path fill="#24303B" stroke="#24303B" stroke-miterlimit="10" d="M312.12,405.698c0,1.893-0.802,3.279-2.405,4.162l-0.505-0.843c1.154-0.77,1.764-1.748,1.828-2.935l-0.361,0.024c-0.353,0-0.649-0.104-0.89-0.313c-0.225-0.208-0.337-0.497-0.337-0.866c0-0.417,0.112-0.713,0.337-0.89c0.208-0.225,0.505-0.337,0.89-0.337C311.639,403.702,312.12,404.367,312.12,405.698z">
      
      </path>
      
      <path fill="#24303B" stroke="#24303B" stroke-miterlimit="10" d="M335.525,392.733c1.587,1.731,3.055,3.464,4.401,5.195c0.979-2.341,1.571-4.874,1.78-7.601h-6.735v-1.275h7.938v0.963c-0.192,3.352-0.898,6.366-2.117,9.044c1.154,1.571,2.133,2.999,2.935,4.281l-0.962,0.963c-0.689-1.171-1.563-2.494-2.622-3.97c-1.347,2.454-3.175,4.619-5.484,6.495l-0.746-1.131c2.31-1.828,4.113-3.984,5.412-6.471c-1.282-1.699-2.854-3.584-4.714-5.652L335.525,392.733z M344.353,391.29h7.097v-4.811h1.322v4.811h2.839v1.274h-2.839v13.663c0,1.427-0.721,2.141-2.164,2.141h-3.873l-0.289-1.25c1.732,0.063,2.967,0.096,3.705,0.096c0.865,0,1.299-0.441,1.299-1.323v-13.326h-7.097V391.29z M345.388,395.715c1.667,2.021,2.942,3.801,3.824,5.34l-1.034,0.722c-1.026-1.764-2.294-3.552-3.801-5.363L345.388,395.715z">
      
      </path>
      
      <path fill="#24303B" stroke="#24303B" stroke-miterlimit="10" d="M371.582,399.131c-1.46,0.497-2.999,0.954-4.619,1.371v5.532c0,1.396-0.665,2.093-1.996,2.093h-2.646l-0.289-1.227c0.866,0.048,1.691,0.072,2.478,0.072c0.77,0,1.154-0.426,1.154-1.275v-4.883c-1.491,0.337-3.159,0.658-5.003,0.962l-0.192-1.274c1.828-0.289,3.56-0.626,5.195-1.011v-5.027h-5.147v-1.25h5.147v-3.777c-1.363,0.289-2.766,0.529-4.209,0.722l-0.265-1.251c3.432-0.385,6.486-1.098,9.164-2.141l0.457,1.227c-1.219,0.434-2.501,0.818-3.849,1.155v4.065h6.303c-0.16-1.908-0.24-4.13-0.24-6.663h1.299c0,2.518,0.072,4.738,0.216,6.663h7.577v1.25h-7.48c0.176,1.86,0.417,3.408,0.722,4.643c0.176,0.722,0.368,1.396,0.577,2.021c1.283-1.491,2.39-3.199,3.319-5.123l1.131,0.602c-1.106,2.309-2.43,4.273-3.969,5.893c0.336,0.883,0.737,1.684,1.202,2.405c0.818,1.203,1.491,1.805,2.021,1.805c0.577-0.032,1.074-1.468,1.491-4.306l1.155,0.625c-0.577,3.384-1.396,5.075-2.454,5.075c-0.93,0-1.94-0.729-3.03-2.188c-0.497-0.705-0.954-1.523-1.371-2.453c-1.78,1.651-3.817,2.926-6.11,3.824l-0.722-1.106c2.422-0.914,4.53-2.253,6.326-4.018c-0.305-0.833-0.577-1.764-0.817-2.79c-0.321-1.347-0.569-2.982-0.746-4.907h-6.398v4.715c1.636-0.433,3.176-0.89,4.619-1.371V399.131z M376.97,386.864c1.732,1.171,3.199,2.373,4.402,3.608l-0.914,0.914c-1.075-1.139-2.534-2.365-4.378-3.681L376.97,386.864z">
      
      </path>
      
      <path fill="#24303B" stroke="#24303B" stroke-miterlimit="10" d="M395.274,390.808v16.165h-1.251v-1.468h-4.858v2.141h-1.251v-16.838h2.165c0.496-1.362,0.857-2.798,1.082-4.306l1.323,0.169c-0.257,1.476-0.642,2.854-1.154,4.137H395.274z M389.165,397.423h4.858v-5.364h-4.858V397.423z M389.165,404.303h4.858v-5.701h-4.858V404.303z M407.734,390.833c0,7.714-0.112,12.517-0.337,14.408c-0.24,1.925-1.354,2.887-3.343,2.887l-2.357-0.048l-0.313-1.203c0.963,0.048,1.805,0.072,2.526,0.072c1.299,0,2.044-0.714,2.236-2.141c0.177-1.314,0.289-5.54,0.337-12.677h-7.096c-0.689,1.588-1.5,2.991-2.43,4.21l-0.77-1.011c1.732-2.405,2.91-5.355,3.536-8.852l1.274,0.145c-0.305,1.571-0.673,2.975-1.106,4.209H407.734z M399.363,396.245c1.845,2.037,3.239,3.801,4.186,5.292l-1.034,0.746c-0.962-1.556-2.365-3.344-4.209-5.364L399.363,396.245z">
      
      </path>
      
      <path fill="#24303B" stroke="#24303B" stroke-miterlimit="10" d="M418.799,386.334c-0.209,1.267-0.505,2.902-0.89,4.907h4.281v0.794c-0.272,3.896-1.099,7.24-2.478,10.03c1.588,1.251,2.782,2.277,3.584,3.079l-0.89,1.01c-0.914-0.914-2.021-1.9-3.319-2.958c-1.251,2.084-2.839,3.864-4.763,5.34l-0.866-1.106c1.908-1.396,3.447-3.079,4.618-5.052c-1.043-0.834-2.293-1.78-3.752-2.838c0.77-2.181,1.442-4.522,2.021-7.024h-2.742v-1.274h3.007c0.368-1.78,0.673-3.464,0.914-5.052L418.799,386.334z M420.916,392.516h-3.296c-0.609,2.662-1.235,4.867-1.876,6.615c1.059,0.737,2.036,1.451,2.935,2.141C419.897,398.77,420.643,395.852,420.916,392.516z M423.177,396.75h5.652v-3.223c1.348-1.187,2.622-2.63,3.825-4.33h-8.731v-1.299h10.247v1.299c-1.171,1.684-2.519,3.271-4.042,4.763v2.79h5.1v1.299h-5.1v8.106c0,1.363-0.593,2.045-1.779,2.045h-3.368l-0.337-1.251c1.283,0.032,2.342,0.048,3.176,0.048c0.674,0,1.01-0.417,1.01-1.25v-7.698h-5.652V396.75z">
      
      </path>
      
      <path fill="#24303B" stroke="#24303B" stroke-miterlimit="10" d="M445.932,386.695c-0.241,1.299-0.506,2.526-0.794,3.681h5.46v1.154c-0.689,4.267-1.964,7.834-3.824,10.704c0.657,1.043,1.354,1.828,2.093,2.357c1.956,1.38,5.043,2.085,9.261,2.117c1.01,0,2.181-0.04,3.512-0.12l-0.265,1.371h-2.622c-4.875,0-8.419-0.803-10.632-2.406c-0.754-0.561-1.443-1.314-2.068-2.261c-1.508,2.005-3.288,3.632-5.34,4.883l-0.698-1.227c2.101-1.251,3.856-2.887,5.269-4.907c-0.898-1.716-1.652-3.752-2.262-6.109c-0.689,1.315-1.419,2.43-2.188,3.344l-0.891-1.083c2.342-2.902,3.921-6.815,4.739-11.738L445.932,386.695z M446.027,400.912c1.556-2.599,2.654-5.701,3.296-9.31h-4.547c-0.272,0.866-0.601,1.756-0.985,2.67C444.416,396.966,445.161,399.179,446.027,400.912z M454.278,386.624h1.299v6.134c1.956,1.411,3.984,3.095,6.086,5.051l-0.746,1.154c-2.036-2.036-3.816-3.656-5.34-4.858v10.535h-1.299V386.624z">
      
      </path>
      
      <path fill="#24303B" stroke="#24303B" stroke-miterlimit="10" d="M467.051,387.898h20.205v1.274h-7.866c-0.433,1.011-0.954,2.021-1.563,3.031v16.309h-1.347v-14.336c-2.261,2.999-5.34,5.661-9.236,7.985l-0.866-1.106c5.597-3.255,9.453-7.216,11.57-11.883h-10.896V387.898z M480.833,394.272c2.807,2.229,5.172,4.475,7.097,6.735l-1.011,1.011c-1.7-2.117-4.033-4.394-7-6.832L480.833,394.272z">
      
      </path>
      
      <path fill="#24303B" stroke="#24303B" stroke-miterlimit="10" d="M500.124,386.575c-0.385,0.914-0.794,1.805-1.227,2.67h13.614c0,5.918-0.12,9.574-0.36,10.969c-0.192,1.556-1.091,2.334-2.694,2.334c-0.272,0-0.77-0.024-1.491-0.072l-0.313-1.155c0.657,0.049,1.219,0.072,1.684,0.072c0.882,0,1.396-0.529,1.539-1.587c0.177-0.994,0.289-4.105,0.337-9.333h-12.989c-1.219,2.036-2.605,3.8-4.161,5.291l-0.914-1.082c2.357-2.197,4.241-5.003,5.652-8.419L500.124,386.575z M506.667,393.959v6.952h-8.78v4.883c0,0.737,0.401,1.114,1.203,1.13h11.786c0.609-0.032,1.043-0.305,1.3-0.817c0.176-0.433,0.328-1.451,0.457-3.055l1.227,0.409c-0.129,1.523-0.305,2.598-0.529,3.223c-0.385,0.946-1.091,1.427-2.117,1.443h-12.556c-1.38,0-2.069-0.642-2.069-1.924v-12.244H506.667z M497.887,399.708h7.481v-4.546h-7.481V399.708z">
      
      </path>
      
      <path fill="#24303B" stroke="#24303B" stroke-miterlimit="10" d="M519.705,408.224l-0.289-1.251c1.09,0.063,1.868,0.096,2.333,0.096c0.689,0,1.034-0.32,1.034-0.962v-6.446c-0.914,0.32-2.028,0.665-3.343,1.034l-0.313-1.251c1.106-0.256,2.325-0.602,3.656-1.034v-5.869h-3.367v-1.275h3.367v-4.714h1.275v4.714h2.814v1.275h-2.814v5.388c1.042-0.433,2.053-0.89,3.03-1.371v1.299c-0.897,0.434-1.908,0.875-3.03,1.323v7.265c0,1.187-0.617,1.78-1.853,1.78H519.705z M533.416,389.509c-1.669,0.273-3.384,0.466-5.148,0.577l-0.433-1.202c4.49-0.289,8.331-0.986,11.521-2.093l0.626,1.131c-1.732,0.577-3.488,1.026-5.268,1.347v4.33h6.206v1.25h-6.206v4.234h4.906v9.309h-1.274v-1.347h-8.467v1.347h-1.275v-9.309h4.812v-4.234h-6.086v-1.25h6.086V389.509z M529.88,405.818h8.467v-5.508h-8.467V405.818z">
      
      </path>
      
      <path fill="#24303B" stroke="#24303B" stroke-miterlimit="10" d="M316.717,424.882c0.866,0.818,1.299,1.925,1.299,3.32c0,1.01-0.305,1.916-0.914,2.718c-0.24,0.305-0.874,0.922-1.9,1.853c-0.545,0.48-0.946,0.938-1.202,1.371c-0.337,0.577-0.505,1.194-0.505,1.852v0.697h-1.468v-0.697c0-0.705,0.145-1.347,0.434-1.924c0.353-0.771,1.09-1.644,2.213-2.622c0.608-0.609,0.978-0.994,1.106-1.155c0.513-0.657,0.77-1.338,0.77-2.044c0-1.011-0.297-1.828-0.891-2.454c-0.609-0.608-1.491-0.914-2.646-0.914c-1.283,0-2.253,0.434-2.91,1.299c-0.578,0.722-0.866,1.717-0.866,2.983h-1.443c0-1.604,0.44-2.919,1.323-3.945c0.945-1.09,2.269-1.636,3.969-1.636C314.592,423.583,315.803,424.017,316.717,424.882z M313.638,439.027c0.241,0.208,0.361,0.497,0.361,0.865c0,0.337-0.12,0.626-0.361,0.866c-0.256,0.225-0.545,0.337-0.865,0.337c-0.354,0-0.649-0.12-0.891-0.36c-0.225-0.225-0.336-0.506-0.336-0.843c0-0.368,0.111-0.657,0.336-0.865c0.225-0.225,0.521-0.337,0.891-0.337C313.125,438.69,313.413,438.802,313.638,439.027z">
      
      </path>
    </g>
      
    <g>        
      <path fill="#E5EBF0" d="M566.009,572.112c0,24.607-19.947,44.555-44.555,44.555H120.186c-24.607,0-44.555-19.947-44.555-44.555l0,0c0-24.607,19.947-44.555,44.555-44.555h401.268C546.062,527.558,566.009,547.505,566.009,572.112L566.009,572.112z">
      
      </path>
      
      <path fill="#E5EBF0" d="M565.462,676.802c0,24.607-19.947,44.555-44.555,44.555H119.639c-24.607,0-44.555-19.947-44.555-44.555l0,0c0-24.607,19.947-44.555,44.555-44.555h401.268C545.515,632.247,565.462,652.194,565.462,676.802L565.462,676.802z">
      
      </path>

      <path fill="#E5EBF0" d="M566.554,781.491c0,24.607-19.947,44.555-44.555,44.555H120.731c-24.605,0-44.555-19.947-44.555-44.555l0,0c0-24.607,19.949-44.555,44.555-44.555h401.268C546.606,736.937,566.554,756.884,566.554,781.491L566.554,781.491z">
      </path>
    </g>
    
    <g>
      <g>
        <path fill="#24303B" stroke="#24303B" stroke-width="3" stroke-miterlimit="10" d="M330.068,240.076c2.248,2.048,3.373,4.619,3.373,7.711c0,2.25-0.582,4.238-1.746,5.964c-1.246,1.727-3.014,2.952-5.303,3.675v0.241c2.33,0.482,4.338,1.747,6.025,3.795s2.529,4.479,2.529,7.29c0,3.695-1.285,6.708-3.855,9.037c-2.691,2.37-6.467,3.554-11.325,3.554c-4.86,0-8.636-1.184-11.326-3.554c-2.571-2.29-3.856-5.302-3.856-9.037c0-2.811,0.844-5.242,2.53-7.29c1.606-2.048,3.635-3.313,6.085-3.795v-0.241c-2.33-0.723-4.117-1.948-5.362-3.675c-1.166-1.646-1.747-3.635-1.747-5.964c0-3.133,1.124-5.703,3.374-7.711c2.41-2.29,5.844-3.434,10.302-3.434C324.184,236.642,327.617,237.786,330.068,240.076z M311.091,262.005c-1.928,1.687-2.892,3.937-2.892,6.748c0,2.852,0.943,5.101,2.832,6.747c2.048,1.848,4.96,2.771,8.736,2.771c3.774,0,6.706-0.923,8.796-2.771c1.846-1.726,2.771-3.976,2.771-6.747c0-2.811-0.965-5.061-2.893-6.748c-2.008-1.887-4.9-2.832-8.675-2.832C315.991,259.173,313.099,260.118,311.091,262.005z M311.995,242.305c-1.566,1.446-2.35,3.313-2.35,5.603c0,2.37,0.723,4.277,2.169,5.723c1.767,1.687,4.417,2.53,7.953,2.53c3.493,0,6.146-0.844,7.952-2.53c1.445-1.446,2.168-3.353,2.168-5.723c0-2.29-0.783-4.157-2.35-5.603c-1.848-1.687-4.438-2.53-7.771-2.53C316.393,239.774,313.802,240.618,311.995,242.305z">
        </path>
      </g>
    </g>
        
    <g opacity="0">
      <animate attributeName="opacity" begin="click" dur=".3s" values="0;1" fill="freeze">
        
      </animate>
      <g>
        <path fill="#F1B932" d="M566.22,571.824c0,24.607-19.947,44.555-44.555,44.555H120.397c-24.605,0-44.555-19.947-44.555-44.555l0,0c0-24.607,19.949-44.555,44.555-44.555h401.268C546.272,527.27,566.22,547.217,566.22,571.824L566.22,571.824z">
        </path>
      </g>
      <circle data-fjh="glanimate" fill="#F1B932" cx="810.077" cy="1486.849" r="15">
        
      </circle>
    </g>
        
    <g opacity="0">
      <animate attributeName="opacity" begin="click" dur=".3s" values="0;1" fill="freeze"></animate>
      <g>
        <path fill="#F1B932" d="M566.554,781.491c0,24.607-19.947,44.555-44.555,44.555H120.731c-24.605,0-44.555-19.947-44.555-44.555l0,0c0-24.607,19.949-44.555,44.555-44.555h401.268C546.606,736.937,566.554,756.884,566.554,781.491L566.554,781.491z">
        </path>
      </g>
      <circle data-fjh="glanimate" fill="#F1B932" cx="903.646" cy="1486.849" r="15"></circle>
    </g>
        
    <g opacity="0">
      <animate attributeName="opacity" begin="click" dur=".3s" values="0;1" fill="freeze"></animate>
      <g>
        <path fill="#F1B932" d="M565.554,677.158c0,24.607-19.947,44.555-44.555,44.555H119.731c-24.605,0-44.555-19.947-44.555-44.555l0,0c0-24.607,19.949-44.555,44.555-44.555h401.268C545.606,632.604,565.554,652.551,565.554,677.158L565.554,677.158z">
        </path>
      </g>
      <circle data-fjh="glanimate" fill="#F1B932" cx="856.39" cy="1486.849" r="15"></circle>
    </g>
        
    <g>
      <g>
        <path fill="#91979C" stroke="#91979C" stroke-miterlimit="10" d="M120.56,774.244c1.112,0.846,1.763,1.971,1.95,3.379h-1.186c-0.175-1.113-0.718-1.977-1.629-2.594c-0.858-0.604-1.877-0.904-3.056-0.904c-1.757,0-3.137,0.623-4.143,1.869c-0.938,1.152-1.407,2.66-1.407,4.523s0.463,3.357,1.388,4.484c0.965,1.193,2.312,1.789,4.041,1.789c1.206,0,2.259-0.328,3.156-0.986c0.952-0.723,1.568-1.748,1.851-3.076h1.186c-0.309,1.664-1.059,2.963-2.252,3.902c-1.126,0.857-2.433,1.285-3.92,1.285c-2.146,0-3.82-0.736-5.026-2.211c-1.1-1.34-1.649-3.068-1.649-5.188c0-2.117,0.563-3.867,1.689-5.248c1.22-1.514,2.922-2.271,5.106-2.271C118.188,772.998,119.487,773.414,120.56,774.244z">
        </path>
        <path fill="#91979C" stroke="#91979C" stroke-miterlimit="10" d="M128.903,785.906c0.201,0.174,0.302,0.416,0.302,0.725c0,0.268-0.107,0.508-0.322,0.723c-0.214,0.188-0.449,0.281-0.703,0.281c-0.295,0-0.536-0.1-0.724-0.301c-0.201-0.201-0.302-0.436-0.302-0.703c0-0.309,0.101-0.551,0.302-0.725c0.174-0.188,0.415-0.281,0.724-0.281C128.475,785.625,128.716,785.719,128.903,785.906z">
        </path>
        <path fill="#91979C" stroke="#91979C" stroke-miterlimit="10" d="M133.95,772.557h17.834v1.064h-2.734v13.953c0,1.248-0.616,1.871-1.85,1.871h-3.317l-0.241-1.047c1.474,0.055,2.533,0.082,3.177,0.082c0.75,0,1.126-0.396,1.126-1.188v-13.672H133.95V772.557z M143.902,777.039v7.117h-6.474v1.83h-1.046v-8.947H143.902z M137.429,783.152h5.429v-5.127h-5.429V783.152z">
        </path>
        <path fill="#91979C" stroke="#91979C" stroke-miterlimit="10" d="M157.253,786.268c0.321-0.201,0.482-0.496,0.482-0.885v-13.25h1.126v13.553c1.676-0.656,3.304-1.469,4.886-2.434l0.321,1.086c-1.983,1.139-4.142,2.125-6.474,2.955L157.253,786.268z M162.279,773.5c1.81,2.025,3.243,3.861,4.303,5.51l-0.905,0.643c-1.059-1.715-2.5-3.57-4.322-5.568L162.279,773.5z M162.983,789.465l-0.744-0.904c3.378-1.93,5.63-4.41,6.755-7.439c0.845-2.574,1.268-5.797,1.268-9.672h1.125c0,3.768-0.401,6.957-1.206,9.57c-0.134,0.402-0.241,0.697-0.321,0.885c1.648,2.119,3.069,4.291,4.263,6.516l-0.825,0.824c-1.032-2.051-2.332-4.143-3.9-6.273C168.11,785.545,165.972,787.709,162.983,789.465z">
        </path>
        <path fill="#91979C" stroke="#91979C" stroke-miterlimit="10" d="M177.94,777.521h4.082v9.049c0.804-0.67,1.588-1.389,2.352-2.152l0.282,1.146c-1.153,1.152-2.353,2.158-3.6,3.016l-0.422-1.006c0.241-0.227,0.362-0.455,0.362-0.684v-8.303h-3.057V777.521z M180.172,771.49c1.313,1.02,2.446,2.078,3.398,3.176l-0.744,0.766c-0.898-1.072-2.037-2.145-3.418-3.217L180.172,771.49z M190.526,773.4h-5.77v-1.066h11.179v1.066h-4.303v6.012h4.041v1.025h-4.041v7.398h4.725v1.066h-12.204v-1.066h2.131v-10.877h1.065v10.877h3.177V773.4z">
        </path>
        <path fill="#91979C" stroke="#91979C" stroke-miterlimit="10" d="M206.712,772.557v13.531h-4.584v1.668h-1.086v-15.199H206.712z M202.128,778.688h3.519v-5.086h-3.519V778.688z M202.128,785.021h3.519v-5.268h-3.519V785.021z M210.149,782.83c-0.241,2.762-0.998,5.033-2.271,6.816l-0.864-0.785c1.367-1.971,2.07-4.477,2.11-7.52v-9.35h7.962v15.764c0,1.1-0.55,1.648-1.648,1.648h-2.674l-0.302-1.045c1.26,0.027,2.131,0.039,2.614,0.039c0.603,0,0.904-0.342,0.904-1.025v-4.543H210.149z M210.23,777.984v3.539l-0.021,0.262h5.771v-3.801H210.23z M215.98,776.959v-3.9h-5.75v3.9H215.98z">
        </path>
        <path fill="#91979C" stroke="#91979C" stroke-miterlimit="10" d="M231.522,781.805c-1.22,0.416-2.507,0.797-3.86,1.146v4.623c0,1.166-0.557,1.75-1.669,1.75h-2.212l-0.241-1.025c0.724,0.041,1.414,0.061,2.071,0.061c0.644,0,0.965-0.355,0.965-1.066v-4.08c-1.247,0.281-2.641,0.549-4.182,0.803l-0.161-1.064c1.528-0.242,2.976-0.523,4.343-0.846v-4.201h-4.303v-1.045h4.303v-3.158c-1.14,0.242-2.313,0.443-3.519,0.604l-0.222-1.045c2.869-0.322,5.422-0.918,7.661-1.789l0.382,1.025c-1.019,0.361-2.091,0.684-3.217,0.965v3.398h5.268c-0.135-1.596-0.201-3.453-0.201-5.57h1.086c0,2.105,0.061,3.961,0.181,5.57h6.333v1.045h-6.253c0.147,1.555,0.349,2.848,0.604,3.881c0.147,0.602,0.309,1.166,0.482,1.688c1.072-1.246,1.997-2.674,2.774-4.281l0.945,0.502c-0.925,1.93-2.03,3.572-3.317,4.926c0.281,0.738,0.616,1.408,1.005,2.012c0.684,1.004,1.247,1.508,1.689,1.508c0.482-0.027,0.897-1.227,1.246-3.6l0.966,0.523c-0.483,2.828-1.167,4.242-2.052,4.242c-0.777,0-1.621-0.611-2.533-1.83c-0.415-0.59-0.797-1.273-1.146-2.051c-1.488,1.381-3.19,2.445-5.107,3.197l-0.603-0.926c2.023-0.764,3.786-1.883,5.287-3.357c-0.254-0.697-0.482-1.475-0.684-2.332c-0.268-1.127-0.476-2.494-0.623-4.102h-5.348v3.941c1.367-0.363,2.653-0.744,3.86-1.146V781.805z M236.025,771.551c1.448,0.979,2.675,1.984,3.68,3.016l-0.764,0.764c-0.898-0.951-2.118-1.977-3.659-3.076L236.025,771.551z">
        </path>
        <path fill="#91979C" stroke="#91979C" stroke-miterlimit="10" d="M249.437,771.691c-1.046,2.186-2.688,4.096-4.926,5.73l-0.322-1.047c1.983-1.514,3.418-3.223,4.303-5.127L249.437,771.691z M250.02,776.799c-0.55,1.086-1.166,2.051-1.85,2.895v9.893h-1.066v-8.707c-0.737,0.725-1.562,1.416-2.473,2.072l-0.321-1.025c2.185-1.637,3.772-3.492,4.765-5.57L250.02,776.799z M252.171,780.396v7.561c1.434-0.375,2.875-0.891,4.322-1.549l0.241,1.006c-1.595,0.684-3.552,1.32-5.871,1.91l-0.221-0.885c0.321-0.121,0.482-0.289,0.482-0.502v-15.783h9.45v8.242h-4.162c0.281,1.408,0.797,2.688,1.548,3.842c1.193-0.576,2.346-1.482,3.458-2.715l0.704,0.703c-1.032,1.207-2.231,2.139-3.599,2.795c1.031,1.354,2.405,2.514,4.121,3.479l-0.583,0.924c-3.659-2.17-5.878-5.18-6.655-9.027H252.171z M259.509,775.773v-2.615h-7.338v2.615H259.509z M252.171,776.777v2.615h7.338v-2.615H252.171z">
        </path>
        <path fill="#91979C" stroke="#91979C" stroke-miterlimit="10" d="M270.004,773.641c-0.509,0.51-1.126,1.006-1.85,1.488l-0.663-0.783c1.246-0.764,2.245-1.723,2.996-2.875l1.005,0.221c-0.241,0.389-0.482,0.744-0.724,1.066h4.242v-1.449h1.086v1.449h6.534v0.883h-6.534v1.65h8.304v0.904h-17.733v-0.904h8.344v-1.65H270.004z M268.838,777.342h13.311v3.418h-4.363v1.387h5.892v0.885h-5.892v1.488h5.107v0.844h-5.107v1.568h6.615v0.904h-6.615v1.891h-1.045v-8.967h-2.493v8.967h-1.046v-1.891h-6.515v-0.904h6.515v-1.588h-5.268v-0.846h5.268v-1.467h-5.891v-0.885h5.891v-1.387h-4.363V777.342z M281.083,779.936v-1.77h-11.18v1.77H281.083z">
        </path>
        <path fill="#91979C" stroke="#91979C" stroke-miterlimit="10" d="M288.481,777.521h3.86v9.209c0.71-0.59,1.494-1.326,2.353-2.211l0.281,1.145c-1.14,1.166-2.353,2.199-3.64,3.098l-0.401-0.965c0.241-0.242,0.361-0.482,0.361-0.725v-8.484h-2.814V777.521z M290.633,771.471c1.246,1.004,2.339,2.057,3.277,3.156l-0.744,0.744c-0.805-0.992-1.91-2.045-3.317-3.156L290.633,771.471z M298.494,774.525h-3.579v-0.943h3.217c-0.349-0.725-0.771-1.414-1.267-2.072l0.945-0.342c0.509,0.684,0.951,1.488,1.327,2.414h2.895c0.47-0.711,0.898-1.521,1.287-2.434l0.965,0.342c-0.335,0.777-0.71,1.475-1.126,2.092h3.057v0.943h-3.519v4.385h4.041v0.965h-12.425v-0.965h4.182V774.525z M296.041,775.35c0.59,0.805,1.093,1.67,1.508,2.594l-0.784,0.342c-0.455-0.965-0.985-1.828-1.588-2.594L296.041,775.35z M305.149,781.645v7.941h-1.025v-0.885h-6.917v0.885h-1.045v-7.941H305.149z M297.207,784.779h6.917v-2.211h-6.917V784.779z M297.207,787.797h6.917v-2.133h-6.917V787.797z M301.711,774.525h-2.231v4.385h2.231V774.525z M306.094,775.592c-0.442,0.926-0.992,1.816-1.648,2.674l-0.804-0.422c0.67-0.871,1.213-1.75,1.628-2.635L306.094,775.592z">
        </path>
        <path fill="#91979C" stroke="#91979C" stroke-miterlimit="10" d="M314.518,787.293c0,1.582-0.671,2.742-2.011,3.479l-0.423-0.703c0.966-0.645,1.475-1.461,1.528-2.453l-0.302,0.02c-0.295,0-0.543-0.086-0.743-0.262c-0.188-0.174-0.282-0.414-0.282-0.723c0-0.35,0.094-0.596,0.282-0.744c0.174-0.188,0.422-0.281,0.743-0.281C314.115,785.625,314.518,786.182,314.518,787.293z">
        </path>
        <path fill="#91979C" stroke="#91979C" stroke-miterlimit="10" d="M339.488,780.479c-0.791,0.428-1.676,0.857-2.653,1.285v5.973c0,1.152-0.523,1.729-1.568,1.729h-1.729l-0.241-1.045c0.75,0.053,1.28,0.08,1.588,0.08c0.59,0,0.885-0.35,0.885-1.045v-5.229c-1.045,0.402-1.99,0.738-2.835,1.006l-0.301-1.146c1.125-0.295,2.171-0.623,3.136-0.984v-4.967h-2.895v-1.066h2.895v-3.738h1.066v3.738h2.593v1.066h-2.593v4.523c1.018-0.455,1.902-0.891,2.653-1.307V780.479z M349.924,775.391l0.16,1.025l-6.354,1.186c0.134,1.367,0.309,2.527,0.523,3.479c0.214,0.926,0.422,1.717,0.623,2.373c1.461-1.354,2.681-2.982,3.659-4.885l0.945,0.502c-1.14,2.199-2.541,4.027-4.202,5.488c0.254,0.725,0.543,1.342,0.864,1.85c0.764,1.221,1.468,1.836,2.111,1.85c0.509-0.08,1.025-1.373,1.548-3.879l0.965,0.623c-0.295,1.166-0.616,2.15-0.965,2.955c-0.442,0.965-0.938,1.447-1.488,1.447c-0.897,0-1.789-0.637-2.674-1.91c-0.442-0.629-0.844-1.381-1.206-2.252c-1.367,1.047-2.875,1.871-4.523,2.473l-0.604-0.965c1.782-0.629,3.357-1.486,4.725-2.572c-0.295-0.898-0.522-1.676-0.684-2.332c-0.295-1.1-0.522-2.447-0.684-4.043l-2.835,0.523l-0.141-1.045l2.875-0.523c-0.147-1.729-0.221-3.559-0.221-5.488h1.086c0,2.01,0.066,3.773,0.2,5.287L349.924,775.391z M346.425,771.229c0.751,0.912,1.407,1.83,1.971,2.754l-0.985,0.484c-0.616-1.033-1.267-1.951-1.95-2.756L346.425,771.229z">
        </path>
        <path fill="#91979C" stroke="#91979C" stroke-miterlimit="10" d="M363.535,773.803h-7.158v-1.045h15.421v1.045h-7.178v13.691h8.043v1.086h-17.331v-1.086h8.203V773.803z">
        </path>
        <path fill="#91979C" stroke="#91979C" stroke-miterlimit="10" d="M379.559,777.824c-0.75,0.992-1.541,1.916-2.372,2.773l-0.342-1.145c2.225-2.414,3.847-5.148,4.865-8.205l1.006,0.463c-0.55,1.623-1.24,3.117-2.071,4.484v13.41h-1.086V777.824z M385.61,775.291c-0.911,1.943-1.997,3.666-3.257,5.166l-0.764-0.904c1.876-2.197,3.364-5,4.463-8.404l1.086,0.262c-0.255,0.791-0.603,1.729-1.045,2.814h9.007v1.066h-7.017v3.658h6.092v1.086h-6.092v3.719h6.253v1.066h-6.253v4.785h-1.086v-14.314H385.61z">
        </path>
        <path fill="#91979C" stroke="#91979C" stroke-miterlimit="10" d="M407.204,783.775c0.857,0.871,1.636,1.775,2.332,2.713c2.399-1.018,4.263-2.525,5.59-4.523h-6.213c-1.796,0.859-3.934,1.488-6.413,1.891l-0.644-0.965c4.355-0.443,7.606-1.797,9.751-4.063l0.925,0.504c-0.576,0.615-1.206,1.158-1.89,1.629h5.871v0.863c-2.829,4.785-8.13,7.258-15.904,7.42l-0.442-1.066c3.244-0.039,6.025-0.469,8.344-1.287c-0.737-0.99-1.494-1.869-2.271-2.633L407.204,783.775z M409.275,771.752c-0.482,0.549-0.952,1.006-1.407,1.367h6.052v0.885c-2.172,3.859-6.2,6.025-12.084,6.494l-0.462-1.006c1.93-0.121,3.639-0.422,5.127-0.904c-0.657-0.844-1.361-1.588-2.111-2.232l0.944-0.463c0.805,0.738,1.535,1.516,2.192,2.334c2.238-0.926,3.947-2.293,5.127-4.102h-6.213c-1.568,0.951-3.425,1.654-5.569,2.109l-0.644-0.965c3.619-0.723,6.313-2.063,8.083-4.021L409.275,771.752z">
        </path>
        <path fill="#91979C" stroke="#91979C" stroke-miterlimit="10" d="M430.125,777.984c2.091-1.246,4.088-2.701,5.991-4.363h-13.471v-1.045h14.959v1.045c-1.837,1.676-3.975,3.311-6.414,4.906v9.309c0,1.072-0.563,1.609-1.689,1.609c-0.938,0-1.997-0.027-3.176-0.08l-0.302-1.066c0.965,0.08,2.023,0.121,3.177,0.121c0.616,0,0.925-0.27,0.925-0.805V777.984z">
        </path>
        <path fill="#91979C" stroke="#91979C" stroke-miterlimit="10" d="M443.455,779.713h17.994v1.086h-17.994V779.713z">
        </path>
        <path fill="#91979C" stroke="#91979C" stroke-miterlimit="10" d="M475.08,771.27c1.688,2.828,4.61,5.32,8.766,7.479l-0.643,0.965c-3.86-1.982-6.735-4.449-8.626-7.398c-2.278,3.23-5.154,5.736-8.625,7.52l-0.644-0.984c3.793-1.943,6.715-4.471,8.766-7.58H475.08z M474.034,777.16h1.086v12.426h-1.086V777.16z">
        </path>
        <path fill="#91979C" stroke="#91979C" stroke-miterlimit="10" d="M490.421,775.691c-0.617,0.684-1.314,1.334-2.092,1.951l-0.703-0.844c1.916-1.475,3.451-3.357,4.604-5.65l1.065,0.262c-0.51,1.031-1.106,2.018-1.79,2.955v6.775h-1.085V775.691z M492.652,782.348h8.042v5.107c0,0.563,0.269,0.844,0.805,0.844h1.99c0.362,0,0.644-0.08,0.845-0.242c0.268-0.201,0.469-1.119,0.603-2.754l1.025,0.342c-0.16,1.502-0.361,2.494-0.603,2.977c-0.309,0.455-0.872,0.684-1.689,0.684h-2.433c-1.086,0-1.628-0.537-1.628-1.609v-4.303h-5.871v1.549c-0.081,2.561-1.823,4.141-5.228,4.744l-0.644-0.924c3.189-0.523,4.785-1.844,4.785-3.961V782.348z M493.195,775.934h5.609v-2.473c-1.435,0.135-2.814,0.201-4.142,0.201l-0.342-0.945c3.713-0.014,6.775-0.449,9.188-1.307l0.502,0.904c-1.22,0.455-2.587,0.791-4.102,1.006v2.613h5.489v1.045h-5.489v2.615h4.726v1.025H494.16v-1.025h4.645v-2.615h-5.609V775.934z">
        </path>
        <path fill="#91979C" stroke="#91979C" stroke-miterlimit="10" d="M509.682,777.521h4.082v9.049c0.804-0.67,1.588-1.389,2.352-2.152l0.282,1.146c-1.153,1.152-2.353,2.158-3.6,3.016l-0.422-1.006c0.241-0.227,0.362-0.455,0.362-0.684v-8.303h-3.057V777.521z M511.913,771.49c1.313,1.02,2.446,2.078,3.398,3.176l-0.744,0.766c-0.898-1.072-2.037-2.145-3.418-3.217L511.913,771.49z M522.268,773.4h-5.77v-1.066h11.179v1.066h-4.303v6.012h4.041v1.025h-4.041v7.398h4.725v1.066h-12.204v-1.066h2.131v-10.877h1.065v10.877h3.177V773.4z">
        </path>
      </g>
    </g>
    
    <g>
      <g>
        <path fill="#91979C" stroke="#91979C" stroke-miterlimit="10" d="M110.467,668.59h6.313c1.313,0,2.345,0.316,3.096,0.945c0.765,0.643,1.146,1.527,1.146,2.654c0,0.818-0.234,1.521-0.704,2.111c-0.456,0.549-1.052,0.938-1.789,1.166c0.938,0.16,1.688,0.543,2.252,1.146c0.549,0.629,0.824,1.42,0.824,2.371c0,1.355-0.489,2.381-1.468,3.076c-0.858,0.59-1.997,0.885-3.418,0.885h-6.253V668.59z M111.693,669.656v5.348h4.825c1.019,0,1.816-0.229,2.393-0.684c0.59-0.469,0.885-1.139,0.885-2.01c0-0.885-0.288-1.555-0.864-2.012c-0.563-0.428-1.361-0.643-2.393-0.643H111.693z M111.693,676.049v5.832h4.986c1.059,0,1.916-0.215,2.573-0.645c0.751-0.521,1.126-1.279,1.126-2.271c0-0.979-0.349-1.715-1.046-2.211c-0.643-0.471-1.534-0.705-2.674-0.705H111.693z">
        </path>
        <path fill="#91979C" stroke="#91979C" stroke-miterlimit="10" d="M127.798,681.217c0.201,0.174,0.302,0.416,0.302,0.725c0,0.268-0.107,0.508-0.322,0.723c-0.214,0.188-0.449,0.281-0.703,0.281c-0.295,0-0.536-0.1-0.724-0.301c-0.201-0.201-0.302-0.436-0.302-0.703c0-0.309,0.101-0.551,0.302-0.725c0.174-0.188,0.415-0.281,0.724-0.281C127.369,680.936,127.61,681.029,127.798,681.217z">
        </path>
        <path fill="#91979C" stroke="#91979C" stroke-miterlimit="10" d="M141.953,677.115c-1.22,0.416-2.507,0.797-3.86,1.146v4.623c0,1.166-0.557,1.75-1.669,1.75h-2.212l-0.241-1.025c0.724,0.041,1.414,0.061,2.071,0.061c0.644,0,0.965-0.355,0.965-1.066v-4.08c-1.247,0.281-2.641,0.549-4.182,0.803l-0.161-1.064c1.528-0.242,2.976-0.523,4.343-0.846v-4.201h-4.303v-1.045h4.303v-3.158c-1.14,0.242-2.313,0.443-3.519,0.604l-0.222-1.045c2.869-0.322,5.422-0.918,7.661-1.789l0.382,1.025c-1.019,0.361-2.091,0.684-3.217,0.965v3.398h5.268c-0.135-1.596-0.201-3.453-0.201-5.57h1.086c0,2.105,0.061,3.961,0.181,5.57h6.333v1.045h-6.253c0.147,1.555,0.349,2.848,0.604,3.881c0.147,0.602,0.309,1.166,0.482,1.688c1.072-1.246,1.997-2.674,2.774-4.281l0.945,0.502c-0.925,1.93-2.03,3.572-3.317,4.926c0.281,0.738,0.616,1.408,1.005,2.012c0.684,1.004,1.247,1.508,1.689,1.508c0.482-0.027,0.897-1.227,1.246-3.6l0.966,0.523c-0.483,2.828-1.167,4.242-2.052,4.242c-0.777,0-1.621-0.611-2.533-1.83c-0.415-0.59-0.797-1.273-1.146-2.051c-1.488,1.381-3.19,2.445-5.107,3.197l-0.603-0.926c2.023-0.764,3.786-1.883,5.287-3.357c-0.254-0.697-0.482-1.475-0.684-2.332c-0.268-1.127-0.476-2.494-0.623-4.102h-5.348v3.941c1.367-0.363,2.653-0.744,3.86-1.146V677.115z M146.456,666.861c1.448,0.979,2.675,1.984,3.68,3.016l-0.764,0.764c-0.898-0.951-2.118-1.977-3.659-3.076L146.456,666.861z">
        </path>
        <path fill="#91979C" stroke="#91979C" stroke-miterlimit="10" d="M154.961,667.867h17.834v1.064h-2.734v13.953c0,1.248-0.616,1.871-1.85,1.871h-3.317l-0.241-1.047c1.474,0.055,2.533,0.082,3.177,0.082c0.75,0,1.126-0.396,1.126-1.188v-13.672h-13.994V667.867z M164.913,672.35v7.117h-6.474v1.83h-1.046v-8.947H164.913z M158.439,678.463h5.429v-5.127h-5.429V678.463z">
        </path>
        <path fill="#91979C" stroke="#91979C" stroke-miterlimit="10" d="M178.263,681.578c0.321-0.201,0.482-0.496,0.482-0.885v-13.25h1.126v13.553c1.676-0.656,3.304-1.469,4.886-2.434l0.321,1.086c-1.983,1.139-4.142,2.125-6.474,2.955L178.263,681.578z M183.289,668.811c1.81,2.025,3.243,3.861,4.303,5.51l-0.905,0.643c-1.059-1.715-2.5-3.57-4.322-5.568L183.289,668.811z M183.993,684.775l-0.744-0.904c3.378-1.93,5.63-4.41,6.755-7.439c0.845-2.574,1.268-5.797,1.268-9.672h1.125c0,3.768-0.401,6.957-1.206,9.57c-0.134,0.402-0.241,0.697-0.321,0.885c1.648,2.119,3.069,4.291,4.263,6.516l-0.825,0.824c-1.032-2.051-2.332-4.143-3.9-6.273C189.12,680.855,186.981,683.02,183.993,684.775z">
        </path>
        <path fill="#91979C" stroke="#91979C" stroke-miterlimit="10" d="M201.706,672.17h6.574c1.019-0.846,1.957-1.756,2.814-2.734h-6.554c-1.314,1.486-2.896,2.828-4.745,4.02l-0.684-0.844c2.653-1.635,4.758-3.68,6.313-6.133l1.105,0.242c-0.281,0.469-0.671,1.039-1.166,1.709h7.117v0.844c-0.965,1.18-1.896,2.145-2.795,2.896h5.228v5.811h-4.624v4.463c0,0.697,0.321,1.045,0.965,1.045h3.357c0.43,0,0.73-0.127,0.905-0.381c0.228-0.336,0.382-1.301,0.462-2.896l1.025,0.322c-0.12,1.891-0.361,3.057-0.724,3.498c-0.309,0.35-0.791,0.523-1.447,0.523h-3.9c-1.153,0-1.729-0.631-1.729-1.891v-4.684h-1.327c-0.12,0.348-0.274,0.742-0.462,1.186c-1.153,2.346-3.673,4.248-7.56,5.709l-0.684-0.844c3.511-1.287,5.863-2.941,7.057-4.967c0.188-0.361,0.349-0.723,0.482-1.084h-5.006V672.17z M207.054,676.934c0.295-1.191,0.463-2.439,0.503-3.738h-4.766v3.738H207.054z M213.85,676.934v-3.738h-5.207c-0.041,1.434-0.194,2.68-0.463,3.738H213.85z">
        </path>
        <path fill="#91979C" stroke="#91979C" stroke-miterlimit="10" d="M230.96,678.402c-0.282,2.279-0.898,3.82-1.851,4.623c-1.045,1.006-3.33,1.629-6.855,1.871l-0.423-0.965c3.19-0.162,5.315-0.678,6.374-1.549c0.925-0.805,1.48-2.164,1.669-4.082L230.96,678.402z M232.789,671.023v1.467h5.529c0,1.422-0.147,2.32-0.442,2.695c-0.321,0.414-0.999,0.629-2.03,0.643c-0.201,0-0.503-0.014-0.905-0.039l-0.201-0.826c0.349,0.041,0.67,0.061,0.965,0.061c0.697,0,1.133-0.119,1.308-0.361c0.134-0.201,0.214-0.629,0.241-1.287h-4.464v2.393h-1.045v-2.393h-3.72c-0.241,0.482-0.563,0.926-0.966,1.328c-0.925,0.844-2.452,1.508-4.584,1.99l-0.563-0.865c2.037-0.441,3.491-1.039,4.362-1.789c0.201-0.201,0.383-0.422,0.543-0.664h-4.202l0.664-3.236h4.222v-1.529h-4.685v-0.924h4.685v-1.146h1.046v1.146h3.197v-1.146h1.045v1.146h4.584v3.338H232.789z M224.164,671.023l-0.362,1.467h3.438c0.147-0.441,0.234-0.932,0.261-1.467H224.164z M236.71,676.451v5.389h-1.086v-4.402H225.29v4.402h-1.066v-5.389H236.71z M228.547,671.023c-0.027,0.549-0.094,1.039-0.201,1.467h3.398v-1.467H228.547z M228.547,668.609v1.529h3.197v-1.529H228.547z M231.462,681.619c2.641,0.67,5.007,1.48,7.098,2.432l-0.604,0.906c-2.332-1.061-4.691-1.898-7.077-2.514L231.462,681.619z M232.789,668.609v1.529h3.559v-1.529H232.789z">
        </path>
        <path fill="#91979C" stroke="#91979C" stroke-miterlimit="10" d="M250.281,671.947c-0.791,1.02-1.549,1.844-2.272,2.475c0.992,1.674,1.488,3.725,1.488,6.152c0,1.729-0.241,2.934-0.724,3.617c-0.376,0.416-0.912,0.625-1.608,0.625c-0.657,0-1.308-0.014-1.951-0.041l-0.301-1.006c0.831,0.055,1.494,0.08,1.99,0.08c0.522,0,0.904-0.174,1.146-0.521c0.255-0.51,0.383-1.455,0.383-2.836c0-0.736-0.054-1.447-0.161-2.131c-1.153,1.234-2.521,2.246-4.102,3.037l-0.623-0.885c1.916-0.926,3.418-2.031,4.503-3.318c-0.2-0.791-0.482-1.494-0.844-2.111c-0.938,0.697-2.058,1.361-3.358,1.99l-0.563-0.904c1.273-0.535,2.393-1.186,3.357-1.949c-0.644-0.846-1.435-1.535-2.372-2.072l0.824-0.684c0.885,0.563,1.662,1.26,2.332,2.092c0.711-0.645,1.354-1.367,1.931-2.172L250.281,671.947z M243.505,668.209h4.866v-1.75h1.086v1.75h5.71v-1.75h1.086v1.75h4.865v1.025h-4.865v1.568h-1.086v-1.568h-5.71v1.568h-1.086v-1.568h-4.866V668.209z M250.703,675.004h4.263c0.04-1.488,0.061-2.641,0.061-3.459h1.085c0,0.537-0.026,1.689-0.08,3.459h4.785v1.045h-4.624c0.764,3.445,2.466,6.092,5.106,7.943l-0.724,0.803c-2.467-1.836-4.081-4.229-4.846-7.178c-0.71,2.869-2.285,5.295-4.725,7.279l-0.704-0.805c2.748-2.266,4.283-4.945,4.604-8.043h-4.202V675.004z M258.082,671.104c1.099,1.006,1.923,1.877,2.473,2.613l-0.804,0.584c-0.617-0.832-1.441-1.73-2.473-2.695L258.082,671.104z">
        </path>
        <path fill="#91979C" stroke="#91979C" stroke-miterlimit="10" d="M265.541,667.465h9.53v1.025h-1.709v11.682l2.011-0.523v1.086c-0.255,0.053-0.59,0.135-1.006,0.24c-0.482,0.135-0.817,0.223-1.005,0.262v3.76h-1.086v-3.498c-2.091,0.455-4.296,0.857-6.614,1.207l-0.262-1.066l1.789-0.24V668.49h-1.648V667.465z M268.275,671.969h4.001v-3.479h-4.001V671.969z M268.275,676.371h4.001v-3.398h-4.001V676.371z M268.275,681.217c1.327-0.242,2.661-0.502,4.001-0.785v-3.076h-4.001V681.217z M275.977,669.576h-0.725v-1.047h7.479v1.006c-0.442,3.793-1.381,7.045-2.814,9.752c1.019,1.756,2.258,3.344,3.72,4.764l-0.724,0.846c-1.395-1.408-2.588-2.943-3.579-4.605c-1.126,1.838-2.486,3.379-4.082,4.625l-0.703-0.844c1.675-1.328,3.069-2.949,4.182-4.865C277.176,676.258,276.258,673.047,275.977,669.576z M276.961,669.576c0.269,3.137,1.046,5.998,2.333,8.584c1.219-2.426,2.03-5.287,2.433-8.584H276.961z">
        </path>
        <path fill="#91979C" stroke="#91979C" stroke-miterlimit="10" d="M294.232,667.443c-0.791,1.328-1.616,2.42-2.474,3.277c0.147,0.295,0.288,0.611,0.423,0.945c0.576,1.623,0.891,3.9,0.944,6.836c0,3.123-0.402,5.006-1.206,5.65c-0.456,0.348-1.126,0.523-2.011,0.523l-1.246-0.021l-0.322-1.025c0.469,0.041,0.911,0.061,1.327,0.061c0.75,0,1.267-0.121,1.548-0.361c0.576-0.537,0.865-2.158,0.865-4.865c-0.027-1.166-0.074-2.125-0.142-2.875c-1.019,1.568-2.278,2.908-3.779,4.02l-0.623-0.943c1.796-1.26,3.196-2.775,4.202-4.545c-0.148-0.764-0.315-1.414-0.503-1.949c-0.135-0.322-0.234-0.551-0.302-0.684c-0.737,0.629-1.648,1.279-2.734,1.949l-0.604-0.945c1.072-0.535,2.018-1.191,2.835-1.971c-0.59-1.018-1.34-1.936-2.252-2.754l0.865-0.664c0.885,0.885,1.602,1.77,2.151,2.654c0.831-0.871,1.541-1.83,2.131-2.875L294.232,667.443z M294.734,668.992h2.393v-2.352h1.065v2.352h3.56v-2.352h1.085v2.352h2.493v1.006h-2.493v2.855h2.936v1.025h-11.54v-1.025h2.895v-2.855h-2.393V668.992z M304.445,675.688v9.088h-1.065v-1.045h-6.735v1.025h-1.065v-9.068H304.445z M296.645,679.246h6.735v-2.574h-6.735V679.246z M296.645,682.725h6.735v-2.514h-6.735V682.725z M298.192,672.854h3.56v-2.855h-3.56V672.854z">
        </path>
        <path fill="#91979C" stroke="#91979C" stroke-miterlimit="10" d="M309.793,667.504h7.459v1.047h-1.105v11.178c0.482-0.188,0.844-0.322,1.085-0.402v1.066l-1.085,0.381v4.244h-1.006v-3.922c-1.568,0.482-3.345,0.939-5.328,1.367l-0.261-1.025l1.286-0.24v-12.646h-1.045V667.504z M311.863,671.746h3.277v-3.195h-3.277V671.746z M311.863,675.908h3.277v-3.156h-3.277V675.908z M311.863,680.975c1.1-0.254,2.191-0.555,3.277-0.904v-3.156h-3.277V680.975z M317.051,676.531h10.717v0.967h-6.635l-0.885,2.051h6.293c-0.121,2.479-0.389,3.98-0.805,4.502c-0.429,0.471-1.246,0.705-2.452,0.705c-0.778,0-1.549-0.033-2.313-0.102l-0.362-0.945c1.032,0.068,1.85,0.102,2.453,0.102c1.005,0,1.629-0.182,1.87-0.543c0.228-0.375,0.395-1.301,0.502-2.775h-6.554l1.186-2.994h-3.016V676.531z M318.097,668.289h3.9v-1.709h1.025v1.709h3.9v6.674h-8.826V668.289z M319.082,671.225h2.915v-2.012h-2.915V671.225z M321.997,674.059v-1.949h-2.915v1.949H321.997z M323.022,669.213v2.012h2.915v-2.012H323.022z M325.938,674.059v-1.949h-2.915v1.949H325.938z">
        </path>
        <path fill="#91979C" stroke="#91979C" stroke-miterlimit="10" d="M349.582,671.445l0.161,1.066l-10.113,1.869v7.701c0,0.83,0.368,1.246,1.105,1.246h5.188c0.696,0,1.213-0.154,1.548-0.463c0.309-0.348,0.51-1.5,0.604-3.459l1.045,0.342c-0.147,2.186-0.415,3.512-0.804,3.982c-0.402,0.441-1.14,0.662-2.212,0.662h-5.63c-1.286,0-1.93-0.717-1.93-2.15v-7.66l-6.675,1.227l-0.161-1.066l6.836-1.266v-6.635h1.086v6.434L349.582,671.445z">
        </path>
        <path fill="#91979C" stroke="#91979C" stroke-miterlimit="10" d="M354.468,673.797h7.398c0.295-1.541,0.489-3.203,0.583-4.986h-7.438v-1.045h15.763v1.045h-7.218c-0.121,1.945-0.309,3.607-0.563,4.986h8.385v1.066h-7.601c1.394,3.994,4.122,7.057,8.184,9.188l-0.664,0.885c-4.289-2.277-7.138-5.615-8.545-10.012c-0.349,1.555-0.824,2.869-1.428,3.941c-1.354,2.357-3.632,4.383-6.836,6.07l-0.703-0.885c3.056-1.58,5.221-3.438,6.494-5.568c0.536-0.926,0.991-2.131,1.367-3.619h-7.178V673.797z">
        </path>
        <path fill="#91979C" stroke="#91979C" stroke-miterlimit="10" d="M382.917,670.158v13.512h-1.046v-1.227h-4.061v1.789h-1.046v-14.074h1.81c0.415-1.139,0.717-2.338,0.904-3.6l1.106,0.143c-0.215,1.232-0.536,2.385-0.965,3.457H382.917z M377.811,675.688h4.061v-4.484h-4.061V675.688z M377.811,681.438h4.061v-4.766h-4.061V681.438z M393.332,670.178c0,6.447-0.094,10.463-0.281,12.045c-0.201,1.607-1.133,2.412-2.795,2.412l-1.971-0.041l-0.262-1.004c0.805,0.039,1.509,0.061,2.111,0.061c1.086,0,1.709-0.598,1.87-1.791c0.147-1.098,0.241-4.631,0.281-10.596h-5.931c-0.577,1.328-1.254,2.5-2.031,3.52l-0.644-0.846c1.448-2.01,2.434-4.477,2.956-7.398l1.065,0.121c-0.255,1.314-0.563,2.486-0.925,3.518H393.332z M386.335,674.703c1.541,1.701,2.707,3.176,3.498,4.422l-0.864,0.623c-0.804-1.299-1.978-2.793-3.519-4.482L386.335,674.703z">
        </path>
        <path fill="#91979C" stroke="#91979C" stroke-miterlimit="10" d="M407.587,666.781c1.957,2.439,4.818,4.463,8.585,6.072l-0.604,0.904c-3.485-1.488-6.293-3.465-8.424-5.932c-2.359,2.492-5.181,4.484-8.465,5.971l-0.604-0.885c3.485-1.58,6.36-3.625,8.626-6.131H407.587z M401.917,672.289h10.455v0.986h-4.685v3.256h7.298v1.025h-7.298v5.73h2.513c0.737-1.313,1.388-2.787,1.95-4.422l0.985,0.381c-0.55,1.555-1.159,2.902-1.829,4.041h4.383v1.047h-17.11v-1.047h4.363c-0.482-1.406-1.072-2.707-1.77-3.9l0.985-0.361c0.696,1.18,1.313,2.6,1.85,4.262h2.594v-5.73h-7.318v-1.025h7.318v-3.256h-4.685V672.289z">
        </path>
        <path fill="#91979C" stroke="#91979C" stroke-miterlimit="10" d="M427.712,666.619h1.086v2.674h6.695v1.047h-6.695v3.357h9.31v1.066h-9.31v2.17c2.252,1.059,4.691,2.373,7.318,3.941l-0.623,0.924c-2.681-1.66-4.912-2.922-6.695-3.779v6.877h-1.086v-10.133h-7.358v-1.066h7.358V666.619z">
        </path>
        <path fill="#91979C" stroke="#91979C" stroke-miterlimit="10" d="M451.759,666.58c2.56,2.922,5.516,5.227,8.866,6.916l-0.583,1.045c-3.418-1.822-6.313-4.148-8.686-6.977c-2.212,2.695-5.134,5.027-8.766,6.998l-0.563-1.047c3.579-1.85,6.555-4.162,8.927-6.936H451.759z M443.354,676.895h16.045v1.086h-9.551c-1.019,2.023-2.278,3.826-3.78,5.408c3.673-0.201,7.064-0.529,10.174-0.986c-0.857-1.152-1.676-2.164-2.453-3.035l0.845-0.523c1.85,2.092,3.25,3.9,4.202,5.43l-0.885,0.643c-0.361-0.604-0.744-1.18-1.146-1.729c-2.976,0.496-6.984,0.91-12.023,1.246l-0.302-0.965c0.255-0.08,0.442-0.182,0.563-0.303c1.488-1.66,2.688-3.391,3.6-5.186h-5.288V676.895z M446.511,672.854h9.752v1.045h-9.752V672.854z">
        </path>
        <path fill="#91979C" stroke="#91979C" stroke-miterlimit="10" d="M474.216,676.553c-0.281,2.922-0.912,4.898-1.89,5.93c-1.1,1.273-3.438,2.072-7.018,2.393l-0.442-0.984c3.311-0.229,5.496-0.912,6.555-2.051c0.965-1.086,1.528-2.889,1.689-5.408L474.216,676.553z M479.846,673.918v7.139h-1.106v-6.133h-10.374v6.434h-1.086v-7.439H479.846z M468.325,667.385h10.273v4.684h-10.273V667.385z M477.513,671.043v-2.633h-8.122v2.633H477.513z M474.819,681.197c2.586,0.83,4.919,1.822,6.996,2.975l-0.603,0.926c-2.266-1.301-4.591-2.318-6.977-3.057L474.819,681.197z">
        </path>
        <path fill="#91979C" stroke="#91979C" stroke-miterlimit="10" d="M489.014,677.92c-0.094,2.828-0.55,5.166-1.367,7.016l-0.845-0.744c0.817-1.902,1.233-4.289,1.247-7.156v-9.51h5.589v15.641c0,1.127-0.522,1.689-1.568,1.689h-1.608l-0.261-0.965c0.75,0.027,1.267,0.041,1.548,0.041c0.576,0,0.864-0.377,0.864-1.127v-4.885H489.014z M492.612,672.25v-3.699h-3.579v3.699H492.612z M489.033,673.234v3.66h3.579v-3.66H489.033z M496.573,675.93v8.986h-1.025v-17.391h7.922c0,2.371-0.121,3.953-0.362,4.744c-0.214,0.805-0.965,1.207-2.252,1.207h-1.548l-0.302-0.945h1.348c0.522,0,0.911-0.041,1.166-0.121c0.254-0.08,0.448-0.281,0.583-0.604c0.174-0.549,0.268-1.641,0.281-3.277h-5.811v6.414h6.896v0.926c-0.43,2.184-1.14,4.014-2.132,5.488c0.966,0.965,2.118,1.822,3.459,2.574l-0.523,0.904c-1.421-0.818-2.601-1.703-3.538-2.654c-0.898,1.1-1.984,1.99-3.257,2.674l-0.563-0.863c1.247-0.711,2.278-1.568,3.097-2.574c-1.367-1.609-2.292-3.438-2.775-5.488H496.573z M498.182,675.93c0.442,1.729,1.253,3.283,2.433,4.664c0.858-1.328,1.481-2.883,1.87-4.664H498.182z">
        </path>
        <path fill="#91979C" stroke="#91979C" stroke-miterlimit="10" d="M515.875,666.66c-0.229,0.537-0.517,1.092-0.865,1.668h8.907v0.885c-1.341,1.557-2.989,2.869-4.946,3.941c2.333,1.045,4.96,1.729,7.882,2.051l-0.482,1.025c-3.204-0.375-6.065-1.199-8.585-2.473c-2.48,1.139-5.389,1.971-8.727,2.492l-0.503-1.004c3.083-0.43,5.777-1.133,8.083-2.111c-1.273-0.764-2.439-1.615-3.498-2.555c-0.818,0.764-1.723,1.436-2.715,2.012l-0.663-0.865c2.466-1.408,4.135-3.15,5.006-5.227L515.875,666.66z M517.785,675.365c0,0.832-0.074,1.648-0.222,2.453h7.158c-0.041,3.324-0.35,5.301-0.926,5.932c-0.59,0.656-1.608,0.984-3.056,0.984c-0.604,0-1.341-0.02-2.212-0.059l-0.281-1.006c1.206,0.053,1.957,0.08,2.252,0.08c1.34-0.027,2.178-0.295,2.514-0.805c0.334-0.535,0.542-1.916,0.623-4.141h-6.313c-0.215,0.643-0.449,1.193-0.704,1.648c-1.072,1.809-3.431,3.297-7.077,4.463l-0.724-0.865c3.298-0.979,5.509-2.238,6.635-3.779c0.255-0.416,0.489-0.904,0.704-1.467h-6.213v-0.986h6.515c0.174-0.83,0.261-1.648,0.261-2.453H517.785z M522.369,669.354h-8.103c-0.188,0.215-0.322,0.377-0.402,0.482c1.166,1.061,2.479,1.979,3.94,2.756C519.574,671.693,521.096,670.615,522.369,669.354z">
        </path>
      </g>
    </g>
        
    <g>
      <g>
        <path fill="#91979C" stroke="#91979C" stroke-miterlimit="10" d="M114.749,563.898h1.448l5.75,14.355h-1.347l-1.669-4.281h-6.917l-1.669,4.281h-1.347L114.749,563.898z M112.417,572.926h6.112l-3.016-7.699h-0.061L112.417,572.926z">
        </path>
        <path fill="#91979C" stroke="#91979C" stroke-miterlimit="10" d="M127.275,576.525c0.201,0.174,0.302,0.416,0.302,0.725c0,0.268-0.107,0.508-0.322,0.723c-0.214,0.188-0.449,0.281-0.703,0.281c-0.295,0-0.536-0.1-0.724-0.301c-0.201-0.201-0.302-0.436-0.302-0.703c0-0.309,0.101-0.551,0.302-0.725c0.174-0.188,0.415-0.281,0.724-0.281C126.847,576.244,127.088,576.338,127.275,576.525z">
        </path>
        <path fill="#91979C" stroke="#91979C" stroke-miterlimit="10" d="M141.431,572.424c-1.22,0.416-2.507,0.797-3.86,1.146v4.623c0,1.166-0.557,1.75-1.669,1.75h-2.212l-0.241-1.025c0.724,0.041,1.414,0.061,2.071,0.061c0.644,0,0.965-0.355,0.965-1.066v-4.08c-1.247,0.281-2.641,0.549-4.182,0.803l-0.161-1.064c1.528-0.242,2.976-0.523,4.343-0.846v-4.201h-4.303v-1.045h4.303v-3.158c-1.14,0.242-2.313,0.443-3.519,0.604l-0.222-1.045c2.869-0.322,5.422-0.918,7.661-1.789l0.382,1.025c-1.019,0.361-2.091,0.684-3.217,0.965v3.398h5.268c-0.135-1.596-0.201-3.453-0.201-5.57h1.086c0,2.105,0.061,3.961,0.181,5.57h6.333v1.045h-6.253c0.147,1.555,0.349,2.848,0.604,3.881c0.147,0.602,0.309,1.166,0.482,1.688c1.072-1.246,1.997-2.674,2.774-4.281l0.945,0.502c-0.925,1.93-2.03,3.572-3.317,4.926c0.281,0.738,0.616,1.408,1.005,2.012c0.684,1.004,1.247,1.508,1.689,1.508c0.482-0.027,0.897-1.227,1.246-3.6l0.966,0.523c-0.483,2.828-1.167,4.242-2.052,4.242c-0.777,0-1.621-0.611-2.533-1.83c-0.415-0.59-0.797-1.273-1.146-2.051c-1.488,1.381-3.19,2.445-5.107,3.197l-0.603-0.926c2.023-0.764,3.786-1.883,5.287-3.357c-0.254-0.697-0.482-1.475-0.684-2.332c-0.268-1.127-0.476-2.494-0.623-4.102h-5.348v3.941c1.367-0.363,2.653-0.744,3.86-1.146V572.424z M145.934,562.17c1.448,0.979,2.675,1.984,3.68,3.016l-0.764,0.764c-0.898-0.951-2.118-1.977-3.659-3.076L145.934,562.17z">
        </path>
        <path fill="#91979C" stroke="#91979C" stroke-miterlimit="10" d="M161.234,565.467v13.512h-1.046v-1.227h-4.061v1.789h-1.046v-14.074h1.81c0.415-1.139,0.717-2.338,0.904-3.6l1.106,0.143c-0.215,1.232-0.536,2.385-0.965,3.457H161.234z M156.128,570.996h4.061v-4.484h-4.061V570.996z M156.128,576.746h4.061v-4.766h-4.061V576.746z M171.649,565.486c0,6.447-0.094,10.463-0.281,12.045c-0.201,1.607-1.133,2.412-2.795,2.412l-1.971-0.041l-0.262-1.004c0.805,0.039,1.509,0.061,2.111,0.061c1.086,0,1.709-0.598,1.87-1.791c0.147-1.098,0.241-4.631,0.281-10.596h-5.931c-0.577,1.328-1.254,2.5-2.031,3.52l-0.644-0.846c1.448-2.01,2.434-4.477,2.956-7.398l1.065,0.121c-0.255,1.314-0.563,2.486-0.925,3.518H171.649z M164.652,570.012c1.541,1.701,2.707,3.176,3.498,4.422l-0.864,0.623c-0.804-1.299-1.978-2.793-3.519-4.482L164.652,570.012z">
        </path>
        <path fill="#91979C" stroke="#91979C" stroke-miterlimit="10" d="M176.373,562.813h7.881v1.047h-1.166v11.379l0.704-0.24c0.295-0.082,0.529-0.154,0.704-0.223v1.066c-0.322,0.107-0.791,0.254-1.408,0.441v3.961h-1.065v-3.658c-1.608,0.441-3.445,0.857-5.509,1.246l-0.262-1.045l1.468-0.242v-12.686h-1.347V562.813z M178.745,567.115h3.277v-3.256h-3.277V567.115z M178.745,571.357h3.277v-3.236h-3.277V571.357z M178.745,576.344c1.193-0.254,2.285-0.521,3.277-0.803v-3.178h-3.277V576.344z M188.215,574.152c-0.911,2.307-2.023,4.33-3.337,6.072l-0.885-0.643c1.273-1.662,2.358-3.627,3.257-5.893L188.215,574.152z M185.34,563.094h8.284v9.209h-8.284V563.094z M192.558,571.258v-7.117h-6.152v7.117H192.558z M191.513,573.631c1.447,2.291,2.56,4.295,3.338,6.012l-0.905,0.643c-0.857-1.957-1.957-3.994-3.297-6.111L191.513,573.631z">
        </path>
        <path fill="#91979C" stroke="#91979C" stroke-miterlimit="10" d="M198.569,567.559h2.574v-5.268h1.085v5.268h2.675v1.064h-2.675v7.459c1.046-0.307,1.964-0.615,2.755-0.924v1.105c-1.984,0.752-4.108,1.367-6.374,1.85l-0.281-1.125c0.925-0.162,1.863-0.363,2.815-0.604v-7.762h-2.574V567.559z M205.948,569.99v-1.004c2.654-1.555,5.013-3.17,7.077-4.846h-6.855v-1.025h8.424v0.984c-2.104,1.797-4.356,3.438-6.756,4.926h8.063c-0.107,4.572-0.309,7.52-0.603,8.848c-0.322,1.354-1.207,2.043-2.654,2.07c-0.47,0-1.105-0.014-1.91-0.041l-0.302-1.064c0.912,0.053,1.596,0.08,2.051,0.08c0.858-0.041,1.435-0.449,1.729-1.227c0.268-0.711,0.462-3.277,0.583-7.701h-1.749c-0.482,2.494-1.2,4.457-2.151,5.893c-1.032,1.5-2.601,2.854-4.705,4.061l-0.684-0.844c1.983-1.113,3.451-2.326,4.403-3.641c0.938-1.34,1.635-3.162,2.091-5.469h-1.869c-0.751,2.547-2.045,4.531-3.881,5.951l-0.704-0.844c1.689-1.313,2.868-3.016,3.539-5.107H205.948z">
        </path>
        <path fill="#91979C" stroke="#91979C" stroke-miterlimit="10" d="M222.897,568.422c-0.737,1.127-1.488,2.119-2.252,2.977l-0.362-1.146c2.064-2.547,3.546-5.395,4.443-8.545l1.025,0.482c-0.455,1.502-1.052,2.963-1.789,4.383v13.693h-1.065V568.422z M225.873,564.703h12.988v1.045h-12.988V564.703z M237.454,573.469v6.736h-1.065V579.1h-7.902v1.105h-1.085v-6.736H237.454z M227.743,567.68h9.369v0.984h-9.369V567.68z M227.743,570.514h9.369v1.006h-9.369V570.514z M228.486,578.053h7.902v-3.559h-7.902V578.053z M232.187,561.828c0.442,0.844,0.784,1.629,1.025,2.352l-0.965,0.383c-0.322-0.898-0.691-1.715-1.106-2.453L232.187,561.828z">
        </path>
        <path fill="#91979C" stroke="#91979C" stroke-miterlimit="10" d="M245.737,573.549c-0.201,2.602-0.958,4.752-2.271,6.455l-0.805-0.744c1.327-1.822,2.011-4.148,2.051-6.977v-9.531h14.678v15.039c0,1.314-0.657,1.971-1.971,1.971h-2.313l-0.281-1.064c0.805,0.039,1.548,0.061,2.231,0.061c0.831,0,1.247-0.457,1.247-1.367v-3.842h-5.892v5.992h-1.085v-5.992H245.737z M245.817,568.664v3.699l-0.02,0.16h5.529v-3.859H245.817z M251.327,563.818h-5.51v3.84h5.51V563.818z M258.304,567.658v-3.84h-5.892v3.84H258.304z M258.304,572.523v-3.859h-5.892v3.859H258.304z">
        </path>
        <path fill="#91979C" stroke="#91979C" stroke-miterlimit="10" d="M272.317,562.834c-0.952,1.742-1.903,3.148-2.855,4.221c-1.112,1.234-2.466,2.393-4.062,3.479l-0.623-0.965c1.447-0.83,2.734-1.902,3.86-3.217c1.059-1.207,1.977-2.566,2.755-4.082L272.317,562.834z M267.652,571.016v-1.025h12.003c-0.054,2.453-0.174,4.443-0.361,5.973c-0.201,1.5-0.522,2.553-0.965,3.156c-0.442,0.59-1.16,0.904-2.151,0.945h-3.76l-0.282-1.047c1.662,0.027,2.835,0.041,3.519,0.041c1.113,0,1.851-0.49,2.212-1.467c0.349-1.006,0.583-3.197,0.704-6.576h-5.73c-0.482,2.307-1.153,4.115-2.011,5.43c-0.979,1.381-2.453,2.633-4.423,3.76l-0.684-0.865c1.796-0.992,3.163-2.104,4.102-3.338c0.885-1.246,1.527-2.908,1.93-4.986H267.652z M276.721,562.049c1.179,3.109,3.276,5.57,6.293,7.379l-0.744,0.844c-3.097-1.969-5.255-4.535-6.474-7.699L276.721,562.049z">
        </path>
        <path fill="#91979C" stroke="#91979C" stroke-miterlimit="10" d="M287.678,564.662h3.217v-2.795h1.065v2.795h2.936v1.006h-2.936v3.037h3.076v1.004h-2.854v2.996h2.312v0.984h-2.312v4.303c0.094,0.055,0.234,0.121,0.422,0.201c1.206,0.471,3.894,0.705,8.063,0.705c2.212-0.027,3.706-0.055,4.483-0.082l-0.201,1.107h-4.041c-4.799,0-7.801-0.295-9.007-0.885c-1.14-0.576-2.132-1.602-2.977-3.076c-0.295,1.541-0.717,2.975-1.267,4.303l-0.824-0.766c0.979-2.451,1.508-5.193,1.589-8.223l0.985,0.121c-0.041,1.072-0.121,2.092-0.241,3.057c0.589,1.232,1.246,2.17,1.97,2.814v-7.561h-4.001v-1.004h3.76v-3.037h-3.217V564.662z M301.691,575.701l-0.342-0.684c-0.777,1.059-1.669,1.949-2.674,2.674l-0.583-0.844c1.099-0.818,2.044-1.811,2.835-2.977c-0.255-0.75-0.489-1.695-0.704-2.834c-0.269-1.395-0.442-3.076-0.522-5.047h-2.774v8.504c0.656-0.348,1.468-0.857,2.433-1.527l0.181,0.945c-1.126,0.764-2.359,1.494-3.699,2.191l-0.262-0.986c0.241-0.119,0.362-0.348,0.362-0.684v-9.389h3.72c-0.027-0.67-0.04-1.723-0.04-3.156h1.045c0,1.461,0.014,2.514,0.04,3.156h4.162v0.945h-4.122c0.081,1.957,0.215,3.465,0.402,4.523c0.094,0.656,0.241,1.408,0.442,2.252c0.791-1.488,1.407-3.197,1.85-5.127l0.885,0.402c-0.536,2.359-1.32,4.377-2.353,6.051c0.067,0.215,0.161,0.457,0.282,0.725c0.442,0.885,0.844,1.326,1.206,1.326c0.281,0,0.583-0.797,0.904-2.393l0.845,0.504c-0.47,1.996-1.012,2.996-1.629,2.996C302.925,577.25,302.295,576.732,301.691,575.701z M302.516,561.969c0.898,0.898,1.555,1.635,1.971,2.211l-0.744,0.523c-0.482-0.656-1.14-1.42-1.971-2.293L302.516,561.969z">
        </path>
        <path fill="#91979C" stroke="#91979C" stroke-miterlimit="10" d="M318.177,561.768c0.229,0.523,0.456,1.152,0.684,1.891h8.104v1.045H309.29v-1.045h8.425c-0.215-0.631-0.456-1.193-0.724-1.689L318.177,561.768z M322.078,580.164l-0.262-0.984l1.629,0.039c0.911,0,1.367-0.361,1.367-1.086v-5.77h-13.351v7.842h-1.025v-8.826h15.401v6.977c0,1.205-0.684,1.809-2.051,1.809H322.078z M312.688,566.252h10.917v3.699h-10.917V566.252z M322.561,569.066v-1.93h-8.827v1.93H322.561z M314.316,573.871h7.681v3.881h-7.681V573.871z M320.992,576.887v-2.131h-5.69v2.131H320.992z">
        </path>
        <path fill="#91979C" stroke="#91979C" stroke-miterlimit="10" d="M335.006,577.912c0,1.582-0.671,2.742-2.011,3.479l-0.423-0.703c0.966-0.645,1.475-1.461,1.528-2.453l-0.302,0.02c-0.295,0-0.543-0.086-0.743-0.262c-0.188-0.174-0.282-0.414-0.282-0.723c0-0.35,0.094-0.596,0.282-0.744c0.174-0.188,0.422-0.281,0.743-0.281C334.604,576.244,335.006,576.801,335.006,577.912z">
        </path>
        <path fill="#91979C" stroke="#91979C" stroke-miterlimit="10" d="M364.118,566.352h1.086v2.031c-0.04,1.877-0.342,3.518-0.904,4.926h6.755v1.025h-7.237c-0.215,0.402-0.477,0.797-0.784,1.186c2.882,1.086,5.521,2.373,7.921,3.861l-0.623,0.945c-2.533-1.65-5.181-2.99-7.941-4.021c-1.636,1.635-4.189,2.936-7.66,3.9l-0.604-0.926c3.686-0.992,6.286-2.346,7.801-4.061c0.147-0.188,0.355-0.482,0.623-0.885h-8.927v-1.025h9.47c0.644-1.408,0.985-3.049,1.025-4.926V566.352z M370.432,564.08v3.82h-1.105v-2.795h-13.913v2.875h-1.106v-3.9h7.721c-0.295-0.832-0.597-1.568-0.904-2.213l1.146-0.199c0.309,0.764,0.583,1.566,0.824,2.412H370.432z M356.498,569.246c1.475,0.578,2.882,1.309,4.223,2.193l-0.583,0.883c-1.327-0.938-2.722-1.695-4.182-2.271L356.498,569.246z M357.765,566.17c1.435,0.564,2.795,1.281,4.082,2.152l-0.583,0.865c-1.301-0.967-2.647-1.709-4.041-2.232L357.765,566.17z">
        </path>
        <path fill="#91979C" stroke="#91979C" stroke-miterlimit="10" d="M381.369,578.898v1.246h-1.086v-7.238c-1.435,0.482-2.849,0.891-4.242,1.227l-0.543-1.025c3.605-0.791,6.562-1.803,8.867-3.035c-0.898-0.777-2.172-1.643-3.82-2.594l0.945-0.584c1.608,0.965,2.868,1.85,3.779,2.654c2.198-1.314,3.807-2.869,4.825-4.664h-7.841c-1.354,1.285-3.11,2.432-5.268,3.438l-0.704-0.945c3.445-1.5,5.784-3.344,7.017-5.529l1.167,0.141c-0.336,0.631-0.744,1.246-1.227,1.85h8.103v0.986c-1.568,2.922-4.37,5.273-8.404,7.057h8.927v8.264h-1.105v-1.246H381.369z M390.759,577.832v-4.926h-9.39v4.926H390.759z">
        </path>
        <path fill="#91979C" stroke="#91979C" stroke-miterlimit="10" d="M397.494,568.141h4.142v9.088c0.791-0.629,1.642-1.381,2.554-2.252l0.301,1.127c-1.18,1.139-2.473,2.184-3.88,3.137l-0.422-0.986c0.254-0.254,0.382-0.502,0.382-0.744v-8.303h-3.076V568.141z M399.646,562.09c1.367,1.045,2.54,2.111,3.519,3.195l-0.744,0.766c-0.925-1.047-2.111-2.119-3.559-3.217L399.646,562.09z M410.442,561.949c0,1.555-0.054,3.096-0.161,4.623c1.099,5.309,2.982,9.518,5.649,12.627l-0.764,0.885c-2.332-2.908-4.055-6.521-5.167-10.838c-0.121,0.818-0.262,1.604-0.423,2.354c-0.764,3.484-2.486,6.326-5.167,8.525l-0.724-0.906c2.386-1.982,3.968-4.49,4.745-7.52c0.59-2.545,0.897-5.797,0.925-9.75H410.442z">
        </path>
        <path fill="#91979C" stroke="#91979C" stroke-miterlimit="10" d="M419.59,568.141h4.082v9.049c0.804-0.67,1.588-1.389,2.352-2.152l0.282,1.146c-1.153,1.152-2.353,2.158-3.6,3.016l-0.422-1.006c0.241-0.227,0.362-0.455,0.362-0.684v-8.303h-3.057V568.141z M421.821,562.109c1.313,1.02,2.446,2.078,3.398,3.176l-0.744,0.766c-0.898-1.072-2.037-2.145-3.418-3.217L421.821,562.109z M432.176,564.02h-5.77v-1.066h11.179v1.066h-4.303v6.012h4.041v1.025h-4.041v7.398h4.725v1.066h-12.204v-1.066h2.131v-10.877h1.065v10.877h3.177V564.02z">
        </path>
        <path fill="#91979C" stroke="#91979C" stroke-miterlimit="10" d="M451.598,573.711c-0.282,2.279-0.898,3.82-1.851,4.623c-1.045,1.006-3.33,1.629-6.855,1.871l-0.423-0.965c3.19-0.162,5.315-0.678,6.374-1.549c0.925-0.805,1.48-2.164,1.669-4.082L451.598,573.711z M453.427,566.332v1.467h5.529c0,1.422-0.147,2.32-0.442,2.695c-0.321,0.414-0.999,0.629-2.03,0.643c-0.201,0-0.503-0.014-0.905-0.039l-0.201-0.826c0.349,0.041,0.67,0.061,0.965,0.061c0.697,0,1.133-0.119,1.308-0.361c0.134-0.201,0.214-0.629,0.241-1.287h-4.464v2.393h-1.045v-2.393h-3.72c-0.241,0.482-0.563,0.926-0.966,1.328c-0.925,0.844-2.452,1.508-4.584,1.99l-0.563-0.865c2.037-0.441,3.491-1.039,4.362-1.789c0.201-0.201,0.383-0.422,0.543-0.664h-4.202l0.664-3.236h4.222v-1.529h-4.685v-0.924h4.685v-1.146h1.046v1.146h3.197v-1.146h1.045v1.146h4.584v3.338H453.427z M444.802,566.332l-0.362,1.467h3.438c0.147-0.441,0.234-0.932,0.261-1.467H444.802z M457.348,571.76v5.389h-1.086v-4.402h-10.334v4.402h-1.066v-5.389H457.348z M449.185,566.332c-0.027,0.549-0.094,1.039-0.201,1.467h3.398v-1.467H449.185z M449.185,563.918v1.529h3.197v-1.529H449.185z M452.1,576.928c2.641,0.67,5.007,1.48,7.098,2.432l-0.604,0.906c-2.332-1.061-4.691-1.898-7.077-2.514L452.1,576.928z M453.427,563.918v1.529h3.559v-1.529H453.427z">
        </path>
        <path fill="#91979C" stroke="#91979C" stroke-miterlimit="10" d="M466.897,573.549c-0.201,2.602-0.958,4.752-2.271,6.455l-0.805-0.744c1.327-1.822,2.011-4.148,2.051-6.977v-9.531h14.678v15.039c0,1.314-0.657,1.971-1.971,1.971h-2.313l-0.281-1.064c0.805,0.039,1.548,0.061,2.231,0.061c0.831,0,1.247-0.457,1.247-1.367v-3.842h-5.892v5.992h-1.085v-5.992H466.897z M466.978,568.664v3.699l-0.02,0.16h5.529v-3.859H466.978z M472.487,563.818h-5.51v3.84h5.51V563.818z M479.464,567.658v-3.84h-5.892v3.84H479.464z M479.464,572.523v-3.859h-5.892v3.859H479.464z">
        </path>
        <path fill="#91979C" stroke="#91979C" stroke-miterlimit="10" d="M486.722,564.662h3.217v-2.795h1.065v2.795h2.936v1.006h-2.936v3.037h3.076v1.004h-2.854v2.996h2.312v0.984h-2.312v4.303c0.094,0.055,0.234,0.121,0.422,0.201c1.206,0.471,3.894,0.705,8.063,0.705c2.212-0.027,3.706-0.055,4.483-0.082l-0.201,1.107h-4.041c-4.799,0-7.801-0.295-9.007-0.885c-1.14-0.576-2.132-1.602-2.977-3.076c-0.295,1.541-0.717,2.975-1.267,4.303l-0.824-0.766c0.979-2.451,1.508-5.193,1.589-8.223l0.985,0.121c-0.041,1.072-0.121,2.092-0.241,3.057c0.589,1.232,1.246,2.17,1.97,2.814v-7.561h-4.001v-1.004h3.76v-3.037h-3.217V564.662z M500.735,575.701l-0.342-0.684c-0.777,1.059-1.669,1.949-2.674,2.674l-0.583-0.844c1.099-0.818,2.044-1.811,2.835-2.977c-0.255-0.75-0.489-1.695-0.704-2.834c-0.269-1.395-0.442-3.076-0.522-5.047h-2.774v8.504c0.656-0.348,1.468-0.857,2.433-1.527l0.181,0.945c-1.126,0.764-2.359,1.494-3.699,2.191l-0.262-0.986c0.241-0.119,0.362-0.348,0.362-0.684v-9.389h3.72c-0.027-0.67-0.04-1.723-0.04-3.156h1.045c0,1.461,0.014,2.514,0.04,3.156h4.162v0.945h-4.122c0.081,1.957,0.215,3.465,0.402,4.523c0.094,0.656,0.241,1.408,0.442,2.252c0.791-1.488,1.407-3.197,1.85-5.127l0.885,0.402c-0.536,2.359-1.32,4.377-2.353,6.051c0.067,0.215,0.161,0.457,0.282,0.725c0.442,0.885,0.844,1.326,1.206,1.326c0.281,0,0.583-0.797,0.904-2.393l0.845,0.504c-0.47,1.996-1.012,2.996-1.629,2.996C501.969,577.25,501.339,576.732,500.735,575.701z M501.56,561.969c0.898,0.898,1.555,1.635,1.971,2.211l-0.744,0.523c-0.482-0.656-1.14-1.42-1.971-2.293L501.56,561.969z">
        </path>
        <path fill="#91979C" stroke="#91979C" stroke-miterlimit="10" d="M517.222,561.768c0.229,0.523,0.456,1.152,0.684,1.891h8.104v1.045h-17.674v-1.045h8.425c-0.215-0.631-0.456-1.193-0.724-1.689L517.222,561.768z M521.123,580.164l-0.262-0.984l1.629,0.039c0.911,0,1.367-0.361,1.367-1.086v-5.77h-13.351v7.842h-1.025v-8.826h15.401v6.977c0,1.205-0.684,1.809-2.051,1.809H521.123z M511.733,566.252h10.917v3.699h-10.917V566.252z M521.605,569.066v-1.93h-8.827v1.93H521.605z M513.361,573.871h7.681v3.881h-7.681V573.871z M520.037,576.887v-2.131h-5.69v2.131H520.037z">
        </path>
      </g>
    </g>
  </g>
</svg>