<svg version="1.1" xmlns="http://www.w3.org/2000/svg" xmlns:xlink="http://www.w3.org/1999/xlink" x="0px" y="0px" viewBox="0 0 640 1657" enable-background="new 0 0 640 1657" xml:space="preserve">
<g>    
    <animateTransform attributeName="transform" type="translate" values="0 0;-640 0" fill="freeze" begin="click+.5s" dur=".5s">
    </animateTransform>
    <g>
        
      <path fill="#FFFFFF" d="M590.608,843.634c0,12.078-9.789,21.867-21.867,21.867H71.256c-12.076,0-21.867-9.789-21.867-21.867V277.269c0-12.077,9.791-21.867,21.867-21.867h497.485c12.078,0,21.867,9.79,21.867,21.867V843.634z">
      
      </path>
      <circle data-fjh="glanimate" fill="#FFFFFF" cx="320.729" cy="257.132" r="42.823">
      </circle>
      
      <path fill="#FFFFFF" d="M285.331,232.987c-8.838,14.441-12.619,22.414-37.357,22.414l31.252,0.045L285.331,232.987z">
      
      </path>
      
      <path fill="#FFFFFF" d="M356.218,233.078c8.838,14.442,12.619,22.414,37.357,22.414l-31.252,0.046L356.218,233.078z">
      
      </path>
    </g>
    <circle data-fjh="glanimate" fill="none" stroke="#24303B" stroke-width="7" stroke-miterlimit="10" cx="320.91" cy="258.041" r="39.362">
    </circle>
    <g>
      <rect data-fjh="glanimate" x="94.764" y="384.42" fill="none" width="448.284" height="67.789">
      </rect>
        
      <path fill="#24303B" stroke="#24303B" stroke-miterlimit="10" d="M133.437,389.953c0.946,1.46,1.42,3.504,1.42,6.134c0,2.646-0.514,4.852-1.54,6.615c-1.106,1.828-2.63,2.742-4.57,2.742c-3.063,0-4.835-1.507-5.315-4.522h1.467c0.385,2.165,1.676,3.247,3.873,3.247c1.443,0,2.589-0.729,3.439-2.188c0.802-1.411,1.203-3.184,1.203-5.316v-0.842h-0.097c-0.401,0.979-1.026,1.772-1.876,2.382c-0.834,0.577-1.796,0.865-2.887,0.865c-1.636,0-2.951-0.528-3.944-1.587c-0.979-1.026-1.468-2.373-1.468-4.041c0-1.684,0.529-3.079,1.588-4.186c1.058-1.106,2.405-1.66,4.041-1.66C130.854,387.595,132.41,388.381,133.437,389.953z M125.764,390.169c-0.77,0.866-1.154,1.956-1.154,3.271c0,1.314,0.376,2.373,1.13,3.175c0.77,0.802,1.788,1.203,3.055,1.203c1.171,0,2.181-0.425,3.031-1.275c0.834-0.866,1.251-1.908,1.251-3.127c0-1.234-0.369-2.293-1.106-3.175c-0.818-0.914-1.868-1.371-3.151-1.371C127.552,388.871,126.533,389.303,125.764,390.169z">
      
      </path>
      
      <path fill="#24303B" stroke="#24303B" stroke-miterlimit="10" d="M142.577,403.039c0.241,0.208,0.361,0.497,0.361,0.865c0,0.321-0.129,0.61-0.385,0.866c-0.257,0.225-0.538,0.337-0.843,0.337c-0.353,0-0.642-0.12-0.865-0.36c-0.241-0.241-0.361-0.521-0.361-0.843c0-0.368,0.12-0.657,0.361-0.865c0.208-0.225,0.497-0.337,0.865-0.337C142.063,402.702,142.353,402.814,142.577,403.039z">
      
      </path>
      
      <path fill="#24303B" stroke="#24303B" stroke-miterlimit="10" d="M166.896,386.561c-0.946,1.588-1.933,2.895-2.959,3.921c0.177,0.353,0.345,0.729,0.506,1.131c0.689,1.94,1.066,4.666,1.13,8.178c0,3.737-0.48,5.99-1.442,6.76c-0.546,0.417-1.348,0.625-2.406,0.625l-1.491-0.023l-0.385-1.228c0.562,0.049,1.091,0.072,1.588,0.072c0.897,0,1.516-0.144,1.852-0.433c0.689-0.642,1.035-2.582,1.035-5.821c-0.033-1.395-0.089-2.541-0.169-3.439c-1.219,1.876-2.727,3.479-4.522,4.811l-0.745-1.131c2.148-1.507,3.824-3.319,5.027-5.436c-0.177-0.914-0.377-1.692-0.602-2.333c-0.16-0.386-0.28-0.658-0.36-0.818c-0.883,0.754-1.973,1.531-3.271,2.333l-0.722-1.13c1.282-0.642,2.413-1.428,3.392-2.357c-0.706-1.219-1.604-2.317-2.694-3.296l1.034-0.794c1.059,1.059,1.916,2.117,2.574,3.176c0.994-1.042,1.844-2.189,2.55-3.44L166.896,386.561z M167.497,388.414h2.862v-2.814h1.275v2.814h4.257v-2.814h1.299v2.814h2.983v1.202h-2.983v3.416h3.513v1.227h-13.808v-1.227h3.464v-3.416h-2.862V388.414z M179.115,396.423v10.872h-1.275v-1.25h-8.058v1.227h-1.275v-10.849H179.115z M169.782,400.681h8.058v-3.079h-8.058V400.681z M169.782,404.842h8.058v-3.007h-8.058V404.842z M171.635,393.032h4.257v-3.416h-4.257V393.032z">
      
      </path>
      
      <path fill="#24303B" stroke="#24303B" stroke-miterlimit="10" d="M185.514,386.633h8.925v1.251h-1.323v13.374c0.577-0.225,1.01-0.385,1.299-0.481v1.275l-1.299,0.457v5.075h-1.203v-4.69c-1.876,0.577-4.001,1.123-6.374,1.636l-0.313-1.227l1.539-0.289v-15.13h-1.251V386.633z M187.991,391.708h3.921v-3.824h-3.921V391.708z M187.991,396.688h3.921v-3.776h-3.921V396.688z M187.991,402.75c1.315-0.305,2.622-0.665,3.921-1.082v-3.776h-3.921V402.75z M194.197,397.434h12.821v1.154h-7.938l-1.058,2.453h7.528c-0.145,2.967-0.465,4.763-0.962,5.389c-0.514,0.561-1.491,0.842-2.935,0.842c-0.931,0-1.853-0.04-2.767-0.12l-0.433-1.131c1.234,0.08,2.213,0.12,2.935,0.12c1.203,0,1.948-0.217,2.237-0.649c0.272-0.448,0.473-1.555,0.602-3.319h-7.842l1.419-3.584h-3.608V397.434z M195.448,387.572h4.667v-2.045h1.227v2.045h4.666v7.985h-10.56V387.572z M196.627,391.083h3.488v-2.405h-3.488V391.083z M200.115,394.475v-2.333h-3.488v2.333H200.115z M201.342,388.678v2.405h3.487v-2.405H201.342z M204.829,394.475v-2.333h-3.487v2.333H204.829z">
      
      </path>
      
      <path fill="#24303B" stroke="#24303B" stroke-miterlimit="10" d="M212.237,387.932h11.089v1.227l-6.494,15.948h-1.611l6.566-15.804h-9.55V387.932z">
      
      </path>
      
      <path fill="#24303B" stroke="#24303B" stroke-miterlimit="10" d="M229.34,394.163h8.853c0.353-1.844,0.585-3.833,0.697-5.966h-8.9v-1.251h18.858v1.251h-8.635c-0.145,2.325-0.369,4.314-0.674,5.966h10.03v1.274h-9.092c1.667,4.779,4.931,8.443,9.79,10.993l-0.794,1.059c-5.132-2.727-8.539-6.72-10.224-11.979c-0.417,1.86-0.986,3.432-1.708,4.715c-1.619,2.822-4.346,5.243-8.178,7.265l-0.842-1.059c3.656-1.893,6.245-4.113,7.77-6.663c0.641-1.106,1.187-2.55,1.636-4.33h-8.588V394.163z">
      
      </path>
      
      <path fill="#24303B" stroke="#24303B" stroke-miterlimit="10" d="M266.431,385.767c2.342,2.919,5.765,5.34,10.271,7.265l-0.722,1.082c-4.17-1.779-7.529-4.145-10.079-7.096c-2.822,2.982-6.197,5.364-10.126,7.145l-0.722-1.059c4.169-1.893,7.608-4.338,10.318-7.337H266.431z M259.647,392.358h12.509v1.179h-5.605v3.897h8.732v1.227h-8.732v6.855h3.007c0.882-1.571,1.66-3.336,2.334-5.292l1.179,0.457c-0.658,1.86-1.388,3.472-2.189,4.835h5.244v1.251h-20.471v-1.251h5.22c-0.577-1.684-1.283-3.239-2.116-4.667l1.179-0.433c0.833,1.411,1.571,3.111,2.213,5.1h3.103v-6.855h-8.756v-1.227h8.756v-3.897h-5.604V392.358z">
      
      </path>
      
      <path fill="#24303B" stroke="#24303B" stroke-miterlimit="10" d="M290.509,385.575h1.299v3.199h8.01v1.251h-8.01v4.018h11.137v1.274h-11.137v2.598c2.694,1.268,5.612,2.839,8.756,4.715l-0.746,1.106c-3.207-1.988-5.877-3.496-8.01-4.522v8.227h-1.299v-12.123h-8.804v-1.274h8.804V385.575z">
      
      </path>
      
      <path fill="#24303B" stroke="#24303B" stroke-miterlimit="10" d="M313.456,407.368h-1.3V394.09c-0.897,2.742-2.181,5.228-3.849,7.457l-0.577-1.443c2.069-2.485,3.536-5.308,4.402-8.468h-3.896v-1.274h3.92v-4.835h1.3v4.835h3.343v1.274h-3.343v1.516c1.25,1.219,2.509,2.598,3.776,4.138l-0.771,1.13c-1.139-1.571-2.141-2.87-3.006-3.896V407.368z M318.507,388.389h-1.034v-1.274h10.68v1.25c-0.722,4.635-2.133,8.588-4.233,11.859c1.523,2.229,3.512,4.249,5.966,6.062l-0.866,1.034c-2.325-1.813-4.273-3.816-5.845-6.014c-1.7,2.374-3.833,4.386-6.398,6.038l-0.842-1.034c2.613-1.732,4.763-3.785,6.446-6.158C320.135,396.672,318.844,392.751,318.507,388.389z M319.758,388.389c0.289,3.945,1.411,7.497,3.367,10.656c1.893-3.031,3.144-6.583,3.753-10.656H319.758z">
      
      </path>
      
      <path fill="#24303B" stroke="#24303B" stroke-miterlimit="10" d="M342.851,393.152c-2.054,2.005-4.667,3.681-7.842,5.027l-0.577-1.202c3.046-1.203,5.58-2.791,7.601-4.763L342.851,393.152z M352.736,397.554v7.77h3.104v1.251h-21.144v-1.251h3.271v-7.77H352.736z M335.177,389.905h12.58c1.106-1.459,2.029-2.95,2.767-4.475l1.275,0.457c-0.755,1.492-1.628,2.831-2.622,4.018h6.182v1.251h-20.182V389.905z M339.482,385.479c1.379,1.347,2.43,2.542,3.151,3.584l-1.059,0.722c-0.737-1.059-1.788-2.27-3.151-3.633L339.482,385.479z M339.242,405.324h3.199v-6.543h-3.199V405.324z M343.692,405.324h3.295v-6.543h-3.295V405.324z M348.455,392.382c2.758,1.315,5.275,2.879,7.553,4.69l-0.746,1.106c-2.421-2.004-4.923-3.592-7.505-4.763L348.455,392.382z M348.214,405.324h3.224v-6.543h-3.224V405.324z">
      
      </path>
      
      <path fill="#24303B" stroke="#24303B" stroke-miterlimit="10" d="M361.612,386.898h20.205v1.274h-7.866c-0.433,1.011-0.954,2.021-1.563,3.031v16.309h-1.347v-14.336c-2.261,2.999-5.34,5.661-9.236,7.985l-0.866-1.106c5.597-3.255,9.453-7.216,11.57-11.883h-10.896V386.898z M375.395,393.272c2.807,2.229,5.172,4.475,7.097,6.735l-1.011,1.011c-1.7-2.117-4.033-4.394-7-6.832L375.395,393.272z">
      
      </path>
      
      <path fill="#24303B" stroke="#24303B" stroke-miterlimit="10" d="M394.686,385.575c-0.385,0.914-0.794,1.805-1.227,2.67h13.614c0,5.918-0.12,9.574-0.36,10.969c-0.192,1.556-1.091,2.334-2.694,2.334c-0.272,0-0.77-0.024-1.491-0.072l-0.313-1.155c0.657,0.049,1.219,0.072,1.684,0.072c0.882,0,1.396-0.529,1.539-1.587c0.177-0.994,0.289-4.105,0.337-9.333h-12.989c-1.219,2.036-2.605,3.8-4.161,5.291l-0.914-1.082c2.357-2.197,4.241-5.003,5.652-8.419L394.686,385.575z M401.229,392.959v6.952h-8.78v4.883c0,0.737,0.401,1.114,1.203,1.13h11.786c0.609-0.032,1.043-0.305,1.3-0.817c0.176-0.433,0.328-1.451,0.457-3.055l1.227,0.409c-0.129,1.523-0.305,2.598-0.529,3.223c-0.385,0.946-1.091,1.427-2.117,1.443h-12.556c-1.38,0-2.069-0.642-2.069-1.924v-12.244H401.229z M392.448,398.708h7.481v-4.546h-7.481V398.708z">
      
      </path>
      
      <path fill="#24303B" stroke="#24303B" stroke-miterlimit="10" d="M425.186,385.744c2.069,2.646,5.589,4.963,10.56,6.951L435,393.801c-4.618-1.828-8.074-4.104-10.367-6.831c-2.759,2.967-6.223,5.244-10.392,6.831l-0.746-1.106c4.619-1.796,8.146-4.113,10.584-6.951H425.186z M432.378,399.647v7.817h-1.299v-1.154H418.21v1.154h-1.299v-7.817h8.684c1.331-1.011,2.638-2.27,3.921-3.776h-12.147v-1.203h13.735v1.059c-1.059,1.443-2.27,2.75-3.633,3.921H432.378z M418.21,405.107h12.869v-4.21H418.21V405.107z M423.502,390.217c1.042,0.594,2.053,1.347,3.031,2.261l-0.771,0.891c-0.994-0.93-2.036-1.724-3.127-2.382L423.502,390.217z">
      
      </path>
      
      <path fill="#24303B" stroke="#24303B" stroke-miterlimit="10" d="M445.944,387.667v15.587h-3.633v2.237h-1.179v-17.824H445.944z M442.312,402.125h2.478v-13.303h-2.478V402.125z M447.243,392.142h1.804v-4.21h-1.684v-1.202h6.422c0,9.124-0.104,14.817-0.313,17.078c-0.192,2.213-1.01,3.319-2.453,3.319l-1.396-0.048l-0.313-1.155c0.577,0.049,1.074,0.072,1.491,0.072c0.866,0,1.371-0.762,1.516-2.285c0.096-0.833,0.168-2.461,0.217-4.883h-2.67c-0.481,3.576-1.476,6.366-2.983,8.371l-0.938-0.794c1.379-1.764,2.301-4.289,2.766-7.577h-1.516v-1.202h1.66c0.112-1.331,0.177-2.606,0.192-3.825v-0.48h-1.804V392.142z M452.559,397.626l0.024-4.306h-2.405v0.48c-0.017,1.219-0.081,2.494-0.192,3.825H452.559z M452.583,392.142l0.024-4.21h-2.43v4.21H452.583z M455.807,386.658h5.652v0.986c-0.417,2.325-0.906,4.618-1.468,6.879c1.155,2.405,1.756,4.49,1.805,6.254c0,1.123-0.192,1.917-0.577,2.382c-0.546,0.642-1.483,0.962-2.814,0.962l-0.409-1.251c0.481,0.049,0.882,0.072,1.203,0.072c0.465-0.048,0.825-0.225,1.082-0.529c0.208-0.368,0.313-0.914,0.313-1.636c0-1.747-0.585-3.768-1.756-6.062c0.642-2.518,1.122-4.818,1.443-6.903h-3.296v19.58h-1.178V386.658z">
      
      </path>
      
      <path fill="#24303B" stroke="#24303B" stroke-miterlimit="10" d="M478.152,385.527c2.021,3.384,5.516,6.366,10.487,8.948l-0.77,1.154c-4.619-2.373-8.059-5.323-10.319-8.852c-2.727,3.864-6.166,6.863-10.319,8.996l-0.77-1.179c4.538-2.325,8.034-5.348,10.487-9.068H478.152z M476.901,392.575h1.299v14.865h-1.299V392.575z">
      
      </path>
      
      <path fill="#24303B" stroke="#24303B" stroke-miterlimit="10" d="M501.82,388.894c0.866,0.818,1.299,1.925,1.299,3.32c0,1.01-0.305,1.916-0.914,2.718c-0.24,0.305-0.874,0.922-1.9,1.853c-0.545,0.48-0.946,0.938-1.202,1.371c-0.337,0.577-0.505,1.194-0.505,1.852v0.697h-1.468v-0.697c0-0.705,0.145-1.347,0.434-1.924c0.353-0.771,1.09-1.644,2.213-2.622c0.608-0.609,0.978-0.994,1.106-1.155c0.513-0.657,0.77-1.338,0.77-2.044c0-1.011-0.297-1.828-0.891-2.454c-0.609-0.608-1.491-0.914-2.646-0.914c-1.283,0-2.253,0.434-2.91,1.299c-0.578,0.722-0.866,1.717-0.866,2.983h-1.443c0-1.604,0.44-2.919,1.323-3.945c0.945-1.09,2.269-1.636,3.969-1.636C499.695,387.595,500.906,388.029,501.82,388.894z M498.741,403.039c0.241,0.208,0.361,0.497,0.361,0.865c0,0.337-0.12,0.626-0.361,0.866c-0.256,0.225-0.545,0.337-0.865,0.337c-0.354,0-0.649-0.12-0.891-0.36c-0.225-0.225-0.336-0.506-0.336-0.843c0-0.368,0.111-0.657,0.336-0.865c0.225-0.225,0.521-0.337,0.891-0.337C498.229,402.702,498.517,402.814,498.741,403.039z">
      
      </path>
    </g>
    
    <g>        
      <path fill="#E5EBF0" d="M566.009,571.112c0,24.607-19.947,44.555-44.555,44.555H120.186c-24.607,0-44.555-19.947-44.555-44.555l0,0c0-24.607,19.947-44.555,44.555-44.555h401.268C546.062,526.558,566.009,546.505,566.009,571.112L566.009,571.112z">
      
      </path>
      
      <path fill="#E5EBF0" d="M565.462,675.802c0,24.607-19.947,44.555-44.555,44.555H119.639c-24.607,0-44.555-19.947-44.555-44.555l0,0c0-24.607,19.947-44.555,44.555-44.555h401.268C545.515,631.247,565.462,651.194,565.462,675.802L565.462,675.802z">
      
      </path>
      
      <path fill="#E5EBF0" d="M566.554,780.491c0,24.607-19.947,44.555-44.555,44.555H120.731c-24.605,0-44.555-19.947-44.555-44.555l0,0c0-24.607,19.949-44.555,44.555-44.555h401.268C546.606,735.937,566.554,755.884,566.554,780.491L566.554,780.491z">
      
      </path>
    </g>
      
    <g>
      <g>
          
        <path fill="#24303B" stroke="#24303B" stroke-width="3" stroke-miterlimit="10" d="M330.912,241.546c2.369,3.655,3.555,8.776,3.555,15.362c0,6.627-1.287,12.149-3.855,16.567c-2.771,4.579-6.588,6.868-11.447,6.868c-7.672,0-12.109-3.774-13.314-11.326h3.675c0.964,5.422,4.196,8.133,9.699,8.133c3.614,0,6.485-1.827,8.616-5.482c2.008-3.534,3.012-7.972,3.012-13.314v-2.108h-0.24c-1.006,2.45-2.572,4.438-4.699,5.964c-2.09,1.446-4.5,2.169-7.23,2.169c-4.097,0-7.391-1.325-9.88-3.976c-2.45-2.57-3.675-5.943-3.675-10.121c0-4.217,1.325-7.711,3.976-10.483c2.651-2.771,6.024-4.157,10.121-4.157C324.445,235.642,328.342,237.61,330.912,241.546z M311.693,242.088c-1.928,2.169-2.892,4.9-2.892,8.193c0,3.293,0.943,5.944,2.832,7.952c1.928,2.009,4.478,3.012,7.651,3.012c2.931,0,5.462-1.063,7.591-3.193c2.088-2.169,3.133-4.779,3.133-7.832c0-3.092-0.924-5.743-2.771-7.952c-2.049-2.289-4.68-3.434-7.892-3.434C316.171,238.834,313.622,239.919,311.693,242.088z">
          
        </path>
      </g>
    </g>
      
    <g opacity="0">
      <animate attributeName="opacity" begin="click" dur=".3s" values="0;1" fill="freeze">
      </animate>
      
      <g>
          
        <path fill="#F1B932" d="M566.22,570.824c0,24.607-19.947,44.555-44.555,44.555H120.397c-24.605,0-44.555-19.947-44.555-44.555l0,0c0-24.607,19.949-44.555,44.555-44.555h401.268C546.272,526.27,566.22,546.217,566.22,570.824L566.22,570.824z">
          
        </path>
      </g>
      <circle data-fjh="glanimate" fill="#F1B932" cx="810.077" cy="1522.183" r="15">
      </circle>
    </g>
      
    <g opacity="0">
      <animate attributeName="opacity" begin="click" dur=".3s" values="0;1" fill="freeze">
      </animate>
      
      <g>
          
        <path fill="#F1B932" d="M566.554,780.491c0,24.607-19.947,44.555-44.555,44.555H120.731c-24.605,0-44.555-19.947-44.555-44.555l0,0c0-24.607,19.949-44.555,44.555-44.555h401.268C546.606,735.937,566.554,755.884,566.554,780.491L566.554,780.491z">
          
        </path>
      </g>
      <circle data-fjh="glanimate" fill="#F1B932" cx="903.646" cy="1522.183" r="15">
      </circle>
    </g>
      
    <g opacity="0">
      <animate attributeName="opacity" begin="click" dur=".3s" values="0;1" fill="freeze">
      </animate>
        
      <g>
          
        <path fill="#F1B932" d="M565.554,676.158c0,24.607-19.947,44.555-44.555,44.555H119.731c-24.605,0-44.555-19.947-44.555-44.555l0,0c0-24.607,19.949-44.555,44.555-44.555h401.268C545.606,631.604,565.554,651.551,565.554,676.158L565.554,676.158z">
          
        </path>
      </g>
      <circle data-fjh="glanimate" fill="#F1B932" cx="856.39" cy="1522.183" r="15">
      </circle>
    </g>
      
    <g>
      <g>
          
        <path fill="#91979C" stroke="#91979C" stroke-miterlimit="10" d="M127.56,773.244c1.112,0.846,1.763,1.971,1.95,3.379h-1.186c-0.175-1.113-0.718-1.977-1.629-2.594c-0.858-0.604-1.877-0.904-3.056-0.904c-1.757,0-3.137,0.623-4.143,1.869c-0.938,1.152-1.407,2.66-1.407,4.523s0.463,3.357,1.388,4.484c0.965,1.193,2.312,1.789,4.041,1.789c1.206,0,2.259-0.328,3.156-0.986c0.952-0.723,1.568-1.748,1.851-3.076h1.186c-0.309,1.664-1.059,2.963-2.252,3.902c-1.126,0.857-2.433,1.285-3.92,1.285c-2.146,0-3.82-0.736-5.026-2.211c-1.1-1.34-1.649-3.068-1.649-5.188c0-2.117,0.563-3.867,1.689-5.248c1.22-1.514,2.922-2.271,5.106-2.271C125.188,771.998,126.487,772.414,127.56,773.244z">
          
        </path>
          
        <path fill="#91979C" stroke="#91979C" stroke-miterlimit="10" d="M135.903,784.906c0.201,0.174,0.302,0.416,0.302,0.725c0,0.268-0.107,0.508-0.322,0.723c-0.214,0.188-0.449,0.281-0.703,0.281c-0.295,0-0.536-0.1-0.724-0.301c-0.201-0.201-0.302-0.436-0.302-0.703c0-0.309,0.101-0.551,0.302-0.725c0.174-0.188,0.415-0.281,0.724-0.281C135.475,784.625,135.716,784.719,135.903,784.906z">
          
        </path>
          
        <path fill="#91979C" stroke="#91979C" stroke-miterlimit="10" d="M142.277,774.068h6.434c0.269-0.59,0.516-1.186,0.744-1.789c-2.252,0.135-4.457,0.201-6.615,0.201l-0.301-0.924c5.696-0.014,10.388-0.41,14.073-1.188l0.523,0.904c-1.863,0.416-4.082,0.725-6.655,0.926c-0.188,0.59-0.422,1.213-0.704,1.869h7.701v0.965h-8.144c-0.228,0.443-0.536,0.986-0.925,1.629h10.214v0.986h-10.877c-0.47,0.629-0.918,1.193-1.347,1.688h10.113v9.289h-1.025v-0.924h-9.41v0.924h-1.045v-7.881c-1.167,1.086-2.42,2.084-3.76,2.996l-0.584-0.945c2.373-1.621,4.29-3.338,5.751-5.146h-5.228v-0.986h5.972c0.361-0.549,0.703-1.092,1.025-1.629h-5.932V774.068z M155.487,781.871v-1.609h-9.41v1.609H155.487z M146.077,782.734v1.529h9.41v-1.529H146.077z M146.077,785.127v1.648h9.41v-1.648H146.077z">
          
        </path>
          
        <path fill="#91979C" stroke="#91979C" stroke-miterlimit="10" d="M173.22,786.676c-3.163,0.656-6.487,1.193-9.973,1.607l-0.261-1.045c1.367-0.135,2.962-0.342,4.785-0.623v-4.203h-4.062v-1.045h4.062v-2.514h1.086v2.514h3.819v1.045h-3.819v4.021c1.527-0.254,2.981-0.535,4.362-0.844V786.676z M163.228,771.254h9.912v1.045h-5.268c-1.046,2.227-2.051,3.875-3.017,4.947c2.172-0.215,4.31-0.49,6.414-0.824c-0.429-0.711-0.985-1.541-1.669-2.494l0.845-0.521c1.3,1.756,2.339,3.371,3.116,4.846l-0.885,0.623c-0.281-0.551-0.583-1.094-0.904-1.629c-2.561,0.441-5.382,0.805-8.465,1.086l-0.241-0.986c0.255-0.053,0.396-0.086,0.422-0.1c0.992-0.871,2.078-2.52,3.258-4.947h-3.519V771.254z M174.949,772.139h1.065v12.506h-1.065V772.139z M175.572,788.404l-0.241-1.045c1.287,0.053,2.219,0.08,2.795,0.08c0.644,0,0.965-0.328,0.965-0.984V770.33h1.105v16.406c0,1.111-0.563,1.668-1.688,1.668H175.572z">
          
        </path>
          
        <path fill="#91979C" stroke="#91979C" stroke-miterlimit="10" d="M188.318,776.924c-0.576,3.338-1.401,6.232-2.473,8.686l-0.945-0.604c1.059-2.451,1.843-5.221,2.353-8.303L188.318,776.924z M192.078,787.941c-1.273,0-1.91-0.602-1.91-1.809v-11.662h1.105v11.42c0,0.645,0.376,0.965,1.126,0.965h3.981c0.55,0,0.938-0.193,1.166-0.582c0.295-0.523,0.489-1.998,0.583-4.424l1.025,0.342c-0.12,2.668-0.396,4.33-0.824,4.986c-0.362,0.51-0.938,0.764-1.729,0.764H192.078z M192.46,770.41c1.903,1.889,3.378,3.559,4.424,5.006l-0.925,0.623c-1.06-1.527-2.527-3.217-4.403-5.066L192.46,770.41z M199.778,776.02c1.395,2.613,2.587,5.342,3.579,8.184l-1.005,0.441c-1.06-3.057-2.272-5.811-3.64-8.264L199.778,776.02z">
          
        </path>
          
        <path fill="#91979C" stroke="#91979C" stroke-miterlimit="10" d="M212.747,770.65c-0.523,1.543-1.2,3.043-2.031,4.504v13.432h-1.086v-11.742c-0.684,0.979-1.461,1.924-2.332,2.834l-0.361-1.145c2.211-2.453,3.813-5.234,4.805-8.344L212.747,770.65z M223.945,771.395c-0.71,4.934-2.178,8.887-4.403,11.863c1.716,1.877,3.68,3.338,5.892,4.383l-0.664,0.965c-2.251-1.125-4.215-2.627-5.891-4.504c-1.648,1.957-3.652,3.459-6.012,4.504l-0.604-0.984c2.346-1.047,4.303-2.508,5.871-4.383c-2.104-2.602-3.746-5.811-4.926-9.631l0.925-0.543c1.112,3.738,2.667,6.842,4.665,9.309c2.091-2.869,3.458-6.602,4.102-11.199L223.945,771.395z M216.889,770.309c1.313,1.637,2.312,3.064,2.995,4.283L219,775.215c-0.805-1.395-1.79-2.834-2.956-4.322L216.889,770.309z">
          
        </path>
          
        <path fill="#91979C" stroke="#91979C" stroke-miterlimit="10" d="M236.21,773.848v13.512h-1.046v-1.227h-4.061v1.789h-1.046v-14.074h1.81c0.415-1.139,0.717-2.338,0.904-3.6l1.106,0.143c-0.215,1.232-0.536,2.385-0.965,3.457H236.21z M231.104,779.377h4.061v-4.484h-4.061V779.377z M231.104,785.127h4.061v-4.766h-4.061V785.127z M246.625,773.867c0,6.447-0.094,10.463-0.281,12.045c-0.201,1.607-1.133,2.412-2.795,2.412l-1.971-0.041l-0.262-1.004c0.805,0.039,1.509,0.061,2.111,0.061c1.086,0,1.709-0.598,1.87-1.791c0.147-1.098,0.241-4.631,0.281-10.596h-5.931c-0.577,1.328-1.254,2.5-2.031,3.52l-0.644-0.846c1.448-2.01,2.434-4.477,2.956-7.398l1.065,0.121c-0.255,1.314-0.563,2.486-0.925,3.518H246.625z M239.628,778.393c1.541,1.701,2.707,3.176,3.498,4.422l-0.864,0.623c-0.804-1.299-1.978-2.793-3.519-4.482L239.628,778.393z">
          
        </path>
          
        <path fill="#91979C" stroke="#91979C" stroke-miterlimit="10" d="M251.35,771.193h7.881v1.047h-1.166v11.379l0.704-0.24c0.295-0.082,0.529-0.154,0.704-0.223v1.066c-0.322,0.107-0.791,0.254-1.408,0.441v3.961h-1.065v-3.658c-1.608,0.441-3.445,0.857-5.509,1.246l-0.262-1.045l1.468-0.242V772.24h-1.347V771.193z M253.722,775.496h3.277v-3.256h-3.277V775.496z M253.722,779.738h3.277v-3.236h-3.277V779.738z M253.722,784.725c1.193-0.254,2.285-0.521,3.277-0.803v-3.178h-3.277V784.725z M263.191,782.533c-0.911,2.307-2.023,4.33-3.337,6.072l-0.885-0.643c1.273-1.662,2.358-3.627,3.257-5.893L263.191,782.533z M260.316,771.475h8.284v9.209h-8.284V771.475z M267.534,779.639v-7.117h-6.152v7.117H267.534z M266.489,782.012c1.447,2.291,2.56,4.295,3.338,6.012l-0.905,0.643c-0.857-1.957-1.957-3.994-3.297-6.111L266.489,782.012z">
          
        </path>
          
        <path fill="#91979C" stroke="#91979C" stroke-miterlimit="10" d="M279.075,770.631c-0.522,1.555-1.18,3.035-1.971,4.443v13.572h-1.085v-11.844c-0.737,1.061-1.535,2.031-2.393,2.916l-0.362-1.146c2.252-2.506,3.854-5.314,4.806-8.424L279.075,770.631z M278.854,786.475h6.956c1.059-2.775,1.978-6.213,2.755-10.314l1.045,0.262c-0.737,3.887-1.635,7.238-2.694,10.053h4.806v1.064h-12.867V786.475z M279.176,773.627h5.609c-0.335-1.193-0.684-2.246-1.045-3.156l1.146-0.182c0.335,0.939,0.656,2.051,0.965,3.338h5.349v1.025h-12.023V773.627z M281.428,776.381c0.791,2.613,1.501,5.645,2.131,9.088l-1.005,0.262c-0.563-3.164-1.273-6.172-2.132-9.027L281.428,776.381z">
          
        </path>
          
        <path fill="#91979C" stroke="#91979C" stroke-miterlimit="10" d="M299.402,786.293c0,1.582-0.671,2.742-2.011,3.479l-0.423-0.703c0.966-0.645,1.475-1.461,1.528-2.453l-0.302,0.02c-0.295,0-0.543-0.086-0.743-0.262c-0.188-0.174-0.282-0.414-0.282-0.723c0-0.35,0.094-0.596,0.282-0.744c0.174-0.188,0.422-0.281,0.743-0.281C299,784.625,299.402,785.182,299.402,786.293z">
          
        </path>
          
        <path fill="#91979C" stroke="#91979C" stroke-miterlimit="10" d="M318.32,771.416h16.889v1.064h-6.574c-0.362,0.844-0.798,1.689-1.307,2.533v13.633h-1.126v-11.984c-1.891,2.508-4.464,4.732-7.721,6.676l-0.724-0.926c4.678-2.721,7.901-6.031,9.671-9.932h-9.108V771.416z M329.841,776.744c2.346,1.861,4.323,3.738,5.932,5.629l-0.845,0.844c-1.421-1.77-3.371-3.672-5.851-5.709L329.841,776.744z">
          
        </path>
          
        <path fill="#91979C" stroke="#91979C" stroke-miterlimit="10" d="M346.83,771.676c1.273,1.676,2.231,3.125,2.875,4.344l-0.885,0.623c-0.389-0.725-0.643-1.18-0.764-1.367c-2.212,0.35-4.818,0.604-7.821,0.764l-0.302-0.945c0.175-0.053,0.342-0.146,0.503-0.281c1.247-1.219,2.339-2.727,3.277-4.523l1.046,0.301c-1.006,1.918-2.099,3.398-3.277,4.443c1.769-0.08,3.793-0.268,6.071-0.563c-0.576-0.871-1.099-1.621-1.568-2.252L346.83,771.676z M342.186,784.746v3.879h-1.065v-11.117h7.278v9.469c0,1.006-0.51,1.508-1.528,1.508h-1.709l-0.261-1.025l1.628,0.061c0.536,0,0.805-0.254,0.805-0.764v-2.01H342.186z M347.333,780.664v-2.191h-5.147v2.191H347.333z M342.186,781.629v2.172h5.147v-2.172H342.186z M352.158,778.854c-1.126,0-1.688-0.59-1.688-1.768v-6.857h1.065v2.875c2.332-0.361,4.222-0.744,5.67-1.146l0.361,0.986c-1.662,0.43-3.673,0.818-6.031,1.166v2.754c0,0.658,0.314,0.986,0.945,0.986h2.814c0.429,0,0.744-0.102,0.945-0.303c0.228-0.268,0.382-1.064,0.462-2.393l1.025,0.342c-0.12,1.555-0.361,2.527-0.724,2.916c-0.335,0.295-0.838,0.441-1.508,0.441H352.158z M351.596,786.434c0,0.59,0.288,0.885,0.864,0.885h2.774c0.456,0,0.777-0.107,0.965-0.32c0.241-0.283,0.402-1.1,0.483-2.453l1.005,0.32c-0.121,1.596-0.362,2.588-0.724,2.977c-0.336,0.295-0.838,0.441-1.508,0.441h-3.317c-1.073,0-1.609-0.535-1.609-1.607v-6.896h1.066v2.654c2.117-0.229,3.987-0.59,5.609-1.086l0.361,1.006c-1.903,0.535-3.894,0.891-5.971,1.064V786.434z">
          
        </path>
          
        <path fill="#91979C" stroke="#91979C" stroke-miterlimit="10" d="M362.433,775.898h3.639v-3.236c-1.126,0.188-2.226,0.32-3.297,0.402l-0.362-1.006c2.908-0.201,5.415-0.717,7.52-1.549l0.522,0.926c-1.139,0.43-2.252,0.764-3.337,1.006v3.457h3.559v1.025h-3.559v1.146c1.246,1.139,2.445,2.373,3.599,3.699l-0.644,0.926c-1.14-1.529-2.124-2.734-2.955-3.619v9.43h-1.046v-9.652c-0.871,2.105-2.104,4.016-3.699,5.73l-0.463-1.146c1.971-1.93,3.358-4.102,4.162-6.514h-3.639V775.898z M379.08,771.736v16.064h-1.086v-1.668h-5.268v1.85h-1.065v-16.246H379.08z M372.727,785.107h5.268v-12.346h-5.268V785.107z">
          
        </path>
          
        <path fill="#91979C" stroke="#91979C" stroke-miterlimit="10" d="M390.802,771.133c-0.791,1.328-1.616,2.42-2.474,3.277c0.147,0.295,0.288,0.611,0.423,0.945c0.576,1.623,0.891,3.9,0.944,6.836c0,3.123-0.402,5.006-1.206,5.65c-0.456,0.348-1.126,0.523-2.011,0.523l-1.246-0.021l-0.322-1.025c0.469,0.041,0.911,0.061,1.327,0.061c0.75,0,1.267-0.121,1.548-0.361c0.576-0.537,0.865-2.158,0.865-4.865c-0.027-1.166-0.074-2.125-0.142-2.875c-1.019,1.568-2.278,2.908-3.779,4.02l-0.623-0.943c1.796-1.26,3.196-2.775,4.202-4.545c-0.148-0.764-0.315-1.414-0.503-1.949c-0.135-0.322-0.234-0.551-0.302-0.684c-0.737,0.629-1.648,1.279-2.734,1.949l-0.604-0.945c1.072-0.535,2.018-1.191,2.835-1.971c-0.59-1.018-1.34-1.936-2.252-2.754l0.865-0.664c0.885,0.885,1.602,1.77,2.151,2.654c0.831-0.871,1.541-1.83,2.131-2.875L390.802,771.133z M391.304,772.682h2.393v-2.352h1.065v2.352h3.56v-2.352h1.085v2.352h2.493v1.006h-2.493v2.855h2.936v1.025h-11.54v-1.025h2.895v-2.855h-2.393V772.682z M401.015,779.377v9.088h-1.065v-1.045h-6.735v1.025h-1.065v-9.068H401.015z M393.214,782.936h6.735v-2.574h-6.735V782.936z M393.214,786.414h6.735V783.9h-6.735V786.414z M394.762,776.543h3.56v-2.855h-3.56V776.543z">
          
        </path>
          
        <path fill="#91979C" stroke="#91979C" stroke-miterlimit="10" d="M406.645,779.82h9.107c0.309-1.127,0.483-2.42,0.523-3.881v-5.549h1.105v5.549c-0.04,1.447-0.208,2.74-0.503,3.881h7.037v1.084h-7.358c-0.389,1.18-0.958,2.246-1.709,3.197c-1.582,1.904-4.162,3.385-7.741,4.443l-0.623-0.924c3.565-1.047,6.119-2.486,7.66-4.324c0.523-0.709,0.945-1.508,1.267-2.393h-8.766V779.82z M407.932,774.611c1.742,0.791,3.337,1.73,4.785,2.816l-0.624,0.943c-1.567-1.219-3.156-2.178-4.765-2.875L407.932,774.611z M410.203,771.355c1.501,0.777,2.849,1.688,4.041,2.734l-0.583,0.885c-1.34-1.166-2.688-2.084-4.041-2.756L410.203,771.355z M418.245,782.754c2.252,1.609,4.189,3.266,5.812,4.967l-0.805,0.805c-1.354-1.541-3.271-3.225-5.75-5.047L418.245,782.754z">
          
        </path>
          
        <path fill="#91979C" stroke="#91979C" stroke-miterlimit="10" d="M428.881,772.24h7.842l0.241-2.031l1.105,0.16c-0.04,0.471-0.113,1.094-0.221,1.871h7.962v1.025h-8.123l-0.382,1.949h5.891v11.822h3.036v1.006h-17.753v-1.006h2.936v-11.822h4.785c0.094-0.441,0.221-1.092,0.382-1.949h-7.701V772.24z M432.5,778.211h9.611v-2.01H432.5V778.211z M432.5,781.105h9.611v-1.99H432.5V781.105z M432.5,784.021h9.611v-2.01H432.5V784.021z M432.5,787.037h9.611v-2.111H432.5V787.037z">
          
        </path>
          
        <path fill="#91979C" stroke="#91979C" stroke-miterlimit="10" d="M450.917,788.404l-0.241-1.045c0.751,0.053,1.293,0.08,1.629,0.08c0.576,0,0.864-0.328,0.864-0.984v-5.309c-0.845,0.348-1.756,0.67-2.734,0.965l-0.281-1.066c1.045-0.281,2.051-0.602,3.016-0.965v-4.785h-2.613v-1.064h2.613v-3.9h1.086v3.9h1.829v1.064h-1.829v4.324c0.857-0.43,1.501-0.758,1.93-0.986v1.105c-0.71,0.377-1.354,0.691-1.93,0.945v6.053c0,1.111-0.522,1.668-1.568,1.668H450.917z M462.196,778.652c-0.255,0.645-0.516,1.24-0.784,1.791h7.098v1.045h-2.332c-0.282,1.607-0.952,2.963-2.011,4.061c1.447,0.684,2.854,1.428,4.222,2.232l-0.603,0.865c-1.395-0.859-2.862-1.648-4.403-2.373c-1.287,1.006-3.411,1.809-6.374,2.412l-0.422-0.984c2.52-0.482,4.424-1.133,5.71-1.951c-1.18-0.549-2.547-1.139-4.102-1.77c0.55-0.803,1.065-1.635,1.548-2.492h-2.955v-1.045h3.498c0.309-0.631,0.59-1.268,0.845-1.91L462.196,778.652z M459.885,773.666c0.549,0.967,1.052,1.998,1.508,3.098h2.151c0.589-1.086,1.085-2.191,1.487-3.318l1.025,0.363c-0.415,1.125-0.878,2.109-1.387,2.955h3.498v1.025H457.05v-1.025h3.277c-0.47-1.033-0.919-1.918-1.348-2.654L459.885,773.666z M462.519,770.148c0.188,0.455,0.422,1.125,0.703,2.01h4.584v1.006h-10.273v-1.006h4.604c-0.2-0.67-0.441-1.271-0.724-1.809L462.519,770.148z M460.869,781.488c-0.349,0.617-0.797,1.307-1.347,2.07c1.287,0.471,2.5,0.979,3.639,1.529c1.032-0.939,1.702-2.139,2.011-3.6H460.869z">
          
        </path>
          
        <path fill="#91979C" stroke="#91979C" stroke-miterlimit="10" d="M473.395,775.295c1.38,1.047,2.56,2.119,3.538,3.217l-0.764,0.744c-0.898-1.031-2.085-2.111-3.559-3.236L473.395,775.295z M473.696,770.41c1.501,1.113,2.781,2.225,3.84,3.338l-0.764,0.764c-0.979-1.086-2.266-2.205-3.86-3.357L473.696,770.41z M477.274,780.904c-0.951,2.615-2.037,5.102-3.257,7.461l-1.046-0.463c1.233-2.318,2.353-4.771,3.358-7.359L477.274,780.904z M489.761,773.244c0,6.836-0.101,11.059-0.302,12.668c-0.175,1.729-1.06,2.594-2.654,2.594c-0.51,0-1.4-0.021-2.674-0.061l-0.262-0.986c1.072,0.041,2.004,0.061,2.795,0.061c1.005,0,1.589-0.656,1.749-1.971c0.134-1.219,0.222-4.965,0.262-11.238h-7.901c-0.751,1.516-1.709,2.883-2.875,4.102l-0.684-0.885c1.93-2.051,3.236-4.545,3.92-7.479l1.086,0.141c-0.255,1.045-0.576,2.064-0.965,3.055H489.761z M484.412,779.336c0.925,1.488,1.823,3.184,2.694,5.088l-0.945,0.463c-0.255-0.604-0.516-1.166-0.784-1.689c-2.037,0.469-4.249,0.824-6.635,1.066l-0.201-0.986c1.14-0.805,2.479-3.129,4.021-6.977l1.025,0.342c-1.233,2.895-2.439,5.08-3.619,6.555c1.89-0.215,3.545-0.51,4.966-0.885c-0.509-0.965-0.979-1.816-1.407-2.553L484.412,779.336z">
          
        </path>
          
        <path fill="#91979C" stroke="#91979C" stroke-miterlimit="10" d="M507.977,788.223c-0.684,0-1.897-0.012-3.64-0.039c-1.327-0.041-2.379-0.168-3.156-0.383c-0.818-0.24-1.542-0.736-2.172-1.486c-0.269-0.35-0.522-0.523-0.764-0.523c-0.55,0-1.415,0.932-2.594,2.795l-0.824-0.725c1.139-1.756,2.11-2.773,2.915-3.057v-6.434h-2.976v-1.045h4.001v7.52c0.241,0.135,0.455,0.322,0.644,0.563c0.522,0.604,1.086,1.047,1.688,1.328c0.67,0.24,1.596,0.381,2.774,0.422c1.368,0.027,2.682,0.039,3.941,0.039h2.774l2.151-0.08l-0.262,1.105H507.977z M496.013,770.672c1.448,1.072,2.635,2.111,3.56,3.115l-0.765,0.764c-0.817-0.951-1.997-2.01-3.538-3.176L496.013,770.672z M504.257,772.602c0.938,0.535,1.729,1.039,2.372,1.508c1.247-0.631,2.353-1.34,3.317-2.131h-9.289v-0.926h10.777v0.785c-1.18,1.045-2.54,1.982-4.082,2.814l0.482,0.381h3.941v9.029c0,0.938-0.489,1.406-1.468,1.406h-1.77l-0.262-0.965l1.709,0.041c0.496,0,0.744-0.229,0.744-0.684v-1.891h-3.739v3.559h-1.006v-3.559h-3.779v3.639h-1.025v-10.576h5.247c-0.897-0.629-1.85-1.225-2.854-1.789L504.257,772.602z M505.985,778.09v-2.111h-3.779v2.111H505.985z M502.206,779.016v2.029h3.779v-2.029H502.206z M510.73,778.09v-2.111h-3.739v2.111H510.73z M506.991,779.016v2.029h3.739v-2.029H506.991z">
          
        </path>
      </g>
    </g>
      
    <g>
      <g>
          
        <path fill="#91979C" stroke="#91979C" stroke-miterlimit="10" d="M117.467,667.59h6.313c1.313,0,2.345,0.316,3.096,0.945c0.765,0.643,1.146,1.527,1.146,2.654c0,0.818-0.234,1.521-0.704,2.111c-0.456,0.549-1.052,0.938-1.789,1.166c0.938,0.16,1.688,0.543,2.252,1.146c0.549,0.629,0.824,1.42,0.824,2.371c0,1.355-0.489,2.381-1.468,3.076c-0.858,0.59-1.997,0.885-3.418,0.885h-6.253V667.59z M118.693,668.656v5.348h4.825c1.019,0,1.816-0.229,2.393-0.684c0.59-0.469,0.885-1.139,0.885-2.01c0-0.885-0.288-1.555-0.864-2.012c-0.563-0.428-1.361-0.643-2.393-0.643H118.693z M118.693,675.049v5.832h4.986c1.059,0,1.916-0.215,2.573-0.645c0.751-0.521,1.126-1.279,1.126-2.271c0-0.979-0.349-1.715-1.046-2.211c-0.643-0.471-1.534-0.705-2.674-0.705H118.693z">
          
        </path>
          
        <path fill="#91979C" stroke="#91979C" stroke-miterlimit="10" d="M134.798,680.217c0.201,0.174,0.302,0.416,0.302,0.725c0,0.268-0.107,0.508-0.322,0.723c-0.214,0.188-0.449,0.281-0.703,0.281c-0.295,0-0.536-0.1-0.724-0.301c-0.201-0.201-0.302-0.436-0.302-0.703c0-0.309,0.101-0.551,0.302-0.725c0.174-0.188,0.415-0.281,0.724-0.281C134.369,679.936,134.61,680.029,134.798,680.217z">
          
        </path>
          
        <path fill="#91979C" stroke="#91979C" stroke-miterlimit="10" d="M149.033,665.398c0.402,0.645,0.784,1.367,1.146,2.172h7.438v1.064h-15.039v4.705c-0.054,4.396-0.757,7.922-2.111,10.576l-0.904-0.824c1.22-2.332,1.863-5.582,1.93-9.752v-5.77h7.54c-0.375-0.736-0.771-1.395-1.187-1.971L149.033,665.398z M143.223,681.906h8.444c1.287-2.896,2.413-6.494,3.378-10.797l1.065,0.301c-0.871,3.994-1.964,7.492-3.277,10.496h4.483v1.064h-14.094V681.906z M145.152,672.074c0.845,2.266,1.575,4.738,2.192,7.418l-1.025,0.281c-0.563-2.533-1.267-4.992-2.111-7.377L145.152,672.074z M149.054,670.666c0.71,2.186,1.34,4.738,1.89,7.66l-1.025,0.262c-0.482-2.641-1.086-5.174-1.81-7.6L149.054,670.666z">
          
        </path>
          
        <path fill="#91979C" stroke="#91979C" stroke-miterlimit="10" d="M161.981,666.504h7.459v1.047h-1.105v11.178c0.482-0.188,0.844-0.322,1.085-0.402v1.066l-1.085,0.381v4.244h-1.006v-3.922c-1.568,0.482-3.345,0.939-5.328,1.367l-0.261-1.025l1.286-0.24v-12.646h-1.045V666.504z M164.052,670.746h3.277v-3.195h-3.277V670.746z M164.052,674.908h3.277v-3.156h-3.277V674.908z M164.052,679.975c1.1-0.254,2.191-0.555,3.277-0.904v-3.156h-3.277V679.975z M169.239,675.531h10.717v0.967h-6.635l-0.885,2.051h6.293c-0.121,2.479-0.389,3.98-0.805,4.502c-0.429,0.471-1.246,0.705-2.452,0.705c-0.778,0-1.549-0.033-2.313-0.102l-0.362-0.945c1.032,0.068,1.85,0.102,2.453,0.102c1.005,0,1.629-0.182,1.87-0.543c0.228-0.375,0.395-1.301,0.502-2.775h-6.554l1.186-2.994h-3.016V675.531z M170.285,667.289h3.9v-1.709h1.025v1.709h3.9v6.674h-8.826V667.289z M171.271,670.225h2.915v-2.012h-2.915V670.225z M174.186,673.059v-1.949h-2.915v1.949H174.186z M175.211,668.213v2.012h2.915v-2.012H175.211z M178.126,673.059v-1.949h-2.915v1.949H178.126z">
          
        </path>
          
        <path fill="#91979C" stroke="#91979C" stroke-miterlimit="10" d="M186.55,672.094c-0.792,1.152-1.643,2.191-2.554,3.117l-0.342-1.066c2.265-2.547,3.887-5.395,4.865-8.545l0.985,0.463c-0.482,1.461-1.1,2.875-1.85,4.242v13.611h-1.105V672.094z M189.324,670.605h4.062c0.026-0.615,0.04-1.078,0.04-1.387v-3.578h1.086v3.578l-0.041,1.387h7.058v1.047h-4.223v10.373c0,0.375,0.201,0.564,0.604,0.564h1.89c0.295,0,0.523-0.115,0.684-0.342c0.255-0.35,0.409-1.475,0.463-3.379l0.985,0.322c-0.121,2.078-0.342,3.357-0.664,3.84c-0.281,0.35-0.684,0.537-1.206,0.563h-2.433c-0.898,0-1.348-0.455-1.348-1.367v-10.574h-1.869c-0.43,5.455-2.064,9.523-4.906,12.203l-0.824-0.703c2.721-2.533,4.269-6.367,4.645-11.5h-4.001V670.605z M197.286,666.002c1.286,0.898,2.379,1.822,3.277,2.775l-0.765,0.742c-0.817-0.896-1.89-1.842-3.217-2.834L197.286,666.002z">
          
        </path>
          
        <path fill="#91979C" stroke="#91979C" stroke-miterlimit="10" d="M209.631,669.822c-0.536,1.072-1.146,2.07-1.83,2.996l-1.005-0.623c1.461-1.904,2.54-4.035,3.237-6.395l1.065,0.221c-0.241,0.832-0.57,1.742-0.985,2.734h4.604v-3.197h1.085v3.197h6.776v1.066h-6.776v4.121h8.144v1.066h-5.63v6.313c0,0.818,0.362,1.227,1.086,1.227h2.091c0.361,0,0.656-0.113,0.885-0.342c0.308-0.348,0.502-1.514,0.583-3.498l1.045,0.342c-0.134,2.172-0.396,3.498-0.783,3.98c-0.322,0.361-0.812,0.557-1.468,0.584h-2.654c-1.247,0-1.87-0.691-1.87-2.072v-6.533h-4.121c-0.175,2.439-0.678,4.256-1.509,5.447c-0.965,1.328-2.553,2.475-4.765,3.439l-0.744-0.945c2.091-0.844,3.579-1.85,4.464-3.016c0.791-1.059,1.279-2.701,1.468-4.926h-5.71v-1.066h8.404v-4.121H209.631z">
          
        </path>
          
        <path fill="#91979C" stroke="#91979C" stroke-miterlimit="10" d="M236.552,668.436c0.845,0.736,1.267,1.729,1.267,2.975c0,1.234-0.476,2.359-1.427,3.379c-0.47,0.494-1.462,1.26-2.976,2.291c-2.038,1.381-3.171,2.627-3.398,3.74h7.821v1.125h-9.329c0-1.232,0.476-2.371,1.428-3.418c0.59-0.67,1.595-1.494,3.016-2.473c1.206-0.857,2.018-1.494,2.433-1.91c0.791-0.857,1.187-1.775,1.187-2.754c0-0.951-0.295-1.689-0.885-2.213c-0.576-0.521-1.36-0.783-2.353-0.783c-1.045,0-1.869,0.348-2.473,1.045c-0.644,0.697-0.965,1.717-0.965,3.057h-1.247c0-1.609,0.442-2.875,1.327-3.801c0.845-0.924,1.971-1.387,3.378-1.387C234.655,667.309,235.721,667.684,236.552,668.436z">
          
        </path>
          
        <path fill="#91979C" stroke="#91979C" stroke-miterlimit="10" d="M243.308,666.162c1.622,1.943,2.821,3.586,3.6,4.926l-0.905,0.645c-0.871-1.475-2.084-3.137-3.639-4.986L243.308,666.162z M247.007,674.908c-1.099,3.111-2.271,5.951-3.519,8.525l-1.125-0.482c1.38-2.707,2.593-5.521,3.639-8.445L247.007,674.908z M254.306,671.41c0,1.246-0.074,2.439-0.221,3.578c1.232,3.379,3.357,6.047,6.373,8.004l-0.784,0.904c-2.667-1.891-4.645-4.242-5.931-7.057c-0.188,0.709-0.302,1.119-0.342,1.225c-0.845,2.4-2.675,4.357-5.489,5.871l-0.744-0.904c2.533-1.326,4.223-3.016,5.066-5.066c0.63-1.715,0.959-3.9,0.985-6.555H254.306z M251.25,669.803c-0.644,1.795-1.488,3.277-2.534,4.443l-0.904-0.664c1.742-1.943,2.855-4.645,3.338-8.104l1.085,0.182c-0.147,1.072-0.361,2.098-0.643,3.076h7.861v0.725c-0.442,1.795-1.02,3.572-1.729,5.328l-1.126-0.342c0.71-1.422,1.26-2.969,1.648-4.645H251.25z">
          
        </path>
          
        <path fill="#91979C" stroke="#91979C" stroke-miterlimit="10" d="M268.139,681.604c0,1.582-0.671,2.742-2.011,3.479l-0.423-0.703c0.966-0.645,1.475-1.461,1.528-2.453l-0.302,0.02c-0.295,0-0.543-0.086-0.743-0.262c-0.188-0.174-0.282-0.414-0.282-0.723c0-0.35,0.094-0.596,0.282-0.744c0.174-0.188,0.422-0.281,0.743-0.281C267.736,679.936,268.139,680.492,268.139,681.604z">
          
        </path>
          
        <path fill="#91979C" stroke="#91979C" stroke-miterlimit="10" d="M289.611,675.371c-0.872,0.938-1.776,1.797-2.715,2.574l-0.703-0.885c2.653-2.186,4.711-4.705,6.172-7.561h-5.469v-1.064h5.972c0.389-0.926,0.751-1.918,1.086-2.977l1.105,0.121c-0.255,0.912-0.59,1.863-1.005,2.855h10.314v1.064h-10.797c-0.831,1.689-1.79,3.217-2.875,4.584v9.873h-1.086V675.371z M292.707,675.049h4.785v-3.879h1.106v3.879h4.886v1.086h-4.886v6.012h5.83v1.066h-12.605v-1.066h5.669v-6.012h-4.785V675.049z">
          
        </path>
          
        <path fill="#91979C" stroke="#91979C" stroke-miterlimit="10" d="M316.311,677.16h-5.288c-0.241,2.574-0.885,4.807-1.93,6.695l-0.765-0.764c1.14-2.117,1.75-4.617,1.83-7.5v-8.242c2.346-0.281,4.249-0.865,5.71-1.75l0.704,0.824c-1.448,0.844-3.265,1.428-5.449,1.75v2.633h5.188V677.16z M311.123,671.893v3.961l-0.02,0.281h4.182v-4.242H311.123z M319.266,672.959v3.156c-0.04,3.432-0.502,6.025-1.387,7.781l-0.985-0.504c0.885-1.729,1.347-4.154,1.388-7.277v-8.947c2.774-0.094,5.146-0.57,7.117-1.428l0.543,0.965c-1.984,0.805-4.209,1.268-6.676,1.389v3.799h7.439v1.066h-2.393v10.957h-1.065v-10.957H319.266z">
          
        </path>
          
        <path fill="#91979C" stroke="#91979C" stroke-miterlimit="10" d="M344.881,679.514h-8.364v4.361h-1.025v-10.916c-1.22,1.568-2.627,2.988-4.223,4.262l-0.684-0.904c2.668-2.117,4.705-4.564,6.112-7.34h-5.589v-1.045h6.092c0.335-0.75,0.644-1.574,0.925-2.473l1.105,0.121c-0.228,0.764-0.502,1.547-0.824,2.352h10.174v1.045h-10.636c-0.456,0.926-0.959,1.811-1.508,2.654h9.489v10.857c0,0.871-0.509,1.32-1.527,1.348h-2.252l-0.262-0.986c1.046,0.027,1.77,0.041,2.172,0.041c0.549,0,0.824-0.24,0.824-0.725V679.514z M336.517,672.596v2.494h8.364v-2.494H336.517z M344.881,676.074h-8.364v2.453h8.364V676.074z">
          
        </path>
          
        <path fill="#91979C" stroke="#91979C" stroke-miterlimit="10" d="M355.657,668.094c-0.563,1.004-1.159,1.855-1.789,2.553l-0.925-0.604c1.232-1.313,2.144-2.828,2.734-4.543l1.045,0.221c-0.215,0.563-0.402,1.025-0.563,1.387h5.569v0.986h-3.298c0.576,0.816,1.019,1.547,1.327,2.191l-0.985,0.361c-0.402-0.832-0.898-1.682-1.487-2.553H355.657z M354.351,673.221h1.086v10.715h-1.086V673.221z M356.079,670.365c1.046,0.871,1.877,1.668,2.493,2.393l-0.824,0.582c-0.603-0.764-1.428-1.588-2.473-2.473L356.079,670.365z M358.392,674.266h6.997v7.398h-6.997V674.266z M359.417,677.463h4.946v-2.273h-4.946V677.463z M364.363,680.719v-2.332h-4.946v2.332H364.363z M365.811,683.875l-0.262-1.004l1.991,0.039c0.549,0,0.824-0.295,0.824-0.885v-9.871h-8.043v-1.006h9.108v11.16c0,1.045-0.563,1.566-1.688,1.566H365.811z M364.202,668.094c-0.429,0.83-0.898,1.555-1.407,2.17l-0.905-0.582c1.006-1.234,1.75-2.621,2.232-4.162l1.025,0.221c-0.215,0.617-0.382,1.072-0.503,1.367h6.092v0.986h-3.619c0.55,0.736,0.985,1.414,1.308,2.029l-0.985,0.363c-0.402-0.818-0.898-1.615-1.488-2.393H364.202z">
          
        </path>
          
        <path fill="#91979C" stroke="#91979C" stroke-miterlimit="10" d="M392.571,666.625v1.086h-14.838v6.152c-0.081,4.209-0.798,7.547-2.151,10.012l-0.845-0.742c1.22-2.238,1.85-5.328,1.89-9.27v-7.238H392.571z M391.586,672.596c-0.04,5.295-0.288,8.459-0.744,9.49c-0.482,1.047-1.326,1.568-2.533,1.568c-0.656,0-1.447-0.02-2.372-0.061l-0.302-1.004c0.965,0.012,1.77,0.033,2.413,0.061c1.059-0.041,1.715-0.543,1.97-1.51c0.282-0.965,0.442-3.484,0.482-7.559h-5.006c-0.241,2.266-0.744,4.162-1.508,5.689c-1.019,1.943-2.708,3.479-5.066,4.604l-0.604-0.965c2.265-1.072,3.887-2.566,4.865-4.482c0.616-1.408,1.025-3.023,1.227-4.846h-4.886v-0.986h4.966c0.027-0.375,0.054-0.965,0.081-1.768v-1.951h1.065v1.951c0,0.615-0.021,1.205-0.061,1.768H391.586z">
          
        </path>
          
        <path fill="#91979C" stroke="#91979C" stroke-miterlimit="10" d="M405.52,665.479h1.126v3.721h7.278v9.248h-1.106V677.1h-6.172v6.957h-1.126V677.1h-6.152v1.348h-1.106v-9.248h7.259V665.479z M399.367,676.035h6.152v-5.75h-6.152V676.035z M406.646,676.035h6.172v-5.75h-6.172V676.035z">
          
        </path>
          
        <path fill="#91979C" stroke="#91979C" stroke-miterlimit="10" d="M421.383,677.141c-0.135,2.721-0.65,4.986-1.549,6.795l-0.864-0.783c0.911-1.877,1.374-4.256,1.388-7.139v-9.529h5.188v15.943c0,0.939-0.503,1.408-1.509,1.408h-1.567l-0.282-1.025c0.724,0.027,1.227,0.039,1.508,0.039c0.51,0,0.765-0.268,0.765-0.803v-4.906H421.383z M424.459,671.35v-3.799h-3.036v3.799H424.459z M421.423,672.375v3.74h3.036v-3.74H421.423z M427.254,669.902h4.926c0.764-1.434,1.394-2.902,1.89-4.402l1.046,0.381c-0.563,1.555-1.174,2.896-1.83,4.021h2.594v6.172h-2.292v5.871c0,0.51,0.214,0.764,0.644,0.764h0.944c0.429,0,0.725-0.133,0.885-0.4c0.241-0.363,0.402-1.367,0.482-3.018l0.945,0.303c-0.12,1.943-0.355,3.137-0.704,3.578c-0.308,0.35-0.784,0.523-1.427,0.523h-1.448c-0.911,0-1.367-0.51-1.367-1.529v-6.092h-1.95c-0.16,3.594-1.468,6.199-3.921,7.822l-0.583-0.926c2.212-1.406,3.378-3.705,3.499-6.896h-2.332V669.902z M428.741,665.74c0.59,0.885,1.187,1.93,1.789,3.137l-0.944,0.463c-0.577-1.207-1.166-2.252-1.77-3.137L428.741,665.74z M434.833,675.049v-4.141h-6.534v4.141H434.833z">
          
        </path>
          
        <path fill="#91979C" stroke="#91979C" stroke-miterlimit="10" d="M441.749,676.377h3.8v-1.99c-1.02,0.119-2.104,0.18-3.258,0.18l-0.321-0.924c2.922,0,5.349-0.369,7.278-1.105l0.503,0.863c-0.912,0.375-1.964,0.658-3.157,0.846v2.131h3.418v0.984h-3.418v0.785c1.166,0.816,2.353,1.781,3.559,2.895l-0.603,0.885c-1.193-1.232-2.179-2.172-2.956-2.814v4.986h-1.045v-6.053c-0.885,1.783-2.232,3.365-4.042,4.746l-0.422-1.025c1.877-1.287,3.203-2.756,3.981-4.404h-3.317V676.377z M444.503,671.912c-1.3,0-1.95-0.643-1.95-1.93V665.9h1.025v2.092c1.796-0.402,3.599-0.998,5.408-1.789l0.604,0.844c-2.172,0.871-4.176,1.502-6.012,1.891v0.824c0,0.805,0.409,1.207,1.227,1.207h2.413c0.549,0,0.938-0.074,1.166-0.223c0.308-0.201,0.509-0.764,0.603-1.688l0.985,0.32c-0.147,1.193-0.429,1.932-0.845,2.213c-0.389,0.215-0.965,0.32-1.729,0.32H444.503z M454.354,672.637h1.025v3.318c-0.04,2.184-0.429,3.926-1.166,5.227c-0.764,1.219-1.99,2.178-3.679,2.875l-0.583-0.904c1.608-0.645,2.754-1.535,3.438-2.674c0.63-1.166,0.952-2.674,0.965-4.523V672.637z M450.575,666.465h8.625v1.045h-3.72c-0.12,0.885-0.281,1.756-0.482,2.613h3.479v9.289h-1.046v-8.283h-5.167v8.283h-1.025v-9.289h2.675c0.228-0.791,0.395-1.662,0.502-2.613h-3.84V666.465z M456.164,679.834c1.381,1.154,2.54,2.326,3.479,3.52l-0.744,0.744c-0.884-1.18-2.023-2.379-3.418-3.6L456.164,679.834z">
          
        </path>
          
        <path fill="#91979C" stroke="#91979C" stroke-miterlimit="10" d="M463.503,666.967h17.854v1.066h-8.323c-0.269,1.152-0.65,2.252-1.146,3.297h8.264v10.535c0,1.273-0.563,1.91-1.688,1.91h-1.85l-0.302-1.105l1.789,0.039c0.644,0,0.965-0.361,0.965-1.084v-9.229h-3.779v10.816h-1.065v-10.816h-3.619v10.816h-1.066v-10.816h-3.438v11.42h-1.086V671.33h5.63c0.536-1.059,0.911-2.158,1.126-3.297h-8.264V666.967z">
          
        </path>
          
        <path fill="#91979C" stroke="#91979C" stroke-miterlimit="10" d="M500.216,672.697v-5.629h1.086v6.674h-6.192v7.721h6.052v-5.609h1.065v7.922h-1.065v-1.246h-13.229v1.246h-1.066v-7.922h1.066v5.609h6.052v-7.721h-6.193v-6.674h1.086v5.629h5.107v-7.158h1.126v7.158H500.216z">
          
        </path>
      </g>
    </g>
      
    <g>
      <g>
          
        <path fill="#91979C" stroke="#91979C" stroke-miterlimit="10" d="M121.749,562.898h1.448l5.75,14.355h-1.347l-1.669-4.281h-6.917l-1.669,4.281h-1.347L121.749,562.898z M119.417,571.926h6.112l-3.016-7.699h-0.061L119.417,571.926z">
          
        </path>
          
        <path fill="#91979C" stroke="#91979C" stroke-miterlimit="10" d="M134.275,575.525c0.201,0.174,0.302,0.416,0.302,0.725c0,0.268-0.107,0.508-0.322,0.723c-0.214,0.188-0.449,0.281-0.703,0.281c-0.295,0-0.536-0.1-0.724-0.301c-0.201-0.201-0.302-0.436-0.302-0.703c0-0.309,0.101-0.551,0.302-0.725c0.174-0.188,0.415-0.281,0.724-0.281C133.847,575.244,134.088,575.338,134.275,575.525z">
          
        </path>
          
        <path fill="#91979C" stroke="#91979C" stroke-miterlimit="10" d="M142.017,563.402c-0.563,1.004-1.159,1.855-1.789,2.553l-0.925-0.604c1.232-1.313,2.144-2.828,2.734-4.543l1.045,0.221c-0.215,0.563-0.402,1.025-0.563,1.387h5.569v0.986h-3.298c0.576,0.816,1.019,1.547,1.327,2.191l-0.985,0.361c-0.402-0.832-0.898-1.682-1.487-2.553H142.017z M140.71,568.529h1.086v10.715h-1.086V568.529z M142.438,565.674c1.046,0.871,1.877,1.668,2.493,2.393l-0.824,0.582c-0.603-0.764-1.428-1.588-2.473-2.473L142.438,565.674z M144.751,569.574h6.997v7.398h-6.997V569.574z M145.776,572.771h4.946v-2.273h-4.946V572.771z M150.723,576.027v-2.332h-4.946v2.332H150.723z M152.17,579.184l-0.262-1.004l1.991,0.039c0.549,0,0.824-0.295,0.824-0.885v-9.871h-8.043v-1.006h9.108v11.16c0,1.045-0.563,1.566-1.688,1.566H152.17z M150.562,563.402c-0.429,0.83-0.898,1.555-1.407,2.17l-0.905-0.582c1.006-1.234,1.75-2.621,2.232-4.162l1.025,0.221c-0.215,0.617-0.382,1.072-0.503,1.367h6.092v0.986h-3.619c0.55,0.736,0.985,1.414,1.308,2.029l-0.985,0.363c-0.402-0.818-0.898-1.615-1.488-2.393H150.562z">
          
        </path>
          
        <path fill="#91979C" stroke="#91979C" stroke-miterlimit="10" d="M178.931,561.934v1.086h-14.838v6.152c-0.081,4.209-0.798,7.547-2.151,10.012l-0.845-0.742c1.22-2.238,1.85-5.328,1.89-9.27v-7.238H178.931z M177.945,567.904c-0.04,5.295-0.288,8.459-0.744,9.49c-0.482,1.047-1.326,1.568-2.533,1.568c-0.656,0-1.447-0.02-2.372-0.061l-0.302-1.004c0.965,0.012,1.77,0.033,2.413,0.061c1.059-0.041,1.715-0.543,1.97-1.51c0.282-0.965,0.442-3.484,0.482-7.559h-5.006c-0.241,2.266-0.744,4.162-1.508,5.689c-1.019,1.943-2.708,3.479-5.066,4.604l-0.604-0.965c2.265-1.072,3.887-2.566,4.865-4.482c0.616-1.408,1.025-3.023,1.227-4.846h-4.886v-0.986h4.966c0.027-0.375,0.054-0.965,0.081-1.768v-1.951h1.065v1.951c0,0.615-0.021,1.205-0.061,1.768H177.945z">
          
        </path>
          
        <path fill="#91979C" stroke="#91979C" stroke-miterlimit="10" d="M183.835,566.619h7.982l0.12-1.328h-6.654v-3.598h14.355v3.598h-6.595c-0.027,0.295-0.081,0.738-0.161,1.328h8.184v0.863h-8.304l-0.262,1.328h5.951v8.967h2.956v0.885h-17.915v-0.885h2.956v-8.967h4.986c0.066-0.295,0.153-0.738,0.261-1.328h-7.861V566.619z M189.687,564.467v-1.91h-3.378v1.91H189.687z M187.535,571.082h9.852v-1.469h-9.852V571.082z M187.535,573.293h9.852v-1.486h-9.852V573.293z M187.535,575.484h9.852v-1.467h-9.852V575.484z M187.535,577.777h9.852v-1.549h-9.852V577.777z M194.23,564.467v-1.91h-3.539v1.91H194.23z M198.593,564.467v-1.91h-3.378v1.91H198.593z">
          
        </path>
          
        <path fill="#91979C" stroke="#91979C" stroke-miterlimit="10" d="M206.152,578.984l-0.241-1.047c1.046,0.055,1.79,0.08,2.232,0.08c0.509,0,0.764-0.295,0.764-0.885v-14.193h-3.237v-1.086h6.876v1.086h-2.553v14.477c0,1.045-0.49,1.568-1.468,1.568H206.152z M217.733,567.705h1.065v3.617c-0.04,2.105-0.556,3.787-1.548,5.047c-0.979,1.18-2.567,2.098-4.765,2.756l-0.604-0.926c2.145-0.631,3.666-1.475,4.564-2.533c0.817-1.113,1.246-2.561,1.286-4.344V567.705z M213.37,561.854h10.054v1.086h-4.544c-0.094,0.924-0.201,1.729-0.322,2.412h4.102v9.35h-1.065v-8.324h-6.474v8.385h-1.086v-9.41h3.438c0.146-0.764,0.247-1.568,0.301-2.412h-4.403V561.854z M219.845,575.002c1.461,1.154,2.701,2.307,3.72,3.459l-0.784,0.783c-0.938-1.125-2.165-2.305-3.68-3.537L219.845,575.002z">
          
        </path>
          
        <path fill="#91979C" stroke="#91979C" stroke-miterlimit="10" d="M228.872,562.898h8.123v1.127h-7.098l-0.503,5.287h0.061c0.429-0.51,0.958-0.891,1.588-1.146c0.563-0.254,1.187-0.381,1.87-0.381c1.367,0,2.474,0.422,3.317,1.266c0.871,0.898,1.308,2.111,1.308,3.639c0,1.408-0.49,2.582-1.468,3.52c-0.938,0.885-2.111,1.326-3.519,1.326c-1.233,0-2.286-0.342-3.157-1.025c-0.979-0.736-1.521-1.756-1.628-3.055h1.226c0.107,0.979,0.51,1.734,1.207,2.271c0.644,0.496,1.428,0.744,2.353,0.744c1.085,0,1.983-0.355,2.693-1.066c0.711-0.736,1.066-1.641,1.066-2.715c0-1.219-0.336-2.178-1.006-2.875c-0.644-0.656-1.521-0.984-2.634-0.984c-0.724,0-1.381,0.16-1.971,0.482c-0.603,0.336-1.065,0.811-1.387,1.428h-1.166L228.872,562.898z">
          
        </path>
          
        <path fill="#91979C" stroke="#91979C" stroke-miterlimit="10" d="M242.785,561.471c1.622,1.943,2.821,3.586,3.6,4.926l-0.905,0.645c-0.871-1.475-2.084-3.137-3.639-4.986L242.785,561.471z M246.484,570.217c-1.099,3.111-2.271,5.951-3.519,8.525l-1.125-0.482c1.38-2.707,2.593-5.521,3.639-8.445L246.484,570.217z M253.783,566.719c0,1.246-0.074,2.439-0.221,3.578c1.232,3.379,3.357,6.047,6.373,8.004l-0.784,0.904c-2.667-1.891-4.645-4.242-5.931-7.057c-0.188,0.709-0.302,1.119-0.342,1.225c-0.845,2.4-2.675,4.357-5.489,5.871l-0.744-0.904c2.533-1.326,4.223-3.016,5.066-5.066c0.63-1.715,0.959-3.9,0.985-6.555H253.783z M250.728,565.111c-0.644,1.795-1.488,3.277-2.534,4.443l-0.904-0.664c1.742-1.943,2.855-4.645,3.338-8.104l1.085,0.182c-0.147,1.072-0.361,2.098-0.643,3.076h7.861v0.725c-0.442,1.795-1.02,3.572-1.729,5.328l-1.126-0.342c0.71-1.422,1.26-2.969,1.648-4.645H250.728z">
          
        </path>
          
        <path fill="#91979C" stroke="#91979C" stroke-miterlimit="10" d="M267.616,576.912c0,1.582-0.671,2.742-2.011,3.479l-0.423-0.703c0.966-0.645,1.475-1.461,1.528-2.453l-0.302,0.02c-0.295,0-0.543-0.086-0.743-0.262c-0.188-0.174-0.282-0.414-0.282-0.723c0-0.35,0.094-0.596,0.282-0.744c0.174-0.188,0.422-0.281,0.743-0.281C267.214,575.244,267.616,575.801,267.616,576.912z">
          
        </path>
          
        <path fill="#91979C" stroke="#91979C" stroke-miterlimit="10" d="M286.395,562.898h1.227v6.373h8.907v-6.373h1.226v14.355h-1.226v-6.875h-8.907v6.875h-1.227V562.898z">
          
        </path>
          
        <path fill="#91979C" stroke="#91979C" stroke-miterlimit="10" d="M302.699,562.898h6.072c1.434,0,2.546,0.336,3.337,1.006c0.817,0.697,1.227,1.676,1.227,2.936c0,0.818-0.228,1.549-0.684,2.191c-0.482,0.643-1.159,1.066-2.03,1.266v0.041c1.447,0.322,2.252,1.207,2.412,2.654l0.201,2.15c0.081,0.898,0.315,1.604,0.704,2.111h-1.348c-0.295-0.469-0.482-1.119-0.563-1.949l-0.181-1.971c-0.081-0.885-0.409-1.521-0.985-1.91c-0.522-0.361-1.254-0.543-2.191-0.543h-4.745v6.373h-1.227V562.898z M303.926,563.984v5.811h4.725c1.112,0,1.983-0.273,2.614-0.824c0.563-0.523,0.844-1.219,0.844-2.092c0-0.951-0.274-1.668-0.824-2.15c-0.55-0.496-1.435-0.744-2.653-0.744H303.926z">
          
        </path>
          
        <path fill="#91979C" stroke="#91979C" stroke-miterlimit="10" d="M322.202,566.277c-0.992,3.98-2.286,7.004-3.881,9.066l-0.945-0.803c1.662-2.158,2.916-5.055,3.76-8.688L322.202,566.277z M322.584,578.984l-0.262-1.107c1.313,0.055,2.245,0.082,2.795,0.082c0.871,0,1.307-0.457,1.307-1.367v-15.402h1.126v15.684c0,1.406-0.677,2.111-2.03,2.111H322.584z M332.014,565.393c1.715,3.672,3.022,6.855,3.92,9.549l-0.984,0.684c-0.979-2.922-2.286-6.131-3.921-9.631L332.014,565.393z">
          
        </path>
          
        <path fill="#91979C" stroke="#91979C" stroke-miterlimit="10" d="M343.835,560.889c-0.214,1.381-0.436,2.693-0.663,3.939h3.519v0.664c-0.201,3.217-0.878,5.998-2.03,8.344c1.019,0.805,1.81,1.508,2.372,2.111l-0.704,0.824c-0.522-0.535-1.239-1.205-2.151-2.01c-1.019,1.756-2.299,3.236-3.84,4.443l-0.684-0.846c1.541-1.166,2.788-2.586,3.74-4.262c-0.738-0.617-1.736-1.408-2.996-2.373c0.563-1.77,1.065-3.713,1.508-5.83h-2.212v-1.066h2.413c0.241-1.326,0.462-2.68,0.663-4.061L343.835,560.889z M345.665,565.895h-2.714c-0.47,2.279-0.959,4.121-1.468,5.529c0.885,0.643,1.675,1.232,2.372,1.77C344.86,571.076,345.464,568.643,345.665,565.895z M355.979,561.834v15.621h1.789v1.045H346.51v-1.045h1.99v-15.621H355.979z M349.565,566.939h5.328v-4.061h-5.328V566.939z M349.565,572.027h5.328v-4.041h-5.328V572.027z M349.565,577.455h5.328v-4.383h-5.328V577.455z">
          
        </path>
          
        <path fill="#91979C" stroke="#91979C" stroke-miterlimit="10" d="M365.951,560.889c-0.214,1.381-0.436,2.693-0.663,3.939h3.519v0.664c-0.201,3.217-0.878,5.998-2.03,8.344c1.019,0.805,1.81,1.508,2.372,2.111l-0.704,0.824c-0.522-0.535-1.239-1.205-2.151-2.01c-1.019,1.756-2.299,3.236-3.84,4.443l-0.684-0.846c1.541-1.166,2.788-2.586,3.74-4.262c-0.738-0.617-1.736-1.408-2.996-2.373c0.563-1.77,1.065-3.713,1.508-5.83h-2.212v-1.066h2.413c0.241-1.326,0.462-2.68,0.663-4.061L365.951,560.889z M367.781,565.895h-2.714c-0.47,2.279-0.959,4.121-1.468,5.529c0.885,0.643,1.675,1.232,2.372,1.77C366.977,571.076,367.58,568.643,367.781,565.895z M378.096,561.834v15.621h1.789v1.045h-11.259v-1.045h1.99v-15.621H378.096z M371.682,566.939h5.328v-4.061h-5.328V566.939z M371.682,572.027h5.328v-4.041h-5.328V572.027z M371.682,577.455h5.328v-4.383h-5.328V577.455z">
          
        </path>
          
        <path fill="#91979C" stroke="#91979C" stroke-miterlimit="10" d="M384.509,561.752h17.03v1.047h-7.962v1.99h6.272v7.76h-6.494c-0.241,1.422-0.67,2.568-1.286,3.439c2.841,1.26,6.245,1.971,10.213,2.131l-0.301,1.045c-4.115-0.188-7.654-0.979-10.616-2.373c-1.381,1.207-3.699,2.004-6.957,2.393l-0.482-0.984c2.989-0.281,5.127-0.924,6.414-1.93c-1.26-0.684-2.42-1.48-3.479-2.393l0.864-0.604c1.006,0.871,2.125,1.621,3.358,2.252c0.576-0.805,0.972-1.797,1.186-2.977h-6.031v-7.76h6.253v-1.99h-7.982V561.752z M387.324,568.166h5.167v-2.393h-5.167V568.166z M392.391,571.564c0.054-0.697,0.087-1.219,0.101-1.568v-0.885h-5.167v2.453H392.391z M398.784,571.564v-2.453h-5.207v0.885c-0.027,0.697-0.054,1.221-0.081,1.568H398.784z M393.577,565.773v2.393h5.207v-2.393H393.577z">
          
        </path>
          
        <path fill="#91979C" stroke="#91979C" stroke-miterlimit="10" d="M415.593,567.221c1.661,2.064,4.477,3.889,8.444,5.469l-0.583,0.885c-3.713-1.447-6.475-3.25-8.284-5.408c-2.198,2.32-4.999,4.129-8.404,5.43l-0.603-0.885c3.699-1.408,6.555-3.238,8.564-5.49H415.593z M413.582,565.412c-1.689,1.475-3.794,2.768-6.313,3.881l-0.644-0.846c2.426-1.031,4.497-2.264,6.213-3.699L413.582,565.412z M415.17,560.787c0.241,0.523,0.489,1.154,0.744,1.891h7.278v3.357h-1.086v-2.332h-13.953v2.453h-1.086v-3.479h7.741c-0.229-0.604-0.489-1.172-0.784-1.709L415.17,560.787z M420.961,572.75v6.475h-1.065v-0.924h-9.31v0.924H409.5v-6.475H420.961z M410.586,577.314h9.31v-3.559h-9.31V577.314z M417.362,564.789c2.385,1.219,4.416,2.473,6.092,3.76l-0.744,0.744c-1.447-1.18-3.472-2.453-6.072-3.82L417.362,564.789z">
          
        </path>
          
        <path fill="#91979C" stroke="#91979C" stroke-miterlimit="10" d="M431.254,568.508v-6.814h12.083v6.814h-7.881c-0.402,0.645-0.898,1.26-1.488,1.85h10.817c-0.054,2.051-0.168,3.768-0.342,5.148c-0.201,1.273-0.517,2.178-0.945,2.713c-0.429,0.51-1.112,0.785-2.051,0.824h-2.473l-0.262-1.045c0.765,0.041,1.501,0.061,2.212,0.061c1.045,0,1.742-0.416,2.091-1.246c0.335-0.818,0.563-2.635,0.684-5.449h-2.252c-1.688,3.914-4.471,6.514-8.344,7.801l-0.604-0.904c3.673-1.207,6.294-3.506,7.861-6.896h-2.995c-1.367,2.279-3.673,4.068-6.917,5.369l-0.703-0.846c3.069-1.166,5.228-2.674,6.474-4.523h-3.397c-1.006,0.791-2.198,1.488-3.579,2.092l-0.604-0.945c2.574-1.045,4.45-2.379,5.63-4.002H431.254z M432.319,564.627h9.933v-1.99h-9.933V564.627z M442.252,567.543v-1.99h-9.933v1.99H442.252z">
          
        </path>
          
        <path fill="#91979C" stroke="#91979C" stroke-miterlimit="10" d="M451.802,564.688h6.434c0.269-0.59,0.516-1.186,0.744-1.789c-2.252,0.135-4.457,0.201-6.615,0.201l-0.301-0.924c5.696-0.014,10.388-0.41,14.073-1.188l0.523,0.904c-1.863,0.416-4.082,0.725-6.655,0.926c-0.188,0.59-0.422,1.213-0.704,1.869h7.701v0.965h-8.144c-0.228,0.443-0.536,0.986-0.925,1.629h10.214v0.986h-10.877c-0.47,0.629-0.918,1.193-1.347,1.688h10.113v9.289h-1.025v-0.924h-9.41v0.924h-1.045v-7.881c-1.167,1.086-2.42,2.084-3.76,2.996l-0.584-0.945c2.373-1.621,4.29-3.338,5.751-5.146h-5.228v-0.986h5.972c0.361-0.549,0.703-1.092,1.025-1.629h-5.932V564.688z M465.012,572.49v-1.609h-9.41v1.609H465.012z M455.602,573.354v1.529h9.41v-1.529H455.602z M455.602,575.746v1.648h9.41v-1.648H455.602z">
          
        </path>
          
        <path fill="#91979C" stroke="#91979C" stroke-miterlimit="10" d="M482.744,577.295c-3.163,0.656-6.487,1.193-9.973,1.607l-0.261-1.045c1.367-0.135,2.962-0.342,4.785-0.623v-4.203h-4.062v-1.045h4.062v-2.514h1.086v2.514h3.819v1.045h-3.819v4.021c1.527-0.254,2.981-0.535,4.362-0.844V577.295z M472.752,561.873h9.912v1.045h-5.268c-1.046,2.227-2.051,3.875-3.017,4.947c2.172-0.215,4.31-0.49,6.414-0.824c-0.429-0.711-0.985-1.541-1.669-2.494l0.845-0.521c1.3,1.756,2.339,3.371,3.116,4.846l-0.885,0.623c-0.281-0.551-0.583-1.094-0.904-1.629c-2.561,0.441-5.382,0.805-8.465,1.086l-0.241-0.986c0.255-0.053,0.396-0.086,0.422-0.1c0.992-0.871,2.078-2.52,3.258-4.947h-3.519V561.873z M484.474,562.758h1.065v12.506h-1.065V562.758z M485.097,579.023l-0.241-1.045c1.287,0.053,2.219,0.08,2.795,0.08c0.644,0,0.965-0.328,0.965-0.984v-16.125h1.105v16.406c0,1.111-0.563,1.668-1.688,1.668H485.097z">
          
        </path>
          
        <path fill="#91979C" stroke="#91979C" stroke-miterlimit="10" d="M503.815,571.424c-1.22,0.416-2.507,0.797-3.86,1.146v4.623c0,1.166-0.557,1.75-1.669,1.75h-2.212l-0.241-1.025c0.724,0.041,1.414,0.061,2.071,0.061c0.644,0,0.965-0.355,0.965-1.066v-4.08c-1.247,0.281-2.641,0.549-4.182,0.803l-0.161-1.064c1.528-0.242,2.976-0.523,4.343-0.846v-4.201h-4.303v-1.045h4.303v-3.158c-1.14,0.242-2.313,0.443-3.519,0.604l-0.222-1.045c2.869-0.322,5.422-0.918,7.661-1.789l0.382,1.025c-1.019,0.361-2.091,0.684-3.217,0.965v3.398h5.268c-0.135-1.596-0.201-3.453-0.201-5.57h1.086c0,2.105,0.061,3.961,0.181,5.57h6.333v1.045h-6.253c0.147,1.555,0.349,2.848,0.604,3.881c0.147,0.602,0.309,1.166,0.482,1.688c1.072-1.246,1.997-2.674,2.774-4.281l0.945,0.502c-0.925,1.93-2.03,3.572-3.317,4.926c0.281,0.738,0.616,1.408,1.005,2.012c0.684,1.004,1.247,1.508,1.689,1.508c0.482-0.027,0.897-1.227,1.246-3.6l0.966,0.523c-0.483,2.828-1.167,4.242-2.052,4.242c-0.777,0-1.621-0.611-2.533-1.83c-0.415-0.59-0.797-1.273-1.146-2.051c-1.488,1.381-3.19,2.445-5.107,3.197l-0.603-0.926c2.023-0.764,3.786-1.883,5.287-3.357c-0.254-0.697-0.482-1.475-0.684-2.332c-0.268-1.127-0.476-2.494-0.623-4.102h-5.348v3.941c1.367-0.363,2.653-0.744,3.86-1.146V571.424z M508.318,561.17c1.448,0.979,2.675,1.984,3.68,3.016l-0.764,0.764c-0.898-0.951-2.118-1.977-3.659-3.076L508.318,561.17z">
          
        </path>
      </g>
    </g>
  </g>
</svg>