<svg version="1.1" xmlns="http://www.w3.org/2000/svg" xmlns:xlink="http://www.w3.org/1999/xlink" x="0px" y="0px" viewBox="0 0 640 1657" enable-background="new 0 0 640 1657" xml:space="preserve">
<g>
    <circle data-fjh="glanimate" fill="#D4D2DC" cx="96.473" cy="292.608" r="4.761"></circle>
    <rect data-fjh="glanimate" x="89.435" y="298.826" fill="#D4D2DC" width="14.078" height="3.417">
    </rect>
    <g>
      <path fill="#D4D2DC" stroke="#D4D2DC" stroke-width="2" stroke-miterlimit="10" d="M118.868,288.003v14.763h-0.839v-13.729c-1.032,1.145-2.287,1.916-3.765,2.315v-0.848c0.703-0.192,1.405-0.51,2.108-0.951c0.646-0.413,1.227-0.93,1.742-1.551H118.868z">
      </path>
      <path fill="#D4D2DC" stroke="#D4D2DC" stroke-width="2" stroke-miterlimit="10" d="M135.045,290.257c0.659,1.31,0.989,3.019,0.989,5.128c0,2.081-0.33,3.79-0.989,5.127c-0.861,1.695-2.23,2.543-4.109,2.543s-3.248-0.848-4.108-2.543c-0.66-1.268-0.989-2.977-0.989-5.127s0.329-3.859,0.989-5.128c0.86-1.695,2.229-2.543,4.108-2.543S134.184,288.562,135.045,290.257z M127.494,290.753c-0.545,1.104-0.817,2.646-0.817,4.632c0,1.957,0.272,3.501,0.817,4.631c0.717,1.53,1.864,2.295,3.441,2.295c1.563,0,2.711-0.765,3.442-2.295c0.559-1.157,0.839-2.701,0.839-4.631s-0.28-3.474-0.839-4.632c-0.731-1.529-1.879-2.295-3.442-2.295C129.358,288.458,128.211,289.224,127.494,290.753z">
      </path>
      <path fill="#D4D2DC" stroke="#D4D2DC" stroke-width="2" stroke-miterlimit="10" d="M147.951,290.257c0.659,1.31,0.989,3.019,0.989,5.128c0,2.081-0.33,3.79-0.989,5.127c-0.861,1.695-2.23,2.543-4.109,2.543s-3.248-0.848-4.108-2.543c-0.66-1.268-0.989-2.977-0.989-5.127s0.329-3.859,0.989-5.128c0.86-1.695,2.229-2.543,4.108-2.543S147.09,288.562,147.951,290.257z M140.4,290.753c-0.545,1.104-0.817,2.646-0.817,4.632c0,1.957,0.272,3.501,0.817,4.631c0.717,1.53,1.864,2.295,3.441,2.295c1.563,0,2.711-0.765,3.442-2.295c0.559-1.157,0.839-2.701,0.839-4.631s-0.28-3.474-0.839-4.632c-0.731-1.529-1.879-2.295-3.442-2.295C142.265,288.458,141.117,289.224,140.4,290.753z">
      </path>
      <path fill="#D4D2DC" stroke="#D4D2DC" stroke-width="2" stroke-miterlimit="10" d="M160.857,290.257c0.659,1.31,0.989,3.019,0.989,5.128c0,2.081-0.33,3.79-0.989,5.127c-0.861,1.695-2.23,2.543-4.109,2.543s-3.248-0.848-4.108-2.543c-0.66-1.268-0.989-2.977-0.989-5.127s0.329-3.859,0.989-5.128c0.86-1.695,2.229-2.543,4.108-2.543S159.996,288.562,160.857,290.257z M153.307,290.753c-0.545,1.104-0.817,2.646-0.817,4.632c0,1.957,0.272,3.501,0.817,4.631c0.717,1.53,1.864,2.295,3.441,2.295c1.563,0,2.711-0.765,3.442-2.295c0.559-1.157,0.839-2.701,0.839-4.631s-0.28-3.474-0.839-4.632c-0.731-1.529-1.879-2.295-3.442-2.295C155.171,288.458,154.023,289.224,153.307,290.753z">
      </path>
      <path fill="#D4D2DC" stroke="#D4D2DC" stroke-width="2" stroke-miterlimit="10" d="M173.764,290.257c0.659,1.31,0.989,3.019,0.989,5.128c0,2.081-0.33,3.79-0.989,5.127c-0.861,1.695-2.23,2.543-4.109,2.543s-3.248-0.848-4.108-2.543c-0.66-1.268-0.989-2.977-0.989-5.127s0.329-3.859,0.989-5.128c0.86-1.695,2.229-2.543,4.108-2.543S172.902,288.562,173.764,290.257z M166.213,290.753c-0.545,1.104-0.817,2.646-0.817,4.632c0,1.957,0.272,3.501,0.817,4.631c0.717,1.53,1.864,2.295,3.441,2.295c1.563,0,2.711-0.765,3.442-2.295c0.559-1.157,0.839-2.701,0.839-4.631s-0.28-3.474-0.839-4.632c-0.731-1.529-1.879-2.295-3.442-2.295C168.077,288.458,166.93,289.224,166.213,290.753z">
      </path>
      <path fill="#D4D2DC" stroke="#D4D2DC" stroke-width="2" stroke-miterlimit="10" d="M186.67,290.257c0.659,1.31,0.989,3.019,0.989,5.128c0,2.081-0.33,3.79-0.989,5.127c-0.861,1.695-2.23,2.543-4.109,2.543s-3.248-0.848-4.108-2.543c-0.66-1.268-0.989-2.977-0.989-5.127s0.329-3.859,0.989-5.128c0.86-1.695,2.229-2.543,4.108-2.543S185.809,288.562,186.67,290.257z M179.119,290.753c-0.545,1.104-0.817,2.646-0.817,4.632c0,1.957,0.272,3.501,0.817,4.631c0.717,1.53,1.864,2.295,3.441,2.295c1.563,0,2.711-0.765,3.442-2.295c0.559-1.157,0.839-2.701,0.839-4.631s-0.28-3.474-0.839-4.632c-0.731-1.529-1.879-2.295-3.442-2.295C180.983,288.458,179.836,289.224,179.119,290.753z">
      </path>
      <path fill="#D4D2DC" stroke="#D4D2DC" stroke-width="2" stroke-miterlimit="10" d="M195.145,292.201h0.774v4.838h5.033v0.745h-5.033v4.858h-0.774v-4.858h-5.056v-0.745h5.056V292.201z">
      </path>
    </g>
    <g>
      <path fill-rule="evenodd" clip-rule="evenodd" fill="#CFCED3" d="M525.68,290.996c-0.172,0.489-0.506,0.881-0.806,1.285c-0.683,0.922-1.416,1.806-2.244,2.601c-1.151,1.106-2.422,2.047-3.86,2.763c-1.219,0.606-2.49,1.048-3.796,1.41c-1.508,0.361-3.032,0.304-4.56,0.164c-0.537-0.108-1.085-0.175-1.606-0.336c-0.552-0.172-1.12-0.269-1.671-0.458c-0.623-0.215-1.271-0.38-1.887-0.622c-2.512-0.987-4.887-2.219-6.961-3.975c-1.132-0.959-2.216-1.966-2.936-3.292c-0.248-0.456-0.49-0.924-0.536-1.455c-0.025-0.288-0.245-0.405-0.447-0.497c-0.213-0.096-0.209,0.105-0.167,0.225c0.367,1.024,0.349,2.083,0.274,3.141c-0.089,1.267-0.74,2.227-1.73,2.979c-0.988,0.752-2.118,1.21-3.294,1.571c-1.08,0.331-2.371-0.647-2.27-1.799c0.077-0.871,0.422-1.631,0.772-2.401c0.417-0.913,1.009-1.736,1.354-2.688c0.353-0.971,0.631-1.961,0.915-2.951c0.101-0.348,0.204-0.697,0.333-1.036c0.278-0.729,1.059-1.072,1.802-0.808c0.892,0.315,1.677,0.824,2.464,1.335c0.483,0.314,0.485,0.309,0.795-0.079c1.243-1.563,2.858-2.642,4.627-3.521c1.439-0.714,2.909-1.355,4.413-1.916c1.31-0.487,2.632-0.937,3.983-1.307c3.009-0.825,6.081-1.079,9.18-1.121c1.339-0.018,2.682,0.017,4.005,0.228c1.629,0.26,3.243,0.59,4.643,1.551c0.867,0.594,1.436,1.354,1.611,2.428c0.206,1.252-0.015,2.444-0.329,3.64c-0.275,1.05-0.698,2.046-1.09,3.055c-0.073,0.189-0.211,0.327-0.28,0.508c-0.095-0.029-0.167,0.002-0.254,0.053c-0.389,0.228-0.771,0.479-1.185,0.649c-1.178,0.485-2.417,0.727-3.679,0.864c-2.217,0.239-4.371-0.08-6.491-0.698c-0.741-0.217-1.478-0.505-2.112-0.921c-1.038-0.679-1.998-1.479-2.842-2.401c-0.315-0.346-0.671-0.435-0.872-0.219c-0.299,0.321-0.01,0.583,0.118,0.856c0.011,0.022,0.034,0.039,0.052,0.059c1.019,1.145,2.172,2.098,3.562,2.79c1.351,0.673,2.745,1.131,4.236,1.361C519.935,292.473,522.871,292.317,525.68,290.996z M522.75,281.895c0.364-0.026,0.863-0.043,1.357-0.101c0.611-0.07,1.194-0.224,1.694-0.621c0.496-0.394,0.506-0.915,0.019-1.299c-0.212-0.167-0.446-0.275-0.697-0.349c-1.475-0.437-2.947-0.447-4.41,0.055c-0.461,0.158-0.905,0.363-1.204,0.773c-0.311,0.426-0.27,0.667,0.149,0.985c0.083,0.063,0.18,0.107,0.272,0.156C520.778,281.944,521.702,281.881,522.75,281.895z M511.013,283.269c-0.008-0.62-0.5-1.066-1.172-1.051c-0.729,0.017-1.177,0.407-1.154,1.101c0.019,0.572,0.507,1.107,1.051,1.07C510.438,284.34,511.001,284.002,511.013,283.269z">
      </path>
      <path fill-rule="evenodd" clip-rule="evenodd" fill="#CFCED3" d="M514.927,299.789c0.124,0.104,0.142,0.249,0.136,0.394c-0.109,3.099-0.017,6.198-0.046,9.296c-0.001,0.066-0.001,0.132-0.006,0.197c-0.011,0.137-0.081,0.224-0.223,0.227c-0.223,0.005-0.446,0.005-0.669-0.002c-0.186-0.006-0.209-0.14-0.246-0.294c-0.234-0.985-0.386-1.992-0.759-2.943c-0.094-0.24-0.234-0.447-0.392-0.625c-0.277-0.318-0.645-0.289-0.968,0.003c-0.474,0.427-0.736,0.961-0.933,1.566c-0.226,0.693-0.491,1.372-0.63,2.092c-0.024,0.13-0.102,0.21-0.243,0.208c-0.093-0.001-0.184-0.004-0.275-0.004c-0.557,0.006-0.553,0.006-0.54-0.568c0.02-0.866,0.039-1.733,0.051-2.6c0.001-0.148,0.056-0.336-0.126-0.42c-0.157-0.071-0.262,0.074-0.385,0.142c-0.812,0.445-1.333,1.189-1.938,1.85c-0.455,0.497-0.919,0.987-1.394,1.464c-0.221,0.221-0.525,0.165-0.785,0.104c-0.209-0.048-0.119-0.228-0.037-0.35c0.644-0.966,1.197-1.988,1.793-2.983c0.054-0.089,0.111-0.177,0.153-0.271c0.215-0.481,0.217-0.488-0.279-0.705c-1.037-0.452-1.245-1.037-1.245-2.082c0-0.097-0.036-0.247,0.094-0.269c0.142-0.023,0.125,0.132,0.155,0.225c0.339,1.02,1.235,1.424,2.207,1.01c0.174-0.075,0.263-0.197,0.351-0.344c0.777-1.311,1.558-2.62,2.339-3.928c0.039-0.064,0.104-0.112,0.157-0.167c0.571,0.07,1.14,0.174,1.713,0.202C512.97,300.264,513.998,300.354,514.927,299.789z">
      </path>
      <path fill-rule="evenodd" clip-rule="evenodd" fill="#232321" d="M525.68,290.996c-2.809,1.321-5.745,1.478-8.766,1.012c-1.491-0.23-2.886-0.688-4.236-1.361c-1.39-0.692-2.543-1.646-3.562-2.79c-0.018-0.02-0.041-0.036-0.052-0.059c-0.128-0.274-0.417-0.535-0.118-0.856c0.201-0.216,0.557-0.127,0.872,0.219c0.844,0.922,1.804,1.723,2.842,2.401c0.635,0.416,1.371,0.705,2.112,0.921c2.12,0.619,4.274,0.938,6.491,0.698c1.262-0.137,2.501-0.379,3.679-0.864c0.414-0.171,0.796-0.422,1.185-0.649c0.087-0.051,0.159-0.082,0.254-0.053C526.13,290.067,525.996,290.578,525.68,290.996z">
      </path>
      <path fill-rule="evenodd" clip-rule="evenodd" fill="#232321" d="M514.927,299.789c-0.929,0.565-1.957,0.475-2.969,0.423c-0.573-0.028-1.142-0.132-1.713-0.202c-0.046-0.285,0.114-0.527,0.168-0.792c1.528,0.14,3.053,0.197,4.561-0.164C515.037,299.304,515.083,299.553,514.927,299.789z">
      </path>
      <path fill-rule="evenodd" clip-rule="evenodd" fill="#232321" d="M522.75,281.895c-1.048-0.014-1.972,0.049-2.819-0.4c-0.093-0.049-0.189-0.094-0.272-0.156c-0.419-0.318-0.46-0.559-0.149-0.985c0.299-0.41,0.743-0.615,1.204-0.773c1.463-0.502,2.936-0.492,4.41-0.055c0.251,0.074,0.485,0.182,0.697,0.349c0.487,0.384,0.478,0.905-0.019,1.299c-0.5,0.397-1.083,0.551-1.694,0.621C523.613,281.852,523.114,281.869,522.75,281.895z">
      </path>
      <path fill-rule="evenodd" clip-rule="evenodd" fill="#232321" d="M511.013,283.269c-0.012,0.733-0.574,1.071-1.275,1.12c-0.544,0.038-1.032-0.498-1.051-1.07c-0.022-0.694,0.426-1.083,1.154-1.101C510.513,282.203,511.005,282.649,511.013,283.269z">
      </path>
    </g>
  </g>
</svg>