<svg version="1.1" xmlns="http://www.w3.org/2000/svg" xmlns:xlink="http://www.w3.org/1999/xlink" x="0px" y="0px" viewBox="0 0 640 1657" enable-background="new 0 0 640 1657" xml:space="preserve">


  <g>
    <g>
      <path fill="#FFFFFF" d="M589.609,841.641c0,12.078-9.789,21.867-21.867,21.867H70.257c-12.076,0-21.867-9.789-21.867-21.867V275.275c0-12.077,9.791-21.867,21.867-21.867h497.485c12.078,0,21.867,9.79,21.867,21.867V841.641z">
      
      </path>
      <circle data-fjh="glanimate" fill="#FFFFFF" cx="319.729" cy="255.139" r="42.823">
      </circle>
      
      <path fill="#FFFFFF" d="M284.332,230.994c-8.838,14.441-12.619,22.414-37.357,22.414l31.252,0.045L284.332,230.994z">
    
      </path>
    
      <path fill="#FFFFFF" d="M355.219,231.085c8.838,14.442,12.619,22.414,37.357,22.414l-31.252,0.046L355.219,231.085z">
    
      </path>
    </g>
    <g>
      <circle data-fjh="glanimate" fill="#D4D2DC" cx="95.473" cy="291.607" r="4.761">
      </circle>
      <rect data-fjh="glanimate" x="88.435" y="297.826" fill="#D4D2DC" width="14.078" height="3.416">
      </rect>
      <g>          
        <path fill="#D4D2DC" stroke="#D4D2DC" stroke-width="2" stroke-miterlimit="10" d="M117.868,287.003v14.763h-0.839v-13.729c-1.032,1.145-2.287,1.916-3.765,2.315v-0.848c0.703-0.192,1.405-0.51,2.108-0.951c0.646-0.413,1.227-0.93,1.742-1.551H117.868z">          
        </path>
          
        <path fill="#D4D2DC" stroke="#D4D2DC" stroke-width="2" stroke-miterlimit="10" d="M134.045,289.257c0.659,1.31,0.989,3.019,0.989,5.128c0,2.081-0.33,3.79-0.989,5.127c-0.861,1.695-2.23,2.543-4.109,2.543s-3.248-0.848-4.108-2.543c-0.66-1.268-0.989-2.977-0.989-5.127s0.329-3.859,0.989-5.128c0.86-1.695,2.229-2.543,4.108-2.543S133.184,287.562,134.045,289.257z M126.494,289.753c-0.545,1.104-0.817,2.646-0.817,4.632c0,1.957,0.272,3.501,0.817,4.631c0.717,1.53,1.864,2.295,3.441,2.295c1.563,0,2.711-0.765,3.442-2.295c0.559-1.157,0.839-2.701,0.839-4.631s-0.28-3.474-0.839-4.632c-0.731-1.529-1.879-2.295-3.442-2.295C128.358,287.458,127.211,288.224,126.494,289.753z">
          
        </path>
          
        <path fill="#D4D2DC" stroke="#D4D2DC" stroke-width="2" stroke-miterlimit="10" d="M146.951,289.257c0.659,1.31,0.989,3.019,0.989,5.128c0,2.081-0.33,3.79-0.989,5.127c-0.861,1.695-2.23,2.543-4.109,2.543s-3.248-0.848-4.108-2.543c-0.66-1.268-0.989-2.977-0.989-5.127s0.329-3.859,0.989-5.128c0.86-1.695,2.229-2.543,4.108-2.543S146.09,287.562,146.951,289.257z M139.4,289.753c-0.545,1.104-0.817,2.646-0.817,4.632c0,1.957,0.272,3.501,0.817,4.631c0.717,1.53,1.864,2.295,3.441,2.295c1.563,0,2.711-0.765,3.442-2.295c0.559-1.157,0.839-2.701,0.839-4.631s-0.28-3.474-0.839-4.632c-0.731-1.529-1.879-2.295-3.442-2.295C141.265,287.458,140.117,288.224,139.4,289.753z">
          
        </path>
          
        <path fill="#D4D2DC" stroke="#D4D2DC" stroke-width="2" stroke-miterlimit="10" d="M159.857,289.257c0.659,1.31,0.989,3.019,0.989,5.128c0,2.081-0.33,3.79-0.989,5.127c-0.861,1.695-2.23,2.543-4.109,2.543s-3.248-0.848-4.108-2.543c-0.66-1.268-0.989-2.977-0.989-5.127s0.329-3.859,0.989-5.128c0.86-1.695,2.229-2.543,4.108-2.543S158.996,287.562,159.857,289.257z M152.307,289.753c-0.545,1.104-0.817,2.646-0.817,4.632c0,1.957,0.272,3.501,0.817,4.631c0.717,1.53,1.864,2.295,3.441,2.295c1.563,0,2.711-0.765,3.442-2.295c0.559-1.157,0.839-2.701,0.839-4.631s-0.28-3.474-0.839-4.632c-0.731-1.529-1.879-2.295-3.442-2.295C154.171,287.458,153.023,288.224,152.307,289.753z">
          
        </path>
          
        <path fill="#D4D2DC" stroke="#D4D2DC" stroke-width="2" stroke-miterlimit="10" d="M172.764,289.257c0.659,1.31,0.989,3.019,0.989,5.128c0,2.081-0.33,3.79-0.989,5.127c-0.861,1.695-2.23,2.543-4.109,2.543s-3.248-0.848-4.108-2.543c-0.66-1.268-0.989-2.977-0.989-5.127s0.329-3.859,0.989-5.128c0.86-1.695,2.229-2.543,4.108-2.543S171.902,287.562,172.764,289.257z M165.213,289.753c-0.545,1.104-0.817,2.646-0.817,4.632c0,1.957,0.272,3.501,0.817,4.631c0.717,1.53,1.864,2.295,3.441,2.295c1.563,0,2.711-0.765,3.442-2.295c0.559-1.157,0.839-2.701,0.839-4.631s-0.28-3.474-0.839-4.632c-0.731-1.529-1.879-2.295-3.442-2.295C167.077,287.458,165.93,288.224,165.213,289.753z">
          
        </path>
          
        <path fill="#D4D2DC" stroke="#D4D2DC" stroke-width="2" stroke-miterlimit="10" d="M185.67,289.257c0.659,1.31,0.989,3.019,0.989,5.128c0,2.081-0.33,3.79-0.989,5.127c-0.861,1.695-2.23,2.543-4.109,2.543s-3.248-0.848-4.108-2.543c-0.66-1.268-0.989-2.977-0.989-5.127s0.329-3.859,0.989-5.128c0.86-1.695,2.229-2.543,4.108-2.543S184.809,287.562,185.67,289.257z M178.119,289.753c-0.545,1.104-0.817,2.646-0.817,4.632c0,1.957,0.272,3.501,0.817,4.631c0.717,1.53,1.864,2.295,3.441,2.295c1.563,0,2.711-0.765,3.442-2.295c0.559-1.157,0.839-2.701,0.839-4.631s-0.28-3.474-0.839-4.632c-0.731-1.529-1.879-2.295-3.442-2.295C179.983,287.458,178.836,288.224,178.119,289.753z">
          
        </path>
          
        <path fill="#D4D2DC" stroke="#D4D2DC" stroke-width="2" stroke-miterlimit="10" d="M194.145,291.201h0.774v4.838h5.033v0.745h-5.033v4.858h-0.774v-4.858h-5.056v-0.745h5.056V291.201z">
          
        </path>
      </g>
    </g>
    <circle data-fjh="glanimate" fill="none" stroke="#24303B" stroke-width="7" stroke-miterlimit="10" cx="319.911" cy="256.048" r="39.362">
    </circle>
    <g>
      <rect x="94.858" y="517.425" fill="none" width="448.284" height="100.79">
      </rect>
      <path fill="#24303B" stroke="#24303B" stroke-miterlimit="10" d="M199.48,527.83c-1.225,1.463-2.448,2.734-3.673,3.814l-1.224-1.512c3.384-2.951,6.06-6.672,8.028-11.16l1.907,0.469c-0.888,2.039-1.92,3.947-3.096,5.725v13.643h-1.943V527.83z M200.92,541.186c-1.008,3.48-2.448,6.527-4.32,9.145l-1.619-1.08c1.848-2.545,3.191-5.365,4.031-8.461L200.92,541.186z M206.932,551.373c-1.968,0-2.951-0.984-2.951-2.951v-8.137h1.979v7.74c0,0.984,0.527,1.477,1.584,1.477h8.316c0.888,0,1.512-0.217,1.872-0.648c0.504-0.576,0.827-2.172,0.972-4.789l1.836,0.613c-0.216,3.145-0.684,5.076-1.404,5.795c-0.647,0.6-1.62,0.9-2.916,0.9H206.932z M212.584,519.404c-0.576,1.25-1.104,2.305-1.584,3.17h14.652v1.223c-0.553,1.992-1.188,3.77-1.908,5.328l-1.764-0.504c0.72-1.367,1.283-2.783,1.691-4.248h-13.788c-1.392,1.969-2.94,3.721-4.644,5.256l-1.188-1.439c2.809-2.447,5.04-5.531,6.696-9.252L212.584,519.404z M211.432,530.674c-1.464,2.76-3.144,5.1-5.04,7.02l-1.476-1.08c1.896-1.871,3.54-4.115,4.932-6.732L211.432,530.674z M211.072,539.926c1.8,1.871,3.216,3.588,4.248,5.148l-1.513,1.115c-1.056-1.633-2.472-3.408-4.248-5.328L211.072,539.926z M211.072,538.918l-0.433-1.836c1.2,0.096,2.064,0.143,2.593,0.143c0.792,0,1.188-0.504,1.188-1.512v-9h1.944v9.469c0,1.824-0.828,2.736-2.484,2.736H211.072z M221.008,529.846c1.872,2.16,3.479,4.5,4.824,7.02l-1.656,0.9c-1.416-2.615-3.023-5.016-4.824-7.201L221.008,529.846z M221.908,539.854c2.376,3.168,4.212,5.939,5.508,8.316l-1.62,1.15c-1.296-2.494-3.12-5.314-5.472-8.459L221.908,539.854z">
        
      </path>
      
      <path fill="#24303B" stroke="#24303B" stroke-miterlimit="10" d="M265.937,535.029h-22.429v11.447c0,1.584,0.804,2.377,2.412,2.377h18.685c0.911,0,1.62-0.217,2.124-0.648c0.743-0.791,1.224-3.227,1.439-7.309l1.908,0.613c-0.336,4.367-0.912,7.055-1.728,8.064c-0.769,0.768-1.837,1.15-3.204,1.15h-19.801c-2.544,0-3.815-1.295-3.815-3.887v-19.117h1.979v5.4h20.448v-10.08H239.44v-1.871h26.496V535.029z">
      
      </path>
      
      <path fill="#24303B" stroke="#24303B" stroke-miterlimit="10" d="M285.664,530.816c-1.344,1.777-2.76,3.434-4.248,4.969l-0.611-2.053c3.983-4.318,6.888-9.215,8.712-14.688l1.8,0.828c-0.984,2.904-2.22,5.58-3.708,8.027v24.014h-1.944V530.816z M296.5,526.281c-1.632,3.48-3.576,6.564-5.832,9.252l-1.367-1.619c3.359-3.938,6.023-8.953,7.991-15.049l1.944,0.469c-0.456,1.416-1.08,3.096-1.872,5.039h16.128v1.908h-12.563v6.553h10.907v1.943h-10.907v6.66h11.195v1.908h-11.195v8.568h-1.944v-25.633H296.5z">
      
      </path>
      
      <path fill="#24303B" stroke="#24303B" stroke-miterlimit="10" d="M332.428,535.354c-2.16,1.176-4.5,2.291-7.021,3.348l-0.936-1.691c6.216-2.424,11.363-5.424,15.444-9h1.296c4.56,3.791,9.804,6.768,15.731,8.928l-0.936,1.691c-2.688-1.055-5.076-2.16-7.164-3.313v1.693h-16.416V535.354z M329.403,524.086c-0.984,1.799-2.04,3.408-3.168,4.824l-1.655-1.08c2.304-2.736,3.995-5.797,5.075-9.182l1.836,0.396c-0.288,0.936-0.696,2.016-1.224,3.24h10.188v1.801h-5.509c0.792,1.295,1.44,2.52,1.944,3.672l-1.8,0.646c-0.673-1.584-1.404-3.023-2.196-4.318H329.403z M351.075,540.826v11.016h-1.907v-1.801h-17.137v1.801h-1.907v-11.016H351.075z M332.031,548.242h17.137v-5.617h-17.137V548.242z M348.664,535.209c-2.952-1.607-5.652-3.492-8.101-5.652c-2.208,2.018-4.836,3.9-7.884,5.652H348.664z M344.235,524.086c-0.672,1.223-1.428,2.34-2.268,3.348l-1.62-1.045c1.896-2.303,3.288-4.871,4.176-7.703l1.872,0.396c-0.313,1.008-0.732,2.076-1.26,3.203h11.231v1.801h-6.3c1.032,1.535,1.824,2.916,2.376,4.139l-1.764,0.686c-0.769-1.705-1.668-3.313-2.7-4.824H344.235z">
      
      </path>
      
      <path fill="#24303B" stroke="#24303B" stroke-miterlimit="10" d="M368.248,536.578h31.14v1.906h-10.439v9.324c0,1.08,0.552,1.621,1.655,1.621h5.004c0.769,0,1.32-0.229,1.656-0.684c0.408-0.6,0.685-2.328,0.828-5.186l1.836,0.576c-0.216,3.361-0.647,5.438-1.296,6.229c-0.553,0.623-1.428,0.936-2.628,0.936h-5.977c-2.016,0-3.023-1.031-3.023-3.096v-9.721h-6.516v0.396c-0.072,3.529-1.032,6.361-2.881,8.496c-1.8,1.969-4.74,3.527-8.819,4.68l-1.116-1.727c4.032-1.057,6.863-2.473,8.496-4.248c1.512-1.873,2.304-4.271,2.376-7.201v-0.396h-10.296V536.578z M398.848,523.148v7.74h-1.944v-5.867h-26.279v5.867h-1.944v-7.74h14.185c-0.505-1.439-1.009-2.676-1.513-3.707l2.16-0.359c0.576,1.344,1.056,2.699,1.44,4.066H398.848z M373.72,529.809h20.016v1.873H373.72V529.809z">
      
      </path>
      
      <path fill="#24303B" stroke="#24303B" stroke-miterlimit="10" d="M410.728,540.682h15.229v-5.004h1.944v5.004h15.012v1.871H427.9v9.252h-1.944v-9.252h-15.229V540.682z M415.984,525.922v7.703c3.287-0.721,6.552-1.584,9.792-2.592l0.468,1.691c-3.912,1.225-8.028,2.305-12.348,3.24l-0.612-1.764c0.504-0.217,0.756-0.492,0.756-0.828v-13.932h1.944v4.607h9.72v1.873H415.984z M431.428,535.029c-1.968,0-2.952-1.031-2.952-3.096v-12.492h1.872v6.012c3.433-0.984,6.805-2.424,10.116-4.32l1.116,1.549c-3.816,2.039-7.561,3.576-11.232,4.607v4.285c0,1.055,0.54,1.584,1.62,1.584h5.58c0.815,0,1.452-0.145,1.908-0.434c0.72-0.479,1.152-2.004,1.296-4.572l1.729,0.541c-0.288,3-0.816,4.836-1.584,5.508c-0.673,0.553-1.633,0.828-2.881,0.828H431.428z">
        
      
      </path>
    </g>
    <g>
      <g>
          
        <path fill="#24303B" stroke="#24303B" stroke-width="3" stroke-miterlimit="10" d="M322.27,270.992c0.561,0.563,0.843,1.286,0.843,2.169c0,0.804-0.282,1.527-0.843,2.169c-0.644,0.563-1.386,0.843-2.23,0.843c-0.843,0-1.566-0.301-2.168-0.904c-0.603-0.603-0.904-1.305-0.904-2.108c0-0.923,0.301-1.646,0.904-2.169c0.562-0.562,1.285-0.843,2.168-0.843C320.963,270.148,321.706,270.43,322.27,270.992z M317.991,233.158h4.097l-0.602,31.87h-2.893L317.991,233.158z">
          
        </path>
      </g>
    </g>
  </g>

</svg>