<svg version="1.1" xmlns="http://www.w3.org/2000/svg" xmlns:xlink="http://www.w3.org/1999/xlink" x="0px" y="0px" viewBox="0 0 640 1657" enable-background="new 0 0 640 1657" xml:space="preserve">
<g>
    <g>
      <path fill="#FFFFFF" d="M595.645,1561.977c0,14.97-12.135,27.105-27.105,27.105H71.46c-14.97,0-27.105-12.136-27.105-27.105v-537.735c0-14.97,12.136-27.105,27.105-27.105h497.079c14.971,0,27.105,12.136,27.105,27.105V1561.977z">
      </path>
      <g>
        <circle data-fjh="glanimate" fill="#C4C4C4" cx="90.438" cy="1032.231" r="4.721">
        </circle>
        <rect data-fjh="glanimate" x="83.458" y="1038.397" fill="#C4C4C4" width="13.96" height="3.388">
        </rect>
        <g>          
          <g>
            
            <path fill="#C4C4C4" stroke="#C4C4C4" stroke-miterlimit="10" d="M112.646,1027.666v14.639h-0.832v-13.613c-1.024,1.135-2.269,1.899-3.733,2.296v-0.841c0.697-0.19,1.394-0.505,2.091-0.942c0.64-0.41,1.216-0.923,1.728-1.538H112.646z">
            </path>
              
            <path fill="#C4C4C4" stroke="#C4C4C4" stroke-miterlimit="10" d="M128.687,1029.901c0.654,1.298,0.981,2.993,0.981,5.084c0,2.064-0.327,3.759-0.981,5.085c-0.854,1.681-2.212,2.521-4.074,2.521c-1.863,0-3.221-0.841-4.074-2.521c-0.654-1.258-0.981-2.953-0.981-5.085s0.327-3.827,0.981-5.084c0.854-1.682,2.211-2.522,4.074-2.522C126.475,1027.379,127.833,1028.22,128.687,1029.901z M121.199,1030.393c-0.541,1.094-0.811,2.625-0.811,4.593c0,1.941,0.27,3.472,0.811,4.593c0.711,1.517,1.849,2.275,3.413,2.275c1.55,0,2.688-0.759,3.413-2.275c0.555-1.148,0.832-2.679,0.832-4.593c0-1.913-0.277-3.444-0.832-4.593c-0.726-1.517-1.863-2.275-3.413-2.275C123.048,1028.117,121.91,1028.876,121.199,1030.393z">
            </path>
              
            <path fill="#C4C4C4" stroke="#C4C4C4" stroke-miterlimit="10" d="M141.485,1029.901c0.654,1.298,0.981,2.993,0.981,5.084c0,2.064-0.327,3.759-0.981,5.085c-0.854,1.681-2.212,2.521-4.074,2.521c-1.863,0-3.221-0.841-4.074-2.521c-0.654-1.258-0.981-2.953-0.981-5.085s0.327-3.827,0.981-5.084c0.854-1.682,2.211-2.522,4.074-2.522C139.273,1027.379,140.632,1028.22,141.485,1029.901z M133.998,1030.393c-0.541,1.094-0.811,2.625-0.811,4.593c0,1.941,0.27,3.472,0.811,4.593c0.711,1.517,1.849,2.275,3.413,2.275c1.55,0,2.688-0.759,3.413-2.275c0.555-1.148,0.832-2.679,0.832-4.593c0-1.913-0.277-3.444-0.832-4.593c-0.726-1.517-1.863-2.275-3.413-2.275C135.847,1028.117,134.709,1028.876,133.998,1030.393z">
            </path>
                
            <path fill="#C4C4C4" stroke="#C4C4C4" stroke-miterlimit="10" d="M154.284,1029.901c0.654,1.298,0.981,2.993,0.981,5.084c0,2.064-0.327,3.759-0.981,5.085c-0.854,1.681-2.212,2.521-4.074,2.521c-1.863,0-3.221-0.841-4.074-2.521c-0.654-1.258-0.981-2.953-0.981-5.085s0.327-3.827,0.981-5.084c0.854-1.682,2.211-2.522,4.074-2.522C152.072,1027.379,153.431,1028.22,154.284,1029.901z M146.797,1030.393c-0.541,1.094-0.811,2.625-0.811,4.593c0,1.941,0.27,3.472,0.811,4.593c0.711,1.517,1.849,2.275,3.413,2.275c1.55,0,2.688-0.759,3.413-2.275c0.555-1.148,0.832-2.679,0.832-4.593c0-1.913-0.277-3.444-0.832-4.593c-0.726-1.517-1.863-2.275-3.413-2.275C148.646,1028.117,147.508,1028.876,146.797,1030.393z">
            </path>
              
            <path fill="#C4C4C4" stroke="#C4C4C4" stroke-miterlimit="10" d="M167.083,1029.901c0.654,1.298,0.981,2.993,0.981,5.084c0,2.064-0.327,3.759-0.981,5.085c-0.854,1.681-2.212,2.521-4.074,2.521c-1.863,0-3.221-0.841-4.074-2.521c-0.654-1.258-0.981-2.953-0.981-5.085s0.327-3.827,0.981-5.084c0.854-1.682,2.211-2.522,4.074-2.522C164.871,1027.379,166.229,1028.22,167.083,1029.901z M159.596,1030.393c-0.541,1.094-0.811,2.625-0.811,4.593c0,1.941,0.27,3.472,0.811,4.593c0.711,1.517,1.849,2.275,3.413,2.275c1.55,0,2.688-0.759,3.413-2.275c0.555-1.148,0.832-2.679,0.832-4.593c0-1.913-0.277-3.444-0.832-4.593c-0.726-1.517-1.863-2.275-3.413-2.275C161.444,1028.117,160.307,1028.876,159.596,1030.393z">
                
            </path>
                
            <path fill="#C4C4C4" stroke="#C4C4C4" stroke-miterlimit="10" d="M179.882,1029.901c0.654,1.298,0.981,2.993,0.981,5.084c0,2.064-0.327,3.759-0.981,5.085c-0.854,1.681-2.212,2.521-4.074,2.521c-1.863,0-3.221-0.841-4.074-2.521c-0.654-1.258-0.981-2.953-0.981-5.085s0.327-3.827,0.981-5.084c0.854-1.682,2.211-2.522,4.074-2.522C177.67,1027.379,179.028,1028.22,179.882,1029.901z M172.395,1030.393c-0.541,1.094-0.811,2.625-0.811,4.593c0,1.941,0.27,3.472,0.811,4.593c0.711,1.517,1.849,2.275,3.413,2.275c1.55,0,2.688-0.759,3.413-2.275c0.555-1.148,0.832-2.679,0.832-4.593c0-1.913-0.277-3.444-0.832-4.593c-0.726-1.517-1.863-2.275-3.413-2.275C174.243,1028.117,173.105,1028.876,172.395,1030.393z">
                
            </path>
              
            <path fill="#C4C4C4" stroke="#C4C4C4" stroke-miterlimit="10" d="M188.286,1031.828h0.769v4.798h4.991v0.737h-4.991v4.818h-0.769v-4.818h-5.013v-0.737h5.013V1031.828z">
                
            </path>
          </g>
        </g>
        <g>
            
          <path fill-rule="evenodd" clip-rule="evenodd" fill="#CFCED3" d="M537.435,1030.986c-0.172,0.488-0.506,0.881-0.806,1.284c-0.683,0.922-1.416,1.806-2.244,2.601c-1.151,1.105-2.422,2.047-3.86,2.763c-1.219,0.606-2.49,1.048-3.796,1.41c-1.508,0.36-3.032,0.304-4.56,0.164c-0.537-0.108-1.085-0.175-1.606-0.337c-0.552-0.172-1.12-0.268-1.671-0.458c-0.623-0.215-1.271-0.38-1.887-0.622c-2.512-0.986-4.887-2.219-6.961-3.975c-1.132-0.96-2.216-1.967-2.936-3.292c-0.248-0.456-0.49-0.924-0.536-1.454c-0.025-0.289-0.245-0.405-0.447-0.497c-0.213-0.096-0.209,0.105-0.167,0.226c0.367,1.023,0.349,2.082,0.274,3.141c-0.089,1.267-0.74,2.227-1.73,2.979c-0.988,0.752-2.118,1.21-3.294,1.57c-1.08,0.33-2.371-0.646-2.27-1.799c0.077-0.871,0.422-1.632,0.772-2.402c0.417-0.912,1.009-1.736,1.354-2.688c0.353-0.971,0.631-1.961,0.915-2.951c0.101-0.348,0.204-0.697,0.333-1.036c0.278-0.729,1.059-1.071,1.802-0.808c0.892,0.314,1.677,0.824,2.464,1.334c0.483,0.314,0.485,0.31,0.795-0.078c1.243-1.563,2.858-2.643,4.627-3.521c1.439-0.713,2.909-1.355,4.413-1.915c1.31-0.487,2.632-0.937,3.983-1.308c3.009-0.824,6.081-1.078,9.18-1.121c1.339-0.018,2.682,0.018,4.005,0.229c1.629,0.26,3.243,0.59,4.643,1.551c0.867,0.594,1.436,1.354,1.611,2.428c0.206,1.253-0.015,2.444-0.329,3.641c-0.275,1.05-0.698,2.045-1.09,3.055c-0.073,0.188-0.211,0.326-0.28,0.508c-0.095-0.029-0.167,0.002-0.254,0.053c-0.389,0.228-0.771,0.479-1.185,0.649c-1.178,0.485-2.417,0.728-3.679,0.864c-2.217,0.238-4.371-0.08-6.491-0.699c-0.741-0.217-1.478-0.505-2.112-0.921c-1.038-0.679-1.998-1.479-2.842-2.401c-0.315-0.346-0.671-0.435-0.872-0.219c-0.299,0.321-0.01,0.582,0.118,0.856c0.011,0.022,0.034,0.038,0.052,0.059c1.019,1.145,2.172,2.099,3.562,2.79c1.351,0.673,2.745,1.131,4.236,1.361C531.689,1032.463,534.626,1032.307,537.435,1030.986z M534.505,1021.885c0.364-0.025,0.863-0.043,1.357-0.1c0.611-0.07,1.194-0.225,1.694-0.621c0.496-0.395,0.506-0.915,0.019-1.299c-0.212-0.168-0.446-0.275-0.697-0.35c-1.475-0.438-2.947-0.447-4.41,0.055c-0.461,0.158-0.905,0.363-1.204,0.773c-0.311,0.426-0.27,0.667,0.149,0.984c0.083,0.063,0.18,0.107,0.272,0.156C532.533,1021.934,533.457,1021.871,534.505,1021.885z M522.768,1023.26c-0.008-0.62-0.5-1.066-1.172-1.051c-0.729,0.017-1.177,0.406-1.154,1.1c0.019,0.572,0.507,1.107,1.051,1.07C522.193,1024.33,522.756,1023.992,522.768,1023.26z">
            
          </path>
            
          <path fill-rule="evenodd" clip-rule="evenodd" fill="#CFCED3" d="M526.682,1039.779c0.124,0.104,0.142,0.248,0.136,0.395c-0.109,3.098-0.017,6.197-0.046,9.295c-0.001,0.066-0.001,0.133-0.006,0.197c-0.011,0.137-0.081,0.225-0.223,0.227c-0.223,0.006-0.446,0.006-0.669-0.002c-0.186-0.006-0.209-0.14-0.246-0.295c-0.234-0.984-0.386-1.991-0.759-2.943c-0.094-0.239-0.234-0.446-0.392-0.625c-0.277-0.318-0.645-0.289-0.968,0.004c-0.474,0.426-0.736,0.961-0.933,1.565c-0.226,0.692-0.491,1.372-0.63,2.092c-0.024,0.13-0.102,0.21-0.243,0.208c-0.093,0-0.184-0.004-0.275-0.004c-0.557,0.006-0.553,0.007-0.54-0.568c0.02-0.865,0.039-1.732,0.051-2.6c0.001-0.148,0.056-0.336-0.126-0.42c-0.157-0.07-0.262,0.074-0.385,0.143c-0.812,0.444-1.333,1.188-1.938,1.85c-0.455,0.496-0.919,0.986-1.394,1.465c-0.221,0.221-0.525,0.164-0.785,0.104c-0.209-0.047-0.119-0.227-0.037-0.35c0.644-0.967,1.197-1.988,1.793-2.983c0.054-0.089,0.111-0.177,0.153-0.271c0.215-0.481,0.217-0.488-0.279-0.705c-1.037-0.452-1.245-1.037-1.245-2.081c0-0.098-0.036-0.248,0.094-0.27c0.142-0.023,0.125,0.132,0.155,0.225c0.339,1.021,1.235,1.424,2.207,1.01c0.174-0.074,0.263-0.196,0.351-0.344c0.777-1.311,1.558-2.62,2.339-3.928c0.039-0.064,0.104-0.112,0.157-0.168c0.571,0.07,1.14,0.174,1.713,0.202C524.725,1040.254,525.753,1040.345,526.682,1039.779z">
            
          </path>
            
          <path fill-rule="evenodd" clip-rule="evenodd" fill="#232321" d="M537.435,1030.986c-2.809,1.32-5.745,1.477-8.766,1.012c-1.491-0.23-2.886-0.688-4.236-1.361c-1.39-0.691-2.543-1.646-3.562-2.79c-0.018-0.021-0.041-0.036-0.052-0.059c-0.128-0.274-0.417-0.535-0.118-0.856c0.201-0.216,0.557-0.127,0.872,0.219c0.844,0.922,1.804,1.723,2.842,2.401c0.635,0.416,1.371,0.704,2.112,0.921c2.12,0.619,4.274,0.938,6.491,0.699c1.262-0.137,2.501-0.379,3.679-0.864c0.414-0.171,0.796-0.422,1.185-0.649c0.087-0.051,0.159-0.082,0.254-0.053C537.885,1030.058,537.751,1030.568,537.435,1030.986z">
            
          </path>
            
          <path fill-rule="evenodd" clip-rule="evenodd" fill="#232321" d="M526.682,1039.779c-0.929,0.565-1.957,0.475-2.969,0.423c-0.573-0.028-1.142-0.132-1.713-0.202c-0.046-0.285,0.114-0.527,0.168-0.792c1.528,0.14,3.053,0.196,4.561-0.164C526.792,1039.295,526.838,1039.543,526.682,1039.779z">
            
          </path>
            
          <path fill-rule="evenodd" clip-rule="evenodd" fill="#232321" d="M534.505,1021.885c-1.048-0.014-1.972,0.049-2.819-0.4c-0.093-0.049-0.189-0.094-0.272-0.156c-0.419-0.317-0.46-0.559-0.149-0.984c0.299-0.41,0.743-0.615,1.204-0.773c1.463-0.502,2.936-0.492,4.41-0.055c0.251,0.074,0.485,0.182,0.697,0.35c0.487,0.384,0.478,0.904-0.019,1.299c-0.5,0.396-1.083,0.551-1.694,0.621C535.368,1021.842,534.869,1021.859,534.505,1021.885z">
            
          </path>
            
          <path fill-rule="evenodd" clip-rule="evenodd" fill="#232321" d="M522.768,1023.26c-0.012,0.732-0.574,1.07-1.275,1.119c-0.544,0.037-1.032-0.498-1.051-1.07c-0.022-0.693,0.426-1.083,1.154-1.1C522.268,1022.193,522.76,1022.64,522.768,1023.26z">
              
            
          </path>
        </g>
      </g>
    </g>
    <g>
      <g>
        <g>
            
          <path fill="#24303B" d="M117.315,1107.053c-1.709,2.361-3.841,4.448-6.396,6.264l-0.898-1.189c2.467-1.674,4.555-3.674,6.264-5.999L117.315,1107.053z M121.174,1089.636c0.405,0.828,0.836,1.876,1.295,3.146h10.968v1.348h-23.311v-1.348h10.889c-0.353-0.987-0.784-1.956-1.295-2.907L121.174,1089.636z M113.615,1097.115h16.36v6.978h-7.374v7.373c0,1.463-0.731,2.194-2.193,2.194h-2.828l-0.317-1.375c1.233,0.07,2.114,0.106,2.643,0.106c0.846,0,1.269-0.433,1.269-1.296v-7.003h-7.559V1097.115z M128.547,1102.691v-4.176h-13.505v4.176H128.547z M127.279,1106.128c2.432,1.973,4.501,3.999,6.211,6.078l-1.057,1.058c-1.551-2.009-3.586-4.079-6.105-6.211L127.279,1106.128z">
              
            
          </path>
            
          <path fill="#24303B" d="M120.407,1114.41h-3.425l-0.676-2.931l0.998,0.057c1.242,0.071,2.092,0.105,2.6,0.105c0.402,0,0.519-0.071,0.519-0.546v-6.253h-7.559v-8.478h17.86v8.478h-7.374v6.623C123.351,1113.337,122.278,1114.41,120.407,1114.41z M121.835,1111.802c-0.123,0.444-0.367,0.789-0.717,1.019C121.56,1112.678,121.777,1112.36,121.835,1111.802z M115.792,1101.941h12.005v-2.676h-12.005V1101.941z M132.36,1114.397l-0.521-0.676c-1.511-1.957-3.529-4.009-5.996-6.097l-0.631-0.534l2.022-1.965l0.518,0.42c2.457,1.993,4.583,4.073,6.317,6.184l0.432,0.525L132.36,1114.397z M110.76,1114.35l-1.813-2.4l0.653-0.443c2.384-1.617,4.43-3.576,6.08-5.822l0.49-0.666l2.149,1.928l-0.396,0.547c-1.747,2.414-3.958,4.58-6.569,6.436L110.76,1114.35z M134.187,1094.879h-24.811v-2.848h10.544c-0.255-0.608-0.543-1.212-0.86-1.803l-0.497-0.925l3.04-0.498l0.245,0.501c0.361,0.738,0.746,1.653,1.145,2.725h11.194V1094.879z">
              
            
          </path>
        </g>
          
        <g>
            
          <path fill="#24303B" d="M146.44,1106.128c-1.78,2.449-3.973,4.581-6.581,6.396l-0.873-1.163c2.555-1.744,4.705-3.788,6.449-6.132L146.44,1106.128z M139.806,1093.124h6.581c0.634-1.392,1.145-2.607,1.533-3.646l1.454,0.316c-0.44,1.163-0.916,2.273-1.427,3.33h13.716v1.428h-14.404c-1.357,2.695-2.846,5.021-4.466,6.978h7.902v-4.123h1.4v4.123h8.51v1.295h-8.51v8.748c0,1.497-0.749,2.246-2.246,2.246h-2.749l-0.291-1.374c1.163,0.07,2.009,0.105,2.537,0.105c0.899,0,1.348-0.44,1.348-1.321v-8.404h-9.409l-0.344-1.216c1.727-1.851,3.313-4.202,4.757-7.057h-5.894V1093.124z M156.483,1105.229c2.466,2.168,4.51,4.3,6.131,6.396l-1.031,1.03c-1.445-2.009-3.462-4.176-6.052-6.501L156.483,1105.229z">
              
            
          </path>
            
          <path fill="#24303B" d="M149.85,1114.568h-3.357l-0.62-2.932l0.983,0.059c1.143,0.069,1.981,0.104,2.492,0.104c0.516,0,0.598-0.136,0.598-0.571v-7.654h-9.226l-0.613-2.168l0.289-0.31c1.448-1.552,2.812-3.497,4.064-5.795h-5.403v-2.928h6.847c0.533-1.188,0.974-2.248,1.314-3.158l0.227-0.609l2.938,0.64l-0.308,0.813c-0.3,0.792-0.619,1.567-0.953,2.314h13.291v2.928h-14.694c-1.046,2.028-2.18,3.863-3.383,5.478h5.61v-4.123h2.9v4.123h8.51v2.795h-8.51v7.998C152.846,1113.477,151.754,1114.568,149.85,1114.568z M151.302,1112.101c-0.133,0.359-0.355,0.646-0.656,0.849C151.01,1112.809,151.218,1112.537,151.302,1112.101z M161.49,1113.81l-0.515-0.717c-1.406-1.955-3.406-4.102-5.944-6.381l-0.597-0.536l2.024-1.969l0.521,0.458c2.492,2.19,4.588,4.378,6.229,6.501l0.404,0.522L161.49,1113.81z M139.694,1113.553l-1.777-2.369l0.647-0.442c2.475-1.689,4.584-3.695,6.27-5.96l0.49-0.659l2.121,1.898l-0.398,0.548c-1.821,2.507-4.095,4.717-6.759,6.57L139.694,1113.553z">
            
          </path>
        </g>
          
        <g>
          
          <path fill="#24303B" d="M180.533,1090.059c2.572,3.207,6.334,5.867,11.286,7.981l-0.793,1.189c-4.582-1.956-8.272-4.555-11.074-7.797c-3.102,3.277-6.81,5.894-11.127,7.85l-0.793-1.163c4.581-2.078,8.36-4.766,11.338-8.061H180.533z M173.081,1097.3h13.743v1.295h-6.158v4.282h9.594v1.348h-9.594v7.532h3.304c0.969-1.727,1.824-3.664,2.563-5.814l1.295,0.502c-0.723,2.045-1.524,3.815-2.405,5.313h5.762v1.374h-22.491v-1.374h5.735c-0.634-1.85-1.41-3.559-2.326-5.127l1.295-0.476c0.916,1.55,1.727,3.418,2.432,5.603h3.409v-7.532h-9.62v-1.348h9.62v-4.282h-6.158V1097.3z">
          
          </path>
          
          <path fill="#24303B" d="M191.935,1113.881h-23.991v-2.874h5.416c-0.544-1.422-1.183-2.764-1.904-3.999l-0.452-0.773l2.722-0.999l0.318,0.537c0.866,1.465,1.648,3.224,2.328,5.234h2.117v-6.032h-9.62v-2.848h9.62v-2.782h-6.158v-1.01c-1.029,0.588-2.094,1.131-3.196,1.631l-0.574,0.26l-1.65-2.421l0.812-0.368c4.464-2.025,8.196-4.677,11.092-7.881l0.224-0.247h1.855l0.225,0.28c2.482,3.095,6.181,5.706,10.995,7.762l0.831,0.354l-1.64,2.459l-0.573-0.245c-1.1-0.47-2.153-0.978-3.158-1.524v0.95h-6.158v2.782h9.594v2.848h-4.898l2.666,1.033l-0.243,0.687c-0.562,1.591-1.18,3.036-1.841,4.313h5.241V1113.881z M181.416,1111.007h2.111c0.859-1.588,1.631-3.372,2.297-5.309l0.249-0.724h-4.657V1111.007z M175.152,1096.55h9.42c-1.737-1.204-3.288-2.545-4.643-4.017C178.469,1094.005,176.873,1095.347,175.152,1096.55z">
          
          </path>
        </g>
        
        <g>
          
          <path fill="#24303B" d="M197.316,1090.931h12.396v1.321h-12.396V1090.931z M205.509,1113.713l-0.344-1.295l1.929,0.079c0.546,0,0.819-0.256,0.819-0.767v-8.88h-8.827v11.021h-1.269v-12.263h11.391v10.387c0,1.145-0.564,1.718-1.691,1.718H205.509z M198.902,1094.287h9.25v5.444h-9.25V1094.287z M206.857,1098.568v-3.092h-6.66v3.092H206.857z M200.197,1107.528h3.647c0.546-1.198,0.995-2.432,1.348-3.7l1.057,0.396c-0.423,1.304-0.854,2.405-1.295,3.304h1.876v1.137h-2.749v4.915h-1.216v-4.915h-2.669V1107.528z M201.624,1104.066c0.493,0.828,0.942,1.797,1.348,2.907l-0.978,0.264c-0.37-1.004-0.819-1.955-1.348-2.854L201.624,1104.066z M210.689,1094.578h3.858v-4.704h1.348v4.704h3.858v10.148h-3.858v6.449c0.881-0.176,1.876-0.405,2.986-0.688c-0.353-1.233-0.731-2.388-1.136-3.462l1.136-0.37c0.793,2.026,1.471,4.264,2.035,6.713l-1.216,0.317l-0.476-1.956c-2.626,0.651-5.498,1.216-8.616,1.691l-0.317-1.348c1.48-0.194,2.898-0.405,4.255-0.635v-6.713h-3.858V1094.578z M214.601,1103.458v-7.611h-2.643v7.611H214.601z M218.512,1103.458v-7.611h-2.669v7.611H218.512z">
          
          </path>
          
          <path fill="#24303B" d="M199.837,1114.621h-2.769v-13.763h12.871v-7.03h3.858v-4.704h2.848v4.704h3.858v11.648h-3.858v4.774c0.41-0.09,0.842-0.19,1.296-0.302c-0.283-0.935-0.584-1.826-0.897-2.658l-0.277-0.734l2.555-0.833l0.258,0.659c0.801,2.048,1.497,4.342,2.068,6.818l0.164,0.71l-2.659,0.693l-0.479-1.968c-2.447,0.581-5.118,1.095-7.951,1.526l-0.685,0.104l-0.271-1.15c-0.339,0.867-1.119,1.346-2.25,1.346h-2.585l-0.101-0.378v0.245h-2.716v-4.915h-2.279V1114.621z M204.832,1111.653l2.293,0.095c0.011,0,0.021-0.001,0.031-0.002l0.002-2.331h-2.326V1111.653z M209.959,1105.477v5.885l0.236-0.03c1.25-0.164,2.458-0.342,3.603-0.527v-5.327H209.959z M206.114,1106.778h1.047l0.002-2.941l-0.201,0.619C206.686,1105.31,206.401,1106.087,206.114,1106.778z M199.837,1106.778h1.17c-0.294-0.7-0.631-1.375-1.008-2.016l-0.163-0.276V1106.778z M202.22,1103.601l0.049,0.082c0.458,0.771,0.885,1.665,1.27,2.664c0.363-0.888,0.675-1.799,0.931-2.72l0.007-0.026H202.22z M199.837,1103.601v0.256l0.791-0.256H199.837z M216.593,1102.708h1.169v-6.111h-1.169V1102.708z M212.708,1102.708h1.143v-6.111h-1.143V1102.708z M208.902,1100.481h-10.75v-6.944h10.75V1100.481z M200.947,1097.818h5.16v-1.592h-5.16V1097.818z M210.461,1093.002h-13.896v-2.821h13.896V1093.002z">
          
          </path>
        </g>
        
        <g>
          
          <path fill="#24303B" d="M237.224,1093.547c1.11,0.97,1.665,2.273,1.665,3.912c0,1.621-0.625,3.101-1.876,4.439c-0.617,0.652-1.92,1.657-3.911,3.014c-2.679,1.814-4.167,3.453-4.467,4.915h10.281v1.48h-12.263c0-1.621,0.625-3.118,1.876-4.493c0.775-0.881,2.096-1.964,3.964-3.251c1.585-1.127,2.651-1.964,3.198-2.511c1.04-1.127,1.56-2.334,1.56-3.62c0-1.251-0.388-2.221-1.163-2.907c-0.758-0.688-1.789-1.031-3.092-1.031c-1.374,0-2.458,0.459-3.251,1.375c-0.846,0.916-1.269,2.255-1.269,4.017h-1.638c0-2.114,0.581-3.779,1.744-4.995c1.11-1.216,2.59-1.823,4.44-1.823C234.731,1092.067,236.132,1092.561,237.224,1093.547z">
          </path>
          
          <path fill="#24303B" d="M239.666,1112.058h-13.763v-0.75c0-1.806,0.697-3.487,2.072-4.998c0.813-0.925,2.155-2.028,4.094-3.363c1.535-1.092,2.578-1.909,3.092-2.424c0.895-0.971,1.34-1.988,1.34-3.09c0-1.036-0.298-1.803-0.911-2.346c-0.627-0.569-1.474-0.843-2.595-0.843c-1.156,0-2.034,0.365-2.684,1.116c-0.726,0.786-1.085,1.967-1.085,3.525v0.75h-3.138v-0.75c0-2.305,0.657-4.159,1.952-5.514c1.24-1.359,2.92-2.055,4.982-2.055c1.893,0,3.476,0.563,4.705,1.673c1.266,1.105,1.913,2.611,1.913,4.469c0,1.81-0.699,3.476-2.079,4.951c-0.664,0.702-1.983,1.723-4.037,3.122c-2.215,1.5-3.292,2.679-3.792,3.545h9.935V1112.058z M227.455,1110.558h0.265l0.18-0.881c0.208-1.013,0.859-2.056,1.975-3.151c-0.308,0.28-0.569,0.542-0.783,0.784C228.154,1108.342,227.615,1109.408,227.455,1110.558z M236.852,1094.221c0.761,0.806,1.149,1.886,1.149,3.212c0,1.475-0.592,2.864-1.758,4.129c-0.287,0.287-0.682,0.63-1.193,1.036c0.65-0.497,1.124-0.903,1.418-1.215c1.124-1.202,1.671-2.487,1.671-3.924C238.139,1096.096,237.718,1095.035,236.852,1094.221z M227.615,1098.136h0.137c0.113-1.593,0.597-2.86,1.441-3.775c0.108-0.125,0.222-0.243,0.34-0.354c-0.138,0.121-0.27,0.251-0.397,0.391C228.23,1095.344,227.732,1096.569,227.615,1098.136z">
          
          </path>
        </g>
        
        <g>
          
          <path fill="#24303B" d="M256.358,1095.186c0.916,1.691,1.375,3.921,1.375,6.687c0,2.731-0.458,4.96-1.375,6.687c-1.127,2.08-2.819,3.119-5.074,3.119s-3.947-1.039-5.074-3.119c-0.917-1.673-1.375-3.902-1.375-6.687c0-2.801,0.458-5.03,1.375-6.687c1.11-2.078,2.801-3.118,5.074-3.118S255.249,1093.107,256.358,1095.186z M247.346,1096.296c-0.582,1.374-0.872,3.233-0.872,5.576c0,2.309,0.291,4.167,0.872,5.577c0.793,1.867,2.105,2.801,3.938,2.801c1.797,0,3.109-0.934,3.938-2.801c0.599-1.444,0.898-3.304,0.898-5.577c0-2.308-0.3-4.166-0.898-5.576c-0.811-1.867-2.124-2.802-3.938-2.802C249.452,1093.494,248.139,1094.429,247.346,1096.296z">
          
          </path>
          
          <path fill="#24303B" d="M251.284,1112.428c-2.542,0-4.471-1.182-5.733-3.512c-0.972-1.773-1.465-4.145-1.465-7.044c0-2.917,0.494-5.289,1.468-7.05c1.24-2.322,3.17-3.505,5.73-3.505s4.49,1.183,5.736,3.515c0.97,1.791,1.463,4.161,1.463,7.04c0,2.842-0.492,5.21-1.462,7.038C255.755,1111.246,253.826,1112.428,251.284,1112.428z M251.284,1094.244c-1.536,0-2.568,0.745-3.248,2.345c-0.539,1.273-0.813,3.052-0.813,5.283c0,2.199,0.274,3.979,0.815,5.291c0.676,1.592,1.708,2.337,3.245,2.337c1.506,0,2.54-0.748,3.252-2.355c0.551-1.329,0.834-3.109,0.834-5.272c0-2.194-0.282-3.972-0.839-5.283C253.838,1094.991,252.805,1094.244,251.284,1094.244z M255.556,1095.287c0.127,0.223,0.246,0.459,0.354,0.71c0.638,1.503,0.96,3.478,0.96,5.875c0,2.361-0.321,4.334-0.956,5.864c-0.18,0.406-0.384,0.776-0.61,1.109c0.139-0.2,0.27-0.415,0.395-0.645c0.851-1.604,1.284-3.735,1.284-6.329c0-2.627-0.432-4.756-1.284-6.329C255.652,1095.455,255.604,1095.37,255.556,1095.287z M246.88,1095.523c-0.003,0.005-0.006,0.011-0.008,0.016c-0.855,1.545-1.286,3.673-1.286,6.333c0,2.645,0.432,4.773,1.282,6.326c0,0.001,0.001,0.001,0.001,0.002c-0.075-0.147-0.146-0.3-0.213-0.458c-0.619-1.501-0.932-3.474-0.932-5.87c0-2.434,0.313-4.408,0.931-5.868C246.726,1095.837,246.801,1095.678,246.88,1095.523z">
          
          </path>
        </g>
        
        <g>
          
          <path fill="#24303B" d="M271.105,1092.438v18.87h-1.612v-16.862c-1.216,1.322-2.722,2.247-4.52,2.775v-1.639c0.898-0.264,1.771-0.66,2.617-1.189c0.828-0.546,1.568-1.197,2.22-1.955H271.105z">
          
          </path>
          
          <path fill="#24303B" d="M271.855,1112.058h-3.112v-15.909c-1.039,0.801-2.23,1.401-3.558,1.792l-0.961,0.282v-3.202l0.539-0.158c0.829-0.243,1.646-0.615,2.43-1.105c0.752-0.496,1.447-1.108,2.049-1.809l0.224-0.261h2.389V1112.058z M270.244,1110.558h0.112v-17.37h-0.112V1110.558z M265.724,1096.128v0.037c0.203-0.083,0.402-0.173,0.597-0.269C266.123,1095.98,265.924,1096.057,265.724,1096.128z">
            
          
          </path>
        </g>
        
        <g>
          
          <path fill="#24303B" d="M292.804,1093.573c0.986,0.899,1.48,2.026,1.48,3.384c0,0.986-0.256,1.858-0.767,2.616c-0.546,0.758-1.321,1.295-2.326,1.612v0.105c1.021,0.211,1.903,0.767,2.643,1.665c0.74,0.898,1.11,1.965,1.11,3.198c0,1.621-0.564,2.942-1.691,3.964c-1.181,1.04-2.837,1.56-4.969,1.56s-3.789-0.52-4.969-1.56c-1.127-1.004-1.691-2.325-1.691-3.964c0-1.233,0.37-2.3,1.11-3.198c0.705-0.898,1.595-1.454,2.669-1.665v-0.105c-1.022-0.317-1.806-0.854-2.352-1.612c-0.511-0.723-0.767-1.595-0.767-2.616c0-1.375,0.493-2.502,1.48-3.384c1.057-1.004,2.564-1.506,4.52-1.506C290.223,1092.067,291.729,1092.569,292.804,1093.573z M284.479,1103.194c-0.846,0.739-1.269,1.727-1.269,2.96c0,1.251,0.414,2.237,1.242,2.96c0.898,0.811,2.176,1.216,3.832,1.216c1.656,0,2.942-0.405,3.859-1.216c0.81-0.758,1.215-1.744,1.215-2.96c0-1.233-0.423-2.221-1.269-2.96c-0.881-0.828-2.15-1.242-3.806-1.242C286.628,1101.952,285.36,1102.366,284.479,1103.194z M284.875,1094.552c-0.688,0.634-1.031,1.453-1.031,2.458c0,1.039,0.317,1.876,0.951,2.511c0.775,0.739,1.938,1.109,3.489,1.109c1.533,0,2.696-0.37,3.489-1.109c0.634-0.635,0.951-1.472,0.951-2.511c0-1.005-0.343-1.824-1.031-2.458c-0.811-0.74-1.947-1.11-3.409-1.11C286.805,1093.441,285.668,1093.812,284.875,1094.552z">

          
          </path>
          
          <path fill="#24303B" d="M288.285,1112.428c-2.311,0-4.149-0.588-5.465-1.747c-1.292-1.15-1.945-2.672-1.945-4.526c0-1.406,0.431-2.643,1.281-3.675c0.426-0.544,0.921-0.982,1.478-1.312c-0.467-0.318-0.864-0.705-1.189-1.156c-0.604-0.854-0.908-1.88-0.908-3.055c0-1.591,0.582-2.917,1.73-3.943c1.179-1.12,2.874-1.696,5.019-1.696c2.125,0,3.818,0.574,5.031,1.708c1.138,1.037,1.718,2.362,1.718,3.932c0,1.133-0.301,2.154-0.895,3.035c-0.336,0.467-0.74,0.861-1.21,1.184c0.543,0.327,1.039,0.763,1.484,1.304c0.85,1.032,1.281,2.269,1.281,3.675c0,1.834-0.652,3.354-1.938,4.52C292.434,1111.84,290.595,1112.428,288.285,1112.428z M282.957,1103.938c-0.393,0.652-0.582,1.381-0.582,2.217c0,1.428,0.471,2.541,1.44,3.403c0.05,0.044,0.101,0.088,0.153,0.129c-0.006-0.005-0.012-0.01-0.018-0.016c-0.985-0.859-1.49-2.045-1.49-3.517C282.46,1105.326,282.627,1104.585,282.957,1103.938z M288.285,1102.702c-1.451,0-2.559,0.35-3.292,1.039c-0.701,0.613-1.032,1.396-1.032,2.413c0,1.033,0.322,1.816,0.985,2.395c0.761,0.688,1.882,1.031,3.339,1.031c1.46,0,2.591-0.346,3.362-1.027c0.643-0.602,0.962-1.391,0.962-2.398c0-1.017-0.331-1.8-1.012-2.396C290.844,1103.052,289.736,1102.702,288.285,1102.702z M293.618,1103.944c0.325,0.644,0.491,1.384,0.491,2.21c0,1.324-0.422,2.437-1.255,3.312c0.9-0.86,1.341-1.947,1.341-3.312C294.195,1105.318,294.005,1104.59,293.618,1103.944z M289.563,1101.288c0.307,0.044,0.6,0.104,0.879,0.182v-0.377C290.165,1101.176,289.872,1101.241,289.563,1101.288z M286.154,1101.105v0.356c0.269-0.073,0.551-0.13,0.846-0.173C286.703,1101.244,286.42,1101.184,286.154,1101.105z M288.285,1094.191c-1.277,0-2.251,0.306-2.897,0.908c-0.534,0.493-0.792,1.117-0.792,1.91c0,0.84,0.239,1.488,0.732,1.98c0.615,0.586,1.614,0.89,2.958,0.89c1.33,0,2.331-0.306,2.978-0.908c0.473-0.474,0.712-1.122,0.712-1.962c0-0.793-0.258-1.417-0.789-1.906C290.524,1094.499,289.547,1094.191,288.285,1094.191z M283.934,1094.466c-0.607,0.687-0.898,1.503-0.898,2.491c0,0.604,0.099,1.134,0.301,1.601c-0.161-0.471-0.242-0.987-0.242-1.548C283.095,1096.021,283.376,1095.168,283.934,1094.466z M292.668,1094.509c0.536,0.694,0.806,1.533,0.806,2.501c0,0.521-0.069,1.002-0.207,1.443c0.178-0.45,0.267-0.947,0.267-1.496C293.534,1095.996,293.25,1095.19,292.668,1094.509z">
          
          </path>
        </g>
        
        <g>
          
          <path fill="#24303B" d="M306.203,1096.877c-1.304,5.233-3.004,9.207-5.101,11.92l-1.242-1.058c2.185-2.836,3.832-6.642,4.942-11.417L306.203,1096.877z M306.706,1113.58l-0.344-1.453c1.727,0.07,2.951,0.105,3.674,0.105c1.145,0,1.718-0.599,1.718-1.797v-20.245h1.48v20.615c0,1.85-0.89,2.774-2.669,2.774H306.706z M319.101,1095.715c2.255,4.827,3.974,9.012,5.153,12.554l-1.295,0.898c-1.286-3.841-3.004-8.062-5.153-12.66L319.101,1095.715z">
          
          </path>
          
          <path fill="#24303B" d="M310.564,1114.33h-4.452l-0.708-2.993l0.988,0.041c1.708,0.069,2.934,0.104,3.643,0.104c0.627,0,0.968-0.167,0.968-1.047v-20.995h2.98v21.365C313.983,1113.078,312.769,1114.33,310.564,1114.33z M312.483,1110.841c-0.099,0.964-0.563,1.633-1.329,1.943C312.081,1112.624,312.476,1112.026,312.483,1110.841z M322.565,1110.354l-0.317-0.948c-1.272-3.799-2.995-8.031-5.122-12.581l-0.284-0.607l2.583-1.579l0.355,0.76c2.26,4.838,4.004,9.089,5.186,12.634l0.177,0.533L322.565,1110.354z M318.768,1096.798c1.85,4,3.387,7.756,4.58,11.187l0.016-0.011c-1.093-3.192-2.634-6.947-4.589-11.181L318.768,1096.798z M301.215,1109.878l-2.385-2.03l0.436-0.566c2.108-2.736,3.726-6.481,4.806-11.129l0.197-0.848l2.82,1.117l-0.159,0.637c-1.324,5.312-3.085,9.415-5.235,12.197L301.215,1109.878z M300.88,1107.623l0.095,0.08c1.063-1.523,2.023-3.425,2.872-5.687C303.01,1104.155,302.019,1106.029,300.88,1107.623z">
          
          </path>
        </g>
        
        <g>
          
          <path fill="#24303B" d="M350.102,1094.129v19.716h-1.4v-2.272h-15.09v2.325h-1.402v-19.769h6.186c0.67-1.41,1.145-2.89,1.428-4.44l1.531,0.212c-0.334,1.585-0.801,2.995-1.4,4.229H350.102z M333.611,1101.925h15.09v-6.448h-15.09V1101.925z M333.611,1110.197h15.09v-6.897h-15.09V1110.197z">
          
          </path>
          
          <path fill="#24303B" d="M334.361,1114.647h-2.902v-21.269h6.454c0.536-1.215,0.93-2.5,1.171-3.825l0.13-0.707l3.039,0.421l-0.166,0.787c-0.252,1.198-0.582,2.312-0.985,3.324h9.75v21.216h-2.9v-2.272h-13.59V1114.647z M334.361,1109.447h13.59v-5.397h-13.59V1109.447z M334.361,1101.175h13.59v-4.948h-13.59V1101.175z M340.417,1090.528c-0.063,0.286-0.134,0.571-0.21,0.854c0.082-0.277,0.159-0.561,0.232-0.851L340.417,1090.528z">
          
          </path>
        </g>
        
        <g>
          
          <path fill="#24303B" d="M361.309,1098.384c-0.969,1.48-1.955,2.784-2.961,3.911l-0.475-1.506c2.713-3.348,4.66-7.092,5.84-11.232l1.348,0.634c-0.598,1.974-1.383,3.895-2.352,5.762v17.998h-1.4V1098.384z M365.221,1093.494h17.072v1.375h-17.072V1093.494z M380.443,1105.018v8.854h-1.4v-1.453h-10.387v1.453h-1.428v-8.854H380.443z M367.678,1097.406h12.316v1.295h-12.316V1097.406z M367.678,1101.133h12.316v1.321h-12.316V1101.133z M368.656,1111.043h10.387v-4.678h-10.387V1111.043z M373.52,1089.715c0.58,1.11,1.029,2.141,1.348,3.093l-1.27,0.502c-0.422-1.181-0.908-2.256-1.453-3.225L373.52,1089.715z">
          
          </path>
          
          <path fill="#24303B" d="M363.459,1114.7h-2.9v-13.934c-0.546,0.729-1.099,1.408-1.651,2.027l-0.878,0.984l-0.993-3.148l0.254-0.313c2.638-3.254,4.556-6.943,5.701-10.965l0.242-0.85l2.732,1.285l-0.188,0.621c-0.237,0.783-0.505,1.563-0.803,2.336h7.605c-0.328-0.818-0.693-1.586-1.09-2.291l-0.474-0.842l2.888-0.777l0.279,0.533c0.596,1.142,1.065,2.219,1.394,3.202l0.059,0.175h7.406v2.875h-18.572v-1.636c-0.312,0.726-0.649,1.443-1.012,2.15V1114.7z M381.193,1114.621h-2.9v-1.453h-8.887v1.453h-2.928v-10.354h14.715V1114.621z M369.406,1110.293h8.887v-3.178h-8.887V1110.293z M380.744,1103.204h-13.816v-2.821h13.816V1103.204z M380.744,1099.451h-13.816v-2.795h13.816V1099.451z">
          
          </path>
        </g>
        
        <g>
          
          <path fill="#24303B" d="M391.332,1105.123c-0.264,3.419-1.26,6.246-2.986,8.484l-1.057-0.979c1.744-2.396,2.643-5.453,2.695-9.171v-12.527h19.293v19.77c0,1.727-0.863,2.59-2.59,2.59h-3.039l-0.371-1.401c1.059,0.054,2.035,0.08,2.934,0.08c1.094,0,1.639-0.6,1.639-1.798v-5.048h-7.742v7.876h-1.428v-7.876H391.332z M391.438,1098.701v4.862l-0.025,0.212h7.268v-5.074H391.438z M398.68,1092.331h-7.242v5.049h7.242V1092.331z M407.85,1097.38v-5.049h-7.742v5.049H407.85z M407.85,1103.775v-5.074h-7.742v5.074H407.85z">
          
          </path>
          
          <path fill="#24303B" d="M388.438,1114.716l-2.148-1.989l0.393-0.539c1.643-2.257,2.502-5.197,2.552-8.74v-13.267h20.793v20.52c0,2.153-1.187,3.34-3.34,3.34h-3.616l-0.782-2.952l1.026,0.052c1.034,0.053,2.009,0.079,2.896,0.079c0.59,0,0.889-0.162,0.889-1.048v-4.298h-6.242v7.876h-2.928v-7.876h-5.914c-0.352,3.247-1.385,6-3.076,8.192L388.438,1114.716z M408.52,1110.962c-0.156,0.71-0.536,1.224-1.108,1.505C408.126,1112.298,408.465,1111.826,408.52,1110.962z M400.857,1103.025h6.242v-3.574h-6.242V1103.025z M392.188,1103.025h5.742v-3.574h-5.742V1103.025z M400.857,1096.63h6.242v-3.549h-6.242V1096.63z M392.188,1096.63h5.742v-3.549h-5.742V1096.63z">
          
          </path>
        </g>
        
        <g>
          
          <path fill="#24303B" d="M419.689,1093.996h10.969c0.863-1.392,1.594-2.845,2.193-4.36l1.375,0.476c-0.652,1.533-1.357,2.828-2.115,3.885h4.943v10.678H429.1v2.696h10.941v1.374H429.1v5.206h-1.455v-5.206h-10.967v-1.374h10.967v-2.696h-7.955V1093.996z M421.117,1098.701h6.527v-3.409h-6.527V1098.701z M427.645,1103.353v-3.356h-6.527v3.356H427.645z M423.496,1089.768c0.898,1.04,1.752,2.229,2.563,3.568l-1.215,0.607c-0.793-1.321-1.656-2.511-2.59-3.567L423.496,1089.768z M429.1,1095.292v3.409h6.553v-3.409H429.1z M435.652,1103.353v-3.356H429.1v3.356H435.652z">
          
          </path>
          
          <path fill="#24303B" d="M429.85,1114.7h-2.955v-5.206h-10.967v-2.874h10.967v-1.196h-7.955v-12.178h4.574c-0.574-0.857-1.185-1.652-1.822-2.373l-0.651-0.738l2.646-1.295l0.378,0.438c0.92,1.064,1.807,2.299,2.637,3.67l0.181,0.299h3.356c0.742-1.24,1.387-2.546,1.917-3.887l0.264-0.667l2.813,0.973l-0.314,0.74c-0.446,1.048-0.923,1.999-1.423,2.841h4.311v12.178h-7.955v1.196h10.941v2.874H429.85V1114.7z M429.85,1102.603h5.053v-1.856h-5.053V1102.603z M421.867,1102.603h5.027v-1.856h-5.027V1102.603z M429.85,1097.951h5.053v-1.909h-5.053V1097.951z M421.867,1097.951h5.027v-1.909h-5.027V1097.951z">
          
          </path>
        </g>
        
        <g>
          
          <path fill="#24303B" d="M446.199,1099.177h22.49v1.4h-7.453v10.413c0,0.775,0.441,1.163,1.322,1.163h2.934c0.67,0,1.145-0.194,1.428-0.581c0.352-0.511,0.598-2.018,0.738-4.52l1.295,0.423c-0.158,2.784-0.502,4.52-1.029,5.206c-0.441,0.529-1.164,0.793-2.168,0.793h-3.621c-1.551,0-2.326-0.731-2.326-2.193v-10.704h-5.18v0.317c-0.053,3.524-0.74,6.343-2.061,8.457c-1.322,1.974-3.453,3.506-6.396,4.599l-0.793-1.216c2.871-1.057,4.916-2.511,6.133-4.36c1.074-1.885,1.637-4.378,1.691-7.479v-0.317h-7.004V1099.177z M448.26,1091.433h18.131v1.375H448.26V1091.433z">
          
          </path>
          
          <path fill="#24303B" d="M445.871,1114.862l-1.635-2.507l0.884-0.325c2.704-0.995,4.644-2.364,5.765-4.068c0.931-1.635,1.461-3.877,1.557-6.635h-6.992v-2.9h23.99v2.9h-7.453v9.663c0,0.258,0,0.413,0.572,0.413h2.934c0.413,0,0.689-0.092,0.822-0.274c0.083-0.121,0.41-0.83,0.595-4.118l0.055-0.974l2.771,0.904l-0.032,0.577c-0.225,3.948-0.783,5.099-1.184,5.62c-0.606,0.729-1.53,1.086-2.763,1.086h-3.621c-1.955,0-3.076-1.073-3.076-2.943v-9.954h-3.689c-0.104,3.459-0.832,6.287-2.165,8.422c-1.418,2.118-3.692,3.761-6.771,4.904L445.871,1114.862z M460.58,1111.659c0.062,0.466,0.263,0.809,0.775,0.968C460.977,1112.415,460.712,1112.086,460.58,1111.659z M467.141,1093.558H447.51v-2.875h19.631V1093.558z">
          
          </path>
        </g>
        
        <g>
          
          <path fill="#24303B" d="M477.465,1092.648h7.188v-2.907h1.428v2.907h6.078v1.321h-6.078v3.304h2.59c2.572-1.973,4.801-4.255,6.688-6.845l1.057,0.819c-1.656,2.237-3.516,4.246-5.576,6.025h7.082v1.349h-8.773c-1.586,1.162-3.182,2.185-4.783,3.065h11.945v1.295h-13.135l-0.926,3.146h12.713c-0.158,3.488-0.539,5.585-1.137,6.29c-0.617,0.669-1.762,1.004-3.436,1.004c-0.934,0-2.035-0.035-3.305-0.105l-0.502-1.295c1.445,0.088,2.6,0.132,3.463,0.132c1.443,0,2.352-0.265,2.723-0.793c0.316-0.511,0.563-1.823,0.74-3.938h-12.951l1.242-4.44c-2.133,1.004-4.404,1.877-6.818,2.616l-0.582-1.295c4.688-1.409,8.818-3.304,12.395-5.682h-11.232v-1.349h9.092v-3.304h-7.188V1092.648z">
          
          </path>
          
          <path fill="#24303B" d="M490.389,1114.172c-0.943,0-2.069-0.036-3.346-0.106l-0.483-0.027l-1.1-2.836l1.168,0.07c1.423,0.087,2.573,0.131,3.417,0.131c1.647,0,2.031-0.363,2.109-0.474c0.08-0.132,0.318-0.718,0.53-2.757h-13.116l1.076-3.849c-1.734,0.747-3.56,1.414-5.444,1.991l-0.633,0.194l-1.203-2.678l0.818-0.246c3.65-1.098,6.992-2.511,9.968-4.214h-9.34v-2.849h9.092v-1.804h-7.188v-2.821h7.188v-2.907h2.928v2.907h6.078v0.391c0.649-0.739,1.264-1.507,1.843-2.302l0.455-0.625l2.247,1.742l-0.437,0.59c-1.285,1.736-2.708,3.355-4.242,4.829h5.896v2.849h-9.279c-0.761,0.552-1.528,1.074-2.298,1.565h9.966v2.795h-13.323l-0.484,1.646h12.495l-0.036,0.784c-0.223,4.916-0.856,6.201-1.313,6.741C493.603,1113.765,492.298,1114.172,490.389,1114.172z M486.83,1096.523h1.584c0.735-0.572,1.443-1.175,2.124-1.804h-3.708V1096.523z">
          
          </path>
        </g>
        
        <g>
          
          <path fill="#24303B" d="M503.523,1098.014h5.26v11.999c0.828-0.723,1.779-1.683,2.854-2.881l0.371,1.507c-1.445,1.585-2.961,2.986-4.547,4.202l-0.555-1.295c0.334-0.3,0.502-0.6,0.502-0.899v-11.232h-3.885V1098.014z M506.432,1090.059c1.744,1.392,3.197,2.793,4.359,4.202l-1.004,1.004c-1.145-1.392-2.607-2.801-4.387-4.229L506.432,1090.059z M522.5,1111.36c-0.775-1.55-1.322-3.7-1.639-6.448c-0.301-2.185-0.502-5.118-0.607-8.802h-8.484v-1.427h8.457c-0.035-1.057-0.053-2.722-0.053-4.995h1.428c0,2.309,0.018,3.974,0.053,4.995h5.391v1.427h-5.365c0.123,4.881,0.432,8.599,0.926,11.153c0.617,2.96,1.348,4.484,2.193,4.572c0.652-0.105,1.277-1.788,1.877-5.048l1.109,0.925c-0.828,3.788-1.822,5.683-2.986,5.683C523.953,1113.396,523.188,1112.717,522.5,1111.36z M515.02,1102.031h-2.643v-1.349h6.688v1.349h-2.643v7.638c1.197-0.281,2.422-0.599,3.674-0.951v1.374c-2.273,0.67-4.768,1.233-7.48,1.691l-0.344-1.374l2.748-0.476V1102.031z M523.875,1089.662c1.25,1.427,2.158,2.572,2.721,3.436l-1.029,0.714c-0.652-1.058-1.551-2.22-2.697-3.488L523.875,1089.662z">
          
          </path>
          
          <path fill="#24303B" d="M524.799,1114.146c-1.146,0-2.146-0.823-2.968-2.446c-0.381-0.761-0.71-1.66-0.985-2.69v1.644l-0.538,0.159c-2.288,0.674-4.834,1.25-7.567,1.711l-0.685,0.116l-0.586-2.345c-1.144,1.155-2.334,2.208-3.553,3.143l-0.766,0.587l-1.146-2.677l0.4-0.359c0.2-0.179,0.253-0.302,0.253-0.341v-10.482h-3.885v-2.9h6.76v11.011c0.482-0.485,0.999-1.034,1.545-1.644l0.947-1.057l0.807,3.274l-0.271,0.295c-0.166,0.183-0.333,0.363-0.502,0.541l2.21-0.382v-6.521h-2.643v-2.849h8.035c-0.054-0.956-0.1-1.981-0.136-3.072h-8.507v-1.768l-1.286,1.287l-0.525-0.639c-1.104-1.343-2.544-2.729-4.277-4.12l-0.67-0.538l2.129-2.018l0.51,0.407c1.775,1.416,3.279,2.866,4.471,4.311l0.123,0.15h7.964c-0.022-1.042-0.033-2.465-0.033-4.245v-0.75h2.928v0.75c0,0.025,0,0.052,0,0.077l1.657-1.089l0.431,0.491c1.289,1.472,2.2,2.623,2.784,3.521l0.398,0.61l-0.916,0.635h1.089v2.927h-5.344c0.133,4.444,0.433,7.894,0.891,10.261c0.568,2.726,1.109,3.583,1.371,3.851c0.219-0.339,0.68-1.354,1.226-4.319l0.231-1.262l2.445,2.038l-0.098,0.444C527.569,1112.211,526.423,1114.146,524.799,1114.146z M524.273,1112.469c0.167,0.111,0.344,0.177,0.525,0.177c0.028,0,0.113-0.009,0.242-0.095c-0.041,0.011-0.081,0.019-0.122,0.025l-0.099,0.016l-0.099-0.01C524.566,1112.565,524.417,1112.528,524.273,1112.469z M517.172,1102.781v5.936c0.889-0.221,1.8-0.462,2.721-0.721l0.669-0.188c-0.181-0.862-0.329-1.8-0.445-2.81c-0.114-0.829-0.215-1.777-0.302-2.839v0.622H517.172z M522.384,1093.934h2.372c-0.603-0.932-1.409-1.96-2.402-3.063C522.357,1092.127,522.367,1093.151,522.384,1093.934z">
          
          </path>
        </g>
      </g>
    </g>
    <g>  
      <rect data-fjh="glanimate" x="87.833" y="1158" fill="none" stroke="#24303B" stroke-width="1.5" stroke-miterlimit="10" width="222.333" height="397"></rect>
      <rect data-fjh="glanimate" x="329.832" y="1158" fill="none" stroke="#24303B" stroke-width="1.5" stroke-miterlimit="10" width="222.334" height="397"></rect>
    </g>
    <rect data-fjh="glanimate" x="112.937" y="1173.667" fill="#24303B" stroke="#24303B" stroke-miterlimit="10" width="172" height="35.334">
    </rect>
    <g>
      
      <path fill="#FFFFFF" stroke="#FFFFFF" stroke-width="0.5" stroke-miterlimit="10" d="M153.294,1187.464h2.457v-5.25h1.113v5.25h2.268v1.092h-2.268v6.993c0.588-0.196,1.344-0.476,2.268-0.84v1.134c-1.75,0.714-3.654,1.302-5.712,1.764l-0.273-1.113c0.84-0.153,1.708-0.356,2.604-0.608v-7.329h-2.457V1187.464z M164.361,1198.51c-1.26,1.105-2.779,2.064-4.557,2.877l-0.672-0.861c1.722-0.742,3.206-1.638,4.452-2.688L164.361,1198.51z M159.888,1183.894h5.313c0.084-0.588,0.147-1.176,0.189-1.764l1.134,0.146l-0.189,1.617h5.292v0.987h-5.439c-0.07,0.476-0.168,1.015-0.294,1.617h4.452v9.765h1.974v1.05h-13.167v-1.05h2.037v-9.765h3.591c0.154-0.784,0.252-1.323,0.294-1.617h-5.187V1183.894z M162.282,1189.018h6.972v-1.596h-6.972V1189.018z M162.282,1191.411h6.972v-1.532h-6.972V1191.411z M162.282,1193.806h6.972v-1.554h-6.972V1193.806z M162.282,1196.263h6.972v-1.617h-6.972V1196.263z M167.91,1197.942c1.47,0.729,2.842,1.61,4.116,2.646l-0.693,0.798c-1.386-1.12-2.765-2.051-4.137-2.793L167.91,1197.942z">

      </path>
      
      <path fill="#FFFFFF" stroke="#FFFFFF" stroke-width="0.5" stroke-miterlimit="10" d="M190.464,1187.526c1.512,1.092,2.772,2.185,3.78,3.276l-0.819,0.798c-0.896-1.021-2.149-2.121-3.759-3.297L190.464,1187.526z M194.307,1193.47c-0.98,2.786-2.037,5.327-3.171,7.623l-1.092-0.462c1.26-2.479,2.331-4.998,3.213-7.561L194.307,1193.47z M190.989,1182.486c1.484,1.106,2.709,2.191,3.675,3.255l-0.798,0.819c-0.952-1.063-2.184-2.155-3.696-3.276L190.989,1182.486z M201.888,1182.382c1.526,2.31,3.766,4.221,6.72,5.732l-0.651,0.925c-2.758-1.4-4.949-3.234-6.573-5.503c-1.778,2.381-3.878,4.277-6.3,5.691l-0.651-0.945c2.618-1.539,4.767-3.507,6.447-5.9H201.888z M198.654,1195.107c-0.924,2.072-1.981,3.829-3.171,5.271l-0.924-0.651c1.232-1.414,2.275-3.108,3.129-5.082L198.654,1195.107z M198.276,1201.177l-0.252-1.092c0.924,0.056,1.596,0.084,2.016,0.084c0.672,0,1.008-0.378,1.008-1.135v-5.942h-5.838V1192h5.838v-2.877h-3.486v-1.071h7.644v1.071h-3.024V1192h5.46v1.092h-5.46v6.216c0,1.246-0.588,1.869-1.764,1.869H198.276z M204.933,1194.646c1.358,1.862,2.415,3.521,3.171,4.978l-0.924,0.63c-0.742-1.484-1.785-3.164-3.129-5.04L204.933,1194.646z">

      </path>

      <path fill="#FFFFFF" stroke="#FFFFFF" stroke-width="0.5" stroke-miterlimit="10" d="M227.613,1183.096h16.526v1.092h-15.414v15.184h16.002v1.092h-17.114V1183.096z M231.666,1186.519c1.876,1.4,3.73,2.919,5.564,4.557c1.288-1.609,2.387-3.465,3.297-5.564l1.029,0.546c-0.979,2.226-2.135,4.158-3.465,5.796c1.764,1.61,3.332,3.186,4.704,4.725l-0.861,0.861c-1.302-1.525-2.828-3.101-4.578-4.725c-1.89,2.086-4.081,3.661-6.572,4.725l-0.651-1.029c2.436-1.008,4.557-2.499,6.363-4.473c-1.877-1.651-3.76-3.199-5.649-4.641L231.666,1186.519z">

      </path>
    </g>
    <g>
      <g>
        <rect x="351.499" y="1234" fill="none" width="181.667" height="286.836">
        
        </rect>
        
        <path d="M352.885,1242.861h2.563v-5.292h-2.856v-1.07h6.804v1.07h-2.813v5.292h2.521v1.092h-2.521v5.25c0.952-0.321,1.903-0.679,2.856-1.07v1.112c-2.072,0.841-4.285,1.533-6.637,2.079l-0.273-1.092c0.98-0.21,1.953-0.44,2.92-0.692v-5.587h-2.563V1242.861z M364.645,1238.599h1.071v5.208c-0.042,2.8-0.581,5.026-1.616,6.678c-1.009,1.526-2.682,2.737-5.02,3.633l-0.65-0.966c2.281-0.84,3.891-1.995,4.829-3.465c0.882-1.512,1.345-3.472,1.386-5.88V1238.599z M369.79,1235.868v11.487h-1.134v-10.395h-6.762v10.395h-1.135v-11.487H369.79z M367.27,1253.781c-1.021,0-1.533-0.504-1.533-1.512v-4.998h1.135v4.746c0,0.462,0.244,0.693,0.734,0.693h1.639c0.42,0,0.707-0.112,0.861-0.336c0.223-0.28,0.377-1.135,0.461-2.563l1.051,0.357c-0.126,1.693-0.357,2.736-0.693,3.129c-0.322,0.321-0.813,0.482-1.47,0.482H367.27z">
      
        </path>
      
        <path d="M382.624,1245.192c-0.91,0.98-1.855,1.876-2.835,2.688l-0.735-0.924c2.772-2.282,4.921-4.914,6.447-7.896h-5.712v-1.113h6.236c0.406-0.966,0.784-2.002,1.135-3.107l1.154,0.126c-0.266,0.952-0.615,1.946-1.05,2.981h10.773v1.113h-11.277c-0.868,1.764-1.868,3.36-3.003,4.788v10.311h-1.134V1245.192z M385.857,1244.856h4.998v-4.053h1.155v4.053h5.103v1.134h-5.103v6.279h6.091v1.113h-13.168v-1.113h5.922v-6.279h-4.998V1244.856z">
      
        </path>
      
        <path d="M410.535,1234.944h1.156v19.152h-1.156v-7.329c-1.469,1.386-2.834,2.478-4.094,3.276l-0.505-1.093c1.261-0.756,2.793-1.932,4.599-3.527V1234.944z M406.945,1237.465c1.021,1.372,1.918,2.87,2.688,4.494l-1.008,0.44c-0.826-1.75-1.715-3.262-2.668-4.536L406.945,1237.465z M417.172,1237.675c-0.98,1.162-2.213,2.128-3.696,2.897l-0.735-0.882c2.366-1.176,3.955-2.758,4.768-4.746l1.176,0.21c-0.196,0.504-0.448,0.994-0.756,1.471h6.32v0.966c-1.301,3.122-4.605,5.32-9.911,6.594l-0.589-1.008c1.765-0.42,3.305-0.924,4.621-1.512c-0.771-0.729-1.513-1.337-2.227-1.827l0.819-0.609c0.825,0.588,1.603,1.239,2.331,1.953c1.722-0.966,2.947-2.135,3.675-3.507H417.172z M413.182,1245.256h8.127v-2.227h1.135v2.227h2.688v1.112h-2.688v5.943c0,1.147-0.609,1.722-1.828,1.722h-2.793l-0.23-1.092c1.203,0.056,2.079,0.084,2.625,0.084c0.728,0,1.092-0.329,1.092-0.987v-5.67h-8.127V1245.256z M415.639,1247.461c1.218,1.357,2.143,2.52,2.771,3.485l-0.902,0.63c-0.686-1.092-1.59-2.281-2.709-3.569L415.639,1247.461z">
      
        </path>
      
        <path d="M435.612,1240.068c-0.714,0.854-1.428,1.597-2.142,2.227l-0.715-0.883c1.975-1.722,3.535-3.892,4.684-6.51l1.113,0.273c-0.519,1.189-1.121,2.303-1.807,3.339v7.959h-1.134V1240.068z M436.453,1247.859c-0.588,2.03-1.429,3.809-2.521,5.334l-0.945-0.63c1.078-1.483,1.862-3.129,2.353-4.935L436.453,1247.859z M439.959,1253.803c-1.147,0-1.722-0.574-1.722-1.722v-4.746h1.155v4.515c0,0.574,0.308,0.861,0.924,0.861h4.852c0.518,0,0.881-0.126,1.092-0.378c0.294-0.337,0.482-1.268,0.566-2.793l1.071,0.356c-0.126,1.834-0.399,2.961-0.819,3.381c-0.377,0.35-0.945,0.525-1.701,0.525H439.959z M443.256,1235.154c-0.336,0.729-0.644,1.345-0.924,1.849h8.547v0.714c-0.322,1.162-0.692,2.198-1.112,3.107l-1.029-0.294c0.421-0.798,0.749-1.624,0.987-2.478h-8.043c-0.813,1.147-1.715,2.17-2.709,3.065l-0.693-0.84c1.639-1.428,2.94-3.227,3.906-5.396L443.256,1235.154z M442.584,1241.728c-0.854,1.61-1.834,2.976-2.939,4.095l-0.861-0.63c1.105-1.092,2.065-2.4,2.877-3.927L442.584,1241.728z M442.375,1247.125c1.049,1.092,1.875,2.093,2.478,3.003l-0.882,0.65c-0.616-0.951-1.442-1.987-2.479-3.107L442.375,1247.125z M442.375,1246.536l-0.252-1.07c0.699,0.056,1.203,0.084,1.512,0.084c0.462,0,0.693-0.294,0.693-0.882v-5.25h1.133v5.522c0,1.064-0.482,1.596-1.448,1.596H442.375z M448.17,1241.244c1.093,1.261,2.03,2.625,2.814,4.096l-0.966,0.524c-0.826-1.525-1.765-2.926-2.813-4.199L448.17,1241.244z M448.695,1247.083c1.387,1.848,2.457,3.465,3.213,4.851l-0.945,0.672c-0.756-1.456-1.819-3.101-3.191-4.935L448.695,1247.083z">
      
        </path>
      
        <path d="M466.926,1238.703v14.112h-1.092v-1.281h-4.242v1.869H460.5v-14.7h1.891c0.434-1.189,0.748-2.442,0.945-3.759l1.154,0.147c-0.225,1.288-0.561,2.492-1.008,3.611H466.926z M461.592,1244.479h4.242v-4.683h-4.242V1244.479z M461.592,1250.484h4.242v-4.977h-4.242V1250.484z M477.805,1238.725c0,6.734-0.099,10.927-0.295,12.579c-0.209,1.68-1.183,2.52-2.918,2.52l-2.059-0.042l-0.273-1.05c0.841,0.042,1.576,0.063,2.205,0.063c1.135,0,1.785-0.623,1.953-1.869c0.154-1.148,0.252-4.837,0.295-11.067h-6.195c-0.603,1.386-1.31,2.611-2.121,3.675l-0.672-0.882c1.512-2.1,2.541-4.676,3.087-7.728l1.112,0.126c-0.266,1.372-0.588,2.597-0.965,3.675H477.805z M470.496,1243.449c1.609,1.778,2.828,3.318,3.654,4.62l-0.902,0.651c-0.841-1.358-2.066-2.919-3.676-4.684L470.496,1243.449z">
      
        </path>
      
        <path d="M491.121,1244.458c-1.26,0.686-2.625,1.337-4.095,1.952l-0.546-0.986c3.625-1.414,6.629-3.164,9.009-5.25h0.756c2.659,2.212,5.719,3.947,9.177,5.208l-0.546,0.986c-1.567-0.615-2.961-1.26-4.179-1.932v0.987h-9.576V1244.458z M489.357,1237.885c-0.574,1.05-1.19,1.988-1.848,2.813l-0.967-0.63c1.344-1.596,2.331-3.381,2.961-5.354l1.071,0.23c-0.168,0.546-0.406,1.176-0.714,1.891h5.943v1.05h-3.213c0.461,0.756,0.84,1.47,1.133,2.142l-1.049,0.378c-0.393-0.924-0.82-1.764-1.281-2.52H489.357z M501.999,1247.649v6.426h-1.112v-1.05h-9.996v1.05h-1.113v-6.426H501.999z M490.891,1251.976h9.996v-3.276h-9.996V1251.976z M500.592,1244.374c-1.722-0.938-3.297-2.037-4.725-3.298c-1.288,1.177-2.821,2.275-4.6,3.298H500.592z M498.01,1237.885c-0.393,0.714-0.834,1.365-1.324,1.953l-0.944-0.609c1.106-1.344,1.918-2.842,2.437-4.494l1.092,0.231c-0.183,0.588-0.428,1.211-0.735,1.869h6.552v1.05h-3.675c0.603,0.896,1.063,1.701,1.386,2.415l-1.029,0.398c-0.447-0.993-0.973-1.932-1.574-2.813H498.01z">
      
        </path>
      
        <path d="M513.721,1247.565h8.42v-1.743h1.135v1.743h8.357v1.008h-7.244c1.566,1.639,4.059,2.912,7.476,3.822l-0.483,0.987c-3.836-1.218-6.518-2.821-8.043-4.81h-0.063v5.523h-1.135v-5.523h-0.084c-1.33,1.904-3.969,3.557-7.916,4.956l-0.609-1.008c3.724-1.147,6.223-2.464,7.496-3.948h-7.307V1247.565z M521.279,1238.263l1.051,0.336c-0.477,0.672-0.875,1.211-1.197,1.617h9.87v0.944h-3.591c-0.813,1.106-1.694,1.988-2.646,2.646c1.988,0.518,3.969,1.113,5.943,1.785l-0.65,0.882c-2.101-0.77-4.25-1.441-6.447-2.016c-2.213,1.063-5.131,1.616-8.758,1.658l-0.629-0.924c3.331,0,5.971-0.37,7.916-1.113c-1.428-0.378-2.961-0.721-4.599-1.028c0.728-0.84,1.261-1.47,1.597-1.891h-4.768v-0.944h5.502L521.279,1238.263z M531.023,1236.709v2.793h-1.092v-1.807H515.4v1.827h-1.092v-2.813h7.959c-0.267-0.532-0.596-1.064-0.988-1.597l1.135-0.168c0.336,0.504,0.65,1.092,0.945,1.765H531.023z M526.193,1241.16h-5.795c-0.365,0.448-0.756,0.91-1.176,1.387c1.553,0.28,2.961,0.588,4.221,0.924C524.605,1242.785,525.521,1242.015,526.193,1241.16z">
      
        </path>
      
        <path d="M353.053,1292.907l-0.252-1.092c0.756,0.056,1.303,0.084,1.639,0.084c0.573,0,0.86-0.301,0.86-0.903v-5.502c-0.784,0.294-1.7,0.596-2.751,0.903l-0.294-1.134c1.093-0.266,2.106-0.567,3.045-0.903v-5.145h-2.625v-1.113h2.625v-4.074h1.134v4.074h2.143v1.113h-2.143v4.704c0.799-0.351,1.512-0.693,2.143-1.029v1.155c-0.756,0.392-1.471,0.721-2.143,0.986v6.259c0,1.077-0.531,1.616-1.596,1.616H353.053z M364.855,1279.11c-0.406,1.526-0.735,2.675-0.987,3.444h7.707v1.071h-2.646c-0.336,2.239-1.113,4.073-2.332,5.502c2.059,1.147,3.717,2.177,4.978,3.087l-0.735,0.86c-1.302-0.924-2.961-1.974-4.977-3.149c-1.457,1.357-3.871,2.436-7.245,3.233l-0.462-1.07c2.968-0.672,5.18-1.597,6.636-2.772c-1.176-0.686-2.534-1.421-4.073-2.205c0.615-1.147,1.146-2.31,1.596-3.485h-3.172v-1.071h3.549c0.42-1.26,0.764-2.45,1.029-3.57L364.855,1279.11z M370.84,1276.443v3.969h-1.092v-2.897h-8.967v2.981h-1.092v-4.053h4.998c-0.309-0.966-0.631-1.777-0.967-2.436l1.155-0.21c0.336,0.77,0.651,1.651,0.944,2.646H370.84z M363.49,1283.626c-0.42,1.105-0.89,2.142-1.407,3.107c1.05,0.532,2.219,1.148,3.507,1.849c1.148-1.274,1.896-2.927,2.247-4.956H363.49z">
      
        </path>
      
        <path d="M380.23,1274.238h1.092v10.228c-0.029,3.92-0.435,6.775-1.219,8.567l-0.882-0.776c0.658-1.639,0.994-4.235,1.009-7.791V1274.238z M383.191,1275.562h1.049v15.183h-1.049V1275.562z M386.193,1274.238h1.051v18.501h-1.051V1274.238z M392.578,1281.189h1.134v3.633c-0.042,2.227-0.448,3.997-1.218,5.313c-0.756,1.218-1.981,2.184-3.676,2.897l-0.65-0.986c1.623-0.658,2.771-1.555,3.443-2.688c0.616-1.162,0.938-2.674,0.967-4.536V1281.189z M388.314,1274.826h9.892v1.071h-4.431c-0.099,0.938-0.246,1.841-0.441,2.709h4.011v9.786h-1.134v-8.715h-5.984v8.715h-1.135v-9.786h3.066c0.195-0.826,0.35-1.729,0.461-2.709h-4.305V1274.826z M394.699,1288.666c1.386,1.162,2.562,2.352,3.527,3.569l-0.818,0.819c-0.91-1.176-2.072-2.387-3.486-3.633L394.699,1288.666z">
      
        </path>
      
        <path d="M416.143,1273.882c0.35,0.588,0.665,1.225,0.945,1.911h7.686v1.092h-15.645v5.774c-0.084,4.354-0.834,7.819-2.247,10.396l-0.861-0.777c1.261-2.296,1.918-5.502,1.974-9.618v-6.866h7.938c-0.294-0.631-0.608-1.197-0.944-1.701L416.143,1273.882z M414.484,1281.105c1.161,0.603,2.106,1.142,2.834,1.617c1.344-0.812,2.598-1.778,3.76-2.898h-9.556v-1.008h10.983v0.861c-1.344,1.428-2.779,2.632-4.305,3.612c0.377,0.237,0.762,0.511,1.154,0.818l-0.357,0.357h5.334v0.902c-0.881,1.639-1.854,3.031-2.918,4.18l-0.883-0.672c0.98-0.98,1.842-2.101,2.584-3.36h-5.334v5.964c0,1.105-0.561,1.659-1.681,1.659h-3.065l-0.252-1.071c1.344,0.056,2.323,0.084,2.939,0.084c0.615,0,0.924-0.314,0.924-0.944v-5.691h-6.3v-1.05h7.875c-1.204-0.896-2.681-1.792-4.431-2.688L414.484,1281.105z">
      
        </path>
      
        <path d="M433.408,1287.615h12.578v1.093h-12.578V1287.615z M450.543,1274.932v4.368h-1.133v-3.276h-14.154v3.255h-1.135v-4.347H450.543z M438.91,1280.518c-0.238,0.91-0.533,1.953-0.883,3.129h11.361c-0.042,5.054-0.393,7.896-1.051,8.526c-0.461,0.518-1.525,0.79-3.191,0.818h-1.848l-0.336-1.07l2.226,0.021c1.218-0.014,1.995-0.217,2.331-0.608c0.406-0.49,0.65-2.695,0.734-6.615H436.6c0.867-2.87,1.52-5.418,1.953-7.645l1.113,0.126l-0.504,2.227h8.799v1.092H438.91z">
      
        </path>
      
        <path d="M473.521,1292.719c-0.7,0-1.933-0.015-3.696-0.042c-1.386-0.042-2.464-0.176-3.234-0.399c-0.826-0.252-1.567-0.77-2.226-1.554c-0.267-0.364-0.532-0.546-0.798-0.546c-0.574,0-1.471,0.973-2.688,2.919l-0.861-0.756c1.189-1.834,2.205-2.898,3.045-3.192v-6.72h-3.107v-1.092h4.178v7.875c0.238,0.112,0.455,0.301,0.651,0.566c0.505,0.63,1.071,1.092,1.701,1.387c0.672,0.252,1.617,0.398,2.835,0.44c1.4,0.028,2.744,0.042,4.032,0.042h2.94l2.268-0.084l-0.273,1.155H473.521z M461.172,1274.386c1.4,1.078,2.59,2.156,3.57,3.233l-0.798,0.819c-0.854-1.008-2.044-2.106-3.569-3.297L461.172,1274.386z M466.381,1277.389h2.582v-3.465h1.113v3.465h3.654v-3.423h1.134v3.423h2.772v1.071h-2.772v4.515h3.466v1.092h-3.466v6.237h-1.134v-6.237h-4.032c-0.546,2.633-1.646,4.55-3.297,5.754l-0.672-0.902c1.413-1.022,2.366-2.64,2.856-4.852h-2.94v-1.092h3.129c0.126-0.84,0.188-1.75,0.188-2.73v-1.784h-2.582V1277.389z M470.076,1278.46v1.532c0,1.064-0.063,2.059-0.189,2.982h3.844v-4.515H470.076z">
      
        </path>
      
        <path d="M493.368,1277.053c0.909,2.184,1.589,4.109,2.037,5.774l-1.071,0.399c-0.141-0.504-0.364-1.231-0.672-2.184c-1.68,0.756-3.738,1.441-6.174,2.058l-0.398-1.05c0.447-0.21,0.672-0.483,0.672-0.819v-5.522c2.701-0.28,4.935-0.854,6.698-1.723l0.567,0.945c-1.61,0.854-3.668,1.414-6.174,1.68v5.04c1.945-0.588,3.43-1.12,4.451-1.596c-0.377-1.063-0.721-1.967-1.028-2.709L493.368,1277.053z M503.092,1283.94v9.177h-1.113v-1.07h-12.096v1.092h-1.113v-9.198H503.092z M489.883,1287.511h5.543v-2.479h-5.543V1287.511z M489.883,1290.954h5.543v-2.394h-5.543V1290.954z M495.973,1276.045v-1.113h8.147c-0.042,3.094-0.175,5.11-0.399,6.048c-0.279,1.232-0.994,1.869-2.142,1.911c-0.28,0-0.868-0.028-1.765-0.084l-0.336-1.008c0.757,0.042,1.414,0.063,1.975,0.063c0.714-0.042,1.155-0.546,1.323-1.512c0.112-0.714,0.182-2.149,0.21-4.305h-3.528c-0.21,1.651-0.504,2.981-0.882,3.989c-0.462,1.135-1.12,2.129-1.975,2.982l-0.692-0.861c0.728-0.756,1.288-1.617,1.681-2.583c0.336-0.909,0.588-2.086,0.756-3.527H495.973z M496.561,1285.032v2.479h5.418v-2.479H496.561z M496.561,1290.954h5.418v-2.394h-5.418V1290.954z">
      
        </path>
      
        <path d="M513.32,1276.843h18.712v1.07H513.32V1276.843z M529.575,1286.587v6.552h-1.113v-1.113H516.87v1.113h-1.113v-6.552H529.575z M516.051,1280.014h13.252v1.029h-13.252V1280.014z M516.051,1283.227h13.252v1.05h-13.252V1283.227z M516.87,1290.934h11.592v-3.255H516.87V1290.934z M522.498,1273.798c0.504,0.994,0.867,1.82,1.092,2.478l-1.05,0.399c-0.322-0.826-0.735-1.673-1.239-2.541L522.498,1273.798z">
      
        </path>
      
        <path d="M354.145,1313.848h16.527v1.092h-15.414v15.184h16.002v1.092h-17.115V1313.848z M358.198,1317.271c1.876,1.4,3.73,2.919,5.565,4.557c1.287-1.609,2.387-3.465,3.297-5.564l1.028,0.546c-0.979,2.226-2.135,4.158-3.465,5.796c1.765,1.61,3.331,3.186,4.704,4.725l-0.861,0.861c-1.302-1.525-2.828-3.101-4.578-4.725c-1.89,2.086-4.081,3.661-6.572,4.725l-0.651-1.029c2.437-1.008,4.558-2.499,6.362-4.473c-1.875-1.651-3.758-3.199-5.648-4.641L358.198,1317.271z">
      
        </path>
      
        <path d="M381.697,1327.918c0.504,0.476,0.756,1.078,0.756,1.806c0,0.7-0.252,1.302-0.756,1.806c-0.547,0.476-1.162,0.714-1.848,0.714c-0.715,0-1.33-0.238-1.849-0.714c-0.504-0.49-0.756-1.092-0.756-1.806c0-0.742,0.252-1.344,0.756-1.806c0.49-0.477,1.106-0.715,1.849-0.715C380.563,1327.203,381.18,1327.441,381.697,1327.918z M378.652,1328.568c-0.336,0.294-0.504,0.68-0.504,1.155c0,0.448,0.168,0.833,0.504,1.155c0.322,0.321,0.721,0.482,1.197,0.482c0.447,0,0.846-0.161,1.196-0.482c0.337-0.322,0.505-0.707,0.505-1.155c0-0.462-0.168-0.847-0.505-1.155c-0.321-0.321-0.722-0.482-1.196-0.482C379.359,1328.086,378.96,1328.247,378.652,1328.568z">
      
        </path>
      
        <path d="M357.441,1377.028c-0.35,1.919-0.595,3.213-0.734,3.885h4.452v0.715c-0.252,3.5-1.085,6.488-2.499,8.967c1.371,1.05,2.471,1.967,3.297,2.751l-0.777,0.924c-0.813-0.784-1.855-1.687-3.129-2.709c-1.189,1.75-2.681,3.234-4.473,4.452l-0.756-0.924c1.791-1.177,3.24-2.583,4.347-4.222c-1.204-0.924-2.423-1.819-3.653-2.688c0.699-1.974,1.301-4.024,1.805-6.153h-2.646v-1.113h2.878c0.307-1.455,0.553-2.793,0.734-4.011L357.441,1377.028z M360.066,1382.026h-3.59c-0.519,2.311-1.078,4.242-1.681,5.796c1.246,0.868,2.233,1.568,2.961,2.101C359.059,1387.641,359.828,1385.009,360.066,1382.026z M370.294,1378.961v16.212h-1.112v-1.261h-4.789v1.261h-1.134v-16.212H370.294z M364.393,1392.8h4.789v-12.705h-4.789V1392.8z">
      
        </path>
      
        <path d="M381.91,1377.89h13.629v7.833h-6.195v2.226h8.441v1.071h-7.266c1.471,2.044,4.046,3.864,7.729,5.46l-0.799,0.966c-3.779-1.932-6.404-4.074-7.875-6.426h-0.23v7.098h-1.134v-7.098h-0.231c-1.568,2.604-4.249,4.746-8.043,6.426l-0.63-1.028c3.612-1.4,6.195-3.199,7.749-5.397h-7.287v-1.071h8.442v-2.226h-6.3V1377.89z M383.044,1381.334h5.166v-2.415h-5.166V1381.334z M388.21,1384.735v-2.394h-5.166v2.394H388.21z M389.344,1378.919v2.415h5.04v-2.415H389.344z M394.384,1384.735v-2.394h-5.04v2.394H394.384z">
      
        </path>
      
        <path d="M408.729,1383.959c-0.687,1.021-1.532,2.086-2.541,3.191l-0.378-1.197c2.338-2.688,4.018-5.712,5.04-9.071l1.05,0.482c-0.531,1.652-1.211,3.234-2.037,4.746v14.007h-1.134V1383.959z M414.715,1380.745c-0.686,1.652-1.498,3.186-2.436,4.6l-0.967-0.609c1.609-2.323,2.793-4.956,3.549-7.896l1.092,0.23c-0.252,0.896-0.524,1.758-0.818,2.583h9.072v0.756c-0.336,1.303-0.791,2.591-1.365,3.864l-1.092-0.314c0.518-0.91,0.951-1.981,1.302-3.214H414.715z M415.533,1385.723c-0.797,2.954-1.806,5.544-3.023,7.77l-1.092-0.398c1.176-2.002,2.205-4.55,3.087-7.645L415.533,1385.723z M414.715,1395.949l-0.252-1.07c1.231,0.056,2.113,0.084,2.646,0.084c0.545,0,0.818-0.273,0.818-0.819v-11.424h1.092v11.697c0,1.021-0.512,1.532-1.533,1.532H414.715z M421.771,1385.303c1.12,2.492,2.106,5.187,2.961,8.085l-1.028,0.462c-0.883-3.094-1.869-5.831-2.961-8.211L421.771,1385.303z">
      
        </path>
      
        <path d="M437.901,1388.432h-1.134v-6.153c-0.938,1.891-2.17,3.612-3.696,5.166l-0.42-1.092c1.735-1.596,3.087-3.472,4.054-5.628h-3.57v-1.092h3.633v-2.415h1.134v2.415h2.919v1.092h-2.919v1.155c1.106,0.812,2.254,1.764,3.444,2.855l-0.651,0.945c-1.092-1.176-2.022-2.107-2.793-2.793V1388.432z M436.285,1389.965c-0.533,1.96-1.316,3.695-2.353,5.208l-0.987-0.63c1.036-1.471,1.777-3.08,2.227-4.83L436.285,1389.965z M439.854,1395.655c-1.204,0-1.806-0.63-1.806-1.89v-4.347h1.134v4.115c0,0.673,0.343,1.009,1.028,1.009h4.6c0.574,0,0.966-0.105,1.176-0.315c0.309-0.322,0.512-1.189,0.609-2.604l1.07,0.356c-0.125,1.722-0.412,2.786-0.86,3.192c-0.364,0.321-0.96,0.482-1.785,0.482H439.854z M442.039,1389.062c1.077,1.134,1.89,2.1,2.436,2.898l-0.924,0.65c-0.533-0.825-1.338-1.819-2.415-2.981L442.039,1389.062z M442.396,1377.89h7.687v10.101h-7.687V1377.89z M443.508,1380.998h5.461v-2.059h-5.461V1380.998z M443.508,1383.938h5.461v-1.974h-5.461V1383.938z M448.969,1386.982v-2.079h-5.461v2.079H448.969z M448.611,1389.209c1.4,1.764,2.484,3.346,3.256,4.745l-0.945,0.673c-0.813-1.498-1.891-3.115-3.234-4.852L448.611,1389.209z">
      
        </path>
      
        <path d="M459.955,1381.145h3.002v-4.158h1.113v4.158h2.352v1.113h-2.352v1.806c0.952,1.218,1.911,2.576,2.877,4.074l-0.63,0.924c-0.854-1.609-1.603-2.926-2.247-3.948v10.899h-1.113v-11.424c-0.729,2.31-1.736,4.368-3.023,6.174l-0.504-1.218c1.651-2.128,2.813-4.558,3.486-7.287h-2.961V1381.145z M475.684,1386.037c-0.42,2.324-1.184,4.257-2.289,5.797c1.386,1.273,3.156,2.338,5.313,3.191l-0.588,1.008c-2.226-0.896-4.039-2.002-5.439-3.317c-1.455,1.624-3.367,2.765-5.732,3.423l-0.65-0.987c2.338-0.63,4.192-1.715,5.564-3.255c-1.414-1.609-2.303-3.486-2.667-5.628l0.987-0.294c0.294,1.904,1.084,3.577,2.373,5.019c0.994-1.413,1.672-3.143,2.037-5.187L475.684,1386.037z M470.77,1382.468c-0.98,2.072-2.107,3.836-3.381,5.292l-0.903-0.63c1.288-1.429,2.394-3.136,3.317-5.124L470.77,1382.468z M467.073,1379.779h5.354c-0.42-1.092-0.86-2.044-1.322-2.855l1.154-0.21c0.435,0.826,0.861,1.848,1.281,3.065h4.704v1.134h-11.172V1379.779z M474.969,1381.942c1.526,1.904,2.717,3.577,3.57,5.02l-0.945,0.672c-0.84-1.513-2.016-3.227-3.527-5.146L474.969,1381.942z">
      
        </path>
      
        <path d="M487.74,1382.384c1.386,1.512,2.667,3.023,3.843,4.536c0.854-2.044,1.372-4.256,1.554-6.637h-5.879v-1.112h6.93v0.84c-0.168,2.926-0.785,5.558-1.848,7.896c1.008,1.372,1.861,2.618,2.562,3.738l-0.841,0.84c-0.602-1.021-1.364-2.177-2.289-3.465c-1.176,2.142-2.771,4.032-4.787,5.67l-0.651-0.987c2.017-1.596,3.591-3.479,4.726-5.648c-1.121-1.484-2.492-3.129-4.116-4.936L487.74,1382.384z M495.447,1381.124h6.195v-4.2h1.154v4.2h2.479v1.112h-2.479v11.929c0,1.245-0.63,1.868-1.89,1.868h-3.381l-0.252-1.092c1.512,0.056,2.59,0.084,3.233,0.084c0.756,0,1.135-0.385,1.135-1.155v-11.634h-6.195V1381.124z M496.35,1384.987c1.457,1.765,2.569,3.318,3.34,4.662l-0.903,0.63c-0.896-1.54-2.002-3.101-3.317-4.683L496.35,1384.987z">
      
        </path>
      
        <path d="M517.898,1386.458c-1.26,0.686-2.625,1.337-4.094,1.952l-0.547-0.986c3.626-1.414,6.629-3.164,9.01-5.25h0.756c2.659,2.212,5.719,3.947,9.177,5.208l-0.546,0.986c-1.568-0.615-2.961-1.26-4.18-1.932v0.987h-9.576V1386.458z M516.135,1379.885c-0.574,1.05-1.189,1.988-1.848,2.813l-0.967-0.63c1.345-1.596,2.332-3.381,2.962-5.354l1.071,0.23c-0.168,0.546-0.406,1.176-0.715,1.891h5.943v1.05h-3.213c0.462,0.756,0.84,1.47,1.134,2.142l-1.05,0.378c-0.393-0.924-0.819-1.764-1.281-2.52H516.135z M528.777,1389.649v6.426h-1.113v-1.05h-9.996v1.05h-1.113v-6.426H528.777z M517.668,1393.976h9.996v-3.276h-9.996V1393.976z M527.37,1386.374c-1.722-0.938-3.297-2.037-4.726-3.298c-1.287,1.177-2.82,2.275-4.599,3.298H527.37z M524.787,1379.885c-0.393,0.714-0.833,1.365-1.323,1.953l-0.944-0.609c1.105-1.344,1.918-2.842,2.436-4.494l1.092,0.231c-0.182,0.588-0.428,1.211-0.734,1.869h6.552v1.05h-3.675c0.602,0.896,1.063,1.701,1.386,2.415l-1.029,0.398c-0.448-0.993-0.974-1.932-1.575-2.813H524.787z">
      
        </path>
      
        <path d="M353.053,1428.565h8.422v-1.743h1.133v1.743h8.358v1.008h-7.245c1.568,1.639,4.061,2.912,7.477,3.822l-0.483,0.987c-3.836-1.218-6.517-2.821-8.043-4.81h-0.063v5.523h-1.133v-5.523h-0.084c-1.331,1.904-3.97,3.557-7.918,4.956l-0.608-1.008c3.724-1.147,6.223-2.464,7.497-3.948h-7.309V1428.565z M360.613,1419.263l1.05,0.336c-0.476,0.672-0.875,1.211-1.197,1.617h9.87v0.944h-3.591c-0.812,1.106-1.694,1.988-2.646,2.646c1.987,0.518,3.969,1.113,5.942,1.785l-0.651,0.882c-2.1-0.77-4.249-1.441-6.447-2.016c-2.211,1.063-5.131,1.616-8.756,1.658l-0.631-0.924c3.332,0,5.971-0.37,7.918-1.113c-1.429-0.378-2.961-0.721-4.6-1.028c0.729-0.84,1.26-1.47,1.596-1.891h-4.767v-0.944h5.502L360.613,1419.263z M370.357,1417.709v2.793h-1.092v-1.807h-14.533v1.827h-1.092v-2.813h7.959c-0.266-0.532-0.595-1.064-0.986-1.597l1.134-0.168c0.336,0.504,0.651,1.092,0.944,1.765H370.357z M365.527,1422.16h-5.797c-0.363,0.448-0.756,0.91-1.176,1.387c1.555,0.28,2.961,0.588,4.221,0.924C363.938,1423.785,364.855,1423.015,365.527,1422.16z">
      
        </path>
      
        <path d="M383.296,1432.702c0,1.652-0.7,2.863-2.101,3.634l-0.44-0.735c1.008-0.672,1.54-1.526,1.597-2.563l-0.316,0.021c-0.308,0-0.566-0.091-0.776-0.273c-0.196-0.182-0.294-0.434-0.294-0.756c0-0.363,0.098-0.622,0.294-0.776c0.182-0.196,0.44-0.294,0.776-0.294C382.876,1430.96,383.296,1431.541,383.296,1432.702z">
      
        </path>
      
        <path d="M420.763,1416.134c-0.56,1.652-1.239,3.087-2.037,4.305h4.578v1.134h-7.183v1.239c-0.027,1.12-0.119,2.121-0.272,3.003h8.673v1.134h-7.896c1.051,3.038,3.844,5.397,8.38,7.077l-0.651,1.05c-4.732-1.932-7.665-4.585-8.799-7.959c-0.378,1.373-0.945,2.563-1.701,3.57c-1.428,1.82-3.759,3.248-6.992,4.284l-0.631-0.987c3.206-1.008,5.481-2.387,6.825-4.137c0.573-0.84,1.022-1.806,1.345-2.898h-7.813v-1.134h8.085c0.182-0.938,0.286-1.938,0.315-3.003v-1.239h-7.203v-1.134h9.66c0.84-1.26,1.574-2.793,2.205-4.599L420.763,1416.134z M411.354,1416.028c0.952,1.218,1.778,2.443,2.478,3.675l-1.008,0.505c-0.812-1.414-1.645-2.64-2.498-3.676L411.354,1416.028z">
      
        </path>
      
        <path d="M434.416,1416.868h15.687v1.113h-7.015v6.153h8.464v1.134h-8.464v7.707c0,1.288-0.658,1.932-1.973,1.932h-3.214l-0.252-1.112c1.429,0.056,2.457,0.084,3.087,0.084c0.813,0,1.219-0.399,1.219-1.197v-7.413h-8.842v-1.134h8.842v-6.153h-7.539V1416.868z">
      
        </path>
      
        <path d="M464.448,1421.594c-1.036,4.158-2.388,7.315-4.053,9.471l-0.987-0.84c1.736-2.254,3.045-5.278,3.928-9.072L464.448,1421.594z M464.848,1434.865l-0.273-1.154c1.372,0.056,2.345,0.084,2.919,0.084c0.91,0,1.365-0.477,1.365-1.429v-16.086h1.176v16.38c0,1.471-0.707,2.205-2.12,2.205H464.848z M474.696,1420.67c1.792,3.836,3.157,7.161,4.095,9.975l-1.029,0.714c-1.021-3.052-2.387-6.405-4.094-10.059L474.696,1420.67z">
      
        </path>
      
        <path d="M503.008,1419.409v15.666h-1.113v-1.806h-11.991v1.848h-1.113v-15.708h4.914c0.532-1.119,0.91-2.296,1.134-3.527l1.219,0.168c-0.267,1.26-0.638,2.38-1.113,3.359H503.008z M489.903,1425.604h11.991v-5.124h-11.991V1425.604z M489.903,1432.178h11.991v-5.481h-11.991V1432.178z">
      
        </path>
      
        <path d="M515.589,1422.791c-0.771,1.176-1.554,2.212-2.353,3.107l-0.377-1.197c2.155-2.659,3.703-5.635,4.641-8.925l1.07,0.504c-0.476,1.568-1.099,3.095-1.868,4.578v14.301h-1.113V1422.791z M518.697,1418.905h13.566v1.093h-13.566V1418.905z M530.793,1428.062v7.035h-1.113v-1.155h-8.252v1.155h-1.135v-7.035H530.793z M520.65,1422.014h9.785v1.029h-9.785V1422.014z M520.65,1424.975h9.785v1.05h-9.785V1424.975z M521.428,1432.85h8.252v-3.717h-8.252V1432.85z M525.291,1415.902c0.462,0.882,0.818,1.701,1.07,2.457l-1.008,0.399c-0.336-0.938-0.721-1.792-1.154-2.563L525.291,1415.902z">
      
        </path>
      
        <path d="M355.678,1467.146c-0.209,2.716-1.001,4.963-2.373,6.741l-0.84-0.777c1.387-1.903,2.1-4.333,2.143-7.287v-9.954h15.33v15.708c0,1.372-0.687,2.059-2.059,2.059h-2.415l-0.294-1.113c0.84,0.042,1.617,0.063,2.331,0.063c0.868,0,1.302-0.477,1.302-1.429v-4.011h-6.152v6.258h-1.135v-6.258H355.678z M355.762,1462.043v3.863l-0.021,0.168h5.774v-4.031H355.762z M361.516,1456.981h-5.754v4.011h5.754V1456.981z M368.803,1460.992v-4.011h-6.152v4.011H368.803z M368.803,1466.074v-4.031h-6.152v4.031H368.803z">
      
        </path>
      
        <path d="M386.593,1458.703v14.112h-1.092v-1.281h-4.242v1.869h-1.092v-14.7h1.89c0.434-1.189,0.749-2.442,0.945-3.759l1.154,0.147c-0.224,1.288-0.56,2.492-1.008,3.611H386.593z M381.259,1464.479h4.242v-4.683h-4.242V1464.479z M381.259,1470.484h4.242v-4.977h-4.242V1470.484z M397.471,1458.725c0,6.734-0.098,10.927-0.294,12.579c-0.21,1.68-1.183,2.52-2.919,2.52l-2.059-0.042l-0.272-1.05c0.841,0.042,1.575,0.063,2.205,0.063c1.134,0,1.785-0.623,1.953-1.869c0.153-1.148,0.252-4.837,0.294-11.067h-6.195c-0.602,1.386-1.309,2.611-2.121,3.675l-0.672-0.882c1.512-2.1,2.541-4.676,3.088-7.728l1.112,0.126c-0.267,1.372-0.588,2.597-0.966,3.675H397.471z M390.163,1463.449c1.609,1.778,2.827,3.318,3.653,4.62l-0.902,0.651c-0.84-1.358-2.065-2.919-3.676-4.684L390.163,1463.449z">
      
        </path>
      
        <path d="M408.478,1461.791c-0.771,1.176-1.554,2.212-2.353,3.107l-0.377-1.197c2.155-2.659,3.703-5.635,4.641-8.925l1.07,0.504c-0.476,1.568-1.099,3.095-1.868,4.578v14.301h-1.113V1461.791z M411.586,1457.905h13.566v1.093h-13.566V1457.905z M423.682,1467.062v7.035h-1.113v-1.155h-8.252v1.155h-1.135v-7.035H423.682z M413.539,1461.014h9.785v1.029h-9.785V1461.014z M413.539,1463.975h9.785v1.05h-9.785V1463.975z M414.316,1471.85h8.252v-3.717h-8.252V1471.85z M418.18,1454.902c0.462,0.882,0.818,1.701,1.07,2.457l-1.008,0.399c-0.336-0.938-0.721-1.792-1.154-2.563L418.18,1454.902z">
      
        </path>
      
        <path d="M436.054,1468.405c-0.532,1.933-1.253,3.599-2.163,4.998l-0.945-0.63c0.924-1.344,1.596-2.87,2.016-4.578L436.054,1468.405z M435.949,1456.625h4.598c0.309-0.547,0.547-1.135,0.715-1.765l1.176,0.168c-0.182,0.603-0.406,1.134-0.672,1.597h7.119v9.995h-12.936V1456.625z M437.062,1459.648h10.71v-2.037h-10.71V1459.648z M437.062,1462.589h10.71v-1.975h-10.71V1462.589z M447.771,1465.612v-2.079h-10.71v2.079H447.771z M439.393,1473.781c-1.064,0-1.596-0.504-1.596-1.512v-4.2h1.154v3.948c0,0.504,0.252,0.756,0.756,0.756h4.914c0.532,0,0.903-0.119,1.113-0.356c0.294-0.309,0.482-1.204,0.567-2.688l1.092,0.357c-0.126,1.708-0.406,2.778-0.84,3.213c-0.364,0.321-0.938,0.482-1.722,0.482H439.393z M441.85,1467.355c1.203,1.134,2.128,2.121,2.771,2.961l-0.86,0.609c-0.645-0.882-1.562-1.897-2.751-3.045L441.85,1467.355z M448.653,1467.839c1.442,1.764,2.534,3.283,3.276,4.557l-0.903,0.63c-0.854-1.483-1.938-3.023-3.255-4.62L448.653,1467.839z">
      
        </path>
      
        <path d="M462.307,1466.873c-0.449,1.819-1.043,3.465-1.785,4.935l-0.987-0.357c0.687-1.273,1.288-2.884,1.806-4.83L462.307,1466.873z M459.807,1457.191h4.453c-0.309-0.77-0.658-1.483-1.051-2.142l1.197-0.189c0.363,0.714,0.693,1.491,0.987,2.331h3.927v1.092h-9.514V1457.191z M460.941,1460.3h7.141v4.935h-2.941v7.141c0,1.035-0.504,1.554-1.512,1.554h-1.554l-0.231-1.05c0.645,0.056,1.113,0.084,1.408,0.084c0.504,0,0.756-0.287,0.756-0.861v-6.867h-3.066V1460.3z M467.01,1464.248v-2.962h-4.998v2.962H467.01z M467.325,1466.558c0.644,1.442,1.147,2.779,1.513,4.011l-0.945,0.357c-0.42-1.386-0.924-2.758-1.512-4.116L467.325,1466.558z M471.525,1454.986h1.113v4.998h5.396v1.113h-2.877v10.878c0,0.504,0.23,0.756,0.693,0.756h0.672c0.308,0,0.525-0.161,0.65-0.482c0.182-0.435,0.301-1.673,0.357-3.718l0.987,0.315c-0.084,2.282-0.28,3.71-0.589,4.284c-0.266,0.434-0.672,0.65-1.217,0.65h-1.177c-0.952,0-1.428-0.524-1.428-1.574v-11.109h-1.491c-0.126,5.922-1.309,10.276-3.549,13.062l-0.861-0.756c2.114-2.617,3.221-6.72,3.318-12.306h-2.163v-1.113h2.163V1454.986z M475.096,1455.302c1.063,1.189,1.869,2.212,2.414,3.065l-0.86,0.589c-0.588-0.925-1.394-1.96-2.415-3.108L475.096,1455.302z">
      
        </path>
      
        <path d="M489.735,1465.192c-0.91,0.98-1.855,1.876-2.835,2.688l-0.735-0.924c2.772-2.282,4.921-4.914,6.447-7.896H486.9v-1.113h6.236c0.406-0.966,0.784-2.002,1.135-3.107l1.154,0.126c-0.266,0.952-0.615,1.946-1.05,2.981h10.773v1.113h-11.277c-0.868,1.764-1.868,3.36-3.003,4.788v10.311h-1.134V1465.192z M492.969,1464.856h4.998v-4.053h1.155v4.053h5.103v1.134h-5.103v6.279h6.091v1.113h-13.168v-1.113h5.922v-6.279h-4.998V1464.856z">
      
        </path>
      
        <path fill="#F1B932" stroke="#F1B932" stroke-miterlimit="10" d="M514.203,1458.263h1.134v15.792h-1.134V1458.263z M516.912,1454.86c0.867,0.952,1.638,2.017,2.311,3.192l-1.009,0.524c-0.728-1.231-1.505-2.316-2.331-3.255L516.912,1454.86z M526.025,1458.998c-0.49,1.218-1.035,2.316-1.637,3.297h2.436v5.396h-2.289v3.465c0,0.378,0.182,0.567,0.546,0.567h1.092c0.364,0,0.623-0.091,0.777-0.273c0.182-0.224,0.315-0.896,0.399-2.016l0.986,0.315c-0.098,1.399-0.314,2.268-0.65,2.604c-0.295,0.266-0.735,0.399-1.324,0.399h-1.596c-0.84,0-1.26-0.462-1.26-1.387v-3.675h-1.848c-0.182,2.465-1.652,4.277-4.41,5.439l-0.588-0.924c2.506-0.952,3.843-2.457,4.011-4.516h-2.247v-5.396h4.852c0.644-1.135,1.197-2.359,1.658-3.676L526.025,1458.998z M520.041,1458.851c0.56,0.714,1.141,1.589,1.743,2.625l-0.945,0.483c-0.532-0.952-1.112-1.834-1.743-2.646L520.041,1458.851z M525.795,1466.726v-3.465h-6.32v3.465H525.795z M527.895,1474.013l-0.272-1.071l1.512,0.042c0.532,0,0.798-0.322,0.798-0.966v-14.889h-8.483v-1.093h9.618v16.275c0,1.134-0.567,1.701-1.701,1.701H527.895z">
      
        </path>
      
        <path fill="#F1B932" stroke="#F1B932" stroke-miterlimit="10" d="M352.423,1500.496h4.222v9.45c0.643-0.615,1.28-1.28,1.91-1.995l0.295,1.219c-1.051,1.176-2.143,2.197-3.276,3.065l-0.441-1.008c0.252-0.252,0.378-0.504,0.378-0.756v-8.862h-3.087V1500.496z M354.796,1494.238c1.399,1.064,2.583,2.143,3.55,3.234l-0.777,0.777c-0.869-1.009-2.065-2.086-3.592-3.234L354.796,1494.238z M359.018,1506.229h6.11c0.153-0.714,0.237-1.456,0.252-2.226v-3.381h1.093v3.381c-0.029,0.854-0.099,1.596-0.211,2.226h5.25v1.092h-5.502c-0.126,0.393-0.238,0.707-0.336,0.945c2.197,1.106,4.193,2.415,5.985,3.927l-0.651,0.987c-1.918-1.708-3.843-3.059-5.775-4.053c0.057-0.098-0.119,0.161-0.524,0.776c-1.078,1.372-2.877,2.45-5.397,3.234l-0.608-0.966c2.437-0.729,4.165-1.743,5.187-3.045c0.379-0.532,0.693-1.135,0.945-1.807h-5.816V1506.229z M359.982,1495.541h4.746v-1.681h1.092v1.681h4.768v1.05h-4.768v2.121h5.209v0.714c-0.322,1.315-0.777,2.646-1.365,3.99l-1.135-0.315c0.519-0.994,0.945-2.1,1.281-3.318h-10.73v-1.07h5.648v-2.121h-4.746V1495.541z M359.71,1502.723c1.162,0.574,2.261,1.302,3.297,2.184l-0.588,0.903c-1.036-0.952-2.121-1.708-3.255-2.268L359.71,1502.723z M361.432,1500.623c1.092,0.546,2.129,1.231,3.108,2.058l-0.546,0.84c-1.051-0.91-2.079-1.609-3.087-2.1L361.432,1500.623z">
      
        </path>
      
        <path fill="#F1B932" stroke="#F1B932" stroke-miterlimit="10" d="M381.025,1498.292h4.473c0.266-0.742,0.447-1.491,0.546-2.247H378.4v7.14c-0.057,4.074-0.722,7.371-1.995,9.891l-0.861-0.776c1.078-2.17,1.651-5.208,1.722-9.114v-8.253h16.885v1.113h-6.973c-0.125,0.77-0.314,1.519-0.566,2.247h5.943v7.791h-4.998v5.522c0,0.952-0.49,1.428-1.471,1.428h-2.121l-0.252-1.092c0.924,0.056,1.582,0.084,1.975,0.084c0.476,0,0.713-0.23,0.713-0.692v-5.25h-5.375V1498.292z M383.65,1507.783c-0.994,1.807-2.135,3.347-3.424,4.62l-0.924-0.672c1.316-1.273,2.43-2.758,3.34-4.452L383.65,1507.783z M382.139,1501.673h9.303v-2.353h-9.303V1501.673z M391.441,1505.032v-2.373h-9.303v2.373H391.441z M390.77,1507.279c1.512,1.751,2.659,3.263,3.443,4.536l-0.945,0.672c-0.854-1.456-1.994-2.995-3.422-4.62L390.77,1507.279z">
      
        </path>
      
        <path fill="#F1B932" stroke="#F1B932" stroke-miterlimit="10" d="M399.148,1497.641h8.861c-0.56-1.204-1.281-2.331-2.162-3.381l1.134-0.42c0.825,1.05,1.575,2.317,2.247,3.801h8.021v1.134h-3.339c-1.008,3.444-2.583,6.3-4.726,8.568c2.324,2.002,5.181,3.626,8.568,4.872l-0.63,0.966c-3.485-1.288-6.397-2.961-8.735-5.02c-2.395,2.297-5.426,3.97-9.094,5.02l-0.588-1.008c3.626-1.008,6.594-2.583,8.904-4.726c-2.52-2.449-4.256-5.341-5.208-8.673h-3.255V1497.641z M403.516,1498.774c0.938,3.038,2.569,5.663,4.894,7.875c2.002-2.142,3.451-4.767,4.347-7.875H403.516z">
      
        </path>
      
        <path d="M427.896,1508.918c0.504,0.476,0.756,1.078,0.756,1.806c0,0.7-0.252,1.302-0.756,1.806c-0.546,0.476-1.162,0.714-1.848,0.714c-0.714,0-1.33-0.238-1.848-0.714c-0.504-0.49-0.756-1.092-0.756-1.806c0-0.742,0.252-1.344,0.756-1.806c0.49-0.477,1.105-0.715,1.848-0.715C426.763,1508.203,427.379,1508.441,427.896,1508.918z M424.852,1509.568c-0.336,0.294-0.504,0.68-0.504,1.155c0,0.448,0.168,0.833,0.504,1.155c0.322,0.321,0.721,0.482,1.197,0.482c0.447,0,0.847-0.161,1.197-0.482c0.336-0.322,0.504-0.707,0.504-1.155c0-0.462-0.168-0.847-0.504-1.155c-0.322-0.321-0.722-0.482-1.197-0.482C425.559,1509.086,425.16,1509.247,424.852,1509.568z">
      
        </path>
      </g>
    </g>
    <g>
      <rect data-fjh="glanimate" x="355.271" y="1173.667" fill="#24303B" stroke="#24303B" stroke-miterlimit="10" width="172" height="35.334">
      </rect>
      <g>
        
        <path fill="#FFFFFF" stroke="#FFFFFF" stroke-width="0.5" stroke-miterlimit="10" d="M398.881,1189.171c-0.798,1.19-1.631,2.261-2.499,3.213l-0.356-1.218c2.226-2.646,3.85-5.663,4.872-9.051l1.07,0.504c-0.518,1.61-1.162,3.143-1.932,4.599v14.217h-1.155V1189.171z M402.493,1184.509h5.732v-2.268h1.113v2.268h5.901v1.071h-5.901v2.247h5.02v5.732h-5.104c-0.168,2.003-0.553,3.543-1.155,4.62c2.156,1.274,4.69,1.995,7.603,2.163l-0.294,1.071c-3.024-0.196-5.67-0.974-7.938-2.331c-1.092,1.218-2.891,2.016-5.396,2.394l-0.504-1.05c2.323-0.294,3.962-0.959,4.914-1.995c-1.289-0.909-2.45-2.022-3.486-3.339l0.903-0.608c0.951,1.231,2.029,2.261,3.233,3.087c0.546-0.98,0.882-2.317,1.008-4.012h-4.829v-5.732h4.913v-2.247h-5.732V1184.509z M408.205,1192.531l0.021-3.654h-3.843v3.654H408.205z M413.266,1192.531v-3.654h-3.927v3.255l-0.021,0.399H413.266z">
      
        </path>
      
        <path fill="#FFFFFF" stroke="#FFFFFF" stroke-width="0.5" stroke-miterlimit="10" d="M424.711,1194.421c-0.21,2.716-1.001,4.963-2.373,6.741l-0.84-0.777c1.386-1.903,2.101-4.333,2.143-7.287v-9.954h15.33v15.708c0,1.372-0.687,2.059-2.059,2.059h-2.415l-0.294-1.113c0.84,0.042,1.617,0.063,2.331,0.063c0.868,0,1.302-0.477,1.302-1.429v-4.011h-6.152v6.258h-1.135v-6.258H424.711z M424.795,1189.318v3.863l-0.021,0.168h5.774v-4.031H424.795z M430.549,1184.257h-5.754v4.011h5.754V1184.257z M437.836,1188.268v-4.011h-6.152v4.011H437.836z M437.836,1193.35v-4.031h-6.152v4.031H437.836z">
      
        </path>
      
        <path fill="#FFFFFF" stroke="#FFFFFF" stroke-width="0.5" stroke-miterlimit="10" d="M446.656,1188.771h4.326v9.598c0.672-0.56,1.483-1.316,2.436-2.269l0.315,1.219c-1.232,1.231-2.499,2.296-3.801,3.191l-0.441-1.028c0.252-0.253,0.378-0.532,0.378-0.841v-8.757h-3.213V1188.771z M449.029,1182.514c1.4,1.064,2.583,2.143,3.549,3.234l-0.776,0.777c-0.868-1.009-2.065-2.086-3.592-3.234L449.029,1182.514z M454.175,1186.756h5.9c0.91-1.428,1.694-3.003,2.353-4.725l1.112,0.398c-0.658,1.568-1.428,3.011-2.31,4.326h3.087v6.384h-2.919v6.027c0,0.56,0.273,0.84,0.819,0.84h1.406c0.406,0,0.7-0.133,0.883-0.398c0.21-0.364,0.356-1.394,0.44-3.088l1.029,0.337c-0.126,1.974-0.357,3.191-0.693,3.653c-0.294,0.364-0.784,0.546-1.47,0.546h-1.932c-1.051,0-1.575-0.56-1.575-1.68v-6.237h-2.269c-0.21,3.767-1.854,6.518-4.935,8.253l-0.63-0.966c2.842-1.498,4.347-3.927,4.515-7.287h-2.813V1186.756z M455.729,1182.136c0.826,1.078,1.589,2.262,2.289,3.549l-0.966,0.483c-0.729-1.33-1.506-2.506-2.331-3.528L455.729,1182.136z M463.246,1192.09v-4.284h-8.001v4.284H463.246z">
      
        </path>
      
        <path fill="#FFFFFF" stroke="#FFFFFF" stroke-width="0.5" stroke-miterlimit="10" d="M478.849,1183.585v14.133h-4.788v1.743h-1.134v-15.876H478.849z M474.061,1189.99h3.675v-5.313h-3.675V1189.99z M474.061,1196.604h3.675v-5.502h-3.675V1196.604z M482.439,1194.316c-0.252,2.884-1.043,5.257-2.373,7.118l-0.902-0.818c1.428-2.059,2.162-4.676,2.204-7.854v-9.765h8.316v16.464c0,1.147-0.574,1.722-1.722,1.722h-2.793l-0.315-1.092c1.316,0.028,2.227,0.042,2.73,0.042c0.63,0,0.944-0.356,0.944-1.071v-4.745H482.439z M482.523,1189.255v3.696l-0.021,0.272h6.026v-3.969H482.523z M488.529,1188.184v-4.073h-6.006v4.073H488.529z">
      
        </path>
      </g>
    </g>
  </g>
</svg>