<svg version="1.1" xmlns="http://www.w3.org/2000/svg" xmlns:xlink="http://www.w3.org/1999/xlink" x="0px" y="0px" viewBox="0 0 640 1657" enable-background="new 0 0 640 1657" xml:space="preserve">
<g>
    <animate attributeName="opacity" begin="click" dur=".3s" values="1;0" fill="freeze"></animate>
    <path fill="#FFFFFF" d="M595,1487.449c0,54.98-44.556,99.551-99.519,99.551H143.185c-54.962,0-99.519-44.57-99.519-99.551v-391.232c0-54.979,44.556-99.55,99.519-99.55h352.296c54.963,0,99.519,44.57,99.519,99.55V1487.449z">
    </path>
    <g>
      <g>
        <path fill="#24303B" stroke="#24303B" stroke-miterlimit="10" d="M208.756,1289.415c-1.083,2.483-2.324,4.61-3.724,6.384l-1.232-0.867c1.456-1.773,2.679-3.827,3.668-6.16L208.756,1289.415z M215.196,1270.348h1.484v2.939h11.032v1.428H216.68v4.032h8.932v8.597h-18.06v-8.597h7.644V1270.348z M224.128,1285.915v-5.739h-15.064v5.739H224.128z M213.124,1289.556c0.616,2.054,1.129,4.088,1.54,6.104l-1.54,0.364c-0.355-2.334-0.831-4.387-1.428-6.16L213.124,1289.556z M219.004,1289.304c0.858,1.997,1.605,4.097,2.24,6.3l-1.512,0.364c-0.598-2.465-1.307-4.583-2.128-6.356L219.004,1289.304z M224.884,1288.799c1.754,2.315,3.117,4.396,4.088,6.244l-1.232,0.868c-0.971-1.829-2.333-3.938-4.088-6.328L224.884,1288.799z">
        </path>
        <path fill="#24303B" stroke="#24303B" stroke-miterlimit="10" d="M239.864,1274.715h9.352v-4.144h1.568v4.144h9.212v1.429h-9.212v5.151h11.508v1.456h-11.508v10.444h7.112v-7.672h1.428v10.444h-1.428v-1.372h-15.764v1.372h-1.428v-10.444h1.428v7.672h7.084v-10.444h-11.48v-1.456h11.48v-5.151h-9.352V1274.715z">
        </path>
        <path fill="#24303B" stroke="#24303B" stroke-miterlimit="10" d="M276.124,1277.291c-1.158,2.651-2.576,4.816-4.256,6.496l-1.008-1.231c2.726-2.801,4.564-6.617,5.516-11.452l1.54,0.308c-0.317,1.531-0.728,3.006-1.232,4.424h6.664v-5.235h1.484v5.235h9.436v1.456h-9.436v7.028h8.876v1.484h-8.876v7.644h11.228v1.512h-24.528v-1.512h11.816v-7.644h-8.428v-1.484h8.428v-7.028H276.124z">
        </path>
        <path fill="#24303B" stroke="#24303B" stroke-miterlimit="10" d="M327.588,1279.447c-1.139,3.771-2.623,6.944-4.452,9.521c0.429,1.026,0.924,1.95,1.483,2.771c1.009,1.4,1.839,2.1,2.492,2.1c0.616-0.019,1.148-1.521,1.596-4.508l1.373,0.729c-0.616,3.64-1.512,5.46-2.688,5.46c-1.157,0-2.399-0.84-3.724-2.521c-0.579-0.728-1.102-1.624-1.568-2.688c-2.035,2.445-4.415,4.274-7.14,5.487l-0.868-1.287c2.893-1.288,5.338-3.211,7.336-5.769c-0.43-1.101-0.793-2.24-1.092-3.416c-0.579-2.408-0.971-5.422-1.176-9.044h-10.136v5.096h6.86c-0.038,4.462-0.206,7.393-0.504,8.792c-0.318,1.251-1.13,1.904-2.436,1.96c-0.691,0-1.512-0.027-2.464-0.084l-0.476-1.399c1.456,0.074,2.38,0.112,2.772,0.112c0.709-0.057,1.148-0.542,1.316-1.456c0.187-1.251,0.28-3.407,0.28-6.469h-5.348v1.288c-0.075,4.91-1.139,8.849-3.192,11.816l-1.148-1.036c1.829-2.576,2.781-6.169,2.856-10.78v-9.268h11.564c-0.056-1.456-0.084-2.968-0.084-4.536h1.512c0,1.157,0.037,2.67,0.112,4.536h8.876v1.428h-8.82c0.205,3.678,0.579,6.571,1.121,8.68c0.205,0.784,0.429,1.55,0.672,2.297c1.549-2.334,2.79-5.134,3.724-8.4L327.588,1279.447z M323.808,1270.403c1.399,1.064,2.576,2.128,3.528,3.192l-1.008,0.979c-0.878-1.008-2.045-2.09-3.5-3.248L323.808,1270.403z">
        </path>
        <path fill="#24303B" stroke="#24303B" stroke-miterlimit="10" d="M344.443,1283.06c-1.68,0.915-3.5,1.782-5.459,2.604l-0.729-1.315c4.834-1.886,8.838-4.219,12.012-7h1.008c3.547,2.949,7.627,5.264,12.236,6.943l-0.727,1.316c-2.092-0.821-3.949-1.68-5.572-2.576v1.316h-12.77V1283.06z M342.092,1274.295c-0.766,1.4-1.586,2.651-2.463,3.752l-1.289-0.84c1.793-2.128,3.109-4.508,3.949-7.14l1.428,0.308c-0.225,0.729-0.543,1.568-0.953,2.521h7.924v1.399h-4.283c0.615,1.009,1.119,1.96,1.512,2.856l-1.4,0.504c-0.521-1.232-1.092-2.352-1.707-3.36H342.092z M358.949,1287.315v8.568h-1.484v-1.4h-13.328v1.4h-1.484v-8.568H358.949z M344.137,1293.083h13.328v-4.368h-13.328V1293.083z M357.072,1282.947c-2.297-1.25-4.396-2.716-6.301-4.396c-1.717,1.567-3.762,3.033-6.131,4.396H357.072z M353.629,1274.295c-0.523,0.952-1.111,1.82-1.764,2.604l-1.262-0.813c1.475-1.792,2.559-3.789,3.248-5.991l1.457,0.308c-0.242,0.784-0.57,1.615-0.98,2.492h8.736v1.399h-4.9c0.803,1.195,1.418,2.269,1.848,3.221l-1.371,0.531c-0.598-1.325-1.299-2.575-2.1-3.752H353.629z">
        </path>
        <path fill="#24303B" stroke="#24303B" stroke-miterlimit="10" d="M397.279,1293.923l-0.279,1.54h-5.377c-6.701,0-10.9-0.354-12.6-1.063c-1.623-0.69-3.033-1.96-4.227-3.808c-0.506,1.979-1.242,3.77-2.213,5.376l-1.119-1.009c1.586-2.613,2.443-5.553,2.574-8.819l1.346,0.195c-0.057,0.934-0.141,1.812-0.252,2.633c0.84,1.399,1.771,2.474,2.799,3.22v-7.504h-5.711v-1.4h11.76v1.4h-4.705v3.388h4.033v1.4h-4.033v3.5c0.15,0.074,0.373,0.168,0.672,0.279c1.736,0.522,5.525,0.784,11.369,0.784C394.266,1293.998,396.254,1293.961,397.279,1293.923z M373.592,1271.607h9.268v9.492h-9.268V1271.607z M375.076,1275.779h6.271v-2.856h-6.271V1275.779z M381.348,1279.783v-2.8h-6.271v2.8H381.348z M389.775,1278.523h1.457v3.892c-0.057,2.67-0.561,4.816-1.512,6.44c-0.953,1.493-2.492,2.66-4.621,3.5l-0.867-1.288c2.072-0.784,3.518-1.857,4.34-3.22c0.783-1.382,1.186-3.192,1.203-5.433V1278.523z M384.539,1271.663h11.93v1.4h-5.125c-0.094,0.803-0.252,1.671-0.477,2.604h4.76v11.172h-1.428v-9.827h-7.336v9.827h-1.371v-11.172h4.061c0.148-0.746,0.27-1.614,0.363-2.604h-5.377V1271.663z M392.352,1287.092c1.811,1.475,3.285,2.865,4.424,4.172l-1.035,1.063c-1.064-1.288-2.549-2.706-4.453-4.256L392.352,1287.092z">
        </path>
        <path fill="#24303B" stroke="#24303B" stroke-miterlimit="10" d="M415.871,1270.459h1.512v3.725h9.324v1.456h-9.324v4.676h12.965v1.483h-12.965v3.024c3.137,1.475,6.533,3.304,10.193,5.488l-0.869,1.288c-3.732-2.314-6.842-4.069-9.324-5.265v9.576h-1.512v-14.112h-10.248v-1.483h10.248V1270.459z">
        </path>
      </g>
    </g>
  </g>
</svg>