<svg version="1.1" xmlns="http://www.w3.org/2000/svg" xmlns:xlink="http://www.w3.org/1999/xlink" x="0px" y="0px" viewBox="0 0 640 1657" enable-background="new 0 0 640 1657" xml:space="preserve">
<g>
    <rect data-fjh="glanimate" x="117.833" y="1228" fill="none" width="160" height="308.17">
    </rect>
    <path d="M126.933,1231.796v18.564h-1.586v-16.588c-1.196,1.3-2.678,2.21-4.446,2.729v-1.611c0.884-0.261,1.742-0.65,2.574-1.17c0.814-0.537,1.542-1.179,2.184-1.925H126.933z">
    </path>
    <path d="M141.856,1248.124c0.26,0.226,0.39,0.538,0.39,0.937c0,0.347-0.139,0.659-0.416,0.936c-0.278,0.243-0.581,0.364-0.91,0.364c-0.381,0-0.693-0.13-0.936-0.39c-0.26-0.261-0.39-0.563-0.39-0.91c0-0.398,0.13-0.711,0.39-0.937c0.225-0.242,0.537-0.363,0.936-0.363C141.301,1247.761,141.613,1247.882,141.856,1248.124z">
    </path>
    <path d="M168.636,1231.796h1.872l7.436,18.564h-1.742l-2.158-5.538H165.1l-2.158,5.538H161.2L168.636,1231.796z M165.62,1243.471h7.904l-3.9-9.958h-0.078L165.62,1243.471z">
    </path>
    <path d="M209.56,1231.796h8.164c1.699,0,3.033,0.408,4.004,1.223c0.988,0.832,1.482,1.976,1.482,3.432c0,1.058-0.303,1.968-0.91,2.73c-0.59,0.711-1.361,1.213-2.314,1.508c1.213,0.208,2.184,0.702,2.912,1.481c0.71,0.815,1.066,1.838,1.066,3.068c0,1.751-0.633,3.077-1.898,3.979c-1.109,0.763-2.583,1.144-4.42,1.144h-8.086V1231.796z M211.146,1233.175v6.916h6.24c1.317,0,2.349-0.295,3.094-0.885c0.763-0.606,1.144-1.473,1.144-2.6c0-1.145-0.373-2.011-1.118-2.6c-0.728-0.555-1.76-0.832-3.094-0.832H211.146z M211.146,1241.442v7.54h6.448c1.369,0,2.479-0.277,3.328-0.832c0.971-0.676,1.456-1.655,1.456-2.938c0-1.265-0.451-2.218-1.352-2.859c-0.832-0.606-1.985-0.91-3.458-0.91H211.146z">
    </path>
    <path d="M269.75,1233.044c1.438,1.093,2.279,2.549,2.522,4.368h-1.534c-0.226-1.438-0.927-2.557-2.106-3.354c-1.109-0.78-2.427-1.17-3.952-1.17c-2.271,0-4.056,0.806-5.356,2.418c-1.213,1.49-1.82,3.44-1.82,5.85s0.598,4.342,1.794,5.798c1.248,1.543,2.99,2.314,5.226,2.314c1.56,0,2.92-0.425,4.082-1.274c1.23-0.936,2.028-2.262,2.392-3.978h1.534c-0.399,2.149-1.37,3.831-2.912,5.044c-1.456,1.109-3.146,1.664-5.07,1.664c-2.773,0-4.94-0.953-6.5-2.86c-1.421-1.733-2.132-3.969-2.132-6.708c0-2.738,0.728-5,2.184-6.786c1.577-1.958,3.779-2.938,6.604-2.938C266.681,1231.433,268.362,1231.97,269.75,1233.044z">
    </path>
    <path d="M130.001,1267.889c1.092,0.953,1.638,2.235,1.638,3.848c0,1.595-0.616,3.051-1.846,4.368c-0.607,0.642-1.89,1.629-3.848,2.964c-2.635,1.785-4.099,3.397-4.394,4.836h10.114v1.456h-12.064c0-1.595,0.615-3.068,1.846-4.42c0.763-0.866,2.063-1.933,3.9-3.198c1.56-1.109,2.608-1.933,3.146-2.47c1.022-1.109,1.534-2.297,1.534-3.563c0-1.23-0.381-2.184-1.144-2.859c-0.745-0.676-1.759-1.015-3.042-1.015c-1.352,0-2.418,0.451-3.198,1.353c-0.832,0.901-1.248,2.219-1.248,3.952h-1.612c0-2.08,0.572-3.719,1.716-4.914c1.092-1.196,2.548-1.794,4.368-1.794C127.548,1266.433,128.926,1266.918,130.001,1267.889z">
    </path>
    <path d="M141.856,1283.124c0.26,0.226,0.39,0.538,0.39,0.937c0,0.347-0.139,0.659-0.416,0.936c-0.278,0.243-0.581,0.364-0.91,0.364c-0.381,0-0.693-0.13-0.936-0.39c-0.26-0.261-0.39-0.563-0.39-0.91c0-0.398,0.13-0.711,0.39-0.937c0.225-0.242,0.537-0.363,0.936-0.363C141.301,1282.761,141.613,1282.882,141.856,1283.124z">
    </path>
    <path d="M168.636,1266.796h1.872l7.436,18.564h-1.742l-2.158-5.538H165.1l-2.158,5.538H161.2L168.636,1266.796z M165.62,1278.471h7.904l-3.9-9.958h-0.078L165.62,1278.471z">
    </path>
    <path d="M209.56,1266.796h8.164c1.699,0,3.033,0.408,4.004,1.223c0.988,0.832,1.482,1.976,1.482,3.432c0,1.058-0.303,1.968-0.91,2.73c-0.59,0.711-1.361,1.213-2.314,1.508c1.213,0.208,2.184,0.702,2.912,1.481c0.71,0.815,1.066,1.838,1.066,3.068c0,1.751-0.633,3.077-1.898,3.979c-1.109,0.763-2.583,1.144-4.42,1.144h-8.086V1266.796z M211.146,1268.175v6.916h6.24c1.317,0,2.349-0.295,3.094-0.885c0.763-0.606,1.144-1.473,1.144-2.6c0-1.145-0.373-2.011-1.118-2.6c-0.728-0.555-1.76-0.832-3.094-0.832H211.146z M211.146,1276.442v7.54h6.448c1.369,0,2.479-0.277,3.328-0.832c0.971-0.676,1.456-1.655,1.456-2.938c0-1.265-0.451-2.218-1.352-2.859c-0.832-0.606-1.985-0.91-3.458-0.91H211.146z">
    </path>
    <path d="M269.75,1268.044c1.438,1.093,2.279,2.549,2.522,4.368h-1.534c-0.226-1.438-0.927-2.557-2.106-3.354c-1.109-0.78-2.427-1.17-3.952-1.17c-2.271,0-4.056,0.806-5.356,2.418c-1.213,1.49-1.82,3.44-1.82,5.85s0.598,4.342,1.794,5.798c1.248,1.543,2.99,2.314,5.226,2.314c1.56,0,2.92-0.425,4.082-1.274c1.23-0.936,2.028-2.262,2.392-3.978h1.534c-0.399,2.149-1.37,3.831-2.912,5.044c-1.456,1.109-3.146,1.664-5.07,1.664c-2.773,0-4.94-0.953-6.5-2.86c-1.421-1.733-2.132-3.969-2.132-6.708c0-2.738,0.728-5,2.184-6.786c1.577-1.958,3.779-2.938,6.604-2.938C266.681,1266.433,268.362,1266.97,269.75,1268.044z">
    </path>
    <path d="M130.001,1302.784c1.04,0.901,1.56,2.115,1.56,3.641c0,2.132-1.005,3.535-3.016,4.212c1.075,0.329,1.907,0.875,2.496,1.638c0.606,0.763,0.91,1.682,0.91,2.756c0,1.664-0.581,3.033-1.742,4.108c-1.196,1.058-2.704,1.586-4.524,1.586c-1.647,0-3.025-0.434-4.134-1.3c-1.334-1.023-2.08-2.592-2.236-4.706h1.612c0.069,1.577,0.624,2.781,1.664,3.613c0.832,0.677,1.854,1.015,3.068,1.015c1.404,0,2.556-0.407,3.458-1.223c0.832-0.814,1.248-1.828,1.248-3.042c0-1.144-0.399-2.063-1.196-2.756c-0.763-0.658-1.812-0.988-3.146-0.988h-1.638v-1.3h1.482c1.3,0,2.322-0.303,3.068-0.91c0.693-0.641,1.04-1.516,1.04-2.626c0-1.092-0.355-1.976-1.066-2.651c-0.746-0.676-1.777-1.015-3.094-1.015c-1.317,0-2.349,0.373-3.094,1.118c-0.78,0.729-1.248,1.76-1.404,3.095h-1.586c0.156-1.733,0.797-3.111,1.924-4.135c1.075-0.987,2.461-1.481,4.16-1.481C127.548,1301.433,128.943,1301.883,130.001,1302.784z">
    </path>
    <path d="M141.856,1318.124c0.26,0.226,0.39,0.538,0.39,0.937c0,0.347-0.139,0.659-0.416,0.936c-0.278,0.243-0.581,0.364-0.91,0.364c-0.381,0-0.693-0.13-0.936-0.39c-0.26-0.261-0.39-0.563-0.39-0.91c0-0.398,0.13-0.711,0.39-0.937c0.225-0.242,0.537-0.363,0.936-0.363C141.301,1317.761,141.613,1317.882,141.856,1318.124z">
    </path>
    <path d="M168.636,1301.796h1.872l7.436,18.564h-1.742l-2.158-5.538H165.1l-2.158,5.538H161.2L168.636,1301.796z M165.62,1313.471h7.904l-3.9-9.958h-0.078L165.62,1313.471z">
    </path>
    <path d="M209.56,1301.796h8.164c1.699,0,3.033,0.408,4.004,1.223c0.988,0.832,1.482,1.976,1.482,3.432c0,1.058-0.303,1.968-0.91,2.73c-0.59,0.711-1.361,1.213-2.314,1.508c1.213,0.208,2.184,0.702,2.912,1.481c0.71,0.815,1.066,1.838,1.066,3.068c0,1.751-0.633,3.077-1.898,3.979c-1.109,0.763-2.583,1.144-4.42,1.144h-8.086V1301.796z M211.146,1303.175v6.916h6.24c1.317,0,2.349-0.295,3.094-0.885c0.763-0.606,1.144-1.473,1.144-2.6c0-1.145-0.373-2.011-1.118-2.6c-0.728-0.555-1.76-0.832-3.094-0.832H211.146z M211.146,1311.442v7.54h6.448c1.369,0,2.479-0.277,3.328-0.832c0.971-0.676,1.456-1.655,1.456-2.938c0-1.265-0.451-2.218-1.352-2.859c-0.832-0.606-1.985-0.91-3.458-0.91H211.146z">
    </path>
    <path d="M269.75,1303.044c1.438,1.093,2.279,2.549,2.522,4.368h-1.534c-0.226-1.438-0.927-2.557-2.106-3.354c-1.109-0.78-2.427-1.17-3.952-1.17c-2.271,0-4.056,0.806-5.356,2.418c-1.213,1.49-1.82,3.44-1.82,5.85s0.598,4.342,1.794,5.798c1.248,1.543,2.99,2.314,5.226,2.314c1.56,0,2.92-0.425,4.082-1.274c1.23-0.936,2.028-2.262,2.392-3.978h1.534c-0.399,2.149-1.37,3.831-2.912,5.044c-1.456,1.109-3.146,1.664-5.07,1.664c-2.773,0-4.94-0.953-6.5-2.86c-1.421-1.733-2.132-3.969-2.132-6.708c0-2.738,0.728-5,2.184-6.786c1.577-1.958,3.779-2.938,6.604-2.938C266.681,1301.433,268.362,1301.97,269.75,1303.044z">
    </path>
    <path d="M128.077,1336.796h1.534v12.896h3.146v1.326h-3.146v4.342h-1.534v-4.342h-9.568v-1.534L128.077,1336.796z M127.999,1338.954l-8.06,10.738h8.138v-10.738H127.999z">
    </path>
    <path d="M141.856,1353.124c0.26,0.226,0.39,0.538,0.39,0.937c0,0.347-0.139,0.659-0.416,0.936c-0.278,0.243-0.581,0.364-0.91,0.364c-0.381,0-0.693-0.13-0.936-0.39c-0.26-0.261-0.39-0.563-0.39-0.91c0-0.398,0.13-0.711,0.39-0.937c0.225-0.242,0.537-0.363,0.936-0.363C141.301,1352.761,141.613,1352.882,141.856,1353.124z">
    </path>
    <path d="M168.636,1336.796h1.872l7.436,18.564h-1.742l-2.158-5.538H165.1l-2.158,5.538H161.2L168.636,1336.796z M165.62,1348.471h7.904l-3.9-9.958h-0.078L165.62,1348.471z">
    </path>
    <path d="M209.56,1336.796h8.164c1.699,0,3.033,0.408,4.004,1.223c0.988,0.832,1.482,1.976,1.482,3.432c0,1.058-0.303,1.968-0.91,2.73c-0.59,0.711-1.361,1.213-2.314,1.508c1.213,0.208,2.184,0.702,2.912,1.481c0.71,0.815,1.066,1.838,1.066,3.068c0,1.751-0.633,3.077-1.898,3.979c-1.109,0.763-2.583,1.144-4.42,1.144h-8.086V1336.796z M211.146,1338.175v6.916h6.24c1.317,0,2.349-0.295,3.094-0.885c0.763-0.606,1.144-1.473,1.144-2.6c0-1.145-0.373-2.011-1.118-2.6c-0.728-0.555-1.76-0.832-3.094-0.832H211.146z M211.146,1346.442v7.54h6.448c1.369,0,2.479-0.277,3.328-0.832c0.971-0.676,1.456-1.655,1.456-2.938c0-1.265-0.451-2.218-1.352-2.859c-0.832-0.606-1.985-0.91-3.458-0.91H211.146z">
    </path>
    <path d="M269.75,1338.044c1.438,1.093,2.279,2.549,2.522,4.368h-1.534c-0.226-1.438-0.927-2.557-2.106-3.354c-1.109-0.78-2.427-1.17-3.952-1.17c-2.271,0-4.056,0.806-5.356,2.418c-1.213,1.49-1.82,3.44-1.82,5.85s0.598,4.342,1.794,5.798c1.248,1.543,2.99,2.314,5.226,2.314c1.56,0,2.92-0.425,4.082-1.274c1.23-0.936,2.028-2.262,2.392-3.978h1.534c-0.399,2.149-1.37,3.831-2.912,5.044c-1.456,1.109-3.146,1.664-5.07,1.664c-2.773,0-4.94-0.953-6.5-2.86c-1.421-1.733-2.132-3.969-2.132-6.708c0-2.738,0.728-5,2.184-6.786c1.577-1.958,3.779-2.938,6.604-2.938C266.681,1336.433,268.362,1336.97,269.75,1338.044z">
    </path>
    <path d="M120.745,1371.796h10.504v1.456h-9.178l-0.65,6.839h0.078c0.555-0.659,1.239-1.153,2.054-1.482c0.728-0.329,1.534-0.494,2.418-0.494c1.768,0,3.198,0.546,4.29,1.638c1.126,1.162,1.69,2.73,1.69,4.706c0,1.82-0.633,3.337-1.898,4.551c-1.214,1.144-2.73,1.716-4.55,1.716c-1.595,0-2.956-0.442-4.082-1.326c-1.265-0.953-1.967-2.271-2.106-3.952h1.586c0.139,1.266,0.659,2.245,1.56,2.938c0.832,0.641,1.846,0.962,3.042,0.962c1.404,0,2.565-0.459,3.484-1.378c0.919-0.953,1.378-2.123,1.378-3.511c0-1.577-0.434-2.816-1.3-3.718c-0.832-0.849-1.967-1.273-3.406-1.273c-0.936,0-1.786,0.208-2.548,0.624c-0.78,0.433-1.378,1.049-1.794,1.846h-1.508L120.745,1371.796z">
    </path>
    <path d="M141.856,1388.124c0.26,0.226,0.39,0.538,0.39,0.937c0,0.347-0.139,0.659-0.416,0.936c-0.278,0.243-0.581,0.364-0.91,0.364c-0.381,0-0.693-0.13-0.936-0.39c-0.26-0.261-0.39-0.563-0.39-0.91c0-0.398,0.13-0.711,0.39-0.937c0.225-0.242,0.537-0.363,0.936-0.363C141.301,1387.761,141.613,1387.882,141.856,1388.124z">
    </path>
    <path d="M168.636,1371.796h1.872l7.436,18.564h-1.742l-2.158-5.538H165.1l-2.158,5.538H161.2L168.636,1371.796z M165.62,1383.471h7.904l-3.9-9.958h-0.078L165.62,1383.471z">
    </path>
    <path d="M209.56,1371.796h8.164c1.699,0,3.033,0.408,4.004,1.223c0.988,0.832,1.482,1.976,1.482,3.432c0,1.058-0.303,1.968-0.91,2.73c-0.59,0.711-1.361,1.213-2.314,1.508c1.213,0.208,2.184,0.702,2.912,1.481c0.71,0.815,1.066,1.838,1.066,3.068c0,1.751-0.633,3.077-1.898,3.979c-1.109,0.763-2.583,1.144-4.42,1.144h-8.086V1371.796z M211.146,1373.175v6.916h6.24c1.317,0,2.349-0.295,3.094-0.885c0.763-0.606,1.144-1.473,1.144-2.6c0-1.145-0.373-2.011-1.118-2.6c-0.728-0.555-1.76-0.832-3.094-0.832H211.146z M211.146,1381.442v7.54h6.448c1.369,0,2.479-0.277,3.328-0.832c0.971-0.676,1.456-1.655,1.456-2.938c0-1.265-0.451-2.218-1.352-2.859c-0.832-0.606-1.985-0.91-3.458-0.91H211.146z">
    </path>
    <path d="M269.75,1373.044c1.438,1.093,2.279,2.549,2.522,4.368h-1.534c-0.226-1.438-0.927-2.557-2.106-3.354c-1.109-0.78-2.427-1.17-3.952-1.17c-2.271,0-4.056,0.806-5.356,2.418c-1.213,1.49-1.82,3.44-1.82,5.85s0.598,4.342,1.794,5.798c1.248,1.543,2.99,2.314,5.226,2.314c1.56,0,2.92-0.425,4.082-1.274c1.23-0.936,2.028-2.262,2.392-3.978h1.534c-0.399,2.149-1.37,3.831-2.912,5.044c-1.456,1.109-3.146,1.664-5.07,1.664c-2.773,0-4.94-0.953-6.5-2.86c-1.421-1.733-2.132-3.969-2.132-6.708c0-2.738,0.728-5,2.184-6.786c1.577-1.958,3.779-2.938,6.604-2.938C266.681,1371.433,268.362,1371.97,269.75,1373.044z">
    </path>
    <path d="M131.665,1411.32h-1.586c-0.434-2.34-1.829-3.51-4.186-3.51c-1.595,0-2.834,0.789-3.718,2.366c-0.867,1.473-1.3,3.389-1.3,5.745v0.91h0.104c0.416-1.092,1.092-1.949,2.028-2.573c0.884-0.624,1.924-0.937,3.12-0.937c1.768,0,3.181,0.563,4.238,1.69c1.074,1.127,1.612,2.591,1.612,4.394c0,1.82-0.572,3.328-1.716,4.524c-1.144,1.195-2.6,1.794-4.368,1.794c-2.253,0-3.943-0.858-5.07-2.574c-1.006-1.543-1.508-3.744-1.508-6.604c0-2.929,0.555-5.313,1.664-7.149c1.196-1.977,2.843-2.964,4.94-2.964C129.229,1406.433,131.145,1408.062,131.665,1411.32z M122.591,1416.053c-0.901,0.884-1.352,2.011-1.352,3.38s0.399,2.514,1.196,3.432c0.867,0.988,2.002,1.482,3.406,1.482c1.369,0,2.47-0.469,3.302-1.404s1.248-2.114,1.248-3.536c0-1.421-0.408-2.565-1.222-3.432c-0.815-0.867-1.916-1.3-3.302-1.3C124.549,1414.675,123.458,1415.134,122.591,1416.053z">
    </path>
    <path d="M141.856,1423.124c0.26,0.226,0.39,0.538,0.39,0.937c0,0.347-0.139,0.659-0.416,0.936c-0.278,0.243-0.581,0.364-0.91,0.364c-0.381,0-0.693-0.13-0.936-0.39c-0.26-0.261-0.39-0.563-0.39-0.91c0-0.398,0.13-0.711,0.39-0.937c0.225-0.242,0.537-0.363,0.936-0.363C141.301,1422.761,141.613,1422.882,141.856,1423.124z">
    </path>
    <path d="M168.636,1406.796h1.872l7.436,18.564h-1.742l-2.158-5.538H165.1l-2.158,5.538H161.2L168.636,1406.796z M165.62,1418.471h7.904l-3.9-9.958h-0.078L165.62,1418.471z">
    </path>
    <path d="M209.56,1406.796h8.164c1.699,0,3.033,0.408,4.004,1.223c0.988,0.832,1.482,1.976,1.482,3.432c0,1.058-0.303,1.968-0.91,2.73c-0.59,0.711-1.361,1.213-2.314,1.508c1.213,0.208,2.184,0.702,2.912,1.481c0.71,0.815,1.066,1.838,1.066,3.068c0,1.751-0.633,3.077-1.898,3.979c-1.109,0.763-2.583,1.144-4.42,1.144h-8.086V1406.796z M211.146,1408.175v6.916h6.24c1.317,0,2.349-0.295,3.094-0.885c0.763-0.606,1.144-1.473,1.144-2.6c0-1.145-0.373-2.011-1.118-2.6c-0.728-0.555-1.76-0.832-3.094-0.832H211.146z M211.146,1416.442v7.54h6.448c1.369,0,2.479-0.277,3.328-0.832c0.971-0.676,1.456-1.655,1.456-2.938c0-1.265-0.451-2.218-1.352-2.859c-0.832-0.606-1.985-0.91-3.458-0.91H211.146z">
    </path>
    <path d="M269.75,1408.044c1.438,1.093,2.279,2.549,2.522,4.368h-1.534c-0.226-1.438-0.927-2.557-2.106-3.354c-1.109-0.78-2.427-1.17-3.952-1.17c-2.271,0-4.056,0.806-5.356,2.418c-1.213,1.49-1.82,3.44-1.82,5.85s0.598,4.342,1.794,5.798c1.248,1.543,2.99,2.314,5.226,2.314c1.56,0,2.92-0.425,4.082-1.274c1.23-0.936,2.028-2.262,2.392-3.978h1.534c-0.399,2.149-1.37,3.831-2.912,5.044c-1.456,1.109-3.146,1.664-5.07,1.664c-2.773,0-4.94-0.953-6.5-2.86c-1.421-1.733-2.132-3.969-2.132-6.708c0-2.738,0.728-5,2.184-6.786c1.577-1.958,3.779-2.938,6.604-2.938C266.681,1406.433,268.362,1406.97,269.75,1408.044z">
    </path>
    <path d="M119.653,1441.796h11.986v1.326l-7.02,17.238h-1.742l7.098-17.082h-10.322V1441.796z">
    </path>
    <path d="M141.856,1458.124c0.26,0.226,0.39,0.538,0.39,0.937c0,0.347-0.139,0.659-0.416,0.936c-0.278,0.243-0.581,0.364-0.91,0.364c-0.381,0-0.693-0.13-0.936-0.39c-0.26-0.261-0.39-0.563-0.39-0.91c0-0.398,0.13-0.711,0.39-0.937c0.225-0.242,0.537-0.363,0.936-0.363C141.301,1457.761,141.613,1457.882,141.856,1458.124z">
    </path>
    <path d="M168.636,1441.796h1.872l7.436,18.564h-1.742l-2.158-5.538H165.1l-2.158,5.538H161.2L168.636,1441.796z M165.62,1453.471h7.904l-3.9-9.958h-0.078L165.62,1453.471z">
    </path>
    <path d="M209.56,1441.796h8.164c1.699,0,3.033,0.408,4.004,1.223c0.988,0.832,1.482,1.976,1.482,3.432c0,1.058-0.303,1.968-0.91,2.73c-0.59,0.711-1.361,1.213-2.314,1.508c1.213,0.208,2.184,0.702,2.912,1.481c0.71,0.815,1.066,1.838,1.066,3.068c0,1.751-0.633,3.077-1.898,3.979c-1.109,0.763-2.583,1.144-4.42,1.144h-8.086V1441.796z M211.146,1443.175v6.916h6.24c1.317,0,2.349-0.295,3.094-0.885c0.763-0.606,1.144-1.473,1.144-2.6c0-1.145-0.373-2.011-1.118-2.6c-0.728-0.555-1.76-0.832-3.094-0.832H211.146z M211.146,1451.442v7.54h6.448c1.369,0,2.479-0.277,3.328-0.832c0.971-0.676,1.456-1.655,1.456-2.938c0-1.265-0.451-2.218-1.352-2.859c-0.832-0.606-1.985-0.91-3.458-0.91H211.146z">
    </path>
    <path d="M269.75,1443.044c1.438,1.093,2.279,2.549,2.522,4.368h-1.534c-0.226-1.438-0.927-2.557-2.106-3.354c-1.109-0.78-2.427-1.17-3.952-1.17c-2.271,0-4.056,0.806-5.356,2.418c-1.213,1.49-1.82,3.44-1.82,5.85s0.598,4.342,1.794,5.798c1.248,1.543,2.99,2.314,5.226,2.314c1.56,0,2.92-0.425,4.082-1.274c1.23-0.936,2.028-2.262,2.392-3.978h1.534c-0.399,2.149-1.37,3.831-2.912,5.044c-1.456,1.109-3.146,1.664-5.07,1.664c-2.773,0-4.94-0.953-6.5-2.86c-1.421-1.733-2.132-3.969-2.132-6.708c0-2.738,0.728-5,2.184-6.786c1.577-1.958,3.779-2.938,6.604-2.938C266.681,1441.433,268.362,1441.97,269.75,1443.044z">
    </path>
    <path d="M130.079,1477.914c0.97,0.885,1.456,1.994,1.456,3.328c0,0.971-0.251,1.829-0.754,2.574c-0.538,0.745-1.3,1.274-2.288,1.586v0.104c1.005,0.207,1.872,0.754,2.6,1.638c0.728,0.884,1.092,1.933,1.092,3.146c0,1.596-0.555,2.896-1.664,3.9c-1.162,1.022-2.791,1.534-4.888,1.534s-3.727-0.512-4.888-1.534c-1.109-0.988-1.664-2.288-1.664-3.9c0-1.213,0.364-2.262,1.092-3.146c0.693-0.884,1.569-1.431,2.626-1.638v-0.104c-1.005-0.312-1.777-0.841-2.314-1.586c-0.503-0.711-0.754-1.568-0.754-2.574c0-1.352,0.485-2.461,1.456-3.328c1.04-0.987,2.522-1.481,4.446-1.481C127.54,1476.433,129.021,1476.927,130.079,1477.914z M121.889,1487.378c-0.832,0.729-1.248,1.699-1.248,2.912c0,1.231,0.407,2.202,1.222,2.912c0.884,0.798,2.141,1.196,3.77,1.196s2.895-0.398,3.796-1.196c0.797-0.745,1.196-1.716,1.196-2.912c0-1.213-0.416-2.184-1.248-2.912c-0.867-0.814-2.115-1.222-3.744-1.222S122.755,1486.563,121.889,1487.378z M122.279,1478.876c-0.676,0.624-1.014,1.431-1.014,2.418c0,1.023,0.312,1.847,0.936,2.471c0.762,0.728,1.906,1.092,3.432,1.092c1.508,0,2.652-0.364,3.432-1.092c0.624-0.624,0.936-1.447,0.936-2.471c0-0.987-0.338-1.794-1.014-2.418c-0.797-0.728-1.915-1.092-3.354-1.092C124.177,1477.784,123.059,1478.148,122.279,1478.876z">
    </path>
    <path d="M141.856,1493.124c0.26,0.226,0.39,0.538,0.39,0.937c0,0.347-0.139,0.659-0.416,0.936c-0.278,0.243-0.581,0.364-0.91,0.364c-0.381,0-0.693-0.13-0.936-0.39c-0.26-0.261-0.39-0.563-0.39-0.91c0-0.398,0.13-0.711,0.39-0.937c0.225-0.242,0.537-0.363,0.936-0.363C141.301,1492.761,141.613,1492.882,141.856,1493.124z">
    </path>
    <path d="M168.636,1476.796h1.872l7.436,18.564h-1.742l-2.158-5.538H165.1l-2.158,5.538H161.2L168.636,1476.796z M165.62,1488.471h7.904l-3.9-9.958h-0.078L165.62,1488.471z">
    </path>
    <path d="M209.56,1476.796h8.164c1.699,0,3.033,0.408,4.004,1.223c0.988,0.832,1.482,1.976,1.482,3.432c0,1.058-0.303,1.968-0.91,2.73c-0.59,0.711-1.361,1.213-2.314,1.508c1.213,0.208,2.184,0.702,2.912,1.481c0.71,0.815,1.066,1.838,1.066,3.068c0,1.751-0.633,3.077-1.898,3.979c-1.109,0.763-2.583,1.144-4.42,1.144h-8.086V1476.796z M211.146,1478.175v6.916h6.24c1.317,0,2.349-0.295,3.094-0.885c0.763-0.606,1.144-1.473,1.144-2.6c0-1.145-0.373-2.011-1.118-2.6c-0.728-0.555-1.76-0.832-3.094-0.832H211.146z M211.146,1486.442v7.54h6.448c1.369,0,2.479-0.277,3.328-0.832c0.971-0.676,1.456-1.655,1.456-2.938c0-1.265-0.451-2.218-1.352-2.859c-0.832-0.606-1.985-0.91-3.458-0.91H211.146z">
    </path>
    <path d="M269.75,1478.044c1.438,1.093,2.279,2.549,2.522,4.368h-1.534c-0.226-1.438-0.927-2.557-2.106-3.354c-1.109-0.78-2.427-1.17-3.952-1.17c-2.271,0-4.056,0.806-5.356,2.418c-1.213,1.49-1.82,3.44-1.82,5.85s0.598,4.342,1.794,5.798c1.248,1.543,2.99,2.314,5.226,2.314c1.56,0,2.92-0.425,4.082-1.274c1.23-0.936,2.028-2.262,2.392-3.978h1.534c-0.399,2.149-1.37,3.831-2.912,5.044c-1.456,1.109-3.146,1.664-5.07,1.664c-2.773,0-4.94-0.953-6.5-2.86c-1.421-1.733-2.132-3.969-2.132-6.708c0-2.738,0.728-5,2.184-6.786c1.577-1.958,3.779-2.938,6.604-2.938C266.681,1476.433,268.362,1476.97,269.75,1478.044z">
    </path>
    <path d="M130.443,1513.98c1.022,1.577,1.534,3.787,1.534,6.63c0,2.86-0.555,5.243-1.664,7.15c-1.196,1.976-2.843,2.964-4.94,2.964c-3.311,0-5.226-1.629-5.746-4.889h1.586c0.416,2.341,1.811,3.511,4.186,3.511c1.56,0,2.799-0.789,3.718-2.366c0.866-1.525,1.3-3.44,1.3-5.746v-0.91h-0.104c-0.434,1.058-1.109,1.916-2.028,2.574c-0.902,0.624-1.941,0.936-3.12,0.936c-1.768,0-3.189-0.571-4.264-1.716c-1.057-1.108-1.586-2.564-1.586-4.368c0-1.819,0.572-3.328,1.716-4.523c1.144-1.196,2.6-1.794,4.368-1.794C127.652,1511.433,129.333,1512.282,130.443,1513.98z M122.149,1514.214c-0.832,0.937-1.248,2.115-1.248,3.536c0,1.422,0.407,2.565,1.222,3.433c0.832,0.866,1.933,1.3,3.302,1.3c1.265,0,2.357-0.459,3.276-1.378c0.901-0.937,1.352-2.063,1.352-3.38c0-1.335-0.399-2.479-1.196-3.433c-0.884-0.987-2.02-1.481-3.406-1.481C124.082,1512.811,122.981,1513.278,122.149,1514.214z">
    </path>
    <path d="M141.856,1528.124c0.26,0.226,0.39,0.538,0.39,0.937c0,0.347-0.139,0.659-0.416,0.936c-0.278,0.243-0.581,0.364-0.91,0.364c-0.381,0-0.693-0.13-0.936-0.39c-0.26-0.261-0.39-0.563-0.39-0.91c0-0.398,0.13-0.711,0.39-0.937c0.225-0.242,0.537-0.363,0.936-0.363C141.301,1527.761,141.613,1527.882,141.856,1528.124z">
    </path>
    <path d="M168.636,1511.796h1.872l7.436,18.564h-1.742l-2.158-5.538H165.1l-2.158,5.538H161.2L168.636,1511.796z M165.62,1523.471h7.904l-3.9-9.958h-0.078L165.62,1523.471z">
    </path>
    <path d="M209.56,1511.796h8.164c1.699,0,3.033,0.408,4.004,1.223c0.988,0.832,1.482,1.976,1.482,3.432c0,1.058-0.303,1.968-0.91,2.73c-0.59,0.711-1.361,1.213-2.314,1.508c1.213,0.208,2.184,0.702,2.912,1.481c0.71,0.815,1.066,1.838,1.066,3.068c0,1.751-0.633,3.077-1.898,3.979c-1.109,0.763-2.583,1.144-4.42,1.144h-8.086V1511.796z M211.146,1513.175v6.916h6.24c1.317,0,2.349-0.295,3.094-0.885c0.763-0.606,1.144-1.473,1.144-2.6c0-1.145-0.373-2.011-1.118-2.6c-0.728-0.555-1.76-0.832-3.094-0.832H211.146z M211.146,1521.442v7.54h6.448c1.369,0,2.479-0.277,3.328-0.832c0.971-0.676,1.456-1.655,1.456-2.938c0-1.265-0.451-2.218-1.352-2.859c-0.832-0.606-1.985-0.91-3.458-0.91H211.146z">
    </path>
    <path d="M269.75,1513.044c1.438,1.093,2.279,2.549,2.522,4.368h-1.534c-0.226-1.438-0.927-2.557-2.106-3.354c-1.109-0.78-2.427-1.17-3.952-1.17c-2.271,0-4.056,0.806-5.356,2.418c-1.213,1.49-1.82,3.44-1.82,5.85s0.598,4.342,1.794,5.798c1.248,1.543,2.99,2.314,5.226,2.314c1.56,0,2.92-0.425,4.082-1.274c1.23-0.936,2.028-2.262,2.392-3.978h1.534c-0.399,2.149-1.37,3.831-2.912,5.044c-1.456,1.109-3.146,1.664-5.07,1.664c-2.773,0-4.94-0.953-6.5-2.86c-1.421-1.733-2.132-3.969-2.132-6.708c0-2.738,0.728-5,2.184-6.786c1.577-1.958,3.779-2.938,6.604-2.938C266.681,1511.433,268.362,1511.97,269.75,1513.044z">
    </path>
  </g>
</svg>